<?xml version="1.0" encoding="UTF-8" standalone="no"?>
<svg width="500px" height="501px" viewBox="0 0 500 501" version="1.1" xmlns="http://www.w3.org/2000/svg" xmlns:xlink="http://www.w3.org/1999/xlink" xmlns:sketch="http://www.bohemiancoding.com/sketch/ns">
    <!-- Generator: Sketch 3.3 (11970) - http://www.bohemiancoding.com/sketch -->
    <title>Air Balloon</title>
    <desc>Created with Sketch.</desc>
    <defs></defs>
    <g id="Page-1" stroke="none" stroke-width="1" fill="none" fill-rule="evenodd" sketch:type="MSPage">
        <g id="Row-1" sketch:type="MSLayerGroup" transform="translate(-1278.000000, -78.750000)">
            <g id="Air-Balloon" transform="translate(1278.000000, 79.000000)" sketch:type="MSShapeGroup">
                <path d="M250,500 C388.071187,500 500,388.071187 500,250 C500,111.928813 388.071187,0 250,0 C111.928813,0 0,111.928813 0,250 C0,388.071187 111.928813,500 250,500 Z" fill="#62BCD4"></path>
                <path d="M347.244632,267.024117 C342.558582,267.027448 337.328563,266.519033 331.375105,265.947133 L331.375105,265.947133 L315.222329,350.395761 C319.18783,350.265227 322.961339,350.113647 326.219175,350.034223 L347.244617,267.024117 Z M355.778214,266.238244 C365.414294,264.186641 372.636994,257.58605 379.859694,240.408637 C387.144271,223.084063 394.575234,182.86046 383.743611,149.29069 C372.911987,115.72092 330.639025,101.333876 304.581771,101.333876 C279.367803,101.333876 234.680842,115.720216 223.926854,158.879236 C222.316174,165.343384 221.315991,171.5046 220.796519,177.353991 L220.796519,177.353991 C215.479911,174.760351 209.256346,173.269097 202.604259,173.269097 C186.581236,173.269097 173.044477,181.921259 168.680208,193.791053 C166.585771,192.931695 164.250038,192.451823 161.787017,192.451823 C152.76317,192.451823 145.447896,198.893122 145.447896,206.838867 C145.331303,206.838867 145.218055,206.838867 145.108196,206.838867 C128.200461,206.838867 129.200461,230.817274 145.108196,230.817275 C155.704493,230.817275 195.270043,230.817275 228.871399,230.817275 L228.871399,230.817275 C231.132732,236.748435 233.321019,241.559022 234.680842,245.197277 C239.792361,258.873328 244.90388,263.882158 254.057235,265.37333 L254.057241,265.373331 L279.195697,349.961374 C276.720039,349.982181 274.962282,350.159552 274.176438,350.631182 C270.396501,352.899743 270.011564,350.495944 270.011564,373.65896 C270.011564,396.821976 290.835935,398.652876 303.330558,398.652876 C311.551067,398.652876 340.814423,400.06757 340.814424,373.65896 C340.814425,347.25035 340.208128,352.67859 336.649551,350.631182 C335.867439,350.181199 333.800727,350.007276 330.890552,349.982394 L355.778214,266.238244 Z M323.16897,265.200727 C317.58084,264.742918 311.421127,264.379064 304.581771,264.379064 C299.490732,264.379064 294.816261,264.485211 290.514534,264.641671 L290.514534,264.641671 L301.912886,350.626259 C302.383405,350.629491 302.856067,350.63119 303.330557,350.631182 C305.450643,350.631149 307.605247,350.600066 309.747287,350.55149 L323.16897,265.200727 L323.16897,265.200727 Z M282.517678,264.99877 C274.979602,265.389179 268.77298,265.832558 263.564102,265.903741 L284.885489,350.082264 C288.262366,350.209863 292.216074,350.407191 296.475435,350.527247 L282.517678,264.99877 L282.517678,264.99877 Z M118.751033,272.054742 C118.751033,267.065032 123.349841,263.020073 129.022758,263.020073 C130.571156,263.020073 132.039534,263.32142 133.356219,263.861073 L133.356219,263.861073 C136.099853,256.407167 144.609849,250.973846 154.682855,250.973846 C163.561408,250.973846 171.225655,255.195004 174.797238,261.300355 L174.797238,261.300355 C176.343679,260.480291 178.155791,260.008516 180.093181,260.008516 C184.585371,260.008516 188.404038,262.544915 189.799027,266.078332 C189.947971,266.069774 190.098221,266.065428 190.249626,266.065428 C194.010348,266.065428 197.059016,268.746935 197.059016,272.054742 C198.696167,272.054742 200.015526,272.054742 200.949717,272.054742 C211.636908,272.054742 211.636908,287.112525 202.352333,287.112526 C193.067757,287.112526 129.795325,287.112526 118.537478,287.112526 C108.536949,287.112525 107.90829,272.054742 118.537478,272.054742 C118.606542,272.054742 118.677736,272.054742 118.751033,272.054742 L118.751033,272.054742 Z M264.368053,230.817275 C266.851296,246.924201 268.156815,259.591362 263.178932,259.591362 C256.924827,259.591362 247.841609,249.791156 242.102717,230.817275 C250.521342,230.817275 258.168689,230.817275 264.368053,230.817275 L264.368053,230.817275 Z M259.404154,197.303329 C258.836581,192.147531 258.477011,187.241932 258.477011,182.86046 C258.477011,155.051712 279.152436,120.516601 269.369759,120.516601 C259.679079,120.516601 237.12098,144.046139 236.69756,188.774386 L236.69756,188.774386 C238.643445,188.054167 240.78103,187.656141 243.024192,187.656141 C250.169871,187.656141 256.244184,191.695169 258.463178,197.321876 C258.700101,197.308247 258.939103,197.301326 259.179941,197.301326 C259.254858,197.301326 259.329599,197.301996 259.404154,197.303329 L259.404154,197.303329 Z M306.384306,259.591362 C316.166984,259.591362 323.833497,205.873525 323.833497,178.064778 C323.833497,150.256031 316.166983,110.925238 306.384306,110.925238 C296.601629,110.925238 285.70888,147.854554 285.70888,175.663301 C285.70888,203.472048 296.601628,259.591362 306.384306,259.591362 Z M344.140597,259.591362 C334.357918,259.591362 348.842518,210.669206 348.842518,182.860459 C348.842518,155.051712 328.167093,120.516601 337.94977,120.516601 C347.732447,120.516601 370.628013,144.495008 370.628013,190.053981 C370.628013,235.612955 353.923275,259.591362 344.140597,259.591362 Z" fill="#FFFFFF"></path>
            </g>
        </g>
    </g>
</svg>