<?xml version="1.0" encoding="UTF-8" standalone="no"?>
<svg width="500px" height="499px" viewBox="0 0 500 499" version="1.1" xmlns="http://www.w3.org/2000/svg" xmlns:xlink="http://www.w3.org/1999/xlink" xmlns:sketch="http://www.bohemiancoding.com/sketch/ns">
    <!-- Generator: Sketch 3.3 (11970) - http://www.bohemiancoding.com/sketch -->
    <title>Angel</title>
    <desc>Created with Sketch.</desc>
    <defs></defs>
    <g id="Page-1" stroke="none" stroke-width="1" fill="none" fill-rule="evenodd" sketch:type="MSPage">
        <g id="Row-5" sketch:type="MSLayerGroup" transform="translate(-1200.000000, 0.000000)">
            <g id="Angel" transform="translate(1200.000000, 0.000000)" sketch:type="MSShapeGroup">
                <path d="M250,499.001996 C388.071187,499.001996 500,387.296594 500,249.500998 C500,111.705402 388.071187,0 250,0 C111.928813,0 0,111.705402 0,249.500998 C0,387.296594 111.928813,499.001996 250,499.001996 Z" fill="#62BCD4"></path>
                <path d="M324.775907,253.307122 C326.133153,247.946919 325.662912,243.113829 321.692743,240.505873 C315.590652,236.497482 302.504771,231.54764 291.033497,230.604746 C287.240641,230.292988 283.624298,230.131103 280.495269,229.937253 C292.24141,221.237914 299.759177,207.890707 299.759177,192.925933 C299.759177,190.531304 299.602797,188.147828 299.293616,185.793452 C302.645896,183.41174 306.468416,181.589903 310.791954,180.500316 C347.2623,171.309321 373.601994,201.180055 354.016068,232.7741 C342.193455,251.845149 367.019097,292.359482 358.743705,303.429867 C353.521311,310.416112 328.118345,292.058411 309.667041,277.308032 L309.667041,277.308032 C311.562945,275.910833 314.067219,273.182531 316.52157,269.791487 C317.129608,270.058805 317.654728,270.339427 318.085948,270.634008 C322.23709,273.469794 320.785948,280.171459 324.861027,280.17553 C328.936107,280.179601 329.568194,278.250781 331.33708,277.778628 C333.839392,277.110707 336.051192,280.293436 338.471522,280.842062 C343.429903,281.965996 348.200862,281.310598 350.694725,278.816735 C357.30144,272.210019 352.718016,264.555993 343.541963,257.415444 C334.36591,250.274896 328.404707,256.526718 327.23961,255.361621 C326.534333,254.656344 325.702724,253.970393 324.775907,253.307122 Z M142.368782,275.78114 C139.103699,287.828249 136.267142,298.522264 139.935698,303.429867 C144.901892,310.073379 168.117181,293.798606 186.249812,279.501539 L186.249812,279.501539 C184.207249,277.769919 182.280169,275.588507 180.537932,273.142514 C179.549713,273.513334 178.725792,273.911571 178.099773,274.339226 C173.948631,277.175012 175.399773,283.876677 171.324694,283.880748 C167.249614,283.884819 166.617527,281.955999 164.848641,281.483846 C162.346329,280.815925 160.134529,283.998654 157.714199,284.547279 C152.755818,285.671214 147.984859,285.015816 145.490996,282.521953 C143.337328,280.368284 142.37277,278.103325 142.368782,275.78114 L142.368782,275.78114 Z M143.705457,270.81697 C147.367923,257.002458 150.534213,242.244407 144.663336,232.7741 C125.077409,201.180055 151.417104,171.309321 187.88745,180.500316 C191.368787,181.377658 194.525286,182.729758 197.373015,184.466627 C196.93738,187.25057 196.716559,190.080377 196.716559,192.925933 C196.716559,208.47039 204.828031,222.269536 217.364325,230.927101 C214.382644,231.153991 211.058844,231.468423 207.606278,232.011287 C192.309791,234.416431 174.485744,239.393548 172.688497,243.470048 C171.327575,246.556879 171.469296,251.151809 172.697268,256.142984 C171.245988,257.070588 169.964379,258.04857 168.946111,259.066838 C167.781014,260.231935 161.819811,253.980113 152.643758,261.120662 C148.562014,264.296961 145.389014,267.574862 143.705452,270.816988 L143.705457,270.81697 Z M272.274222,348.502638 C263.878164,349.365697 255.040571,349.833292 246.25946,349.728767 C240.10404,349.655496 233.975281,349.285233 228.05254,348.67065 L228.05254,348.67065 C226.183607,352.448765 224.560735,356.325032 226.018871,358.833173 C230.603094,366.718497 234.64435,389.805073 216.076538,389.805073 C205.836231,389.805073 197.973463,383.352594 201.852693,369.157139 C205.731923,354.961685 212.760558,353.860037 213.490384,352.380693 C214.359752,350.618502 214.052012,348.735221 213.790422,346.657792 C195.466155,343.349488 181.151199,337.779412 177.642779,331.943718 C170.896664,320.722638 188.281537,295.551877 209.81478,270.845923 C210.095461,270.523887 207.604985,272.389933 204.152563,274.615427 L204.152563,274.615427 C185.664778,292.045085 131.505607,342.39695 122.678859,329.220726 C112.154996,313.511116 143.725908,256.018589 128.691023,228.955505 C103.783487,184.121458 137.279829,141.732906 183.659376,154.775537 C191.478119,156.974286 198.008426,161.274314 203.362859,166.972214 C211.505131,152.380017 226.895378,141.836078 248.237869,141.836078 C270.78718,141.836078 286.69207,153.606152 294.424343,169.485235 C300.160741,162.539489 307.410261,157.286891 316.340624,154.775537 C362.720171,141.732906 396.216513,184.121458 371.308977,228.955505 C356.274092,256.018589 387.845004,313.511116 377.321141,329.220726 C368.343662,342.621955 312.472294,290.306883 294.931921,273.751791 C290.911076,271.611554 288.018354,269.715149 289.265019,270.845923 C306.343109,286.33642 329.547618,328.634924 321.692747,335.648936 C317.56763,339.332461 304.587243,343.519878 287.951194,346.366757 C287.894277,349.476349 286.83175,352.15683 288.038962,354.603824 C288.768788,356.083168 295.797422,357.184816 299.676653,371.38027 C303.555883,385.575724 295.693115,392.028203 285.452808,392.028203 C266.884995,392.028203 270.926252,368.941628 275.510474,361.056303 C277.279783,358.012913 274.512768,352.955161 272.274222,348.502638 L272.274222,348.502638 Z M243.727559,199.989887 C246.188073,199.989887 248.182713,197.169787 248.182713,193.691017 C248.182713,190.212247 246.188073,187.392147 243.727559,187.392147 C241.267046,187.392147 239.272405,190.212247 239.272405,193.691017 C239.272405,197.169787 241.267046,199.989887 243.727559,199.989887 Z M277.187474,145.517706 C295.248016,154.326421 313.379567,154.310525 317.685428,145.482203 C321.991288,136.65388 310.840917,122.356236 292.780375,113.547521 C274.719834,104.738807 256.588283,104.754703 252.282422,113.583025 C247.976561,122.411348 259.126933,136.708992 277.187474,145.517706 Z M280.885123,136.232 C295.102758,143.166404 308.431463,145.09108 310.655619,140.530884 C312.879775,135.970689 303.157139,126.652475 288.939504,119.718071 C274.721869,112.783667 261.393164,110.858991 259.169008,115.419187 C256.944852,119.979382 266.667488,129.297596 280.885123,136.232 Z M217.739162,206.06744 C219.674349,213.154804 225.68084,228.000934 245.583873,230.372673 C265.804914,232.782307 278.038041,213.968547 280.85384,206.06744 C281.120731,205.318546 284.73307,205.31336 286.05152,204.436148 C288.347167,202.908771 281.596366,202.954061 280.111315,202.213018 C278.626263,201.471974 275.005998,197.071003 274.913635,198.5078 C274.723087,201.471974 278.316409,203.721138 277.141212,204.436148 C276.649827,204.735116 274.913635,225.92641 249.000699,227.408499 C223.898845,228.844198 221.745158,204.687645 221.451791,204.436148 C220.794297,203.872495 221.45179,204.436148 223.679367,199.989887 C224.85174,197.649821 220.709265,201.471975 217.739162,202.213018 C214.76906,202.954061 209.68855,201.198899 211.798957,202.954061 C216.254111,206.659279 217.255773,204.297088 217.739162,206.06744 Z M253.380392,199.989887 C255.840906,199.989887 257.835546,197.169787 257.835546,193.691017 C257.835546,190.212247 255.840906,187.392147 253.380392,187.392147 C250.919879,187.392147 248.925239,190.212247 248.925239,193.691017 C248.925239,197.169787 250.919879,199.989887 253.380392,199.989887 Z M245.060104,176.228413 C258.136498,167.966886 260.315897,165.112759 260.315897,165.112759 C260.315897,165.112759 267.075468,170.0426 273.977999,176.228412 C279.914886,181.548848 286.950371,182.466144 288.279095,182.897804 C292.93267,184.409605 291.251637,173.440988 284.28929,165.112759 C277.326943,156.784529 272.517209,151.457984 260.315897,149.448749 C248.114584,147.439515 238.575813,145.945562 222.936841,155.575357 C207.297869,165.205152 206.601278,178.456121 206.601278,179.933629 C206.601278,181.411137 223.348189,166.00168 222.936842,167.33589 C216.996638,186.603022 231.98371,184.489941 245.060104,176.228413 Z" fill="#FFFFFF"></path>
            </g>
        </g>
    </g>
</svg>