<?xml version="1.0" encoding="UTF-8" standalone="no"?>
<svg width="500px" height="500px" viewBox="0 0 500 500" version="1.1" xmlns="http://www.w3.org/2000/svg" xmlns:xlink="http://www.w3.org/1999/xlink" xmlns:sketch="http://www.bohemiancoding.com/sketch/ns">
    <!-- Generator: Sketch 3.3 (11970) - http://www.bohemiancoding.com/sketch -->
    <title>Apple</title>
    <desc>Created with Sketch.</desc>
    <defs></defs>
    <g id="Page-1" stroke="none" stroke-width="1" fill="none" fill-rule="evenodd" sketch:type="MSPage">
        <g id="Row-4" sketch:type="MSLayerGroup">
            <g id="Apple" sketch:type="MSShapeGroup">
                <ellipse fill="#FA8997" cx="250" cy="250" rx="250" ry="250"></ellipse>
                <path d="M251,380 C320.587878,380 385,334.021454 385,273.049905 C385,233.131327 347,199.084419 317,192.087683 C287,185.090948 276.028119,199.084419 252,199.084419 C251.621363,199.084419 251.004108,188.885176 247.778185,177.210857 C247.369679,175.732511 286.133603,183.470274 310,170.097945 C328.505919,159.729088 338,133.115201 335,126.118466 C332,119.121731 300.818168,116.876194 280,126.118466 C256.334478,136.624827 243.083786,164.227321 242.567093,163.180929 C240.76323,159.527791 238.599699,156.075572 236,153.105873 C222,137.113335 195,126.118466 191,127.117999 C187,128.117533 189,137.113335 189,137.113335 C189,137.113335 203.642601,138.112868 223,153.105872 C242.357399,168.098876 242.357399,198.5341 242.357399,198.5341 C242.357399,198.5341 202.236563,186.842818 176,192.087683 C146,198.084885 115,233.33003 115,273.049905 C115,337.020055 181.412122,380 251,380 Z M287,145.109604 C299.070083,139.063877 313,136.113802 313,134.114734 C313,132.632732 299,131.116134 282,140.111936 C270.101428,146.408242 259,155.745178 259,160.102608 C259,162.101675 277.196982,150.019792 287,145.109604 Z M157,282 C163,282 168.559349,264.817373 180,250 C187.127174,240.769233 204.269062,236.233138 205,226 C205.730938,215.766863 174.5248,202 154,226 C133.4752,250.000001 144.297451,282 157,282 Z" fill="#FFFFFF"></path>
            </g>
        </g>
    </g>
</svg>