<?xml version="1.0" encoding="UTF-8" standalone="no"?>
<svg width="500px" height="500px" viewBox="0 0 500 500" version="1.1" xmlns="http://www.w3.org/2000/svg" xmlns:xlink="http://www.w3.org/1999/xlink" xmlns:sketch="http://www.bohemiancoding.com/sketch/ns">
    <!-- Generator: Sketch 3.2.2 (9983) - http://www.bohemiancoding.com/sketch -->
    <title>Baby Monitor</title>
    <desc>Created with Sketch.</desc>
    <defs></defs>
    <g id="Page-1" stroke="none" stroke-width="1" fill="none" fill-rule="evenodd" sketch:type="MSPage">
        <g id="Row-5" sketch:type="MSLayerGroup" transform="translate(-2400.000000, 0.000000)">
            <g id="Baby-Monitor" transform="translate(2400.000000, 0.000000)" sketch:type="MSShapeGroup">
                <path d="M250,500 C388.071187,500 500,388.071187 500,250 C500,111.928813 388.071187,0 250,0 C111.928813,0 0,111.928813 0,250 C0,388.071187 111.928813,500 250,500 Z" fill="#CAA4CC"></path>
                <path d="M154.144421,257.946187 C155.27526,304.047155 154.367252,348.675666 158.151539,362.286135 C163.330252,380.911759 179.31308,385.305701 187.203147,387.639784 C211.954347,394.96182 250.749702,390.565204 281.370423,390.565204 C307.215609,390.565204 329.455841,390.565189 340.475416,375.938092 C351.49499,361.310996 347.434746,338.397945 346.486093,291.100932 C345.791789,256.485014 345.253324,233.751266 337.470077,217.965457 C322.793147,188.198033 292.29924,184.810702 256.325935,184.810702 C248.337062,184.810702 231.46076,186.018642 211.105916,187.418238 C207.615874,187.658213 213.109476,152.631089 207.238734,126.302315 C203.802985,110.893862 180.829128,109.167298 167.167555,114.600638 C157.485288,118.45137 155.861187,126.905827 154.144421,132.153155 C150.08914,144.548195 152.783359,202.459734 154.144421,257.946187 Z M273.401441,155.50393 C283.063383,151.202157 287.359803,147.105395 285.396777,142.696368 C284.341013,140.325086 281.703231,140.44856 278.526879,141.013 C275.797301,141.498048 272.952933,143.49468 268.864936,145.314774 C264.013157,147.474925 258.725199,150.155606 256.373991,152.778896 C254.438792,154.938038 254.882593,157.011866 255.824129,159.126591 C257.909602,163.810641 263.739499,159.805703 273.401441,155.50393 Z M244.375587,126.307399 C247.992899,116.368917 248.03048,110.432481 243.495258,108.781796 C241.056106,107.894018 239.312568,109.877252 237.512112,112.554222 C235.964903,114.854659 235.425296,118.287703 233.8948,122.492705 C232.078354,127.48335 230.33335,133.149347 230.587101,136.662954 C230.795955,139.554886 232.596032,140.676244 234.771284,141.467971 C239.589399,143.221621 240.758275,136.245881 244.375587,126.307399 Z M265.850865,136.257427 C274.779957,126.340667 277.818979,119.584097 273.751404,115.921638 C271.563764,113.951879 268.677782,115.529862 265.379892,117.876811 C262.545871,119.893646 260.228726,123.59776 256.4508,127.793572 C251.967025,132.773309 247.219348,138.55141 245.71891,142.658733 C244.48395,146.039331 245.86295,148.024746 247.813902,149.781391 C252.135199,153.672304 256.921774,146.174187 265.850865,136.257427 Z M206.049827,326.845005 C210.992871,326.845005 215,323.144765 215,318.580288 C215,314.015812 210.992871,310.315572 206.049827,310.315572 C201.106783,310.315572 197.099654,314.015812 197.099654,318.580288 C197.099654,323.144765 201.106783,326.845005 206.049827,326.845005 Z M253.049827,335.597475 C257.992871,335.597475 262,331.897236 262,327.332759 C262,322.768282 257.992871,319.068042 253.049827,319.068042 C248.106783,319.068042 244.099654,322.768282 244.099654,327.332759 C244.099654,331.897236 248.106783,335.597475 253.049827,335.597475 Z M296.049827,330.734992 C300.992871,330.734992 305,327.034752 305,322.470275 C305,317.905798 300.992871,314.205559 296.049827,314.205559 C291.106783,314.205559 287.099654,317.905798 287.099654,322.470275 C287.099654,327.034752 291.106783,330.734992 296.049827,330.734992 Z M285.0617,278.092091 L306.280463,278.092091 C315.325569,278.092091 315.925353,269.33962 310.138419,267.394627 C304.351486,265.449633 293.742102,266.42213 285.061699,267.394627 C276.381296,268.367124 276.381296,278.092091 285.0617,278.092091 Z M307.387644,258.642156 L286.168881,258.642156 C277.123775,258.642156 276.52399,249.889686 282.310924,247.944692 C288.097857,245.999699 298.707241,246.972196 307.387644,247.944692 C316.068047,248.917189 316.068047,258.642156 307.387644,258.642156 Z M308.387644,236.274732 L287.168881,236.274732 C278.123775,236.274732 277.52399,227.522262 283.310924,225.577268 C289.097857,223.632274 299.707241,224.604771 308.387644,225.577268 C317.068047,226.549765 317.068047,236.274732 308.387644,236.274732 Z M222.847976,281.982078 C247.695953,281.982078 260,266.42213 260,247.458444 C260,228.494758 244.079785,212.934811 226.049829,212.934811 C208.019872,212.934811 187,223.760351 187,245.091241 C187,266.42213 198,281.982078 222.847976,281.982078 Z" fill="#FFFFFF"></path>
            </g>
        </g>
    </g>
</svg>