<?xml version="1.0" encoding="UTF-8" standalone="no"?>
<svg width="500px" height="500px" viewBox="0 0 500 500" version="1.1" xmlns="http://www.w3.org/2000/svg" xmlns:xlink="http://www.w3.org/1999/xlink" xmlns:sketch="http://www.bohemiancoding.com/sketch/ns">
    <!-- Generator: Sketch 3.3 (11970) - http://www.bohemiancoding.com/sketch -->
    <title>Balloon</title>
    <desc>Created with Sketch.</desc>
    <defs></defs>
    <g id="Page-1" stroke="none" stroke-width="1" fill="none" fill-rule="evenodd" sketch:type="MSPage">
        <g id="Row-1" sketch:type="MSLayerGroup">
            <g id="Balloon" sketch:type="MSShapeGroup">
                <ellipse fill="#FA8997" cx="250" cy="250" rx="250" ry="250"></ellipse>
                <path d="M244.765579,267.085888 C248.269445,270.583828 254.821906,276.856702 254.048203,277.926394 C252.10169,280.617568 246.572648,278.363598 244.814807,280.030072 C243.702562,281.084506 239.669835,284.066865 237.783443,283.476138 C236.528663,283.083201 235.218541,279.608932 233.946346,280.030072 C230.221508,281.263122 227.236396,285.218024 225.478555,281.771958 C223.720714,278.325892 235.865799,265.984466 233.946346,265.129049 C215.997816,257.130168 155.164914,216.975407 146.375709,171.000249 C138.743058,131.074876 163.691297,102.795337 200.868781,102.795337 C233.946346,102.795337 241.113775,130.099926 243.056966,130.099926 C243.947238,130.099926 266.113668,109.792357 288.760833,109.649765 C312.244666,109.501905 336.222541,130.017935 336.222541,159.070989 C336.222541,209.439286 276.532794,247.846012 250.019421,261.261691 C258.706866,261.531033 295.571231,263.600034 301.304192,279.351218 C308.214879,298.338181 269.599775,311.346375 272.905277,329.133304 C274.340597,336.856772 299.605278,353.714341 324.867106,361.469778 C342.468753,366.873523 347.557762,373.818291 351.240595,382.283175 C357.104322,395.760776 354.186537,414.619073 342.681599,410.4147 C336.943219,408.317663 344.777431,395.779789 340.227333,386.291675 C335.928737,377.328008 324.48087,373.57741 324.269696,373.497437 C298.219229,363.631984 264.223931,342.424426 261.610338,328.592776 C258.18732,310.47749 293.722958,289.366704 291.325229,282.983265 C286.45673,270.021926 257.195839,267.549191 244.765579,267.085888 Z M242.650666,264.765756 C242.649935,264.750148 242.655371,264.739678 242.667261,264.734564 C242.699886,264.720534 242.73265,264.706419 242.765552,264.69222 L242.650666,264.765756 Z M304.989675,127.923109 C294.796119,130.850598 312.308907,139.063525 314.531361,151.667686 C316.753814,164.271846 313.364116,179.339799 322.019793,177.81357 C327.03633,176.929019 330.311904,170.302576 327.325708,153.367013 C324.620112,138.022818 309.846525,126.528269 304.989675,127.923109 Z" fill="#FFFFFF" transform="translate(250.000000, 257.000000) rotate(-11.000000) translate(-250.000000, -257.000000) "></path>
            </g>
        </g>
    </g>
</svg>