<?xml version="1.0" encoding="UTF-8" standalone="no"?>
<svg width="500px" height="500px" viewBox="0 0 500 500" version="1.1" xmlns="http://www.w3.org/2000/svg" xmlns:xlink="http://www.w3.org/1999/xlink" xmlns:sketch="http://www.bohemiancoding.com/sketch/ns">
    <!-- Generator: Sketch 3.2.2 (9983) - http://www.bohemiancoding.com/sketch -->
    <title>Ball</title>
    <desc>Created with Sketch.</desc>
    <defs></defs>
    <g id="Page-1" stroke="none" stroke-width="1" fill="none" fill-rule="evenodd" sketch:type="MSPage">
        <g id="Row-4" sketch:type="MSLayerGroup" transform="translate(-1200.000000, -21.000000)">
            <g id="Ball" transform="translate(1200.000000, 21.000000)" sketch:type="MSShapeGroup">
                <path d="M250,500 C388.071187,500 500,388.071187 500,250 C500,111.928813 388.071187,0 250,0 C111.928813,0 0,111.928813 0,250 C0,388.071187 111.928813,500 250,500 Z" fill="#62BCD4"></path>
                <path d="M195,374 C209.899546,379.377663 233.651683,382 250.5,382 C325.886868,382 387,323.125445 387,250.5 C387,214.904383 373.846759,178.676195 350,155 C325.192414,130.36985 288.937805,119 250.5,119 C215.766037,119 183.092507,132.417218 159,153 C130.801939,177.090251 114,211.336212 114,250.5 C114,306.894282 143.232346,355.315605 195,374 Z M217.000001,361.999993 C264.000001,369.999993 309.999997,361.999992 313.999997,346.000003 C316.739842,335.040633 264.415477,264.462897 226.000001,226 C208.331311,208.309499 191.955549,199.055563 188,204 C180,214 174,237.712786 174,258 C174,293.622366 170.000001,353.999993 217.000001,361.999993 Z M313.999998,195.000002 C357.000005,215.256426 360.000011,243.743578 370.000005,243.743578 C380,243.743578 364.999995,182.999998 338.000003,162 C311.00001,141.000002 297.933038,143.266682 284,144 C246,146 209,170 227,178.999998 C234.673557,182.836776 270.99999,174.743578 313.999998,195.000002 Z M134,225 C127.865328,238.954987 129.149777,244.518722 133,245 C141,246 162.999998,213 166.999998,205 C170.999998,197 163.999998,192 170.999998,179 C177.999998,166 195.691481,153 189.999998,153 C184.966252,153 175.000001,160 160.432664,177 C153.143948,185.50589 140.61196,209.959291 134,225 Z" fill="#FFFFFF"></path>
            </g>
        </g>
    </g>
</svg>