<?xml version="1.0" encoding="UTF-8" standalone="no"?>
<svg width="500px" height="500px" viewBox="0 0 500 500" version="1.1" xmlns="http://www.w3.org/2000/svg" xmlns:xlink="http://www.w3.org/1999/xlink" xmlns:sketch="http://www.bohemiancoding.com/sketch/ns">
    <!-- Generator: Sketch 3.2.2 (9983) - http://www.bohemiancoding.com/sketch -->
    <title>Bathtub</title>
    <desc>Created with Sketch.</desc>
    <defs></defs>
    <g id="Page-1" stroke="none" stroke-width="1" fill="none" fill-rule="evenodd" sketch:type="MSPage">
        <g id="Row-3" sketch:type="MSLayerGroup" transform="translate(-1200.000000, 0.000000)">
            <g id="Bathtub" transform="translate(1200.000000, 0.000000)" sketch:type="MSShapeGroup">
                <path d="M250,500 C388.071187,500 500,388.071187 500,250 C500,111.928813 388.071187,0 250,0 C111.928813,0 0,111.928813 0,250 C0,388.071187 111.928813,500 250,500 Z" id="Bathub" fill="#62BCD4"></path>
                <path d="M146.088693,334.921873 C156.014822,356.679168 175.794943,363.715613 189.094819,365.921875 C193.30257,366.619881 187.094534,385.713226 203.096813,385.921875 C219.099092,386.130524 213.298739,368.082274 218.098949,367.921875 C227.527561,367.606817 288.634441,369.094048 308.111769,367.921875 C312.38424,367.664751 306.111484,387.921875 322.113763,387.921875 C338.116042,387.921875 330.89599,368.632854 335.115615,367.921875 C337.10971,367.585883 353.793845,363.972242 361.119318,348.921875 C366.234434,338.412742 365.040757,321.279437 365.119888,308.921875 C365.137278,306.206038 383.122452,296.921874 378.121739,278.921874 C375.9024,270.933391 363.126626,259.611767 345.117039,255.921874 C334.962479,253.841358 301.768894,252.724554 279.107638,248.921876 C251.400028,244.272392 233.44294,236.624171 218.098949,230.921874 C201.519445,224.760423 158.090402,196.921874 133.086841,219.921875 C108.08328,242.921875 132.708666,264.098178 136.087268,275.921873 C138.206155,283.337093 137.657854,316.442137 146.088693,334.921873 Z M148.088977,239.921875 C145.593238,244.288797 141.08798,261.921876 164.091257,274.921874 C187.094534,287.921872 211.377843,291.506353 222.099519,292.921874 C237.803069,294.995123 259.753227,296.985699 281.10792,298.921878 C297.852141,300.440036 314.406938,302.237352 326.11433,301.921878 C354.384047,301.160104 357.118745,293.416569 357.118745,288.921874 C357.118745,286.197391 357.159041,275.866124 346.117178,272.921874 C331.030463,268.899086 303.36267,272.592137 293.109629,270.921874 C266.105783,266.522833 265.532825,264.559105 243.102507,256.921876 C215.563903,247.545342 192.371805,235.915967 185.094246,233.921875 C179.417512,232.366418 156.090116,225.921875 148.088977,239.921875 Z M274.021651,234.921875 C280.650012,234.921875 286.02336,229.549292 286.02336,222.921875 C286.02336,216.294458 280.650012,210.921875 274.021651,210.921875 C267.39329,210.921875 262.019941,216.294458 262.019941,222.921875 C262.019941,229.549292 267.39329,234.921875 274.021651,234.921875 Z M274.521722,231.921875 C278.664447,231.921875 281.107921,227.356323 281.107921,222.75381 C281.107921,218.151297 278.664447,213.921875 274.521722,213.921875 C270.378996,213.921875 267.020653,218.151296 267.020653,222.75381 C267.020653,227.356323 270.378996,231.921875 274.521722,231.921875 Z M270,225.921875 C270.501647,225.921875 270.78924,223.23355 272.07397,221.921875 C272.911163,221.067122 275,221.710964 275,220.921875 C275,218.921875 271,218.921875 270,220.921875 C269,222.921875 269.171455,225.921875 270,225.921875 Z M249.910889,194.760906 C263.767222,194.760906 275,182.375684 275,167.097738 C275,151.819792 263.767222,139.43457 249.910889,139.43457 C236.054555,139.43457 224.821777,151.819792 224.821777,167.097738 C224.821777,182.375684 236.054555,194.760906 249.910889,194.760906 Z M252.582556,187.845114 C262.293134,187.845114 268.020653,177.848954 268.020653,167.771868 C268.020653,157.694782 262.293134,148.43457 252.582556,148.43457 C242.871979,148.43457 235,157.694781 235,167.771867 C235,177.848953 242.871979,187.845114 252.582556,187.845114 Z M245,171.921875 C248,171.920624 247.598854,164.945632 250.284532,161.921875 C252.034653,159.951445 258,160.740934 258,158.921875 C258,154.311347 246.090462,153.311347 244,157.921875 C241.909538,162.532403 242,171.923127 245,171.921875 Z M196.760254,202.398926 C209.718181,202.398926 220.222656,191.123956 220.222656,177.215576 C220.222656,163.307196 209.718181,152.032227 196.760254,152.032227 C183.802327,152.032227 173.297852,163.307196 173.297852,177.215576 C173.297852,191.123956 183.802327,202.398926 196.760254,202.398926 Z M196.37673,197.43457 C204.316779,197.43457 209,188.049825 209,178.589103 C209,169.128382 204.316779,160.43457 196.37673,160.43457 C188.436681,160.43457 182,169.128381 182,178.589102 C182,188.049824 188.436681,197.43457 196.37673,197.43457 Z M188.423007,181.601347 C191.091537,182.467207 192.696936,176.31233 195.936188,174.47047 C198.047046,173.270223 203.130485,175.677636 203.642215,174.102693 C204.939229,170.110895 194.628289,165.803462 191.472034,169.191156 C188.315779,172.57885 185.754477,180.735487 188.423007,181.601347 Z M212.489673,148.43457 C221.608075,148.43457 229,140.502272 229,130.717285 C229,120.932299 221.608075,113 212.489673,113 C203.371272,113 195.979347,120.932299 195.979347,130.717285 C195.979347,140.502272 203.371272,148.43457 212.489673,148.43457 Z M214.057673,143.732622 C220.164657,143.732622 223.766695,137.205754 223.766695,130.626047 C223.766695,124.046339 220.164657,118 214.057673,118 C207.950689,118 203,124.046339 203,130.626046 C203,137.205753 207.950689,143.732622 214.057673,143.732622 Z M208.186971,135.217723 C210.21167,135.181593 209.864261,130.793647 211.643597,128.857724 C212.803101,127.59618 216.837818,128.023106 216.817821,126.877508 C216.767139,123.973916 208.718347,123.484441 207.358168,126.412661 C205.997989,129.34088 206.162272,135.253853 208.186971,135.217723 Z" fill="#FFFFFF"></path>
            </g>
        </g>
    </g>
</svg>