<?xml version="1.0" encoding="UTF-8" standalone="no"?>
<svg width="500px" height="500px" viewBox="0 0 500 500" version="1.1" xmlns="http://www.w3.org/2000/svg" xmlns:xlink="http://www.w3.org/1999/xlink" xmlns:sketch="http://www.bohemiancoding.com/sketch/ns">
    <!-- Generator: Sketch 3.2.2 (9983) - http://www.bohemiancoding.com/sketch -->
    <title>Bear</title>
    <desc>Created with Sketch.</desc>
    <defs></defs>
    <g id="Page-1" stroke="none" stroke-width="1" fill="none" fill-rule="evenodd" sketch:type="MSPage">
        <g id="Row-2" sketch:type="MSLayerGroup">
            <g id="Bear" sketch:type="MSShapeGroup">
                <path d="M250,500 C388.071187,500 500,388.071187 500,250 C500,111.928813 388.071187,0 250,0 C111.928813,0 0,111.928813 0,250 C0,388.071187 111.928813,500 250,500 Z" fill="#FA8997"></path>
                <path d="M163.111296,332.64375 C185.136034,364.617529 218.322889,371.611794 255.137739,371.611794 C344.314835,371.611794 370.344072,312.660138 361.333952,245.215448 C361.228252,244.424239 368.814688,239.934666 372.346316,235.723235 C381.548125,224.750172 392.807988,204.136012 389.365433,169.777313 C386.188199,138.066671 337,114.611794 313,136.611794 C289,158.611794 293.129516,167.360716 289.252981,166.779773 C277.786599,165.061407 264.224868,161.78387 245.20351,162.783051 C226.182151,163.782232 217.444527,170.610168 205.158529,173.774038 C202.160242,174.546151 194.14616,139.801896 163.111296,139.801896 C132.076432,139.801896 114.759425,163.325034 112.053946,182.766663 C107.048323,218.737169 121.29311,231.425963 125.068564,235.723235 C132.998037,244.748665 145.958967,250.7835 146.092179,253.708483 C146.345604,259.273009 141.086559,300.669971 163.111296,332.64375 Z M255.715315,353.626546 C286.992482,353.626546 318.285597,331.304154 318.285597,305.66409 C318.285597,292.676526 314.281099,258.326291 258.218126,257.705206 C226.944281,257.358743 192.143907,282.275082 192.143907,307.915146 C192.143907,333.55521 224.438147,353.626546 255.715315,353.626546 Z M258.218126,329.646209 C285.248488,329.646209 297.261982,310.402106 297.261982,294.674888 C297.261982,278.94767 280.242865,264.69947 258.218126,264.69947 C236.193386,264.69947 216.170896,278.94767 216.170896,294.674888 C216.170896,310.402106 231.187764,329.646209 258.218126,329.646209 Z M259,297.611793 C266.777151,297.611794 274,290.983049 274,285.111793 C274,279.240538 266.464228,272.611793 259,272.611793 C251.535772,272.611793 241,276.183901 241,285.111793 C241,294.039685 251.222849,297.611793 259,297.611793 Z M215,252.611794 C220.267651,252.110112 226,248.611794 226,238.611794 C226,228.611794 220.236518,223.611794 215,223.611794 C209.763483,223.611794 205,229.222953 205,238.611794 C205,248.000634 209.732349,253.113475 215,252.611794 Z M289,250.611794 C283.732349,250.110112 278,246.611794 278,236.611794 C278,226.611794 283.763482,221.611794 289,221.611794 C294.236517,221.611794 299,227.222953 299,236.611794 C299,246.000634 294.267651,251.113475 289,250.611794 Z M146,222.611794 C151,231.611794 156,233.611794 156,233.611794 C156,233.611794 166.657824,216.632781 173,208.611794 C177.991157,202.299448 190,189.611794 190,189.611794 C190,189.611794 180.807119,175.611794 167,175.611794 C153.192881,175.611794 141,189.633102 141,202.611794 C141,208.854943 141,213.611794 146,222.611794 Z M361.311034,208.767618 C357.576496,219.379787 352.886697,222.211983 352.886697,222.211983 C352.886697,222.211983 339.99126,204.63995 332.601767,196.498143 C326.786394,190.090715 313.135632,177.452852 313.135632,177.452852 C313.135632,177.452852 320.34947,160.772575 334.053673,159.08991 C347.757875,157.407246 361.773302,171.504937 363.544449,185.929776 C364.396426,192.868567 365.045573,198.155448 361.311034,208.767618 Z" fill="#FFFFFF"></path>
            </g>
        </g>
    </g>
</svg>