<?xml version="1.0" encoding="UTF-8" standalone="no"?>
<svg width="500px" height="500px" viewBox="0 0 500 500" version="1.1" xmlns="http://www.w3.org/2000/svg" xmlns:xlink="http://www.w3.org/1999/xlink" xmlns:sketch="http://www.bohemiancoding.com/sketch/ns">
    <!-- Generator: Sketch 3.3 (11970) - http://www.bohemiancoding.com/sketch -->
    <title>Bee</title>
    <desc>Created with Sketch.</desc>
    <defs></defs>
    <g id="Page-1" stroke="none" stroke-width="1" fill="none" fill-rule="evenodd" sketch:type="MSPage">
        <g id="Row-1" sketch:type="MSLayerGroup" transform="translate(-1800.000000, 0.000000)">
            <g id="Bee" transform="translate(1800.000000, 0.000000)" sketch:type="MSShapeGroup">
                <path d="M250,500 C388.071187,500 500,388.071187 500,250 C500,111.928813 388.071187,0 250,0 C111.928813,0 0,111.928813 0,250 C0,388.071187 111.928813,500 250,500 Z" fill="#F2C06C"></path>
                <path d="M227.757784,366.872752 C190.128501,345.620125 188.600065,302.920954 188.600065,302.920954 C188.600065,302.920954 166.213372,306.70947 147.904016,300.850522 C113.904015,289.970607 110.904016,254.870381 110.904016,242.850522 C110.904017,213.870381 137.468085,192.831164 153.904016,188.850522 C153.934575,188.843121 155.194646,175.713241 162.904016,172.850522 C170.904016,169.879884 173.623083,175.909188 176.904016,176.821444 C177.580505,177.00954 184.904016,140.487124 175.904016,134.815488 C166.904016,129.143853 160.404893,146.904756 160.904016,140.732715 C161.360995,135.081831 166.904016,123.876189 179.904016,129.143853 C188.321257,132.554561 180.756244,178.192083 180.904016,177.821586 C187.818447,160.485612 183.65979,128.616957 195.904017,121.813644 C204.904017,116.812935 215.904017,132.815205 214.904017,134.815489 C214.433368,135.75692 205.904017,122.813786 197.904017,127.814495 C193.053048,130.84678 190.681889,150.164183 187.904016,164.819744 C186.100746,174.333479 183.904016,177.821587 183.904016,177.821587 C183.904016,177.821587 187.904016,169.820451 197.904017,174.82116 C207.904017,179.821869 210.904016,192.825131 208.904016,202.825131 C208.838295,203.153738 211.904016,204.134549 218.904016,214.850522 C225.904016,225.566495 223.736152,230.89957 223.904016,230.850522 C225.343999,230.429773 228.476963,227.350901 233.750064,225.566495 C237.933717,224.150755 244.576108,223.920375 244.904016,223.850522 C245.251706,223.776455 240.904017,173.82102 282.904016,155.818467 C289.904016,152.818042 305.761625,153.041431 314.904016,162.322992 C323.104917,170.648732 319.795675,190.196093 321.836082,189.943985 C339.558315,187.754273 356.4849,192.622996 361.904016,202.825132 C378.904016,234.82967 321.836084,242.850522 321.836084,242.850522 C321.836084,242.850522 331.789725,246.285675 341.422983,257.128754 C334.930252,265.92345 324.803163,286.815398 319.695032,312.307551 C314.622853,337.62028 318.136156,360.462824 322.237824,371.269482 L322.237824,371.269482 C309.362302,377.029087 294.403962,379.266832 279.98867,379.144762 L279.98867,379.144762 C278.893279,366.563343 269.006944,335.636743 282.825234,296.585904 C300.811447,245.756413 315.182609,243.312916 309.144039,237.256815 C306.113152,234.217128 280.400099,271.285414 272.10866,309.283821 C265.919638,337.647171 269.57069,366.532344 273.73691,378.94507 C264.344818,378.426323 255.357398,376.949432 247.534189,374.850522 C242.75443,373.568148 238.361834,371.993733 234.325082,370.185385 C234.720157,359.848356 221.403945,327.364403 235.597078,284.912418 C252.693454,233.776766 267.019782,231.08283 260.876439,225.133038 C257.792963,222.146711 232.730757,259.658106 225.103745,297.795432 C219.492905,325.851295 223.447321,354.247131 227.757784,366.872752 L227.757784,366.872752 Z M328.226898,368.241283 C328.453481,368.112323 328.679192,367.982071 328.904016,367.850522 C346.750378,357.40824 357.592809,332.985881 361.904016,327.850522 C375.509859,311.643719 391.001674,307.735989 388.904016,302.920957 C387.214532,299.042859 361.904016,293.850522 361.904016,293.850522 C361.904016,293.850522 358.904016,283.65035 347.904016,265.850522 C347.238547,264.773681 346.558189,263.742955 345.867179,262.756703 C342.695491,268.509367 337.31697,279.134565 330.005761,300.363952 C318.989361,332.352014 325.522231,355.941972 328.226898,368.241283 L328.226898,368.241283 Z M155.904017,288.850522 C209.904019,305.850522 220.904017,247.850524 207.904017,230.850522 C207.532803,230.365088 216.904018,300.850526 159.904014,283.850522 C102.904011,266.850518 137.904017,213.850522 137.904016,213.850522 C126.904016,213.850522 101.904014,271.850522 155.904017,288.850522 Z M163.878551,207.850522 C173.166087,209.850522 176.591837,204.510938 178.738609,203.850522 C181.219559,203.087303 178.738611,216.850523 192.669914,215.850523 C206.601218,214.850523 204.743709,183.850522 194.52742,181.850522 C184.311131,179.850522 182.975309,186.532562 180.365585,186.850522 C177.610941,187.186138 174.094841,178.850522 165.736058,183.850522 C157.377276,188.850522 154.591014,205.850522 163.878551,207.850522 Z M175.714923,198.753676 C177.042148,199.134252 178.426595,198.366841 178.807171,197.039615 C179.187746,195.71239 178.420335,194.327943 177.09311,193.947368 C175.765884,193.566792 174.381438,194.334203 174.000862,195.661429 C173.620286,196.988654 174.387697,198.3731 175.714923,198.753676 Z M184.714923,200.753676 C186.042148,201.134252 187.426595,200.366841 187.807171,199.039615 C188.187746,197.71239 187.420335,196.327943 186.09311,195.947368 C184.765884,195.566792 183.381438,196.334203 183.000862,197.661429 C182.620286,198.988654 183.387697,200.3731 184.714923,200.753676 Z" fill="#FFFFFF"></path>
            </g>
        </g>
    </g>
</svg>