<?xml version="1.0" encoding="UTF-8" standalone="no"?>
<svg width="500px" height="500px" viewBox="0 0 500 500" version="1.1" xmlns="http://www.w3.org/2000/svg" xmlns:xlink="http://www.w3.org/1999/xlink" xmlns:sketch="http://www.bohemiancoding.com/sketch/ns">
    <!-- Generator: Sketch 3.2.2 (9983) - http://www.bohemiancoding.com/sketch -->
    <title>Bib</title>
    <desc>Created with Sketch.</desc>
    <defs></defs>
    <g id="Page-1" stroke="none" stroke-width="1" fill="none" fill-rule="evenodd" sketch:type="MSPage">
        <g id="Row-5" sketch:type="MSLayerGroup" transform="translate(-1200.000000, 0.000000)">
            <g id="Bib" transform="translate(1200.000000, 0.000000)" sketch:type="MSShapeGroup">
                <path d="M250,500 C388.071187,500 500,388.071187 500,250 C500,111.928813 388.071187,0 250,0 C111.928813,0 0,111.928813 0,250 C0,388.071187 111.928813,500 250,500 Z" fill="#62BCD4"></path>
                <path d="M151.880225,342.471604 C169.98827,367.224013 198.819726,387.437985 236.456477,392.049973 C289.737247,398.578971 328.734431,372.766815 348.960936,337.462307 C357.370582,322.783625 362.17687,311.933312 364.979865,289.150316 C367.78286,266.367321 367.521083,238.553834 352.910988,215.275487 C334.939412,186.641272 297.208941,169.801897 284.679708,166.710546 C284.200605,166.592337 300.499424,168.103204 311.989179,163.002501 C321.475892,158.791019 326.894825,148.882417 323.846958,140.323578 C321.183267,132.843559 310.469476,123.970398 302.358959,126.629961 C296.260092,128.629874 291.971859,134.186013 287.972127,139.949489 C283.833529,145.913066 280.088241,152.054888 280.088241,152.054888 C280.088241,152.054888 290.326536,126.161013 285.346214,117.506736 C280.365892,108.85246 273.075647,106.546575 263.492607,106.784817 C254.30237,107.013293 242.422991,114.257947 243.938197,126.509603 C245.453404,138.76126 251.739932,141.837781 257.259679,149.257488 C263.589678,157.766346 268.506178,163.707111 267.585932,163.594345 C225.804735,158.474499 192.363516,170.52957 167.304858,192.531408 C148.907441,208.684587 133.539288,229.496217 130.233904,256.362673 C126.321842,288.160267 133.695197,317.613965 151.880225,342.471604 L151.880225,342.471604 Z M256.475689,131.062438 C257.639685,136.805608 260.948529,142.299084 264.27204,147.100281 C268.108817,152.64295 272.011041,157.098104 273.401748,157.26852 C274.906608,157.452925 273.577346,153.10054 273.749765,146.250679 C273.932065,139.008279 275.521128,129.087536 273.575121,123.102805 C271.998126,118.252929 266.852898,118.170319 265.129683,118.04591 C262.737453,117.873201 253.967936,118.689153 256.475689,131.062438 L256.475689,131.062438 Z M307.249015,152.773217 C303.447273,155.290712 298.604434,156.494778 294.134698,157.310399 C288.974679,158.251981 284.377473,158.560091 283.519461,157.891077 C282.591021,157.167148 285.717822,155.504509 289.394549,151.646014 C293.281975,147.566403 297.871066,141.243603 302.235518,139.022223 C305.772361,137.222073 308.645105,139.998296 309.660496,140.874937 C311.070098,142.091921 315.439619,147.349438 307.249015,152.773217 L307.249015,152.773217 Z M184.97148,313.469226 C191.333149,317.579851 196.644383,314.414712 196.707645,314.490986 C196.779303,314.577384 188.873002,317.278386 190.554057,325.603863 C191.372082,329.655161 194.234767,334.59076 201.000171,335.419789 C205.064171,335.91779 212.193855,334.084964 214.537345,326.877228 C216.05254,322.21703 214.650009,318.586946 213.723661,316.57612 C213.217265,315.476884 213.10548,314.834833 213.10548,314.834833 C213.10548,314.834833 214.937935,321.929712 221.908351,322.783863 C224.394231,323.088482 229.030168,322.407416 233.531004,317.962342 C238.031839,313.517268 236.73462,301.492858 233.136855,299.176777 C227.544768,295.57684 218.89951,303.261512 218.89951,303.261512 C218.89951,303.261512 225.731181,298.477481 224.870175,290.252493 C224.009169,282.027505 217.456689,278.989461 215.521677,278.280958 C213.647003,277.594546 205.857724,275.639399 201.050942,280.87975 C196.244161,286.120101 200.848999,296.053007 200.848999,296.053007 C200.848999,296.053007 196.630785,287.817926 191.147233,286.952869 C185.607462,286.078943 179.13311,293.264817 178.537332,298.107359 C178.291122,300.108574 178.609811,309.358601 184.97148,313.469226 L184.97148,313.469226 Z M205.493578,315.4432 C210.846786,316.789327 216.418665,312.619947 217.109722,307.002972 C217.800779,301.385998 214.002484,296.471611 208.372436,295.781708 C202.742388,295.091805 197.865643,298.943157 197.174586,304.560132 C196.483529,310.177106 200.140371,314.097074 205.493578,315.4432 L205.493578,315.4432 Z M206.85342,312.915031 C211.16764,313.443693 214.492184,309.417839 214.987367,305.392951 C215.482549,301.368063 211.264165,298.547604 207.950158,298.141508 C204.636152,297.735411 200.189402,300.677216 199.69422,304.702104 C199.199037,308.726992 202.5392,312.386368 206.85342,312.915031 L206.85342,312.915031 Z M208.328206,310.048775 C208.864829,310.623084 210.689181,310.361494 211.746734,309.377278 C212.804286,308.393063 213.65748,306.87656 212.871241,306.035104 C212.085001,305.193648 211.389327,306.129984 210.331774,307.114199 C209.274221,308.098415 207.791583,309.474467 208.328206,310.048775 L208.328206,310.048775 Z M254.998207,249.53025 C287.701607,253.537707 304.210566,250.795158 310.35509,217.230172 C316.499615,183.665186 289.549454,175.335233 263.511469,172.144552 C237.473484,168.953871 217.997048,181.768117 215.574011,201.46278 C213.150975,221.157442 222.294806,245.522792 254.998207,249.53025 L254.998207,249.53025 Z" fill="#FFFFFF"></path>
            </g>
        </g>
    </g>
</svg>