<?xml version="1.0" encoding="UTF-8" standalone="no"?>
<svg width="500px" height="500px" viewBox="0 0 500 500" version="1.1" xmlns="http://www.w3.org/2000/svg" xmlns:xlink="http://www.w3.org/1999/xlink" xmlns:sketch="http://www.bohemiancoding.com/sketch/ns">
    <!-- Generator: Sketch 3.2.2 (9983) - http://www.bohemiancoding.com/sketch -->
    <title>Bird</title>
    <desc>Created with Sketch.</desc>
    <defs></defs>
    <g id="Page-1" stroke="none" stroke-width="1" fill="none" fill-rule="evenodd" sketch:type="MSPage">
        <g id="Row-2" sketch:type="MSLayerGroup" transform="translate(-1200.000000, 0.000000)">
            <g id="Bird" transform="translate(1200.000000, 0.000000)" sketch:type="MSShapeGroup">
                <path d="M250,500 C388.071187,500 500,388.071187 500,250 C500,111.928813 388.071187,0 250,0 C111.928813,0 0,111.928813 0,250 C0,388.071187 111.928813,500 250,500 Z" fill="#62BCD4"></path>
                <path d="M264.734328,335.320244 C326.33544,322.003097 378.298484,255.41598 362.640675,178.435998 C362.002573,175.298836 385.905645,159.438675 382.902417,153.792654 C380.309122,148.917299 361.803847,144.579848 358.056623,143.734709 C354.309399,142.889569 346.636971,142.715608 345.496464,142.943514 C344.024587,143.237638 339.577353,130.249005 317.999331,123.854829 C309.043613,121.200997 289.256071,117.801743 278.483907,121.915054 C267.711744,126.028365 256.325235,133.270983 242.379594,153.792655 C242.31037,153.894522 234.100324,164.245441 227.355072,178.435999 C222.529189,188.588619 218.684517,201.154646 213.559279,211.504321 C209.269553,220.1668 202.822532,227.294664 197.992614,231.807895 C178.034761,250.457158 155.579384,263.466732 138.544102,270.401101 C125.529408,275.698854 116,275.582841 116,281.782387 C116,299.471176 153.485226,325.762116 205.889421,334.664857 L205.889421,334.664857 C204.338625,343.950408 203.679739,357.256218 203.830587,359.093821 C203.931376,360.321616 187.007042,358.11522 187.97563,366.290836 C188.944217,374.466451 202.196931,366.491988 207.218084,368.775616 C212.239237,371.059244 220.804806,385.81668 226.874641,378.634247 C230.926114,373.840142 215.119987,364.298165 215.119987,364.298165 C215.119987,364.298165 228.742393,364.051085 227.492236,357.853766 C226.242078,351.656447 212.061808,359.813667 211.985733,359.208869 C211.759448,357.409918 213.668522,345.439869 215.244776,336.044788 C223.96747,337.138002 233.043983,337.739155 242.379594,337.739155 C246.719457,337.739155 251.046432,337.462762 255.341633,336.923943 C255.673773,346.362896 257.89207,360.152036 258.435269,361.963435 C258.789128,363.143445 241.775896,364.504031 244.423124,372.299609 C247.070352,380.095187 258.375478,369.539591 263.7617,370.72936 C269.147921,371.919129 280.594555,384.573197 285.038439,376.285728 C288.004626,370.754037 270.560012,364.706854 270.560012,364.706854 C270.560012,364.706854 283.833366,361.632915 281.322032,355.830945 C278.810699,350.028975 266.636283,360.956184 266.436125,360.380419 C265.804124,358.562434 265.14283,345.033142 264.734328,335.320244 Z M291.432377,187.942692 C298.304793,187.942692 303.875988,182.275016 303.875988,175.283583 C303.875988,168.29215 298.304793,162.624474 291.432377,162.624474 C284.55996,162.624474 278.988766,168.29215 278.988766,175.283583 C278.988766,182.275016 284.55996,187.942692 291.432377,187.942692 Z M293.694852,178.736067 C296.193912,178.736067 298.219801,176.675094 298.219801,174.132755 C298.219801,171.590416 296.193912,169.529442 293.694852,169.529442 C291.195791,169.529442 289.169902,171.590416 289.169902,174.132755 C289.169902,176.675094 291.195791,178.736067 293.694852,178.736067 Z M208.610668,296.661109 C218.138245,292.815523 218.822184,292.54836 226.751893,286.934701 C234.681602,281.321042 238.307856,275.580556 240.24084,276.501388 C244.584062,278.570406 236.089163,282.924808 229.161848,289.473491 C222.682022,295.599143 212.323093,301.286336 216.022814,305.690726 C219.722534,310.095116 232.136483,309.185231 241.712617,303.59586 C248.71024,299.511506 254.68042,294.089727 257.882462,290.565878 C261.084505,287.042029 263.377158,282.698569 265.296817,279.813952 C268.270421,275.345602 269.4207,272.733773 270.892244,274.077232 C274.591412,277.454417 269.945018,278.701456 266.549574,282.846676 C264.076478,285.865877 263.237894,288.812744 263.707119,290.565878 C264.176345,292.319012 266.973516,292.760411 269.174951,292.655688 C272.950365,292.47609 277.30008,290.069603 279.637791,288.110254 C283.338617,285.008413 300.114403,269.20026 300.114403,247.685729 C300.114403,239.741307 299.886536,236.897873 298.449031,233.356571 C296.380407,228.260501 295.19335,226.651548 290.56793,224.167928 C289.171689,223.418216 284.988522,220.867164 278.316542,222.467535 C271.644561,224.067905 262.143312,227.590901 256.007193,233.356571 C252.128419,237.001177 246.811528,241.22231 242.807399,245.981964 C237.421348,252.38429 233.216134,259.471896 226.751893,264.699217 C223.272368,267.512941 212.4848,274.735455 201.370859,280.869253 C190.989267,286.598866 180.069019,291.030601 180.069019,294.563433 C180.069019,298.846299 199.083091,300.506695 208.610668,296.661109 Z" fill="#FFFFFF"></path>
            </g>
        </g>
    </g>
</svg>