<?xml version="1.0" encoding="UTF-8" standalone="no"?>
<svg width="500px" height="500px" viewBox="0 0 500 500" version="1.1" xmlns="http://www.w3.org/2000/svg" xmlns:xlink="http://www.w3.org/1999/xlink" xmlns:sketch="http://www.bohemiancoding.com/sketch/ns">
    <!-- Generator: Sketch 3.3 (11970) - http://www.bohemiancoding.com/sketch -->
    <title>Boat</title>
    <desc>Created with Sketch.</desc>
    <defs></defs>
    <g id="Page-1" stroke="none" stroke-width="1" fill="none" fill-rule="evenodd" sketch:type="MSPage">
        <g id="Row-3" sketch:type="MSLayerGroup" transform="translate(-1200.000000, 0.000000)">
            <g id="Boat" transform="translate(1200.000000, 0.000000)" sketch:type="MSShapeGroup">
                <path d="M250,500 C388.071187,500 500,388.071187 500,250 C500,111.928813 388.071187,0 250,0 C111.928813,0 0,111.928813 0,250 C0,388.071187 111.928813,500 250,500 Z" fill="#62BCD4"></path>
                <path d="M244.757883,261.223645 C244.075768,271.674126 243.540652,278.157203 243.265553,278.140137 C229.630605,277.294293 220.639303,276.583209 216.944044,277.220963 C202.748431,279.670941 200.781233,287.262174 200.681915,290.106272 C200.59826,292.501855 232.914789,293.750081 263.649739,298.148272 C294.38469,302.546464 319.473438,309.526321 319.557557,307.117456 C319.651444,304.428879 316.009119,292.396131 302.744089,285.479797 C297.292995,282.637617 275.3505,280.154002 255.625667,278.571754 C255.454324,278.55801 255.569036,276.057263 255.746818,272.494691 C255.832784,270.77202 255.931474,267.20684 255.962999,266.304064 C255.963807,266.280936 255.964651,266.256149 255.96553,266.229718 L255.96553,266.229718 C271.285669,268.60445 311.52616,270.396812 322.44406,267.929843 C328.38538,266.587363 323.143767,239.72803 304.753182,214.939875 C290.56753,195.819431 269.90491,177.531129 258.243836,167.867971 C258.724736,146.559863 259.089529,130.277324 259.089529,130.277324 C259.089529,130.277324 290.875933,132.18017 284.171464,127.838714 C279.13551,124.5777 252.624568,110.9767 252.588015,111.802244 C252.333589,117.548301 251.831822,128.203738 251.185911,141.455894 C239.633905,147.97966 202.748617,170.311519 179.065419,201.846496 C156.31504,232.139394 150.426783,260.974008 157.995371,265.31671 C172.14261,273.434106 227.100336,265.563865 244.757883,261.223645 Z M245.908243,242.353679 C247.243865,219.315518 248.825685,188.89859 250.133992,162.749672 C249.651322,161.47061 249.371845,160.766211 249.371845,160.766211 C249.371845,160.766211 249.660647,160.984711 250.201311,161.403114 C250.42886,156.847974 250.647738,152.430006 250.855149,148.211852 C246.770699,158.595798 240.932661,177.621273 240.763871,201.846496 C240.669692,215.363385 243.469265,230.800126 245.908243,242.353679 Z M256.257756,254.598438 C256.623898,239.216253 257.257937,211.431843 257.833357,186.025066 C261.141075,197.579878 264.195931,211.130791 264.368934,222.20669 C264.577012,235.528147 260.132888,246.914514 256.257756,254.598438 L256.257756,254.598438 Z M159.507048,375.002674 C180.08393,385.570345 229.11058,388.233789 256.512572,388.233789 C329.001751,388.233789 377.23082,346.478675 377.23082,330.347671 C377.23082,314.216666 130.145127,282.508735 124.390311,300.577666 C119.1228,317.116557 125.649882,357.614647 159.507048,375.002674 Z M306.723554,339.927373 C311.102095,339.927373 314.651604,337.199369 314.651604,333.834206 C314.651604,330.469043 311.102095,327.741039 306.723554,327.741039 C302.345013,327.741039 298.795504,330.469043 298.795504,333.834206 C298.795504,337.199369 302.345013,339.927373 306.723554,339.927373 Z M333.150387,343.409182 C337.528928,343.409182 341.078437,340.681178 341.078437,337.316015 C341.078437,333.950852 337.528928,331.222849 333.150387,331.222849 C328.771846,331.222849 325.222337,333.950852 325.222337,337.316015 C325.222337,340.681178 328.771846,343.409182 333.150387,343.409182 Z M278.534932,334.689726 C282.913473,334.689726 286.462982,331.961722 286.462982,328.596559 C286.462982,325.231396 282.913473,322.503393 278.534932,322.503393 C274.156391,322.503393 270.606882,325.231396 270.606882,328.596559 C270.606882,331.961722 274.156391,334.689726 278.534932,334.689726 Z" fill="#FFFFFF"></path>
            </g>
        </g>
    </g>
</svg>