<?xml version="1.0" encoding="UTF-8" standalone="no"?>
<svg width="500px" height="500px" viewBox="0 0 500 500" version="1.1" xmlns="http://www.w3.org/2000/svg" xmlns:xlink="http://www.w3.org/1999/xlink" xmlns:sketch="http://www.bohemiancoding.com/sketch/ns">
    <!-- Generator: Sketch 3.2.2 (9983) - http://www.bohemiancoding.com/sketch -->
    <title>Bottle </title>
    <desc>Created with Sketch.</desc>
    <defs></defs>
    <g id="Page-1" stroke="none" stroke-width="1" fill="none" fill-rule="evenodd" sketch:type="MSPage">
        <g id="Row-1" sketch:type="MSLayerGroup" transform="translate(-1200.000000, 0.000000)">
            <g id="Bottle-" transform="translate(1200.000000, 0.000000)" sketch:type="MSShapeGroup">
                <path d="M250,500 C388.071187,500 500,388.071187 500,250 C500,111.928813 388.071187,0 250,0 C111.928813,0 0,111.928813 0,250 C0,388.071187 111.928813,500 250,500 Z" id="Bottle" fill="#62BCD4"></path>
                <path d="M276.714963,162.807046 C290.189184,164.668681 301.659523,168.470669 308.747386,173.902364 C315.150882,178.809602 317.142912,185.717017 317.142912,192.357088 C317.142912,208.087365 314.465391,210.618643 305.067536,215.825445 C294.681854,221.579545 281.19918,222.057616 263.920703,222.057616 C254.034257,222.057616 233.783644,218.31179 219.135665,212.170582 C212.251731,209.284472 206.437088,205.138515 205.035624,202.462283 C204.323274,201.101982 204.020645,188.123449 205.035624,183.127866 C206.296414,176.92243 208.779798,172.701506 213.462118,169.232602 C215.233155,167.920525 225.600347,161.976786 251.883158,161.500267 C254.735011,157.027913 255.179004,153.086132 254.209202,152.283024 C248.972774,147.946651 242.719872,137.362966 244.170566,128.770234 C244.532803,126.624634 245.20051,123.010194 247.288128,119.754284 C249.183462,116.798265 252.452006,114.141805 253.892017,113.072189 C257.623942,110.30018 267.452216,107.209942 272.333455,108.183194 C277.701764,109.253562 286.270341,111.198936 288.763849,116.754575 C290.692274,121.051189 291.719861,124.802273 291.719861,127.722031 C291.719861,132.572064 289.601568,142.718702 285.708504,147.557299 C281.842848,152.36183 278.009378,154.915504 278.009378,154.915504 C278.009378,154.915504 276.075325,158.080965 276.714963,162.807046 L276.714963,162.807046 Z M278.751684,168.565625 C292.489079,170.7968 301.187469,175.743535 301.187469,180.492024 C301.187469,186.885516 285.001343,194.800661 262.812599,192.543544 C241.243322,190.349441 221.956338,182.087521 223.325776,175.740925 C224.32018,171.132402 232.771436,168.790085 245.981097,167.852789 C241.710203,171.257099 236.56076,174.051301 234.280627,175.432928 C227.909865,179.293237 262.971588,186.129416 265.260421,186.129416 C266.807576,186.129416 292.960087,186.007176 289.811794,180.590622 C288.687112,178.655635 281.617601,173.025755 278.751684,168.565625 L278.751684,168.565625 Z M184.218624,367.952545 C197.898366,383.05919 231.486635,392 251.815134,392 C273.160926,392 296.814661,391.360841 310.844371,375.269636 C323.643417,360.589926 326.510446,330.110805 326.510446,308.457361 C326.510446,297.411505 327.611943,279.817096 326.510446,263.431482 C324.875187,239.105745 317.703379,217.387187 308.095487,223.253308 C301.004889,227.58249 271.65562,230.058874 261.07781,228.799239 C250.5,227.539605 229.808111,226.623861 210.062222,213.526329 C190.316333,200.428796 174.588831,283.567278 174.588831,308.457361 C174.588831,331.241986 170.429753,352.725388 184.218624,367.952545 Z M285.37795,270.966841 C288.57139,272.919331 294.354563,273.669751 294.354563,273.669751 C294.354563,273.669751 305.254707,275.944903 311.962396,275.936081 C317.710157,275.928522 319.444543,273.925075 319.134271,270.966841 C318.461907,264.556322 300.682657,263.667294 293.739509,262.831495 C286.796361,261.995697 284.590967,262.831495 283.614147,266.885093 C283.278043,268.279857 283.702743,269.942609 285.37795,270.966841 Z M280.555764,292.760559 C281.937217,293.733947 286.18899,294.460712 290.927761,295.182481 C297.01345,296.109401 303.999442,296.905102 307.770615,296.900142 C313.518376,296.892583 315.252762,294.889135 314.94249,291.930902 C314.270127,285.520382 296.490876,284.631355 289.547728,283.795556 C282.60458,282.959758 279.422367,283.795556 279.422367,287.849154 C279.422367,289.190339 279.212258,291.813908 280.555764,292.760559 Z M272.335177,312.391846 C274.184033,314.213853 284.479982,315.00508 284.479982,315.00508 C284.479982,315.00508 298.094121,317.587569 306.471938,317.577555 C313.650817,317.568975 315.817044,315.294894 315.429517,311.93705 C314.589744,304.660571 292.383689,303.65145 283.711787,302.702748 C275.039886,301.754047 271.065342,303.001778 271.065342,307.303923 C271.065342,308.80212 271.065342,311.140451 272.335177,312.391846 Z M281.410757,141.406796 C282.790431,142.234061 287.234003,136.722638 286.454162,128.891313 C285.714443,121.4629 279.776398,116.37583 275.856122,116.37583 C271.935847,116.37583 278.309541,122.776624 280.02004,128.891313 C281.347934,133.638265 279.462021,140.238315 281.410757,141.406796 Z" id="Bottle" fill="#FFFFFF"></path>
            </g>
        </g>
    </g>
</svg>