<?xml version="1.0" encoding="UTF-8" standalone="no"?>
<svg width="500px" height="500px" viewBox="0 0 500 500" version="1.1" xmlns="http://www.w3.org/2000/svg" xmlns:xlink="http://www.w3.org/1999/xlink" xmlns:sketch="http://www.bohemiancoding.com/sketch/ns">
    <!-- Generator: Sketch 3.3 (11970) - http://www.bohemiancoding.com/sketch -->
    <title>Boy</title>
    <desc>Created with Sketch.</desc>
    <defs></defs>
    <g id="Page-1" stroke="none" stroke-width="1" fill="none" fill-rule="evenodd" sketch:type="MSPage">
        <g id="Row-3" sketch:type="MSLayerGroup" transform="translate(-1200.000000, 0.000000)">
            <g id="Boy" transform="translate(1200.000000, 0.000000)" sketch:type="MSShapeGroup">
                <path d="M250,500 C388.071187,500 500,388.071187 500,250 C500,111.928813 388.071187,0 250,0 C111.928813,0 0,111.928813 0,250 C0,388.071187 111.928813,500 250,500 Z" fill="#62BCD4"></path>
                <path d="M139.383968,305.094566 C150.745465,353.72923 197.98916,388.375117 251.704827,390.031937 C303.824861,391.639541 348.694885,354.129722 360.919,306.255564 C361.315761,304.701698 382.761834,309.111577 385.6109,287.215479 C388.459965,265.319381 361.189282,263.603514 360.919006,262.021621 C360.708958,260.792233 354.410809,223.308002 332,200.08174 C319.924604,187.566961 294.340773,176.045218 272,171.08174 C268.524434,170.309569 261.651553,169.468686 261.651553,169.468686 C261.651553,169.468686 254.313731,158.016328 251.704834,153.081741 C248.42988,146.887346 244,136.081739 244,136.081739 C244,136.081739 254,155.081741 269,153.081741 C277.555288,151.941036 289,141.08174 283,125.08174 C277,109.081741 260.117418,109.851099 254,110.08174 C241.698811,110.545523 234,116.081738 230,128.081739 C227.822485,134.614284 229.913013,142.674072 233,150.081741 C237.259451,160.302906 240.427337,169.08174 240,169.08174 C192,169.08174 147.673451,211.113517 138.595692,262.021623 C138.343251,263.437317 114,258.864344 114,282.455458 C114,306.046572 138.907589,303.055354 139.383968,305.094566 Z M235.085279,270.893968 C240.592513,270.893968 245.057008,266.489624 245.057008,261.056591 C245.057008,255.623558 240.592513,251.219214 235.085279,251.219214 C229.578045,251.219214 225.11355,255.623558 225.11355,261.056591 C225.11355,266.489624 229.578045,270.893968 235.085279,270.893968 Z M273.072817,270.893968 C278.580051,270.893968 283.044546,266.489624 283.044546,261.056591 C283.044546,255.623558 278.580051,251.219214 273.072817,251.219214 C267.565583,251.219214 263.101088,255.623558 263.101088,261.056591 C263.101088,266.489624 267.565583,270.893968 273.072817,270.893968 Z M222.923421,324.922652 C218.257933,337.98602 230.388202,343.584604 230.388202,343.584604 C230.388202,343.584604 229.455105,351.98248 234.120592,361.31346 C238.78608,370.64444 249.865821,373.9323 257.448034,372.510635 C263.727866,371.333167 272.377596,365.978948 275.176889,356.647972 C277.976182,347.316996 273.310691,337.986019 273.310691,337.986019 C273.310691,337.986019 280.775475,332.387434 276.109987,321.190263 C271.444499,309.993092 259.108068,310.749066 250.916351,309.993091 C243.726959,309.329616 227.588909,311.859285 222.923421,324.922652 Z M255.367366,363.960619 C270.633892,363.062588 267.041767,346 267.041767,346 C267.041767,346 258.061458,348.694093 253.571304,349.592124 C249.081149,350.490155 240.99887,348.694093 240.99887,348.694093 C240.99887,348.694093 240.10084,364.85865 255.367366,363.960619 Z" fill="#FFFFFF"></path>
            </g>
        </g>
    </g>
</svg>