<?xml version="1.0" encoding="UTF-8" standalone="no"?>
<svg width="500px" height="500px" viewBox="0 0 500 500" version="1.1" xmlns="http://www.w3.org/2000/svg" xmlns:xlink="http://www.w3.org/1999/xlink" xmlns:sketch="http://www.bohemiancoding.com/sketch/ns">
    <!-- Generator: Sketch 3.2.2 (9983) - http://www.bohemiancoding.com/sketch -->
    <title>Butterfly</title>
    <desc>Created with Sketch.</desc>
    <defs></defs>
    <g id="Page-1" stroke="none" stroke-width="1" fill="none" fill-rule="evenodd" sketch:type="MSPage">
        <g id="Row-5" sketch:type="MSLayerGroup">
            <g id="Butterfly" sketch:type="MSShapeGroup">
                <ellipse fill="#FA8997" cx="250" cy="250" rx="250" ry="250"></ellipse>
                <path d="M353.151381,226.909783 C353.179911,226.007735 353.131473,225.089426 353,224.15675 C351.013333,210.063252 339.986667,198.250248 324.5,199.65675 C309.013333,201.063252 298.013333,215.063252 298.013333,226.063252 C298.013333,226.233195 298.015719,226.403854 298.020475,226.575163 C298.01572,226.738477 298.013333,226.90119 298.013333,227.063252 C298.013333,238.063252 308.013333,252.063251 323.013333,251.063251 C337.385108,250.105132 353.568387,240.138768 353.151381,226.909783 L353.151381,226.909783 Z M172.013332,204.593498 C143.625869,209.862277 122.390992,230.825573 123.013333,263.575916 C123.43357,285.690702 132.556439,302.803153 144.013332,309.593495 C159.486703,318.764346 188.013336,318.593495 188.013336,318.593495 C188.013336,318.593495 176.013332,324.593495 170.013332,340.593495 C164.013332,356.593495 173.004348,376.980501 191.013336,385.593495 C218.938506,398.949009 251.383862,386.252662 264.013336,366.593495 C272.187884,353.86891 264.07682,332.593495 268.013336,332.593495 C270.397686,332.593495 266.480264,349.325578 278.013336,359.593495 C292.441784,372.43917 324.338586,378.154854 346.013336,362.593495 C363.878935,349.766911 368.990408,328.832245 364.013336,314.593495 C358.125628,297.749532 339.936481,288.276349 338.013333,284.093501 C336.992027,281.872161 364.968353,266.809122 375.013333,240.593499 C381.527962,223.591468 376.99569,197.149476 364.013333,182.593499 C348.261939,164.932845 320.620414,159.504448 301.013333,166.593499 C288.0665,171.2745 277.013333,178.593499 264.013333,198.593498 C263.80347,198.916364 263.013336,170.593499 274.013336,153.593499 C285.013336,136.593499 299.162528,136.164132 300.013336,133.593499 C300.362738,132.537815 304.013336,138.593501 313.013336,134.593499 C322.013336,130.593498 322.013336,120.593499 320.013336,115.593498 C317.653067,109.692825 308.013336,105.593499 301.013336,109.593499 C294.013336,113.593499 293.30498,122.374962 293.013336,122.593499 C292.110584,123.269957 268.013336,138.593499 263.013336,148.593499 C258.013336,158.593499 254.474642,174.250584 253.013336,179.593499 C248.547515,195.921714 243.013336,212.593495 243.013336,212.593495 C243.013336,212.593495 231.016477,174.412518 216.013336,153.593498 C205.465782,138.957248 190.436348,139.40123 190.013336,139.593498 C189.665439,139.751625 188.013336,130.593498 181.013332,129.593498 C174.013329,128.593498 167.011586,132.154634 167.013332,139.593498 C167.016209,151.849228 174.811286,154.707733 181.013332,153.593498 C184.426289,152.98034 188.013336,149.593499 188.013336,149.593499 C188.013336,149.593499 199.013336,147.593499 210.013336,166.593497 C221.013336,185.593495 228.421169,212.507865 226.013333,211.593497 C208.463823,204.929127 188.683382,201.499499 172.013332,204.593498 Z M168.5,289 C183.986667,290.406502 195.013333,278.593498 197,264.5 C198.986667,250.406502 182.013333,239.593499 167.013333,238.593499 C152.013333,237.593499 142.013333,251.593498 142.013333,262.593498 C142.013333,273.593498 153.013333,287.593498 168.5,289 Z M323.013332,330.593508 C333.013332,328.593671 339.788941,330.907619 341.013332,339.593499 C342.237724,348.279379 332.257893,354.977195 323.013333,355.593499 C313.768772,356.209803 310.013333,351.48302 310.013333,344.703675 C310.013333,344.703675 313.013333,332.593344 323.013332,330.593508 Z M213.013332,346.5935 C221.747834,345.800231 230.892849,352.644747 232.013332,360.593499 C233.133816,368.542252 228.013332,377.593499 214.113368,376.06088 C200.213403,374.528262 201.013333,364.797515 201.013333,358.5935 C201.013333,352.389484 204.27883,347.386769 213.013332,346.5935 Z" fill="#FFFFFF"></path>
            </g>
        </g>
    </g>
</svg>