<?xml version="1.0" encoding="UTF-8" standalone="no"?>
<svg width="500px" height="500px" viewBox="0 0 500 500" version="1.1" xmlns="http://www.w3.org/2000/svg" xmlns:xlink="http://www.w3.org/1999/xlink" xmlns:sketch="http://www.bohemiancoding.com/sketch/ns">
    <!-- Generator: Sketch 3.2.2 (9983) - http://www.bohemiancoding.com/sketch -->
    <title>Button</title>
    <desc>Created with Sketch.</desc>
    <defs></defs>
    <g id="Page-1" stroke="none" stroke-width="1" fill="none" fill-rule="evenodd" sketch:type="MSPage">
        <g id="Row-4" sketch:type="MSLayerGroup" transform="translate(0.000000, -21.000000)">
            <g id="Button" transform="translate(0.000000, 21.000000)" sketch:type="MSShapeGroup">
                <circle fill="#FA8997" cx="250" cy="250" r="250"></circle>
                <path d="M136,325 C159.639047,358.052899 206.797404,383 250,383 C274.106507,383 292.647036,376.654311 312,365 C350.286455,341.943983 380,299.107635 380,250.5 C380,220.473223 375,202 357,173 C339,144 292.336783,118 250,118 C218.417374,118 189.524642,128.912219 167,148 C138.319207,172.304613 120,209.512255 120,250.5 C120,279.644314 120.354068,303.123339 136,325 Z M245.951429,350.489525 C309.744719,350.489525 346.999995,305.58344 346.999995,249.775855 C346.999995,193.96827 302.089531,144.309611 245.951432,149.413074 C189.813333,154.516537 154.089091,195.344243 150.00632,247.399568 C145.92355,299.454893 182.158139,350.489525 245.951429,350.489525 Z M250.999998,334 C302.999994,331 334.000005,285 332.000005,249 C330.000005,213 300.563492,166 255,166 C209.436508,166 161,197 164,249 C167,301 199.000002,337 250.999998,334 Z M226,252 C237,251 237,243.406526 237,240 C237,232.820298 231.955844,227 224.5,227 C217.044156,227 212,234 212,240 C212,243.675468 215,253 226,252 Z M263,243 C252,242 252,234.406526 252,231 C252,223.820298 257.044156,218 264.5,218 C271.955844,218 277,225 277,231 C277,234.675468 274,244 263,243 Z M271,258.074567 C260,259.074567 260,266.668041 260,270.074567 C260,277.254269 265.044156,283.074567 272.5,283.074567 C279.955844,283.074567 285,276.074567 285,270.074567 C285,266.399099 282,257.074567 271,258.074567 Z M231,265.074567 C220,266.074567 220,273.668041 220,277.074567 C220,284.254269 225.044156,290.074567 232.5,290.074567 C239.955844,290.074567 245,283.074567 245,277.074567 C245,273.399099 242,264.074567 231,265.074567 Z" fill="#FFFFFF"></path>
            </g>
        </g>
    </g>
</svg>