<?xml version="1.0" encoding="UTF-8" standalone="no"?>
<svg width="500px" height="500px" viewBox="0 0 500 500" version="1.1" xmlns="http://www.w3.org/2000/svg" xmlns:xlink="http://www.w3.org/1999/xlink" xmlns:sketch="http://www.bohemiancoding.com/sketch/ns">
    <!-- Generator: Sketch 3.3 (11970) - http://www.bohemiancoding.com/sketch -->
    <title>Cake</title>
    <desc>Created with Sketch.</desc>
    <defs></defs>
    <g id="Page-1" stroke="none" stroke-width="1" fill="none" fill-rule="evenodd" sketch:type="MSPage">
        <g id="Row-1" sketch:type="MSLayerGroup" transform="translate(-1800.000000, 0.000000)">
            <g id="Cake" transform="translate(1800.000000, 0.000000)" sketch:type="MSShapeGroup">
                <path d="M250,500 C388.071187,500 500,388.071187 500,250 C500,111.928813 388.071187,0 250,0 C111.928813,0 0,111.928813 0,250 C0,388.071187 111.928813,500 250,500 Z" fill="#F2C06C"></path>
                <path d="M222.204859,313.061663 C209.156119,313.061663 199.955803,299.467388 186.156144,301.127285 C177.32725,302.189272 169.958268,312.829307 169.09241,320.931742 C168.535821,326.140129 174.674711,340.529112 183.144896,352.618876 C193.758895,367.768575 202.665962,384.856117 207.898323,387.616242 C220,394.000002 308.776597,388.850985 315,382.000002 C320.500895,375.944387 347.759754,317.961074 340.73351,301.127286 C337.567904,293.542985 317.64728,284.293498 308.613538,288.254389 C299.579796,292.21528 295.5648,310.998786 274.486068,311.029514 C253.407336,311.060241 265.856019,291.601858 249.796033,291.601858 C233.736047,291.601858 234.055101,313.061663 222.204859,313.061663 Z M141.475118,240.507084 C130.041154,268.090651 138.375023,304.63777 149.484669,309.102111 C172.715267,318.437179 179.785448,286.375646 189.885709,284.208574 C200.988926,281.826311 208.905667,301.602531 220.186489,299.767035 C235.710865,297.241072 236.449859,275.910728 253.517347,275.910728 C263.172136,275.910728 269.216282,300.650038 278.767997,299.767035 C293.078873,298.444073 287.858231,284.208574 305.028673,275.910728 C322.199115,267.612882 345.735292,296.201852 356.539998,291.469189 C366.687706,287.024303 376.807873,252.349901 361.590128,226.123654 C353.328595,211.885735 331.547672,179.193358 278.767994,183.28094 C274.904929,183.58012 291.171496,210.779886 246.730349,222.112966 C202.289203,233.446045 209.84212,192.397836 204.026073,191.895039 C186.495299,190.379505 153.949909,210.4126 141.475118,240.507084 Z M223.226754,210.872117 C228.088876,214.018837 234.904811,214.360706 241.255231,214.360706 C257.928456,214.360706 271.444775,201.661302 271.444775,185.995793 C271.444775,176.603349 266.762648,167.52904 259.368533,161.982769 C258.667411,161.456862 270.233943,146.492704 280.452897,139.339436 C290.671852,132.186168 297.811338,129.805608 300.890806,126.054795 C303.729047,122.597799 298.847015,109.704468 290.671852,113.792049 C282.496688,117.879631 275.941916,125.834191 268.190156,133.208063 C259.637402,141.343881 251.425133,157.814158 250.817933,157.630879 C247.90491,156.751603 242.801069,155.689763 239.577081,155.689763 C231.987198,155.689763 225.465409,158.498033 220.161068,162.843031 C213.812994,168.042993 211.065688,177.461441 211.065688,185.995793 C211.065688,195.694695 215.323226,205.757028 223.226754,210.872117 Z M253.883617,196.565581 C249.796035,201.675058 243.372583,200.428078 243.664663,201.675058 C244.194067,203.935252 253.883618,207.806431 258.993095,199.631267 C264.102572,191.456104 258.993095,186.346626 257.971199,187.368522 C256.949304,188.390417 257.9712,191.456104 253.883617,196.565581 Z" fill="#FFFFFF"></path>
            </g>
        </g>
    </g>
</svg>