<?xml version="1.0" encoding="UTF-8" standalone="no"?>
<svg width="500px" height="500px" viewBox="0 0 500 500" version="1.1" xmlns="http://www.w3.org/2000/svg" xmlns:xlink="http://www.w3.org/1999/xlink" xmlns:sketch="http://www.bohemiancoding.com/sketch/ns">
    <!-- Generator: Sketch 3.3 (11970) - http://www.bohemiancoding.com/sketch -->
    <title>Candy</title>
    <desc>Created with Sketch.</desc>
    <defs></defs>
    <g id="Page-1" stroke="none" stroke-width="1" fill="none" fill-rule="evenodd" sketch:type="MSPage">
        <g id="Row-2" sketch:type="MSLayerGroup" transform="translate(-1800.000000, 0.000000)">
            <g id="Candy" transform="translate(1800.000000, 0.000000)" sketch:type="MSShapeGroup">
                <path d="M250,500 C388.071187,500 500,388.071187 500,250 C500,111.928813 388.071187,0 250,0 C111.928813,0 0,111.928813 0,250 C0,388.071187 111.928813,500 250,500 Z" fill="#F2C06C"></path>
                <path d="M182.729244,295.6812 C204.591214,328.753128 244.485273,348.6812 273.729242,348.6812 C289.760179,348.6812 299.883411,338.20871 311.729239,333.6812 C313.74403,332.911142 316.729244,379.6812 328.729234,379.6812 C333.833,379.6812 343.627219,372.371349 358.729249,356.6812 C370.279451,344.6812 380.729249,350.6812 387.729249,336.6812 C394.729249,322.6812 381.729249,312.6812 396.729249,295.6812 C401.617676,290.140984 402.729249,275.6812 389.729249,273.6812 C376.729249,271.6812 339.729239,302.313339 339.729239,299.6812 C339.729239,296.6812 344.729234,268.6812 327.729234,231.6812 C310.729234,194.6812 265.729242,171.6812 242.729242,171.6812 C219.446651,171.6812 195.502296,180.595553 182.729243,194.6812 C181.999968,195.485419 187.257484,184.336658 188.729245,171.681202 C190.896038,153.049278 190.72925,132.681198 182.729245,123.681199 C174.72924,114.6812 169.489236,130.204249 156.729244,142.6812 C151.410503,147.881962 137.729246,149.681196 130.729244,160.681199 C123.729242,171.681203 127.497734,180.444956 123.729243,184.681202 C113.079534,196.652781 95.1672368,201.123893 99.729245,209.681198 C107.008375,223.335215 162.464201,216.125353 161.729243,218.6812 C159.741509,225.593633 163.923266,267.232258 182.729244,295.6812 Z M297.72924,322.681201 C297.378326,315.362401 277.729242,319.6812 255.729244,314.6812 C234.991218,309.968012 219.729243,287.681201 211.729243,290.6812 C203.729244,293.6812 226.041219,315.412627 229.729243,317.681202 C242.376721,325.460913 258.831148,330 267.562671,330 C270.125525,330 298.080154,330.000001 297.72924,322.681201 Z" fill="#FFFFFF"></path>
            </g>
        </g>
    </g>
</svg>