<?xml version="1.0" encoding="UTF-8" standalone="no"?>
<svg width="500px" height="500px" viewBox="0 0 500 500" version="1.1" xmlns="http://www.w3.org/2000/svg" xmlns:xlink="http://www.w3.org/1999/xlink" xmlns:sketch="http://www.bohemiancoding.com/sketch/ns">
    <!-- Generator: Sketch 3.3 (11970) - http://www.bohemiancoding.com/sketch -->
    <title>Car</title>
    <desc>Created with Sketch.</desc>
    <defs></defs>
    <g id="Page-1" stroke="none" stroke-width="1" fill="none" fill-rule="evenodd" sketch:type="MSPage">
        <g id="Row-1" sketch:type="MSLayerGroup" transform="translate(-600.000000, 0.000000)">
            <g id="Car" transform="translate(600.000000, 0.000000)" sketch:type="MSShapeGroup">
                <path d="M250,500 C388.071187,500 500,388.071187 500,250 C500,111.928813 388.071187,0 250,0 C111.928813,0 0,111.928813 0,250 C0,388.071187 111.928813,500 250,500 Z" fill="#6DB67F"></path>
                <path d="M133.17988,338.12966 C139.698862,341.220356 129.17988,324.12966 138.17988,306.12966 C147.17988,288.12966 163.212318,276.888072 185.17988,279.12966 C199.233351,280.563687 212.17988,283.12966 223.17988,304.12966 C234.17988,325.12966 223.17988,335.519674 228.17988,341.12966 C233.17988,346.739645 267.17988,344.12966 270.17988,341.12966 C273.17988,338.12966 267.324871,321.069061 274.17988,304.12966 C277.069747,296.988514 291.17988,279.646353 315.17988,280.12966 C339.17988,280.612967 353.533238,295.067454 357.17988,303.12966 C364.618632,319.575679 357.17988,345.12966 370.17988,338.12966 C370.707289,337.84567 393.850519,315.3832 396.17988,288.129667 C397.364755,274.266627 397.5094,264.518274 391.17988,247.129651 C390.49571,245.25008 385.151481,236.472642 376.17988,232.129653 C367.503974,227.929804 355.17988,228.129653 355.17988,228.129653 C355.17988,228.129653 359.17988,212.129653 334.17988,172.129653 C309.17988,132.129652 269.17988,123.129652 238.17988,125.129652 C216.73094,126.513455 181.139267,135.545866 164.17988,158.129653 C143.245909,186.006153 143.17988,228.129653 143.17988,228.129653 C143.17988,228.129653 121.869032,227.751835 115.17988,236.129653 C103.391997,250.893369 103.17988,279.30998 103.17988,288.129659 C103.17988,313.956443 115.068222,329.542791 133.17988,338.12966 Z M145.115778,357.129652 C151.937169,368.222302 164.971227,375.129652 178.67988,375.129652 C187.427633,375.129652 196.894379,373.182907 203.359367,368.129652 C212.608679,360.900076 217.17988,348.414076 217.17988,335.546892 C217.17988,322.742306 214.506242,311.364693 205.333726,304.129652 C198.846232,299.012486 187.488518,295.964132 178.67988,295.964132 C168.193193,295.964132 159.92347,295.964132 150.051675,306.129652 C140.17988,316.295172 140.17988,324.467549 140.17988,335.546892 C140.17988,343.313657 141.356772,351.016921 145.115778,357.129652 Z M282.115778,356.129652 C288.937169,367.222302 301.971227,374.129652 315.67988,374.129652 C324.427633,374.129652 333.894379,372.182907 340.359367,367.129652 C349.608679,359.900076 354.17988,347.414076 354.17988,334.546892 C354.17988,321.742306 351.506242,310.364693 342.333726,303.129652 C335.846232,298.012486 324.488518,294.964132 315.67988,294.964132 C305.193193,294.964132 296.92347,294.964132 287.051675,305.129652 C277.17988,315.295172 277.17988,323.467549 277.17988,334.546892 C277.17988,342.313657 278.356772,350.016921 282.115778,356.129652 Z M338.646544,359.838049 C348.248006,353.838389 349.953155,335.638962 346.17988,334.129652 C341.17988,332.129653 343.069056,345.952299 332.467687,349.949811 C318.245232,355.312743 315.028757,358.687136 317.17988,362.129652 C319.331003,365.572168 329.045081,365.837708 338.646544,359.838049 Z M190.11015,221.091686 C197.903818,232.669956 319.67988,227.122019 319.67988,219.310413 C319.67988,207.600002 308.724919,191.678942 294.350452,180.122421 C283.31594,171.251096 272.972974,164.981606 247.588447,164.981606 C189.135941,164.981606 182.316483,209.513415 190.11015,221.091686 Z" fill="#FFFFFF"></path>
            </g>
        </g>
    </g>
</svg>