<?xml version="1.0" encoding="UTF-8" standalone="no"?>
<svg width="500px" height="500px" viewBox="0 0 500 500" version="1.1" xmlns="http://www.w3.org/2000/svg" xmlns:xlink="http://www.w3.org/1999/xlink" xmlns:sketch="http://www.bohemiancoding.com/sketch/ns">
    <!-- Generator: Sketch 3.3 (11970) - http://www.bohemiancoding.com/sketch -->
    <title>Castle</title>
    <desc>Created with Sketch.</desc>
    <defs></defs>
    <g id="Page-1" stroke="none" stroke-width="1" fill="none" fill-rule="evenodd" sketch:type="MSPage">
        <g id="Row-4" sketch:type="MSLayerGroup" transform="translate(-1800.000000, 0.250000)">
            <g id="Castle" transform="translate(1800.000000, 0.000000)" sketch:type="MSShapeGroup">
                <path d="M250,499.001996 C388.071187,499.001996 500,387.296594 500,249.500998 C500,111.705402 388.071187,0 250,0 C111.928813,0 0,111.705402 0,249.500998 C0,387.296594 111.928813,499.001996 250,499.001996 Z" fill="#F2C06C"></path>
                <path d="M253.019739,136.287286 L253.019739,148.303493 C263.868118,151.030109 296.711057,189.370358 294.546961,192.541469 C293.775461,193.671969 281.08292,194.185572 281.08292,194.185572 L281.08292,203.315805 L281.08292,203.315805 C284.181865,203.414531 286.68872,204.087082 286.68872,205.691173 C286.68872,209.801589 285.304026,215.558758 286.688716,217.275476 C288.073407,218.992194 295.646669,218.192333 296.323253,217.275476 C296.708196,216.753829 297.07188,216.439291 296.697566,209.813411 C296.323252,203.187531 316.732168,199.181706 316.732125,213.702824 C316.732096,223.354582 317.542877,225.131731 316.732125,228.603886 C316.149329,231.099787 311.393369,230.727584 311.393369,230.727584 C311.393369,230.727584 311.393367,238.141044 311.393366,242.559448 C311.393366,246.543258 311.455114,250.20332 311.542224,253.561477 C317.178771,254.386134 321.64507,256.217002 321.64507,258.638415 C321.64507,265.200664 318.998764,274.391941 321.645063,277.13267 C324.291361,279.873398 338.764712,278.596426 340.057739,277.13267 C340.793407,276.299864 341.488448,275.797707 340.773092,265.219538 C340.057737,254.64137 379.061456,248.246099 379.061373,271.428957 C379.061318,286.837918 380.610811,289.675123 379.061373,295.218393 C377.947585,299.20308 368.858415,298.608861 368.858415,298.608861 C368.858415,298.608861 368.85841,310.444395 368.858409,317.498345 C368.858404,376.089858 378.873359,390.816993 344.536377,388.942065 C341.531369,388.77798 319.119708,389.607773 288.841916,389.741474 C288.217505,389.744231 147.511477,386.623135 142.806622,386.152421 C122.757303,384.146516 131.360961,367.841429 131.360961,320.061195 C131.360961,319.835776 130.286618,311.536054 131.200833,302.998767 C131.350947,301.596947 120.25,304.204721 120.25,295.218394 C120.25,286.232067 121.161308,276.977736 121.161308,268.279119 C121.161308,249.844917 161.592342,252.243143 160.347537,264.234277 C159.963287,267.935727 160.232131,272.257238 162.589474,273.935035 C167.868927,277.692593 178.488952,275.357397 179.289664,273.935034 C180.447903,271.877569 179.289664,268.274692 179.289661,260.237232 C179.289659,257.223723 182.579031,255.406973 186.947993,254.501302 L186.947993,254.501302 C187.050896,251.350836 187.121486,247.912359 187.121486,244.164748 C187.121486,244.023552 186.55933,238.82483 187.037698,233.477303 C187.116246,232.599241 181.307613,234.23268 181.307613,228.603887 C181.307613,222.975093 181.78446,217.17843 181.78446,211.72985 C181.78446,200.183162 202.940227,201.685347 202.288875,209.19627 C202.082037,211.58138 202.269667,214.223082 203.563158,215.272564 C206.342986,217.527994 211.786849,216.152062 212.20045,215.272563 C212.806505,213.983822 212.20045,211.727077 212.200448,206.692629 C212.200448,204.272713 215.02934,203.084848 218.250729,202.75199 L218.250729,194.185572 C218.250729,194.185572 207.030695,194.185572 207.030695,192.541469 C207.030696,181.974982 233.021073,154.342572 247.61417,149.03834 L247.61417,149.03834 L247.61417,119.34901 L247.629029,119.34901 C248.044181,115.877139 257.159059,107.858228 274.973661,109.472668 C293.213321,111.125629 299.771589,123.432974 304.613108,126.002277 C309.956976,128.838166 320.572811,125.987386 320.572811,129.308199 C320.572811,130.96116 311.795168,136.35035 297.773236,135.920042 C292.777894,135.766744 282.640608,129.714455 270.413746,129.308199 C264.011712,129.095482 257.110302,133.286951 253.019739,136.287286 L253.019739,136.287286 Z M252.979129,342.740134 L252.979129,357.699554 L252.979129,357.699554 L265.138972,357.699554 L265.138972,342.740134 L252.979129,342.740134 L252.979129,342.740134 Z M252.979129,335.260602 L252.979129,295.621541 C257.172319,296.717431 261.295464,298.975148 265.138972,302.148432 L265.138972,335.260602 L252.979129,335.260602 L252.979129,335.260602 Z M285.992978,342.740134 C286.380596,345.684756 286.585032,348.684704 286.585032,351.715004 C286.585032,353.873496 286.532925,355.863934 286.425248,357.699554 L286.425248,357.699554 L270.861252,357.699554 L270.861253,342.740134 L285.992978,342.740134 L285.992978,342.740134 Z M284.594889,335.260602 C281.992833,324.551752 277.031312,314.943057 270.861255,307.78679 L270.861254,335.260602 L284.594889,335.260602 L284.594889,335.260602 Z M236.527576,342.740134 L236.527576,357.699554 L236.527576,357.699554 L247.25685,357.699554 L247.25685,342.740134 L236.527576,342.740134 L236.527576,342.740134 Z M236.527576,335.260602 L236.527576,299.451725 C240.070298,296.577683 243.688404,294.900862 247.111506,294.871127 C247.15995,294.870706 247.208398,294.870454 247.25685,294.870371 L247.25685,335.260602 L236.527576,335.260602 L236.527576,335.260602 Z M214.34018,342.740134 C213.878311,345.771757 213.629084,348.782298 213.626613,351.715002 C213.624799,353.866656 213.633839,355.857596 213.665177,357.699554 L213.665177,357.699554 L230.805297,357.699554 L230.805297,342.740134 L214.34018,342.740134 L214.34018,342.740134 Z M215.889244,335.260602 C218.853871,323.870034 224.431196,312.840655 230.805297,305.193749 L230.805297,335.260602 L215.889244,335.260602 L215.889244,335.260602 Z M252.979129,365.179087 L252.979129,379.769411 L252.979129,379.769411 C257.566378,379.708262 261.604062,379.66454 265.138972,379.459378 L265.138972,379.459378 L265.138972,365.179087 L252.979129,365.179087 L252.979129,365.179087 Z M285.508959,365.179087 C283.606405,374.322431 279.054631,377.629468 270.861251,378.893862 L270.861251,378.893862 L270.861252,365.179087 L285.508959,365.179087 L285.508959,365.179087 Z M236.527576,365.179087 L236.527576,380.02848 L236.527576,380.02848 C239.621445,380.020952 243.130933,379.947372 247.111506,379.864591 C247.160006,379.863582 247.208454,379.862582 247.25685,379.86159 L247.25685,379.861585 L247.25685,365.179087 L236.527576,365.179087 L236.527576,365.179087 Z M214.009234,365.179087 C215.031051,376.544921 218.638568,379.422866 230.805297,379.935608 L230.805297,379.935608 L230.805297,365.179087 L214.009234,365.179087 L214.009234,365.179087 Z M302.0826,253.160212 C301.814387,243.714942 301.600214,235.374967 301.600223,232.827186 C301.600241,227.377314 273.522034,228.295946 246.921764,228.764885 C223.477226,229.178191 201.24145,228.536268 199.533766,232.827187 C198.185225,236.215679 197.834461,244.634354 197.927786,253.897664 C202.173369,254.190395 205.9195,255.041862 207.561506,256.244615 C210.973035,258.743525 207.813668,270.737398 209.55815,273.935034 C211.302632,277.13267 224.546576,278.858627 229.057895,273.935035 C233.474924,269.114349 230.878792,261.23263 230.878947,258.638415 C230.87942,250.728813 252.86651,252.341962 261.502686,256.244615 C269.69399,259.946232 262.413994,270.737398 265.147917,273.935034 C266.876593,275.956919 280.935263,278.201171 287.331579,273.935035 C291.051115,271.454225 288.841917,264.056101 288.841917,260.237232 C288.841917,255.715156 295.060541,253.583787 302.0826,253.160212 L302.0826,253.160212 Z M272.106893,204.33133 L272.106893,196.024883 L224.98275,196.024883 L224.98275,203.242535 C225.858593,203.493023 226.564007,203.814855 226.993851,204.191761 C228.778953,205.757011 227.422,214.305264 228.038606,215.272563 C228.378648,215.806003 237.017035,217.464291 239.006084,215.272563 C240.995134,213.080835 239.006084,210.186779 239.006084,205.691173 C239.006084,201.195566 250.69995,201.747244 255.218878,204.191761 C259.505024,206.510354 255.695725,213.26965 257.126266,215.272563 C258.556806,217.275476 269.524284,216.842302 269.524284,215.272563 C269.524284,213.702824 268.723202,208.08574 269.524284,205.691173 C269.685749,205.208529 270.676219,204.731036 272.106893,204.33133 L272.106893,204.33133 Z M186.542544,339.799291 C186.542544,339.799291 195.323566,305.055601 176.288075,305.055601 C157.252585,305.055601 165.056991,339.799291 165.056991,339.799291 L186.542544,339.799291 Z M339.510965,339.000368 C339.510965,339.000368 348.291987,304.256678 329.256496,304.256678 C310.221006,304.256678 318.025412,339.000368 318.025412,339.000368 L339.510965,339.000368 Z" fill="#FFFFFF"></path>
            </g>
        </g>
    </g>
</svg>