<?xml version="1.0" encoding="UTF-8" standalone="no"?>
<svg width="500px" height="500px" viewBox="0 0 500 500" version="1.1" xmlns="http://www.w3.org/2000/svg" xmlns:xlink="http://www.w3.org/1999/xlink" xmlns:sketch="http://www.bohemiancoding.com/sketch/ns">
    <!-- Generator: Sketch 3.3 (11970) - http://www.bohemiancoding.com/sketch -->
    <title>Cat</title>
    <desc>Created with Sketch.</desc>
    <defs></defs>
    <g id="Page-1" stroke="none" stroke-width="1" fill="none" fill-rule="evenodd" sketch:type="MSPage">
        <g id="Row-5" sketch:type="MSLayerGroup" transform="translate(-1800.000000, 0.000000)">
            <g id="Cat" transform="translate(1800.000000, 0.000000)" sketch:type="MSShapeGroup">
                <path d="M250,500 C388.071187,500 500,388.071187 500,250 C500,111.928813 388.071187,0 250,0 C111.928813,0 0,111.928813 0,250 C0,388.071187 111.928813,500 250,500 Z" fill="#F2C06C"></path>
                <path d="M253.873268,201.087912 C256.073612,201.031052 258.24065,201.069267 260.372515,201.197609 C260.233616,201.618466 260.101158,202.047857 259.975851,202.484855 C257.95638,209.527585 261.32163,216.671248 261.32163,216.671248 C261.32163,216.671248 267.961089,212.396389 269.980559,205.353659 C270.253079,204.40327 270.477851,203.465469 270.65601,202.55222 L270.65601,202.55222 C342.68479,217.349859 365.596146,337.336614 253.505617,334.982466 C177.793488,333.392345 160.252253,284.820493 179.558011,246.592911 C188.444386,228.996886 205.97545,213.53296 227.515552,205.973561 L227.515552,205.973561 C227.647273,206.717627 227.808537,207.47696 228.000139,208.245436 C229.772591,215.354354 236.258815,219.858323 236.258815,219.858323 C236.258815,219.858323 239.871325,212.836457 238.098872,205.727539 C237.8766,204.836054 237.624054,203.974601 237.346823,203.151037 C239.422075,202.684362 241.525269,202.291377 243.652826,201.976536 C243.612813,202.63953 243.592056,203.31871 243.592056,204.010249 C243.592056,211.336798 248.796002,217.276139 248.796002,217.276139 C248.796002,217.276139 253.999949,211.336798 253.999949,204.010249 C253.999949,203.006177 253.95619,202.028159 253.873268,201.087912 Z M237.090422,293.862839 C237.710135,299.690223 241.769781,303.846286 247.159604,305.368563 C244.217807,309.350595 240.152703,313.28335 235.274413,313.974578 C224.871864,315.448566 223.138106,306.033374 223.138106,305.130654 C223.138106,303.666303 219.670589,304.144782 219.670589,305.130654 C219.670589,305.850508 219.670589,316.922554 233.540655,316.922554 C245.095405,316.922554 250.474187,308.738888 251.947959,306.006707 L251.947959,306.006707 C252.294765,306.005177 252.638995,305.993833 252.980234,305.972863 C254.370396,308.182043 258.127594,314.16284 264.748302,316.922554 C267.460713,318.05317 276.269569,318.435939 280.352127,315.448566 C285.001526,312.046414 283.819644,306.604641 283.819644,305.130654 C283.819644,303.656666 280.352127,303.656666 280.352127,305.130654 C280.352127,305.907901 281.168298,310.410882 278.618369,312.500591 C275.655778,314.928483 269.10757,314.867429 266.482062,313.974578 C262.584004,312.648975 259.340529,308.93906 256.951133,305.257154 C262.003343,303.696558 265.814241,299.786561 266.583287,294.348564 C276.76086,296.363346 306.927131,298.084058 307.45263,296.251428 C308.03209,294.230611 277.228304,291.663588 266.725663,292.291081 L266.725663,292.291081 C266.725657,292.012689 266.718133,291.731006 266.702892,291.446122 L266.702892,291.446122 C273.758823,291.927559 295.123465,288.480379 295.384273,286.356264 C295.675277,283.986229 273.282097,286.724156 266.433653,289.307032 C265.585491,286.572506 258.831198,284.693119 251.866917,284.645733 C244.944241,284.598631 238.657259,286.330704 237.425491,288.972372 L237.425491,288.972372 C229.657367,286.497472 209.166278,284.088454 209.44473,286.356264 C209.693162,288.37958 229.090007,291.60337 237.028722,291.488682 C237.02461,291.569534 237.02112,291.650127 237.018248,291.730459 C225.924248,291.454259 194.435278,294.880769 195.045845,296.877844 C195.5979,298.683534 226.265893,296.158583 237.090422,293.862839 L237.090422,293.862839 Z M131.248922,286.211046 C125.596921,340.669482 165.77536,360.410054 176.053115,370.858565 C178.05645,372.895184 184.749294,352.671181 220.396922,360.455011 C256.044551,368.23884 245.493513,394.287879 249.144479,401.182086 C249.753505,402.332126 256.079511,401.182086 256.079511,401.182086 C256.079511,401.182086 248.689142,371.58987 282.085884,361.406532 C315.482627,351.223194 328.143871,370.179692 329.928984,368.238839 C338.599024,358.812397 373.975065,339.274603 368.773791,286.211046 C363.572516,233.147489 336.260737,222.297822 334.09863,219.966155 C333.905727,219.758125 346.23981,215.998606 348.54649,199.245772 C350.85317,182.492938 337.168834,159.786487 335.83726,158.978228 C332.990868,157.25048 310.511002,162.612018 298.408802,174.29595 C286.306601,185.979882 291.078717,193.979729 290.754675,193.84465 C284.299568,191.153795 278.279149,189.896971 271.758837,189.060857 C270.964964,188.959057 268.279429,177.862596 256.04455,164.724995 C245.418739,153.315183 225.8218,145.694567 226.829225,131.421746 C227.806117,117.581499 252.235243,117.148925 267.126225,117.148925 C298.356401,117.148925 288.433867,94.8438549 282.2376,92.4093688 C276.041334,89.9748827 267.833926,86.8261361 248.992575,89.5548046 C229.873246,92.3237308 203.695335,104.653727 198.621324,121.906532 C192.833574,141.586215 203.938266,158.98702 218.769825,166.628038 C229.8515,172.337166 239.040332,186.585424 238.918325,186.609987 C234.188594,187.562177 217.889573,191.184217 216.203073,191.875833 C216.027712,191.947747 219.153303,181.907478 208.506741,171.347975 C197.983797,160.911078 174.588004,156.030252 174.588004,156.030252 C174.588004,156.030252 156.640168,172.528688 158.369054,193.994162 C160.097939,215.459636 169.564425,216.835558 169.391602,217.01818 C168.987362,217.445341 136.450196,236.095464 131.248922,286.211046 Z M212.735557,411.5 C240.475688,411.5 243.817881,405.913505 243.942742,395.371236 C245.676962,373.193231 223.138106,362.87987 205.800524,362.87987 C188.462942,362.87987 169.391602,379.08658 169.391602,395.29329 C169.391602,411.5 184.995426,411.5 212.735557,411.5 Z M205.800524,408.552025 C208.858168,408.552025 205.390651,405.604049 205.390651,395.219465 C205.390651,384.834882 208.448295,382.020246 205.390651,382.020246 C202.333007,382.020246 202.333007,392.432194 202.333007,398.167441 C202.333007,403.902688 202.74288,408.552025 205.800524,408.552025 Z M222.664611,408.552025 C219.606967,408.552025 223.074484,406.178459 223.074484,397.817301 C223.074484,389.456142 220.01684,387.189935 223.074484,387.189935 C226.132128,387.189935 226.132128,395.573126 226.132128,400.190866 C226.132128,404.808606 225.722255,408.552025 222.664611,408.552025 Z M186.729184,408.552025 C189.786828,408.552025 186.319311,406.178459 186.319311,397.817301 C186.319311,389.456142 189.376955,387.189935 186.319311,387.189935 C183.261667,387.189935 183.261667,395.573126 183.261667,400.190866 C183.261667,404.808606 183.67154,408.552025 186.729184,408.552025 Z M304.624741,411.5 C332.364872,411.5 335.707065,405.913505 335.831926,395.371236 C337.566146,373.193231 315.02729,362.87987 297.689708,362.87987 C280.352126,362.87987 261.280786,379.08658 261.280786,395.29329 C261.280786,411.5 276.88461,411.5 304.624741,411.5 Z M298.949971,408.552025 C295.892328,408.552025 299.359844,405.604049 299.359844,395.219465 C299.359844,384.834882 296.3022,382.020246 299.359844,382.020246 C302.417488,382.020246 302.417488,392.432194 302.417488,398.167441 C302.417488,403.902688 302.007615,408.552025 298.949971,408.552025 Z M318.021312,408.552025 C314.963668,408.552025 318.431184,406.178459 318.431184,397.817301 C318.431184,389.456142 315.37354,387.189935 318.431184,387.189935 C321.488828,387.189935 321.488828,395.573126 321.488828,400.190866 C321.488828,404.808606 321.078955,408.552025 318.021312,408.552025 Z M282.085884,408.552025 C285.143528,408.552025 281.676011,406.178459 281.676011,397.817301 C281.676011,389.456142 284.733655,387.189935 281.676011,387.189935 C278.618368,387.189935 278.618368,395.573126 278.618368,400.190866 C278.618368,404.808606 279.02824,408.552025 282.085884,408.552025 Z M281.61239,275.316456 C298.260503,275.316456 311.756466,263.842605 311.756466,249.688893 C311.756466,235.535181 298.260503,224.06133 281.61239,224.06133 C264.964276,224.06133 251.468314,235.535181 251.468314,249.688893 C251.468314,263.842605 264.964276,275.316456 281.61239,275.316456 Z M177.827913,189.70353 C177.661393,198.099263 181.607963,207.984168 182.569058,208.961242 C183.002458,209.401849 185.762249,204.931269 190.943824,202.286679 C195.77596,199.820438 204.598098,198.475542 204.615949,197.895244 C204.653615,196.670867 199.260975,190.070241 192.583343,185.276476 C187.163599,181.385729 180.197294,179.018401 180.197294,179.018401 C180.197294,179.018401 178.004348,180.807893 177.827913,189.70353 Z M332.235303,192.467649 C331.113005,200.899166 325.519985,208.309557 324.586829,209.258228 C323.737434,210.121746 320.967593,205.099696 317.368624,202.470813 C313.870493,199.915587 308.265586,200.119903 308.228069,198.900367 C308.183536,197.452724 309.07164,191.657339 312.950405,185.981795 C316.82917,180.306252 328.162939,177.269377 328.162939,177.269377 C328.162939,177.269377 333.549259,182.596257 332.235303,192.467649 Z M281.219005,263.122004 C289.357995,263.122004 295.95595,257.512626 295.95595,250.593108 C295.95595,243.673591 289.357995,238.064213 281.219005,238.064213 C273.080015,238.064213 266.48206,243.673591 266.48206,250.593108 C266.48206,257.512626 273.080015,263.122004 281.219005,263.122004 Z M286.42028,256.489059 C288.8141,256.489059 290.754675,254.839242 290.754675,252.80409 C290.754675,250.768938 288.8141,249.119121 286.42028,249.119121 C284.026459,249.119121 282.085884,250.768938 282.085884,252.80409 C282.085884,254.839242 284.026459,256.489059 286.42028,256.489059 Z M220.537468,263.122004 C228.676458,263.122004 235.274413,257.512626 235.274413,250.593108 C235.274413,243.673591 228.676458,238.064213 220.537468,238.064213 C212.398479,238.064213 205.800524,243.673591 205.800524,250.593108 C205.800524,257.512626 212.398479,263.122004 220.537468,263.122004 Z M224.004985,256.489059 C226.398805,256.489059 228.33938,254.839242 228.33938,252.80409 C228.33938,250.768938 226.398805,249.119121 224.004985,249.119121 C221.611164,249.119121 219.670589,250.768938 219.670589,252.80409 C219.670589,254.839242 221.611164,256.489059 224.004985,256.489059 Z" fill="#FFFFFF"></path>
            </g>
        </g>
    </g>
</svg>