<?xml version="1.0" encoding="UTF-8" standalone="no"?>
<svg width="500px" height="500px" viewBox="0 0 500 500" version="1.1" xmlns="http://www.w3.org/2000/svg" xmlns:xlink="http://www.w3.org/1999/xlink" xmlns:sketch="http://www.bohemiancoding.com/sketch/ns">
    <!-- Generator: Sketch 3.3 (11970) - http://www.bohemiancoding.com/sketch -->
    <title>Cherries</title>
    <desc>Created with Sketch.</desc>
    <defs></defs>
    <g id="Page-1" stroke="none" stroke-width="1" fill="none" fill-rule="evenodd" sketch:type="MSPage">
        <g id="Row-5" sketch:type="MSLayerGroup" transform="translate(-2400.000000, 0.000000)">
            <g id="Cherries" transform="translate(2400.000000, 0.000000)" sketch:type="MSShapeGroup">
                <path d="M250,500 C388.071187,500 500,388.071187 500,250 C500,111.928813 388.071187,0 250,0 C111.928813,0 0,111.928813 0,250 C0,388.071187 111.928813,500 250,500 Z" fill="#CAA4CC"></path>
                <path d="M178.225707,270.157422 C179.181774,270.450593 180.166112,270.703545 181.193353,270.90322 C194.43317,273.47678 206.388272,267.668293 220.646199,278.572077 C234.904127,289.475861 237.097721,310.596362 233.474911,329.234104 C227.650898,359.19605 201.82405,381.884756 162.674686,374.27489 C123.525323,366.665025 102.381383,336.09725 108.205395,306.135304 C112.22458,285.458391 127.194418,263.534707 145.733818,262.133895 C158.860927,261.142028 165.73363,264.893405 172.481321,267.917334 C172.804341,263.422341 173.462068,257.683816 174.762816,250.846516 C176.715312,240.583346 180.040609,229.290725 183.832891,218.232704 C185.13322,214.44104 191.884688,194.87451 202.880047,178.371373 C216.037168,158.623607 234.435583,141.355597 245.509398,134.886292 C268.256165,121.597666 293.580801,119.604581 302.650876,119.485325 C311.720951,119.36607 315.348981,133.980352 304.464891,134.886292 C304.408827,134.890958 304.107138,139.978971 305.371898,144.851624 C306.428771,148.923362 308.855243,152.793077 310.813943,153.911016 C311.75173,154.446263 315.976301,153.746728 317.162996,153.911016 C318.633342,154.114574 355.25731,153.005077 378.839504,185.618889 C402.421698,218.232702 388.898499,269.809914 388.816586,269.871245 C388.705636,269.954317 374.289183,259.068797 358.885339,249.034643 C343.481496,239.000488 328.954093,241.787129 305.371898,215.514884 C291.674025,200.254477 299.712899,177.01009 300.836861,172.93574 C302.904188,165.441702 303.839874,158.09809 303.557883,157.534773 C301.743868,153.911016 298.115839,139.415988 298.115839,139.415988 C298.115839,139.415988 280.25466,157.534773 277.533637,195.584221 C276.174762,214.586072 282.736575,245.776822 289.324734,265.341549 C290.773035,269.642539 292.445908,273.260833 293.957609,276.106794 C294.674852,276.062152 295.400399,275.991102 296.137699,275.887481 C309.494061,274.010367 318.906774,264.626134 335.937834,270.293937 C352.968895,275.96174 361.919141,295.217402 364.561562,314.019205 C368.809505,344.244894 351.77646,374.105886 312.28248,379.656403 C272.7885,385.20692 242.844617,363.188314 238.596674,332.962625 C235.665143,312.103701 242.68175,286.500749 259.755037,279.140416 C271.460949,274.093971 279.069993,275.161839 286.22687,275.835941 C280.109427,263.18216 270.884333,239.944318 269.091592,211.891127 C266.37057,169.311976 284.497455,134.886292 284.51072,134.886292 C285.163721,134.886292 261.524458,134.574116 240.253338,148.475382 C229.709167,155.366289 215.071992,172.525764 204.880047,189.242644 C196.288972,203.333767 191.382631,217.396351 189.460921,221.856461 C185.14575,231.871571 182.830773,244.68443 180.390846,253.564334 C178.614645,260.028666 178.194685,265.799268 178.225707,270.157422 L178.225707,270.157422 Z M296.350274,280.262198 C296.588511,280.230121 296.819131,280.194258 297.041134,280.15407 C302.045028,279.24824 310.124121,275.885179 311.168536,278.521232 C312.866062,282.805706 305.177866,288.732045 299.131288,291.725171 C292.320902,295.096392 279.491146,291.551166 279.861562,283.769011 C279.987075,281.132062 284.122979,280.730662 288.634082,280.60639 C290.510583,284.165126 291.739373,286.12339 291.766786,286.178151 C292.673794,287.99003 299.301824,287.99003 298.394816,283.460333 C298.359312,283.28302 297.548235,282.186868 296.350274,280.262198 L296.350274,280.262198 Z M178.501667,275.592324 C183.449663,276.913125 190.705761,277.822426 190.417444,280.398381 C189.904832,284.978287 180.334311,286.601545 173.590312,286.405622 C165.994405,286.184951 156.330786,277.031497 160.311344,270.334161 C161.958194,267.563317 167.319251,270.541907 172.225737,273.016005 C172.13203,276.472934 172.247432,278.57872 172.247432,279.181002 C172.247432,282.554387 178.767709,282.554387 178.767709,278.342631 C178.767709,277.982366 178.635618,277.031132 178.501667,275.592324 L178.501667,275.592324 Z M316.615981,168.697126 C316.943482,169.089499 310.271519,180.210162 312.990574,180.210162 C315.709629,180.210162 319.809597,170.508848 320.241388,171.010572 C323.151894,174.392469 326.480729,178.268595 329.805,182.143269 C330.622249,183.095831 323.43222,211.932471 326.58585,213.745174 C329.739481,215.557878 333.269799,186.183014 333.774384,186.771555 C338.007441,191.708941 341.945561,196.307227 344.65657,199.473792 C346.928234,202.127185 342.463711,233.684911 346.995468,235.497615 C351.527224,237.310318 349.206582,205.083505 350.671152,207.276169 C358.369713,218.801979 377.106012,243.89031 378.247894,242.748428 C379.395287,241.601035 373.825257,232.539426 359.362009,212.224674 C358.487061,210.995742 384.592356,225.527746 383.686004,220.995988 C382.779652,216.464229 355.56859,206.996909 354.996441,206.229062 C353.700794,204.490249 352.385915,202.762069 351.057345,201.05625 C346.881364,195.694497 342.915922,190.734068 339.138964,186.201231 C338.371019,185.279597 361.933564,188.367328 361.933564,184.741921 C361.933564,181.116514 335.956373,182.43085 335.509483,181.911232 C332.409075,178.306258 329.439013,175.014842 326.58585,172.052996 C326.126058,171.57569 346.995468,175.408867 346.995468,172.052996 C346.995468,168.697126 323.697618,168.997327 323.395018,168.697126 C317.090194,162.442302 312.31517,159.044235 310.271519,160.270425 C309.763337,160.575334 313.32036,164.748706 316.615981,168.697126 Z" fill="#FFFFFF"></path>
            </g>
        </g>
    </g>
</svg>