<?xml version="1.0" encoding="UTF-8" standalone="no"?>
<svg width="500px" height="500px" viewBox="0 0 500 500" version="1.1" xmlns="http://www.w3.org/2000/svg" xmlns:xlink="http://www.w3.org/1999/xlink" xmlns:sketch="http://www.bohemiancoding.com/sketch/ns">
    <!-- Generator: Sketch 3.3 (11970) - http://www.bohemiancoding.com/sketch -->
    <title>Chick</title>
    <desc>Created with Sketch.</desc>
    <defs></defs>
    <g id="Page-1" stroke="none" stroke-width="1" fill="none" fill-rule="evenodd" sketch:type="MSPage">
        <g id="Row-2" sketch:type="MSLayerGroup" transform="translate(-1800.000000, 0.000000)">
            <g id="Chick" transform="translate(1800.000000, 0.000000)" sketch:type="MSShapeGroup">
                <path d="M250,500 C388.071187,500 500,388.071187 500,250 C500,111.928813 388.071187,0 250,0 C111.928813,0 0,111.928813 0,250 C0,388.071187 111.928813,500 250,500 Z" fill="#F2C06C"></path>
                <path d="M225.151495,355.068784 C233.256812,356.215089 242.363321,356.83769 252.583549,356.83769 C258.97746,356.83769 264.911914,356.589158 270.416881,356.11695 L270.416881,356.11695 C270.591239,360.773342 270.650613,364.601142 270.055332,368.253616 C269.846116,369.537303 266.382815,371.725422 264.175978,374.150072 C259.555947,379.226098 256.489753,385.338788 259.284053,386.359895 C263.413098,387.868752 268.926896,379.335704 272.985973,378.815612 C279.904019,377.929198 282.036921,390.886465 289.145606,389.377608 C296.254292,387.868752 283.859325,378.841036 287.48663,377.306756 C293.333592,374.833603 301.528178,376.151398 304.076383,374.289043 C306.853619,372.259299 298.259372,369.372341 290.804581,368.253616 C287.175989,367.709081 283.428894,368.547685 283.400701,368.253617 C283.133408,365.465678 283.781958,359.923559 284.66347,354.243137 C369.600157,338.700913 325.198212,258.565048 324.62214,257.466999 C323.303749,254.954017 365.0228,295.848068 359.495191,273.634334 C359.332525,272.98063 356.479522,252.56947 345.735393,235.967566 C336.289863,221.372266 318.77698,210.292478 318.774931,210.290071 C312.586478,203.019754 320.281887,140.187181 271.168581,125.841093 C268.913572,125.1824 260.388905,123.580539 258.455261,123.374502 C257.088412,123.22886 265.34502,117.287789 260.240431,117.287789 C257.769957,117.287789 254.866552,117.170253 252.158795,118.523937 C249.271681,119.967288 246.606991,122.889425 244.926667,122.951572 C242.109077,123.05578 252.583549,117.287789 252.583549,111.624007 C252.583549,108.447076 241.845441,112.534288 234.717491,117.287789 C229.137841,121.008756 227.059962,125.308907 225.51076,125.717466 C168.828887,140.665744 180.041511,205.049365 174.271175,210.290069 C174.26121,210.29912 159.101175,221.409749 151.055218,235.967566 C142.026941,252.302725 140.000019,272.351821 140,273.634332 C139.999743,290.822768 173.375636,253.787248 171.587916,258.1813 C170.734603,260.278663 136.694425,332.974368 210.627694,352.208168 C211.810085,358.24104 212.781129,364.324602 212.599851,367.308575 C212.581938,367.603447 208.807858,366.896126 205.200481,367.566966 C197.789274,368.945177 189.301016,372.130312 192.147397,374.061894 C194.759045,375.834184 202.902649,374.231205 208.832361,376.498795 C212.511001,377.905549 200.438648,387.360344 207.595662,388.620192 C214.752676,389.88004 216.432075,376.856229 223.376843,377.500667 C227.451598,377.878782 233.259836,386.214203 237.333707,384.562164 C240.090669,383.444159 236.813013,377.442201 232.018646,372.530505 C229.728535,370.184349 226.190979,368.11843 225.937091,366.842827 C225.232485,363.302698 225.144501,359.574136 225.151495,355.068784 Z M252.077044,320.097038 C314.392189,318.041725 307.362376,259.100128 288.596346,251.906538 C269.830315,244.712948 263.70389,252.580851 252.077044,252.580851 C243.197191,252.580851 229.796108,246.768259 214.78328,251.906538 C199.770451,257.044816 189.761899,322.15235 252.077044,320.097038 Z M232.475112,192.79336 C234.780241,192.79336 236.648918,190.23693 236.648918,187.083413 C236.648918,183.929896 234.780241,181.373466 232.475112,181.373466 C230.169983,181.373466 228.301307,183.929896 228.301307,187.083413 C228.301307,190.23693 230.169983,192.79336 232.475112,192.79336 Z M257.94029,193.123936 C260.245418,193.123936 262.114093,190.493504 262.114093,187.248701 C262.114093,184.003898 260.245418,181.373466 257.94029,181.373466 C255.635163,181.373466 253.766488,184.003898 253.766488,187.248701 C253.766488,190.493504 255.635163,193.123936 257.94029,193.123936 Z M249.607915,229.314125 C258.394636,229.314125 270.820937,215.915989 270.820937,210.245191 C270.820937,204.574394 255.743008,202.910986 246.956287,202.910986 C238.169566,202.910986 223.091637,204.574394 223.091637,210.245191 C223.091637,215.915989 240.821193,229.314125 249.607915,229.314125 Z" fill="#FFFFFF"></path>
            </g>
        </g>
    </g>
</svg>