<?xml version="1.0" encoding="UTF-8" standalone="no"?>
<svg width="500px" height="499px" viewBox="0 0 500 499" version="1.1" xmlns="http://www.w3.org/2000/svg" xmlns:xlink="http://www.w3.org/1999/xlink" xmlns:sketch="http://www.bohemiancoding.com/sketch/ns">
    <!-- Generator: Sketch 3.3 (11970) - http://www.bohemiancoding.com/sketch -->
    <title>Clown</title>
    <desc>Created with Sketch.</desc>
    <defs></defs>
    <g id="Page-1" stroke="none" stroke-width="1" fill="none" fill-rule="evenodd" sketch:type="MSPage">
        <g id="Row-5" sketch:type="MSLayerGroup" transform="translate(-1800.000000, 0.000000)">
            <g id="Clown" transform="translate(1800.000000, 0.000000)" sketch:type="MSShapeGroup">
                <path d="M250,499.001996 C388.071187,499.001996 500,387.296594 500,249.500998 C500,111.705402 388.071187,0 250,0 C111.928813,0 0,111.705402 0,249.500998 C0,387.296594 111.928813,499.001996 250,499.001996 Z" fill="#F2C06C"></path>
                <path d="M298.975697,133.172335 C299.786456,135.662131 300.603992,138.264396 301.5,140.873681 C307.812839,159.25745 313.749307,180.258705 312.5,183.934781 C312.280407,184.580932 312.012138,185.219829 311.697717,185.850025 C311.813537,186.230464 311.923821,186.620563 312.028775,187.019748 L312.028774,187.019749 C316.377795,180.044975 327.979839,178.334175 341.78677,186.017143 C359.373098,195.803183 343.212844,215.375263 363.2259,219.289679 C383.238956,223.204095 380.455432,242.562122 377.23504,249.062598 C368.229165,267.241278 366.463366,264.487253 367.228511,271.155694 C368.592552,283.043657 370.570981,283.90007 367.228512,293.663589 C364.324578,302.146124 352.977837,312.38805 341.786772,313.235676 C334.072102,313.819995 326.423863,310.247499 321.441114,307.734413 C317.639458,315.512252 311.852267,322.379653 303.999505,327.521551 L303.999505,327.521551 C306.068488,326.761841 308.258501,325.96041 310.57614,325.112782 C357.794728,307.843565 354.792248,325.368275 357.748564,342.134376 C360.70488,358.900477 363.937729,403.149345 317.699936,391.428304 C286.912334,383.623807 278.205112,378.489073 274.950947,370.979388 C270.757933,376.243658 264.054278,379.652727 256.5,379.652727 C250.112139,379.652727 244.3325,377.215136 240.164774,373.279467 L240.164774,373.279467 C236.346594,379.492644 226.821878,385.795543 203.5,396.288823 C160,415.860903 155.5,371.722896 155.5,354.698151 C155.5,337.673406 149.5,320.936312 199,329.743748 C201.658152,330.216708 204.156258,330.661738 206.503843,331.083111 L206.503843,331.083111 C200.441782,328.347069 195.758984,325.714463 193.15221,323.860001 C187.976974,320.178333 184.060136,316.276785 181.152497,312.166613 C176.559125,314.438446 167.433623,319.677876 158.213228,318.979511 C147.022163,318.131884 135.675422,307.889958 132.771488,299.407423 C129.429019,289.643905 131.407448,288.787492 132.771489,276.899529 C133.536634,270.231087 131.770835,272.985112 122.76496,254.806433 C119.544568,248.305957 116.761044,228.94793 136.7741,225.033514 C156.787156,221.119097 140.626902,201.547018 158.21323,191.760977 C169.487415,185.487375 179.291448,185.477254 184.876832,189.482118 L184.876832,189.482118 C188.112308,182.69705 193.027278,176.604791 200.373387,172.1917 C201.708573,171.389602 203.567258,170.541262 205.856382,169.686919 L205.856382,169.686919 C205.633215,168.287124 205.512073,166.838543 205.5,165.340215 C205.40556,153.619962 241.974847,131.481509 266.586224,121.087394 C266.331589,120.407702 266.19513,119.701237 266.19513,118.968301 C266.19513,117.713229 260.552929,118.122028 261.493296,113.044389 C262.433663,107.966749 265.686018,107.144523 267.135497,106.274204 C269.136535,105.07271 268.075864,101.196565 271.837332,99.504019 C275.598799,97.8114728 276.766753,101.196565 280.300635,101.196565 C281.907773,101.196565 284.96939,97.6246442 286.525632,97.8114728 C290.445478,98.282055 289.491921,99.9629314 292.525405,102.042838 C294.371821,103.308832 297.71721,98.2524177 300.988706,101.196565 C302.86944,102.889111 300.943463,103.687051 301.929073,106.274204 C302.745215,108.416515 307.986761,106.31145 308.511642,107.96675 C309.285632,110.407658 309.452012,114.125542 309.452012,115.583208 C309.452012,117.154626 313.700153,117.051845 313.213476,120.660849 C313.088434,121.588116 307.571278,125.87414 307.571278,127.431034 C307.571278,130.221612 308.090464,131.226897 306.630911,133.354945 C305.638657,134.801664 302.109545,133.435463 298.975698,133.172338 L298.975697,133.172335 Z M303.066562,195.001367 C310.610053,206.995974 303.764484,246.314305 305.795618,248.766343 C325.323502,272.340911 321.919344,311.142495 291.593518,324.541743 C283.43901,328.144753 269.784232,334.988849 256.975907,334.645133 C233.661461,334.019482 209.748739,322.727859 202.830408,317.806152 C177.976737,300.125226 186.853048,276.550655 192.178834,248.766343 C192.91211,244.940887 182.414892,203.301106 209.043826,187.304078 C210.207861,186.604797 211.834323,185.864668 213.839921,185.119706 C226.440228,198.072742 251.128752,203.499818 272.500002,203.499818 C284.321973,203.499818 295.443883,200.13193 303.066562,195.001367 L303.066562,195.001367 Z M271.086388,341.47668 C271.717445,341.312208 272.34577,341.139838 272.970781,340.960527 C272.527555,341.329498 272.146186,341.696268 271.820233,342.065209 C271.580098,341.864333 271.335429,341.668106 271.086388,341.47668 L271.086388,341.47668 Z M276.390853,270.438984 C276.483068,269.81813 276.530331,269.187958 276.530331,268.550079 C276.530331,258.55243 264.920014,250.447734 250.597962,250.447734 C236.27591,250.447734 224.665593,258.55243 224.665593,268.550079 C224.665593,268.657394 224.66693,268.764491 224.669595,268.871362 C210.640801,262.516079 197.389994,268.77303 199.5,289.543783 C202.184122,315.966093 236.000002,323.794928 255.500002,323.794927 C275.000002,323.794926 306.5,311.073074 306.500002,286.607972 C306.500003,268.292248 295.93157,257.856943 276.390853,270.438984 L276.390853,270.438984 Z M252.612925,282.302017 C261.638019,281.45685 268.597919,276.06014 268.597919,269.528683 C268.597919,262.410596 260.331651,256.640247 250.134693,256.640247 C239.937735,256.640247 231.671468,262.410596 231.671468,269.528683 C231.671468,271.086247 232.067267,272.57928 232.792485,273.961445 C233.876661,274.839499 234.948198,275.793303 236.000002,276.82193 C236.756544,277.561803 243.982614,282.08145 252.612925,282.302017 L252.612925,282.302017 Z M215.562015,258.189653 C220.535823,258.189653 224.567891,251.836682 224.567891,243.999894 C224.567891,236.163107 220.535823,229.810136 215.562015,229.810136 C210.588208,229.810136 206.55614,236.163107 206.55614,243.999894 C206.55614,251.836682 210.588208,258.189653 215.562015,258.189653 Z M284.603794,257.211049 C289.577602,257.211049 293.609669,250.858078 293.609669,243.02129 C293.609669,235.184503 289.577602,228.831532 284.603794,228.831532 C279.629987,228.831532 275.597919,235.184503 275.597919,243.02129 C275.597919,250.858078 279.629987,257.211049 284.603794,257.211049 Z M215.5,254.275237 C218.261424,254.275237 220.5,252.084557 220.5,249.382217 C220.5,246.679876 218.261424,244.489197 215.5,244.489197 C212.738576,244.489197 210.5,246.679876 210.5,249.382217 C210.5,252.084557 212.738576,254.275237 215.5,254.275237 Z M284.5,254.275237 C287.261424,254.275237 289.5,252.084557 289.5,249.382217 C289.5,246.679876 287.261424,244.489197 284.5,244.489197 C281.738576,244.489197 279.5,246.679876 279.5,249.382217 C279.5,252.084557 281.738576,254.275237 284.5,254.275237 Z M252.5,315.985492 C277,315.985492 293,298.822944 293,291.526624 C293,284.230305 280,310.121691 252.5,310.121692 C225,310.121693 212,284.230305 212,291.526624 C212,298.822944 228,315.985493 252.5,315.985492 Z M256.5,369.872252 C263.127417,369.872252 268.5,364.614312 268.5,358.128315 C268.5,351.642318 263.127417,346.384379 256.5,346.384379 C249.872583,346.384379 244.5,351.642318 244.5,358.128315 C244.5,364.614312 249.872583,369.872252 256.5,369.872252 Z" fill="#FFFFFF"></path>
            </g>
        </g>
    </g>
</svg>