<?xml version="1.0" encoding="UTF-8" standalone="no"?>
<svg width="500px" height="500px" viewBox="0 0 500 500" version="1.1" xmlns="http://www.w3.org/2000/svg" xmlns:xlink="http://www.w3.org/1999/xlink" xmlns:sketch="http://www.bohemiancoding.com/sketch/ns">
    <!-- Generator: Sketch 3.3 (11970) - http://www.bohemiancoding.com/sketch -->
    <title>Cow</title>
    <desc>Created with Sketch.</desc>
    <defs></defs>
    <g id="Page-1" stroke="none" stroke-width="1" fill="none" fill-rule="evenodd" sketch:type="MSPage">
        <g id="Row-5" sketch:type="MSLayerGroup">
            <g id="Cow" sketch:type="MSShapeGroup">
                <ellipse fill="#FA8997" cx="250" cy="250" rx="250" ry="250"></ellipse>
                <path d="M167.816092,348.994693 C178.576194,354.758642 179.770115,333.994997 210.651341,333.994997 C241.532567,333.994997 243.524904,363.964316 250,364.700263 C256.475096,365.43621 256.475096,344.994774 289.348659,336.994936 C322.222222,328.995098 328.199234,351.994633 333.180077,348.994693 C363.981785,330.442963 380,298.907714 380,266.99635 C380,252.231893 379.003831,235.996977 369.042146,216.997361 C363.315157,206.074453 356.402365,197.725563 350.114943,191.997867 C345.465844,187.762646 340.461795,184.839413 340.153257,183.998029 C339.034211,180.94639 350.114943,181.998069 349.118774,174.998211 C348.122605,167.998352 333.553763,157.355781 331.187739,155.998595 C317.241379,147.998757 298.635471,149.158481 296.321839,147.998757 C293.785809,146.727554 294.016854,136.13089 291.340996,125.999201 C288.631062,115.738485 281.956182,106.974277 269.425287,110.999505 C244.521073,118.999344 269.500165,136.135115 264.444444,134.99902 C259.892435,133.976116 243.524904,134.999019 231.570881,137.998959 C219.616858,140.998898 214.949777,146.584138 210.651341,147.998758 C204.750779,149.940641 219.616858,117.999363 192.720307,120.999303 C180.29669,122.384986 177.458252,131.526481 179.770115,141.998878 C182.463328,154.198733 191.454293,167.92628 189.731801,168.998334 C187.12198,170.622647 158.850575,175.998192 147.89272,186.99797 C136.934866,197.997747 139.242871,212.154664 137.931034,213.997422 C126.262579,230.388281 120,237.996938 120,266.996352 C120,304.995583 134.682036,331.245515 167.816092,348.994693 Z M202.681992,386.993923 C205.072789,386.128309 203.933532,381.16817 202.681992,376.994125 C201.362896,372.594772 200.021405,368.994287 206.666667,368.994287 C213.253058,368.994287 211.330341,373.031535 209.655172,376.994125 C208.036617,380.822797 206.718034,384.536944 209.655172,386.993923 C213.088036,389.865588 227.380401,388.241718 235.555556,384.993964 C241.614287,382.587004 243.524904,379.988682 243.524904,373.994186 C243.524904,359.91121 230.011415,338.994894 209.655172,338.994894 C189.29893,338.994894 166.819923,362.911149 166.819923,376.994125 C166.819923,386.993923 188.586527,392.09734 202.681992,386.993923 Z M292.337165,387.993903 C294.727962,387.128289 293.588705,382.168149 292.337165,377.994105 C291.018068,373.594752 289.676577,369.994267 296.321839,369.994267 C302.908231,369.994267 300.985514,374.031515 299.310345,377.994105 C297.69179,381.822777 296.373206,385.536923 299.310345,387.993903 C302.743209,390.865568 317.035573,389.241698 325.210728,385.993943 C331.269459,383.586983 333.180077,380.988662 333.180077,374.994166 C333.180077,360.91119 319.666587,339.994874 299.310345,339.994874 C278.954102,339.994874 256.475096,363.911129 256.475096,377.994105 C256.475096,387.993903 278.241699,393.09732 292.337165,387.993903 Z M220.613026,232 C211.504573,236.805762 201.665537,242.57331 199.693487,253.263342 C194.712644,280.263342 230.628587,285.425884 249.501916,286.000002 C282.375481,287.000002 311.264368,263.996885 306.283525,243.497062 C304.927001,237.91397 288.063801,217 253.197899,221 C249.398154,221.435927 234.509952,224.667764 220.613026,232 Z M245.614411,270.072155 C249.002331,269.100684 250.182502,262.85088 248.250397,256.112827 C246.318291,249.374774 242.005558,244.700036 238.617637,245.671506 C235.229717,246.642977 234.049546,252.89278 235.981651,259.630833 C237.913757,266.368886 242.22649,271.043625 245.614411,270.072155 Z M263.27144,267.009418 C266.791061,266.824963 269.38838,261.792608 269.072714,255.76934 C268.757048,249.746072 265.647933,245.012779 262.128312,245.197234 C258.60869,245.38169 256.011371,250.414044 256.327037,256.437313 C256.642703,262.460581 259.751818,267.193874 263.27144,267.009418 Z M166.819924,213.999999 C177.84466,211.390757 186.743295,203.000001 190.727968,204.999999 C192.3468,205.812528 191.682049,212.009729 192.720305,216.999999 C194.237664,224.29303 198.541767,230.999999 202.681991,230.999999 C222.258979,230.999999 226.590042,215.999998 248.50575,212.999998 C283.889964,208.15632 291.340996,222.000001 300.306513,217.000001 C309.272031,212.000001 299.310341,182.397236 299.310341,176.000002 C299.310341,174.690123 312.260532,182.095183 324.214555,181.999998 C336.168578,181.904814 335.763215,176.142 334.176241,171.999998 C331.441099,164.861278 319.86249,160.297781 309.272026,158.999999 C300.576677,157.93445 292.590524,159.80347 290.344823,157.999999 C285.36398,154 287.649315,151.138605 286.360149,143.000001 C284.585962,131.799426 282.375475,119 275.402302,121 C266.402894,123.581152 271.417628,126.999999 273.409965,142 C274.443929,149.784558 264.255521,159.538582 251.494256,163.999999 C239.665947,168.13525 221.081568,167.64689 215.632187,163.999999 C209.655171,159.999999 202.681992,152.000002 202.681992,143.000001 C202.681992,134 200.689655,131 195.708811,131 C190.727967,131 189.10696,133.786662 189.7318,141.999999 C190.693739,154.64439 200.689432,171.500508 198.697317,176.000003 C194.712643,184.999999 175.78544,182.999999 163.831418,188.999999 C151.877396,194.999999 149.034282,205.055874 150.881226,210.000001 C153.280512,216.422704 159.426543,215.749803 166.819924,213.999999 Z M234.061303,204 C238.737737,204 242.528736,200.19442 242.528736,195.5 C242.528736,190.80558 238.737737,187 234.061303,187 C229.384869,187 225.59387,190.80558 225.59387,195.5 C225.59387,200.19442 229.384869,204 234.061303,204 Z M257.969349,201 C262.645783,201 266.436782,197.19442 266.436782,192.5 C266.436782,187.80558 262.645783,184 257.969349,184 C253.292915,184 249.501916,187.80558 249.501916,192.5 C249.501916,197.19442 253.292915,201 257.969349,201 Z M128.965517,275 C130.957854,310 153.16725,326 158.850575,326 C165.874179,326 161.322291,310.768619 164.827586,300 C167.08836,293.054679 178.773947,292.445101 178.773947,284 C178.773947,273.995683 160.949877,276.676478 154.865901,267 C147.85119,255.843204 152.087626,233 145.900383,233 C140.161293,233 126.97318,240 128.965517,275 Z M335.172414,200 C333.180077,210 342.145594,211 343.960453,217.306351 C345.532463,222.76884 340.794469,226 343.960453,236 C347.126437,246 359.107365,246 362.068966,246 C370.596581,246 369.810207,235.56925 362.068966,218 C354.327725,200.43075 337.164751,190 335.172414,200 Z M336.61829,303.000001 C326.406649,308.685696 309.178283,308.76809 309.272031,316.000001 C309.427587,328.000001 321.226055,334.000001 332.183909,332.000001 C343.141763,330.000001 348.122604,316.000001 352.10728,312 C356.091955,307.999999 364.499439,297.860727 366.05364,291 C367.584869,284.240675 360.803158,280.910282 358.084291,282 C352.360994,284.293889 349.657846,295.739763 336.61829,303.000001 Z" fill="#FFFFFF"></path>
            </g>
        </g>
    </g>
</svg>