<?xml version="1.0" encoding="UTF-8" standalone="no"?>
<svg width="500px" height="500px" viewBox="0 0 500 500" version="1.1" xmlns="http://www.w3.org/2000/svg" xmlns:xlink="http://www.w3.org/1999/xlink" xmlns:sketch="http://www.bohemiancoding.com/sketch/ns">
    <!-- Generator: Sketch 3.3 (11970) - http://www.bohemiancoding.com/sketch -->
    <title>Crab</title>
    <desc>Created with Sketch.</desc>
    <defs></defs>
    <g id="Page-1" stroke="none" stroke-width="1" fill="none" fill-rule="evenodd" sketch:type="MSPage">
        <g id="Row-2" sketch:type="MSLayerGroup" transform="translate(-1800.000000, 0.250000)">
            <g id="Crab" transform="translate(1800.000000, 0.000000)" sketch:type="MSShapeGroup">
                <path d="M250,499.001996 C388.071187,499.001996 500,387.296594 500,249.500998 C500,111.705402 388.071187,0 250,0 C111.928813,0 0,111.705402 0,249.500998 C0,387.296594 111.928813,499.001996 250,499.001996 Z" fill="#F2C06C"></path>
                <path d="M189.221633,246.096304 C188.534029,246.802728 172.076351,224.691133 171.098571,220.596037 C169.772167,215.040851 174.634396,210.412171 176.264968,186.979354 C177.895541,163.546536 166.081432,150.245382 165.108152,146.776703 C162.883298,138.847525 159.521678,178.147622 158.036506,168.449075 C153.995851,142.062593 153.061618,111.387536 152.183422,112.644461 C152.137461,112.710243 107.024278,121.190577 114.645273,172.380238 C117.651977,192.576052 128.73157,209.078437 140.357393,223.532954 C141.145781,224.513165 146.178259,229.343127 151.354609,234.26126 C157.102167,239.722108 163.0271,245.291661 163.51652,245.820606 C165.934585,248.433948 168.192464,250.888485 170.162149,253.053965 C174.745252,258.092646 177.768047,261.566342 177.617929,261.834175 C174.70767,267.026525 172.027176,273.057014 169.742675,280.058293 C165.934417,291.729407 164.856832,302.015049 165.455534,310.92319 C165.486808,311.388507 153.317964,312.068021 147.117255,313.668009 C135.994229,316.538116 128.700378,319.375627 126.228485,324.772636 C123.756592,330.169645 129.871174,353.075678 135.221798,353.331398 C137.439186,353.437372 137.044077,329.70655 139.608773,326.96175 C142.173468,324.216951 168.771606,327.486073 168.905552,327.865742 C169.310658,329.014017 150.785652,331.343539 145.294975,337.385277 C140.174108,343.020091 149.985757,368.933759 154.84092,368.933759 C159.696083,368.933759 155.827638,345.40793 156.203369,344.971388 C158.768066,341.991602 173.978174,341.298546 174.452045,341.991599 C177.61793,346.621819 180.392053,347.718985 182.942079,350.219978 C184.116182,351.371505 185.516507,352.41312 187.1079,353.355303 C187.999927,353.883426 174.150253,355.182493 172.705163,360.168864 C170.326073,368.378054 184.263172,386.812682 187.107899,386.387698 C189.952626,385.962714 183.613557,367.914959 186.178252,365.17016 C188.742946,362.42536 201.043614,358.49816 202.34982,358.780546 C219.405671,362.467818 241.893405,362.269581 256.113129,362.269581 C269.86077,362.269581 284.519831,358.698595 297.505803,353.331399 C297.886191,353.174182 313.830924,360.168864 316.488418,363.284142 C317.423639,364.380466 315.847756,382.161289 316.488421,381.849484 C317.673809,381.272567 336.32878,364.92177 332.340611,360.076247 C330.414643,357.736245 310.740032,346.93225 311.285746,346.621809 C316.845885,343.458806 321.773442,340.025373 325.765835,336.529292 C326.779767,335.641406 327.995377,334.189453 329.265048,332.265546 C329.9618,331.209773 358.173167,337.932518 363.580964,340.399486 C365.596297,341.318855 364.607321,346.442909 366.609671,350.915652 C369.980278,358.444737 376.129343,366.458335 377.796464,366.458335 C380.453958,366.458335 382.974273,337.880629 373.932549,332.26555 C360.178433,323.723987 335.138929,319.945393 335.621639,318.370863 C336.136301,316.692107 364.660828,313.668002 367.96794,313.667999 C371.275051,313.667995 374.263144,319.414653 377.359652,323.132884 C382.322978,329.092758 388.298179,333.765087 389.877534,331.516757 C392.442213,327.865744 383.541701,302.527848 375.476424,300.153507 C367.411147,297.779167 338.132734,305.252747 338.188011,304.357739 C338.546036,298.560786 338.052344,292.345582 336.235969,286.006011 C333.557562,276.657749 328.544057,267.089081 322.624541,258.514065 C322.194451,257.891036 330.227037,250.049467 346.967568,243.928577 C348.148083,243.496942 391.939794,234.261257 408.062264,203.541525 C427.195779,167.08455 406.825173,138.175191 405.744993,136.900724 C405.106932,136.147899 391.821302,157.050445 373.510574,180.382218 C367.357066,188.2231 384.392705,147.87366 373.510574,162.367496 C368.406806,169.165168 358.955278,169.682794 346.442557,188.470254 C333.929836,207.257714 333.172218,218.121638 330.394028,220.989678 C324.374674,227.203705 310.026468,243.069708 309.406571,242.439191 C301.543746,234.441651 293.813591,229.146496 288.759555,228.714471 C287.379193,228.596476 287.000195,211.99118 287.000195,211.99118 C287.000195,211.99118 311.459278,211.184426 311.459278,191.013533 C311.459278,170.84264 275.039713,158.740105 266.946477,186.979354 C262.362441,202.974158 279.086332,211.184426 279.086332,211.184426 C279.086332,211.184426 272.852515,223.59047 272.436347,223.532959 C271.455819,223.397458 264.178363,218.313634 256.113128,218.151806 C248.438304,217.997811 236.95366,223.056543 234.2617,223.358995 C233.894195,223.400286 227.601056,214.605465 226.480294,211.99118 C226.395805,211.794102 242.891547,204.236516 238.620149,182.945177 C234.573531,162.774283 190.060729,158.740105 194.107348,195.047712 C195.984172,211.887208 215.229049,210.982772 215.305919,211.99118 C215.477585,214.243176 216.913343,228.656569 216.476424,228.753438 C211.091372,229.947362 199.455169,235.582685 189.221633,246.096304 Z M216.363748,205.133159 C224.185848,205.133159 230.526912,198.811587 230.526912,191.013534 C230.526912,183.21548 224.185848,176.893908 216.363748,176.893908 C208.541649,176.893908 202.200584,183.21548 202.200584,191.013534 C202.200584,198.811587 208.541649,205.133159 216.363748,205.133159 Z M289.202877,205.133159 C297.024977,205.133159 303.366041,198.811587 303.366041,191.013534 C303.366041,183.21548 297.024977,176.893908 289.202877,176.893908 C281.380778,176.893908 275.039713,183.21548 275.039713,191.013534 C275.039713,198.811587 281.380778,205.133159 289.202877,205.133159 Z M218.279807,201.171691 C221.079891,201.171691 223.349808,198.908752 223.349808,196.117276 C223.349808,193.3258 221.079891,191.062861 218.279807,191.062861 C215.479724,191.062861 213.209807,193.3258 213.209807,196.117276 C213.209807,198.908752 215.479724,201.171691 218.279807,201.171691 Z M287.004823,201.071671 C289.804906,201.071671 292.074823,198.808733 292.074823,196.017257 C292.074823,193.225781 289.804906,190.962842 287.004823,190.962842 C284.204739,190.962842 281.934822,193.225781 281.934822,196.017257 C281.934822,198.808733 284.204739,201.071671 287.004823,201.071671 Z M246.938968,353.330598 C272.830722,354.445413 304.001545,345.173061 304.001545,328.547611 C304.001545,311.922161 281.575855,277.614062 254.757228,277.614062 C227.938601,277.614062 190.013724,311.922161 190.013724,328.547611 C190.013724,345.173061 221.047213,352.215783 246.938968,353.330598 Z M251.039081,268.041108 C259.477954,266.26207 268.558511,260.351614 271.134517,257.16869 C273.710523,253.985767 281.011202,268.041109 274.727412,250.862344 C268.443622,233.68358 273.073337,250.495925 270.222801,252.893339 C265.125602,257.180285 256.202723,264.892205 246.070625,264.892205 C230.272296,264.892205 224.441551,254.776246 224.441551,259.495729 C224.441551,264.215212 238.028802,270.783866 251.039081,268.041108 Z" fill="#FFFFFF" transform="translate(265.000000, 249.500998) rotate(-5.000000) translate(-265.000000, -249.500998) "></path>
            </g>
        </g>
    </g>
</svg>