<?xml version="1.0" encoding="UTF-8" standalone="no"?>
<svg width="500px" height="500px" viewBox="0 0 500 500" version="1.1" xmlns="http://www.w3.org/2000/svg" xmlns:xlink="http://www.w3.org/1999/xlink" xmlns:sketch="http://www.bohemiancoding.com/sketch/ns">
    <!-- Generator: Sketch 3.2.2 (9983) - http://www.bohemiancoding.com/sketch -->
    <title>Cutlery</title>
    <desc>Created with Sketch.</desc>
    <defs></defs>
    <g id="Page-1" stroke="none" stroke-width="1" fill="none" fill-rule="evenodd" sketch:type="MSPage">
        <g id="Row-5" sketch:type="MSLayerGroup" transform="translate(-1800.000000, 0.000000)">
            <g id="Cutlery" transform="translate(1800.000000, 0.000000)" sketch:type="MSShapeGroup">
                <path d="M250,500 C388.071187,500 500,388.071187 500,250 C500,111.928813 388.071187,0 250,0 C111.928813,0 0,111.928813 0,250 C0,388.071187 111.928813,500 250,500 Z" fill="#F2C06C"></path>
                <path d="M184.137737,230.844229 C184.815785,230.982419 190.07288,276.416908 191.174212,305.415605 C191.594603,316.484763 189.700891,325.159157 189.229739,328.005426 C186.429026,344.924751 183.219799,364.805204 190.056598,377.85727 C196.70389,390.547548 209.617647,392.359668 220.060712,387.014277 C226.898928,383.514065 230.27985,376.087337 231.06071,370.014283 C232.908772,355.641169 225.030137,333.430901 218.060711,301.014288 C211.091284,268.597675 209.155559,228.03522 210.258257,227.573478 C230.969236,218.900997 239.43189,198.177929 238.069484,172.181675 C236.465292,141.571879 217.138071,116.490401 189.595456,117.933849 C162.05284,119.377296 145.502749,146.286617 147.106941,176.896413 C148.444098,202.410891 162.391683,226.412273 184.137737,230.844229 Z M297.091313,222.110063 C297.769361,222.248252 302.921784,265.685482 304.023116,294.68418 C304.443507,305.753337 302.549795,314.427731 302.078643,317.274 C299.27793,334.193325 296.068703,354.073778 302.905502,367.125844 C309.552794,379.816122 322.466551,381.628242 332.909616,376.282851 C339.747832,372.78264 343.128754,365.355911 343.909614,359.282857 C345.757676,344.909743 337.879041,322.699475 330.909615,290.282862 C323.940188,257.866249 322.161471,220.299683 323.264168,219.837941 C343.975148,211.16546 353.279423,187.394167 351.917017,161.397913 C350.912488,142.230351 345.657947,123.230508 333.088993,113.553886 C332.888231,113.399323 327.112597,110.190291 326.060707,115.014281 C324.64265,121.517519 326.923089,166.388348 327.060708,169.01428 C327.198327,171.640212 316.575997,172.838856 315.042682,169.644119 C312.086769,163.485329 310.877457,121.323437 310.099725,114.758702 C309.62171,110.723839 301.611801,110.988145 301.165383,111.01154 C300.362271,111.05363 294.197508,110.518433 293.046569,116.744479 C291.89563,122.970525 295.663423,169.521194 294.431337,171.354714 C293.39922,172.890652 284.903702,174.018393 281.903258,171.009909 C278.975333,168.074139 279.837799,125.937908 278.06071,120.014281 C275.060709,110.014281 267.904012,116.161588 267.060711,117.014282 C256.093422,128.103709 255.152206,148.67899 256.081995,166.420415 C257.419152,191.934893 275.345259,217.678106 297.091313,222.110063 Z" fill="#FFFFFF"></path>
            </g>
        </g>
    </g>
</svg>