<?xml version="1.0" encoding="UTF-8" standalone="no"?>
<svg width="500px" height="500px" viewBox="0 0 500 500" version="1.1" xmlns="http://www.w3.org/2000/svg" xmlns:xlink="http://www.w3.org/1999/xlink" xmlns:sketch="http://www.bohemiancoding.com/sketch/ns">
    <!-- Generator: Sketch 3.2.2 (9983) - http://www.bohemiancoding.com/sketch -->
    <title>Diaper Pin</title>
    <desc>Created with Sketch.</desc>
    <defs></defs>
    <g id="Page-1" stroke="none" stroke-width="1" fill="none" fill-rule="evenodd" sketch:type="MSPage">
        <g id="Row-5" sketch:type="MSLayerGroup" transform="translate(-600.000000, 0.000000)">
            <g id="Diaper-Pin" transform="translate(600.000000, 0.000000)" sketch:type="MSShapeGroup">
                <path d="M250,500 C388.071187,500 500,388.071187 500,250 C500,111.928813 388.071187,0 250,0 C111.928813,0 0,111.928813 0,250 C0,388.071187 111.928813,500 250,500 Z" fill="#6DB67F"></path>
                <path d="M170.092638,329.041933 C170.097517,329.007463 170.102426,328.97294 170.107364,328.938365 C174.10503,300.946209 192.521612,251.764892 204.087527,226.966941 C214.05643,205.59307 225.854068,191.134656 225.124151,190.920517 C217.950616,188.815979 213.082273,185.187913 213.082273,178.980389 C213.082273,144.472262 255.83038,109 292.535885,109 C329.241391,109 354,141.473103 354,175.981229 C354,198.551792 347.004084,223.967782 337.009919,225.967221 C334.313955,226.506578 330.163636,226.626305 325.341396,225.733397 C324.516081,225.580578 319.391271,250.148304 304.029174,283.950972 C291.958999,310.510114 271.672029,344.475076 262.428304,358.437481 C255.585359,378.428544 236.244809,394 214.999271,394 C188.490005,394 167,376.924917 167,345.433742 C167,339.106295 168.134159,333.686961 170.092638,329.041933 L170.092638,329.041933 Z M207.587286,303.005197 C208.603701,297.467402 208.513048,285.785152 219.078771,254.959097 C231.071765,219.968902 243.955201,195.945311 245.063601,195.975626 C257.611629,196.318819 266.051348,190.920517 279.043762,193.976186 C292.036177,197.031856 294.370827,206.723325 304.029174,214.970303 C304.918458,215.729637 297.988366,241.158629 285.04026,266.955735 C274.029061,288.893852 258.919548,311.094692 254.379199,318.425791 C242.876428,306.443025 224.664894,300.014906 213.082272,301.945929 C211.334316,302.237344 209.490975,302.585389 207.587286,303.005197 L207.587286,303.005197 Z M215,374 C228.807119,374 240,362.807119 240,349 C240,335.192881 228.807119,324 215,324 C201.192881,324 190,335.192881 190,349 C190,362.807119 201.192881,374 215,374 Z M277,158 C267.232777,161.952088 278.733996,183.664096 282.558056,183.874363 C284.115784,183.960015 290.563531,184.116783 296,182 C300.501996,180.247071 304.152996,176.332324 305.173385,174.938593 C308.155134,170.865878 307.711253,165.821362 304.068861,163.388064 C297.674802,159.116517 290.615421,164.359524 290.615421,164.359524 C290.615421,164.359524 286.767223,154.047912 277,158 Z" fill="#FFFFFF"></path>
            </g>
        </g>
    </g>
</svg>