<?xml version="1.0" encoding="UTF-8" standalone="no"?>
<svg width="500px" height="500px" viewBox="0 0 500 500" version="1.1" xmlns="http://www.w3.org/2000/svg" xmlns:xlink="http://www.w3.org/1999/xlink" xmlns:sketch="http://www.bohemiancoding.com/sketch/ns">
    <!-- Generator: Sketch 3.2.2 (9983) - http://www.bohemiancoding.com/sketch -->
    <title>Diaper </title>
    <desc>Created with Sketch.</desc>
    <defs></defs>
    <g id="Page-1" stroke="none" stroke-width="1" fill="none" fill-rule="evenodd" sketch:type="MSPage">
        <g id="Row-1" sketch:type="MSLayerGroup" transform="translate(-1800.000000, 0.000000)">
            <g id="Diaper-" transform="translate(1800.000000, 0.000000)" sketch:type="MSShapeGroup">
                <path d="M250,500 C388.071187,500 500,388.071187 500,250 C500,111.928813 388.071187,0 250,0 C111.928813,0 0,111.928813 0,250 C0,388.071187 111.928813,500 250,500 Z" id="Diaper" fill="#F2C06C"></path>
                <path d="M204.684078,303.801919 C212.495614,308.781596 220.846955,315.63608 227.215765,324.96667 C232.29166,332.403082 235.87955,341.795981 238.591137,350.281454 C244.704997,369.41379 254.660321,375.456366 277.870786,369.41379 C279.605851,368.962086 303.35299,360.27312 311.413443,353.442295 C319.473897,346.61147 311.466244,325.64712 311.413443,313.149364 C311.362578,301.109578 316.671189,294.508055 319.158289,289.146922 C322.338419,282.291912 341.88402,263.161374 355.990949,243.239921 C366.477725,228.430758 372.531175,212.163922 372.918524,205.558165 C372.965611,204.75516 374.151534,198.502125 374.211856,196.410503 C374.317985,192.73053 373.293552,188.999282 372.965611,185.4581 C372.21996,177.406388 370.112191,170.337294 369.163416,167.087757 C366.405697,157.642628 363.215565,139.139957 349.263529,130.518841 C340.068315,124.837018 287.383692,136.162588 241.180363,146.860244 C211.815896,153.659126 187.720337,160.865857 168.749443,169.343571 C154.434052,175.740833 137.520272,181.639416 132.561497,189.350802 C126.855222,198.224624 125.53891,216.565091 126.128914,231.056863 C126.225643,233.432716 127.787633,243.224695 129.851839,250.267706 C132.142529,258.083471 136.070478,264.54629 136.533585,265.623489 C141.826243,277.934352 192.579304,296.085401 204.684078,303.801919 Z M154.327049,214.517983 C155.949762,212.514664 157.39921,208.386621 157.757917,204.519855 C158.373707,197.881813 155.870678,190.730392 151.718355,190.730392 C145.147237,190.730392 139.820293,200.955381 139.820293,213.568545 C139.820293,226.181709 149.918638,219.960382 154.327049,214.517983 Z M337.314689,168.396719 C344.662542,167.561434 353.459615,167.373572 354.506491,165.426357 C357.907317,159.100738 350.694392,142.025427 343.699462,140.781806 C336.704532,139.538186 322.898664,154.14791 322.898664,166.191936 C322.898664,169.817549 330.563528,169.164173 337.314689,168.396719 Z M170.573995,209.321123 C175.33995,209.321123 190.642143,202.476571 194.138775,200.407977 C197.903589,198.180729 199.414707,193.908686 199.858731,189.594705 C200.521242,183.157981 201.255741,174.347808 195.952866,174.347808 C185.988741,174.347808 169.693599,180.595608 166.001797,188.088827 C164.512062,191.112529 165.074433,196.100515 165.424365,199.482483 C166.187876,206.861548 165.80804,209.321123 170.573995,209.321123 Z M214.232765,193.923343 C218.280545,193.923343 227.93816,190.939204 235.27728,188.506098 C241.44571,186.461106 248.39136,184.805631 250.887378,183.738006 C256.772331,181.220825 261.195447,174.131617 261.889522,169.256062 C262.380185,165.809377 265.063119,155.59703 258.175941,155.59703 C250.171301,155.59703 240.794199,156.634228 233.444862,159.055106 C226.447106,161.360172 217.134308,164.58632 213.135405,169.256063 C209.864548,173.075625 207.270601,180.944915 207.81316,184.736137 C209.006638,193.075773 206.782881,193.923343 214.232765,193.923343 Z M275.207334,178.6879 C278.966553,178.6879 289.172201,177.192688 295.988126,174.602807 C301.716817,172.426047 306.796313,170.253471 309.114393,169.117054 C314.579817,166.43768 318.264698,157.119203 319.40175,153.223488 C320.538802,149.327774 322.854702,143.955013 316.458501,143.955013 C312.32789,143.955013 306.215437,142.243767 295.988126,144.543125 C287.808999,146.381999 277.817817,149.778823 276.187379,151.961022 C273.149697,156.026695 267.807841,168.906352 268.311722,172.941858 C269.420119,181.818853 275.207334,178.6879 275.207334,178.6879 Z M255.7916,250.878859 C251.841949,251.477018 246.202872,262.006897 236.839167,258.50941 C232.809248,257.004173 236.046646,239.190599 236.046646,239.190599 C236.046646,239.190599 222.559079,234.838293 223.743078,228.359302 C224.479474,224.329656 238.552573,221.695887 240.475412,220.198152 C242.39825,218.700417 244.894342,204.515585 251.482363,205.730611 C258.070384,206.945637 262.82815,217.139799 262.82815,217.139799 C262.82815,217.139799 281.01803,214.177421 282.205685,219.425379 C283.393339,224.673337 272.537445,236.254892 272.537445,236.254892 C272.537445,236.254892 277.557128,251.730702 274.660882,254.156519 C270.472732,257.6644 256.961437,250.701692 255.7916,250.878859 Z" id="Diaper" fill="#FFFFFF"></path>
            </g>
        </g>
    </g>
</svg>