<?xml version="1.0" encoding="UTF-8" standalone="no"?>
<svg width="500px" height="500px" viewBox="0 0 500 500" version="1.1" xmlns="http://www.w3.org/2000/svg" xmlns:xlink="http://www.w3.org/1999/xlink" xmlns:sketch="http://www.bohemiancoding.com/sketch/ns">
    <!-- Generator: Sketch 3.2.2 (9983) - http://www.bohemiancoding.com/sketch -->
    <title>Dice</title>
    <desc>Created with Sketch.</desc>
    <defs></defs>
    <g id="Page-1" stroke="none" stroke-width="1" fill="none" fill-rule="evenodd" sketch:type="MSPage">
        <g id="Row-3" sketch:type="MSLayerGroup" transform="translate(-600.000000, 0.000000)">
            <g id="Dice" transform="translate(600.000000, 0.000000)" sketch:type="MSShapeGroup">
                <path d="M250,500 C388.071187,500 500,388.071187 500,250 C500,111.928813 388.071187,0 250,0 C111.928813,0 0,111.928813 0,250 C0,388.071187 111.928813,500 250,500 Z" fill="#6DB67F"></path>
                <path d="M123.446795,244 C124.621463,218.277315 129.082218,193.871318 133.461682,186 C143.476568,168 219.881002,117 252.784479,117 C269.031103,117 294.590559,122.874954 315.732615,134 C337.408509,145.405954 354.628346,162.281817 367.810019,180 C393.848723,214.999999 378.004466,306 375,319 C373.57415,325.169501 354.595388,344.173063 332.311125,357 C307.639335,371.201209 274.535768,383 256.644788,383 C222.594167,383 132.460191,340 126.451261,319 C124.592954,312.505591 121.935253,277.099526 123.446795,244 Z M204.338752,206.924703 C175.073487,191.339763 148.73475,185.982439 161.416365,178.676998 C167.513534,175.16463 199.876329,156.986115 212.142824,150.429293 C231.348244,140.163401 245.849573,129 254.089702,129 C262.908313,129 271.648861,136.79247 297.012083,148.481176 C322.375304,160.169881 347.738548,172.832646 345.787523,177.70294 C343.836499,182.573233 330.179389,192.313821 302.865143,205.950644 C275.550896,219.587468 260.308669,231.933659 254.089706,231.276173 C244.876375,230.302114 233.604018,222.509644 204.338752,206.924703 Z M144.913487,215.826976 C145.917854,209.198153 153.653955,209.999999 158.50977,211.942325 C168.92828,216.10973 191.414337,224.719303 205.125585,232.336745 C225.434552,243.619626 238.96136,245.235829 243.00094,263.413959 C244.943263,272.154423 241.699683,287.26677 241.058609,305.17396 C240.17767,329.78137 240.640099,356.93291 239.116286,357.616751 C236.700198,358.701019 221.635358,355.67443 187.64465,338.193498 C153.653943,320.712567 146.877814,313.344848 144.913484,311.00094 C140.208419,305.386691 143.90912,222.455799 144.913487,215.826976 Z M265.960777,293.548552 C265.413607,272.941991 264.571079,255.663963 267.882336,252.235055 C271.193594,248.806148 290.941035,240.705704 314.960508,226.294021 C338.97998,211.882338 350.551481,204.401637 355.313225,209 C363.628395,217.029866 364.921014,286.823097 362.038674,305.077899 C359.156333,323.3327 277.464949,360.310098 274.60779,358.881519 C270.719054,356.937151 266.735278,322.716441 265.960777,293.548552 Z M266.000002,190.999999 C266.000002,190.999999 249.527999,208.117686 244.454288,205.886735 C239.380577,203.655784 238,180 238,180 C238,180 210.771392,173.931546 212,170 C213.228608,166.068454 243.000001,164 243.000001,164 C243.000001,164 241.824183,143.805541 247.999999,143 C254.175816,142.194459 265.999999,161 265.999999,161 C265.999999,161 299.726886,156.645393 303.999998,159.000001 C308.27311,161.354608 289.194716,173.780957 289.194716,173.780957 C289.194716,173.780957 302.956659,192.76148 299.000001,195.000001 C295.043342,197.238522 266.000002,190.999999 266.000002,190.999999 Z M208.139238,320.816969 C205.535898,320.215941 204.044118,316.349587 203.663854,309.217793 C203.51692,306.497598 203.627647,301.822255 203.996037,295.191623 C201.018136,294.921985 197.076968,294.758271 192.172418,294.700475 L180.342178,294.431653 C178.0703,297.817167 174.398127,302.685085 169.325551,309.035551 C168.053682,310.413376 166.639596,310.922625 165.083252,310.563314 C163.951365,310.301998 163.034615,309.657568 162.332976,308.630005 C161.631337,307.602442 161.421177,306.47943 161.702489,305.260934 C162.016511,303.900753 165.346837,299.222538 171.693568,291.226147 C171.382611,290.378323 171.33835,289.472694 171.560783,288.509232 C172.090696,286.213927 173.817422,285.060528 176.741014,285.049001 C181.366909,279.729614 187.050983,273.699517 193.793405,266.958531 C202.979304,257.767071 208.392791,253.360862 210.034027,253.739771 C212.269504,254.255871 213.437716,256.167161 213.5387,259.473697 L212.915549,274.372882 L212.419794,305.374262 L213.288712,312.648683 C213.579418,315.133443 213.63645,316.758349 213.459813,317.523451 C213.178501,318.741946 212.504388,319.660808 211.437454,320.280063 C210.370519,320.899319 209.271125,321.078286 208.139238,320.816969 Z M204.345831,268.73903 L187.682562,285.531011 C191.309342,285.443067 196.747147,285.579243 203.996141,285.939543 L204.345831,268.73903 Z M331.072786,310.655232 C325.81083,314.394065 318.644245,317.394317 309.572817,319.656078 C308.458328,319.933951 307.271082,319.671515 306.011045,318.868761 C304.751007,318.066008 303.981818,317.106417 303.703454,315.989959 L300.877748,304.656673 C299.952026,300.943802 298.864696,295.58904 297.615727,288.592226 C296.282649,281.037241 295.227734,275.591664 294.450952,272.255331 C293.829464,269.873093 293.085145,266.280519 292.217973,261.477501 C292.075722,260.134059 292.289744,259.170631 292.860044,258.587189 C296.113051,256.61784 299.981435,255.07421 304.465312,253.956254 C309.026944,252.818911 313.795492,253.284645 318.771097,255.353468 C324.511186,257.728092 328.038246,261.550705 329.352384,266.821424 C331.016095,273.494206 329.735179,279.398071 325.509597,284.533197 C329.811661,285.225576 333.180571,286.343633 335.616429,287.887403 C338.052287,289.431173 339.567978,291.397379 340.163548,293.786079 C340.946851,296.927739 340.006622,300.388763 337.342831,304.169254 C335.502147,306.834443 333.412153,308.996414 331.072786,310.655232 Z M307.039409,261.652417 C304.214297,262.356796 302.254234,262.942065 301.159159,263.40824 L302.781551,270.246541 L305.763753,285.519949 C309.521895,284.91404 311.52729,284.565792 311.779997,284.475193 C315.615963,283.187678 318.51244,281.16871 320.469515,278.41823 C322.562682,275.440675 323.155883,272.133561 322.249133,268.496788 C321.633839,266.028978 319.703193,264.082302 316.457136,262.656699 C313.211079,261.231097 310.071868,260.89634 307.039409,261.652417 Z M317.731699,292.131834 L313.445332,292.496091 C313.108393,292.580099 312.601376,292.727232 311.924265,292.937493 C311.247154,293.147755 310.727178,293.298118 310.36432,293.388589 C308.964726,293.737547 307.445259,293.992078 305.805874,294.152191 C306.467444,297.468096 307.119215,300.413448 307.761207,302.988338 L309.774718,311.064086 C316.506977,309.136913 321.800541,306.79494 325.655568,304.038095 C327.294768,302.8835 328.758919,301.358179 330.048065,299.462087 C331.29188,297.715427 331.829478,296.503998 331.660874,295.827765 C331.35609,294.605342 329.353649,293.640461 325.653492,292.93309 C322.87351,292.383056 320.232939,292.115973 317.731699,292.131834 Z" fill="#FFFFFF"></path>
            </g>
        </g>
    </g>
</svg>