<?xml version="1.0" encoding="UTF-8" standalone="no"?>
<svg width="500px" height="500px" viewBox="0 0 500 500" version="1.1" xmlns="http://www.w3.org/2000/svg" xmlns:xlink="http://www.w3.org/1999/xlink" xmlns:sketch="http://www.bohemiancoding.com/sketch/ns">
    <!-- Generator: Sketch 3.3 (11970) - http://www.bohemiancoding.com/sketch -->
    <title>Dog</title>
    <desc>Created with Sketch.</desc>
    <defs></defs>
    <g id="Page-1" stroke="none" stroke-width="1" fill="none" fill-rule="evenodd" sketch:type="MSPage">
        <g id="Row-4" sketch:type="MSLayerGroup" transform="translate(-1800.000000, 0.000000)">
            <g id="Dog" transform="translate(1800.000000, 0.000000)" sketch:type="MSShapeGroup">
                <path d="M250,500 C388.071187,500 500,388.071187 500,250 C500,111.928813 388.071187,0 250,0 C111.928813,0 0,111.928813 0,250 C0,388.071187 111.928813,500 250,500 Z" fill="#F2C06C"></path>
                <path d="M259.961217,318.909305 C257.713152,319.045037 255.419528,319.136691 253.082083,319.182904 C232.735058,319.585179 199.198908,315.491637 187.684924,287.000543 C176.170941,258.509448 200.274233,220.282202 206.066649,213.431806 C210.669092,207.98873 149.456229,243.745853 156.172719,216.998164 C158.842297,206.366864 178.955189,173.68089 206.066649,170.635504 C225.239675,168.48183 236.614053,189.138791 239.84439,190.451654 C240.143634,190.573272 242.589625,185.232795 253.570565,183.493176 C264.551506,181.753556 270.522268,186.987716 271.312557,186.684118 C285.700484,181.15683 303.505748,169.017301 316.408993,175.985042 C336.942035,187.072868 346.421101,217.346947 341.355958,229.480419 C336.290814,241.613892 294.438705,203.173872 297.21902,209.865448 C301.631117,220.484344 326.963478,238.079016 326.963478,275.555915 C326.963478,297.485342 304.690115,313.902313 268.63359,318.143109 L272.600106,283.818595 C272.600106,283.818595 299.631949,277.105594 300.239561,267.864727 C301.154639,253.94777 272.866138,245.249672 261.80627,245.249672 C238.811307,245.249672 221.542823,261.463446 221.542823,273.953396 C221.542823,286.443346 237.896228,286.130733 260.891192,286.130733 C261.722669,286.130733 260.436025,310.423493 259.961217,318.909305 L259.961217,318.909305 Z M159.169675,342.127026 C162.859528,345.238425 181.754513,321.689687 213.176895,327.528927 C244.599278,333.368166 244.747823,373.443715 245.581227,374.242843 C248.561865,377.100891 253.918686,375.082999 254.418773,374.242843 C254.7186,373.739127 249.509025,337.260993 282.895307,328.502133 C316.281588,319.743274 334.938628,343.100232 334.938628,343.100232 C334.938628,343.100232 386,295.190662 386,251.132209 C386,196.556389 338.585392,147.415554 279.292308,134.882078 C277.720387,134.549803 290.8,107 281.384615,107 C271.969231,107 265.737998,132.567053 258.369231,132.135238 C172.584615,127.10819 114,188.031619 114,251.132209 C114,288.263635 135.8741,322.483469 159.169675,342.127026 Z M295.332669,188.032103 C297.56233,183.846899 315.105587,184.409364 319.705749,187.059802 C326.208194,190.806263 337.972903,216.72833 335.242149,220.743249 C332.71327,224.46136 326.284219,213.735078 319.0198,207.329777 C311.75538,200.924476 293.260158,191.922326 295.332669,188.032103 Z M218.321679,191.920765 C216.583536,187.001561 201.919844,182.826674 195.899086,184.120349 C182.247735,187.053603 167.272477,213.065704 169.602266,217.90575 C171.759821,222.387988 184.65201,209.964652 193.94153,204.618767 C203.231051,199.272882 219.937314,196.493256 218.321679,191.920765 Z M263.636427,263.515678 C271.208065,264.680566 278.277681,264.996088 278.277681,262.645868 C278.277681,261.462854 277.362602,256.557199 267.296741,255.68739 C257.230879,254.81758 251.262497,256.842429 250.82533,258.296819 C249.984187,261.09518 257.196853,262.524957 263.636427,263.515678 Z M247.780935,225.244046 C251.318622,225.244046 254.186483,222.518057 254.186483,219.155378 C254.186483,215.792699 251.318622,213.066709 247.780935,213.066709 C244.243248,213.066709 241.375387,215.792699 241.375387,219.155378 C241.375387,222.518057 244.243248,225.244046 247.780935,225.244046 Z M268.211819,225.244046 C271.749506,225.244046 274.617367,222.518057 274.617367,219.155378 C274.617367,215.792699 271.749506,213.066709 268.211819,213.066709 C264.674132,213.066709 261.80627,215.792699 261.80627,219.155378 C261.80627,222.518057 264.674132,225.244046 268.211819,225.244046 Z M299.276115,394.35391 C320.249543,394.35391 339.997102,391.551106 339.997102,375.218094 C339.997102,358.885083 319.773392,333.673094 298.818576,334.337033 C271.366225,335.206843 261.300364,357.145463 261.300364,373.478475 C261.300364,389.811486 278.302687,394.35391 299.276115,394.35391 Z M322.610613,376.957714 C322.858313,382.941577 320.346184,388.707518 321.695535,389.135051 C324.44077,390.004861 327.186005,381.222878 327.186005,375.218094 C327.186005,369.213311 323.525691,363.040757 320.780456,363.910567 C319.384572,364.352844 322.354371,370.767489 322.610613,376.957714 Z M305.224124,389.135051 C307.118844,389.135051 307.721887,380.97776 306.472319,373.228882 C305.307911,366.008098 302.414326,359.141955 300.648733,359.561518 C296.988419,360.431327 301.563811,389.135051 305.224124,389.135051 Z M197.038482,396 C218.01191,396 237.759468,393.197196 237.759468,376.864184 C237.759468,360.531173 222.111151,335.306333 201.156335,335.970272 C173.703984,336.840082 159.06273,358.791553 159.06273,375.124565 C159.06273,391.457576 176.065054,396 197.038482,396 Z M220.744401,378.67331 C220.992101,384.657174 218.479972,390.423115 219.829323,390.850648 C222.574558,391.720457 225.319793,382.938474 225.319793,376.933691 C225.319793,370.928907 221.659479,364.756353 218.914244,365.626163 C217.51836,366.06844 220.488159,372.483085 220.744401,378.67331 Z M183.848408,377.454664 C184.503631,383.40934 188.254055,388.653146 186.790945,389.317741 C183.814268,390.669853 179.327719,382.489001 178.388363,376.558146 C177.449008,370.627291 180.633735,363.873385 183.882548,364.239476 C185.53449,364.425624 183.170589,371.294633 183.848408,377.454664 Z M286.848408,376.454664 C287.503631,382.40934 291.254055,387.653146 289.790945,388.317741 C286.814268,389.669853 282.327719,381.489001 281.388363,375.558146 C280.449008,369.627291 283.633735,362.873385 286.882548,363.239476 C288.53449,363.425624 286.170589,370.294633 286.848408,376.454664 Z M203.417092,390.78658 C205.311812,390.78658 205.914854,382.629289 204.665287,374.880411 C203.500879,367.659626 200.607294,360.793484 198.8417,361.213047 C195.181387,362.082856 199.756779,390.78658 203.417092,390.78658 Z" fill="#FFFFFF"></path>
            </g>
        </g>
    </g>
</svg>