<?xml version="1.0" encoding="UTF-8" standalone="no"?>
<svg width="500px" height="500px" viewBox="0 0 500 500" version="1.1" xmlns="http://www.w3.org/2000/svg" xmlns:xlink="http://www.w3.org/1999/xlink" xmlns:sketch="http://www.bohemiancoding.com/sketch/ns">
    <!-- Generator: Sketch 3.3 (11970) - http://www.bohemiancoding.com/sketch -->
    <title>Doll</title>
    <desc>Created with Sketch.</desc>
    <defs></defs>
    <g id="Page-1" stroke="none" stroke-width="1" fill="none" fill-rule="evenodd" sketch:type="MSPage">
        <g id="Row-4" sketch:type="MSLayerGroup" transform="translate(-2400.000000, 0.250000)">
            <g id="Doll" transform="translate(2400.000000, 0.000000)" sketch:type="MSShapeGroup">
                <path d="M250,499.001996 C388.071187,499.001996 500,387.296594 500,249.500998 C500,111.705402 388.071187,0 250,0 C111.928813,0 0,111.705402 0,249.500998 C0,387.296594 111.928813,499.001996 250,499.001996 Z" fill="#CAA4CC"></path>
                <path d="M162.253401,315.118921 C169.106571,298.180624 192.637974,275.074313 192.637974,275.074313 C192.637974,275.074313 172.484877,282.548131 172.484877,277.950808 C172.484877,277.143875 172.279049,276.026785 171.917484,274.686966 L171.917484,274.686966 C169.264292,275.412273 166.526634,276.120175 163.772945,276.769507 C161.871077,277.217976 162.058636,281.752058 157.424752,281.752058 C152.790867,281.752058 153.155279,278.934767 150.787252,279.257718 C149.710984,279.404499 143.523097,285.010266 136.57227,282.838129 C129.621443,280.665991 128.351859,278.259589 127.3045,274.004679 C123.829087,259.885756 133.614229,255.581895 142.200741,252.918947 C150.787253,250.255999 156.29236,253.621716 160.900165,251.736334 C161.338249,251.557083 161.776123,251.375344 162.213873,251.191244 C160.141124,246.830309 158.583223,243.739573 158.583223,243.739573 C158.583223,243.739573 164.259533,234.460524 177.5732,229.397173 C183.007411,227.330476 195.094329,221.767306 200.951236,218.635013 L200.951236,218.635013 C198.571349,217.797049 195.648976,216.676857 192.874676,214.83802 C178.501558,205.311355 193.044917,192.464252 192.874676,191.990808 C191.85233,189.147644 180.563901,190.902846 178.101746,181.111184 C175.639591,171.319521 182.479774,167.246006 184.257133,165.879709 C186.672173,164.023212 179.332824,159.351934 184.257133,147.384347 C189.181441,135.41676 203.543903,142.490901 208.261335,138.680648 C209.868578,137.382483 193.910149,120.827671 208.261336,105.658549 C212.433575,101.248517 223.971265,98.3937287 237.717456,106.696381 C243.35498,110.101426 249.080118,117.912004 249.080118,117.912004 C249.080118,117.912004 253.430132,117.593538 257.653343,118.403849 C260.533197,118.956408 263.354088,120.615909 264.696459,120.975368 C265.545803,121.202804 295.054107,102.777887 304.674031,122.06333 C310.742915,134.229864 306.277022,138.816325 299.978417,146.296385 C295.202339,151.968331 303.671659,144.12046 317.213501,149.560272 C324.791174,152.604254 329.265656,160.748966 324.599956,168.055634 C319.934256,175.362302 327.062111,173.015694 327.062111,183.287108 C327.062111,190.327105 321.666231,191.803781 317.213501,194.166733 C315.169661,195.251348 319.675647,200.694508 314.751346,208.006604 C311.630558,212.640664 302.945941,212.441463 297.093342,214.316124 C301.209909,216.083791 314.17275,221.663666 324.744451,226.362436 C337.491568,232.028107 341.621673,240.48136 341.621673,240.48136 C341.621673,240.48136 339.973849,243.759141 337.863306,248.520974 C339.913772,249.629243 341.940681,250.706386 343.938613,251.736334 C345.66901,252.628365 350.755392,250.916131 356.111503,251.741992 C361.944081,252.64132 368.09651,256.146749 370.583451,258.944567 C376.375807,265.460993 372.900393,280.665987 363.632623,281.752058 C354.364854,282.838129 350.944561,278.840342 349.730969,278.493845 C347.132518,277.751952 344.963677,281.752058 340.463199,279.579916 C335.962722,277.407774 338.679252,274.601877 337.121195,274.004678 C334.714033,273.082019 332.254395,272.141093 329.757957,271.251552 C329.206773,273.71905 328.87849,276.005301 328.87849,277.950808 C328.87849,280.643431 309.079664,270.017691 309.18448,273.063488 C309.566269,284.157751 326.182706,309.766583 329.480451,325.235746 C315.781323,328.850025 274.242408,339.239823 249.420588,339.239823 C220.359496,339.239823 172.694421,319.579732 162.253401,315.118921 L162.253401,315.118921 Z M160.402419,323.218536 C160.422153,325.226634 160.933991,327.000785 162.058637,328.453112 C166.108213,333.682589 179.034346,339.841467 195.215576,344.7286 C195.787468,353.127037 196.475512,361.345951 197.884792,368.576066 C197.977829,369.053377 193.796802,369.273551 185.685001,369.983025 C177.573199,370.692499 168.302568,385.208739 183.367343,391.734044 C198.432118,398.25935 222.105456,394.956025 222.880288,394.876802 C241.039231,393.020127 240.091457,369.989476 240.167274,353.088037 C243.145483,353.277812 246.080055,353.377988 248.943977,353.377988 C251.913429,353.377988 255.25544,353.274656 258.85012,353.067606 C258.442496,369.159931 258.459182,391.374171 268.589122,395.348597 C269.461748,395.690967 283.05905,397.598 290.25792,397.615445 C299.878005,397.638758 309.758315,396.130399 314.314999,394.704929 C325.253708,391.282967 326.102396,378.810163 318.950315,373.245678 C314.7372,369.967777 302.180627,371.027467 302.244313,370.6925 C303.855312,362.21927 304.08523,353.038956 303.943293,346.259702 C314.043792,343.606707 322.72416,340.207775 327.720019,336.055609 C329.064962,334.937798 329.771351,333.31471 329.979416,331.303329 C318.75759,335.260386 285.762956,345.765129 251.738245,345.765129 C211.212273,345.765129 195.454829,336.451775 160.402419,323.218536 L160.402419,323.218536 Z M244.804416,244.947717 C237.717165,252.040659 224.115482,257.67391 216.496202,257.67391 C201.641392,257.67391 204.392549,212.469944 236.668961,224.365725 C239.738991,225.497213 242.176885,226.714801 244.062338,227.991872 C240.393618,229.404545 237.832297,232.611538 237.832297,236.341598 C237.832297,240.318371 240.743643,243.700594 244.804416,244.947717 Z M253.135216,228.277228 C255.072994,226.896034 257.641443,225.581202 260.939355,224.365725 C293.215768,212.469944 295.966924,257.67391 281.112115,257.67391 C273.392204,257.67391 259.530823,251.890875 252.526526,244.665925 C256.160276,243.24048 258.691216,240.049471 258.691216,236.341598 C258.691216,232.844486 256.439823,229.807148 253.135216,228.277228 L253.135216,228.277228 Z M245.346804,269.011598 C246.956688,269.011598 248.261757,267.050597 248.261757,264.631579 C248.261757,262.212562 246.956688,260.251561 245.346804,260.251561 C243.73692,260.251561 242.431851,262.212562 242.431851,264.631579 C242.431851,267.050597 243.73692,269.011598 245.346804,269.011598 Z M245.346804,286.412414 C246.956688,286.412414 248.261757,284.451413 248.261757,282.032395 C248.261757,279.613378 246.956688,277.652376 245.346804,277.652376 C243.73692,277.652376 242.431851,279.613378 242.431851,282.032395 C242.431851,284.451413 243.73692,286.412414 245.346804,286.412414 Z M245.346804,308.163434 C246.956688,308.163434 248.261757,306.202433 248.261757,303.783415 C248.261757,301.364397 246.956688,299.403396 245.346804,299.403396 C243.73692,299.403396 242.431851,301.364397 242.431851,303.783415 C242.431851,306.202433 243.73692,308.163434 245.346804,308.163434 Z M254.635315,141.03039 C260.075345,141.03039 264.48536,136.749707 264.48536,131.469217 C264.48536,126.188726 260.075345,121.908043 254.635315,121.908043 C249.195286,121.908043 244.78527,126.188726 244.78527,131.469217 C244.78527,136.749707 249.195286,141.03039 254.635315,141.03039 Z M222.790871,139.014181 C226.814764,141.967101 237.707957,137.035508 238.251168,136.740026 C241.40489,135.024545 240.137183,132.284278 240.35939,129.159509 C240.536982,126.662145 242.467613,123.859227 242.467613,121.578991 C242.467613,115.089754 224.899093,104.901852 218.574427,113.240421 C214.542043,118.556798 215.712393,133.819667 222.790871,139.014181 Z M288.70101,145.856468 C284.410863,147.768861 268.181386,140.44948 267.737245,140.072464 C266.737226,139.223584 269.047853,137.275494 269.529541,135.56507 C270.28989,132.865146 269.84109,130.174653 270.112609,128.897258 C271.374828,122.958982 293.513465,115.35094 297.731908,124.222943 C300.421437,129.879418 296.247859,142.492356 288.70101,145.856468 Z M279.621143,178.701343 C275.980737,176.115338 276.594565,171.03091 270.965264,164.791748 C264.082343,157.163153 260.59996,167.460946 253.150856,164.791748 C244.677646,161.755587 239.831194,156.457717 230.859218,159.368 C221.887243,162.278283 213.17023,167.123643 213.17023,185.463034 C213.17023,203.802425 234.205063,217.013947 256.236174,217.013947 C275.36472,217.013947 296.086692,205.679107 296.118778,187.76837 C296.131541,180.643747 290.581157,186.486914 279.621143,178.701343 Z M241.347138,180.53282 C242.990185,180.53282 244.322138,179.282321 244.322138,177.739752 C244.322138,176.197183 242.990185,174.946684 241.347138,174.946684 C239.704091,174.946684 238.372138,176.197183 238.372138,177.739752 C238.372138,179.282321 239.704091,180.53282 241.347138,180.53282 Z M264.093259,181.742618 C265.736307,181.742618 267.068259,180.492119 267.068259,178.94955 C267.068259,177.406981 265.736307,176.156482 264.093259,176.156482 C262.450212,176.156482 261.11826,177.406981 261.11826,178.94955 C261.11826,180.492119 262.450212,181.742618 264.093259,181.742618 Z M252.897072,188.726921 C256.097089,188.726921 257.532387,190.415748 257.532387,189.814883 C257.532387,189.214018 256.097089,186.550996 252.897072,186.550996 C249.697055,186.550996 248.261757,189.214018 248.261757,189.814883 C248.261757,190.415748 249.697055,188.726921 252.897072,188.726921 Z M243.626441,196.088966 C243.464368,195.869197 245.944099,196.088966 245.944099,195.205006 C245.944099,194.166733 238.940622,194.166733 238.991126,195.205006 C239.034133,196.089148 241.308407,196.075815 241.308784,196.088966 C241.343184,197.28863 245.944099,207.580452 252.897072,207.580452 C261.008873,207.580452 265.644188,197.408798 265.644188,196.972927 C265.644188,196.719984 267.961846,196.972927 267.961846,196.088966 C267.961847,195.205006 261.008874,194.166733 261.008873,196.088966 C261.008873,196.972927 263.344279,196.935295 263.326532,196.972927 C262.216892,199.325809 259.794005,204.724569 252.897072,204.724569 C248.261757,204.724569 245.23022,198.263675 243.626441,196.088966 Z" fill="#FFFFFF" transform="translate(250.000000, 249.500998) rotate(-14.000000) translate(-250.000000, -249.500998) "></path>
            </g>
        </g>
    </g>
</svg>