<?xml version="1.0" encoding="UTF-8" standalone="no"?>
<svg width="500px" height="500px" viewBox="0 0 500 500" version="1.1" xmlns="http://www.w3.org/2000/svg" xmlns:xlink="http://www.w3.org/1999/xlink" xmlns:sketch="http://www.bohemiancoding.com/sketch/ns">
    <!-- Generator: Sketch 3.3 (11970) - http://www.bohemiancoding.com/sketch -->
    <title>Doughnut </title>
    <desc>Created with Sketch.</desc>
    <defs></defs>
    <g id="Page-1" stroke="none" stroke-width="1" fill="none" fill-rule="evenodd" sketch:type="MSPage">
        <g id="Row-2" sketch:type="MSLayerGroup" transform="translate(0.000000, 0.250000)">
            <g id="Doughnut-" sketch:type="MSShapeGroup">
                <ellipse fill="#FA8997" cx="250" cy="249.500998" rx="250" ry="249.500998"></ellipse>
                <path d="M272.040779,248.944977 C268.724475,248.499152 264.774953,247.758675 260.079351,246.622922 C236.998782,241.040289 228.376538,223.69975 228.376538,223.69975 C228.376538,223.69975 239.301951,219.029394 261.175422,225.708634 C283.048893,232.387874 288.964289,245.517357 288.646633,246.670236 C288.328911,247.823357 285.51042,250.274659 274.858266,249.269449 C275.4917,250.318075 275.304429,252.665671 273.578447,256.974162 C272.730368,259.091182 271.71942,263.245105 270.201142,266.344294 C266.771321,273.345422 263.962208,283.568029 256.821516,287.760741 C247.125771,293.45367 236.459725,290.674449 232.055033,283.783162 C225.415181,273.394893 230.86892,250.500633 231.340816,248.304652 C232.247106,244.087207 241.425712,235.932475 237.399448,253.213598 C233.091554,271.703506 233.360841,277.350594 241.097834,280.942717 C246.139133,283.283286 250.439191,281.746517 254.814443,277.666529 C259.189695,273.586541 262.208109,259.586293 267.175279,252.962957 C268.425955,251.295279 270.376778,249.652658 272.040779,248.944977 L272.040779,248.944977 Z M261.173284,357.339188 C381.778043,363.659816 385.12056,294.84168 387.357522,252.157895 C389.594485,209.47411 317.645339,145.385576 244.820413,141.568984 C171.995488,137.752391 118.67192,169.291561 113.16477,219.089009 C107.65762,268.886457 140.568524,351.01856 261.173284,357.339188 Z M150.410892,303.09117 C166.853158,325.214564 215.933123,350.161312 266.656324,349.012975 C285.846786,348.578517 321.690395,345.807054 336.090957,337.914038 C362.648012,323.35799 371.950454,300.75045 370.88123,296.428094 C370.818812,296.175766 365.77408,307.403773 348.954541,312.700515 C333.61704,317.530539 312.229132,316.650092 305.063623,313.057044 C288.610698,304.806947 262.351051,329.128008 244.735302,318.617905 C231.390064,310.655722 228.870318,308.363812 217.324709,296.499611 C210.358831,289.341514 191.286956,294.546057 184.361765,286.653023 C181.823698,283.760243 179.910102,273.316134 173.461631,274.388981 C171.003916,274.797877 163.641111,284.601187 157.016733,285.219929 C149.851311,285.889206 143.576463,277.073465 146.043377,268.86899 C149.343313,257.894046 139.42839,246.970648 135.08527,246.743033 C128.38875,246.392081 123.946451,235.75459 123.267309,224.572016 C122.839247,217.523659 126.265438,207.820299 124.134827,208.018781 C118.623894,208.532166 119.028379,222.750243 118.640448,230.152399 C118.132527,239.844112 134.131387,281.186775 150.410892,303.09117 Z M191.726269,171.101412 C189.335952,179.291538 181.135028,187.487812 178.274576,200.139751 C172.255687,226.761638 169.320866,244.399968 172.709661,245.908828 C181.60632,249.870064 181.984371,225.593862 191.622155,209.619053 C206.905441,184.286718 228.015027,159.483567 234.457591,155.510294 C244.962897,149.031438 270.108314,144.30945 268.484511,163.046661 C268.150961,166.895514 261.745675,180.940312 259.85456,186.104721 C259.673013,186.600504 256.352706,193.849864 255.539584,197.633751 C254.633295,201.851196 252.535031,221.868263 245.747196,209.73316 C238.959362,197.598057 260.245481,170.723952 256.948464,158.708097 C255.388489,153.022825 237.464307,161.155049 223.207882,180.164885 C214.852905,191.305599 204.529572,201.678643 198.480585,215.071272 C193.036385,227.124887 189.375687,240.968103 188.401745,243.403966 C183.306658,256.146964 173.447383,256.287946 167.073305,251.164816 C158.896962,244.593125 167.913893,220.228256 171.598483,199.281907 C173.757472,187.008375 185.199229,173.58037 184.839095,165.91238 C184.677534,162.472412 184.93952,155.135848 189.897698,154.742622 C195.215745,154.320856 194.365596,162.058084 191.726269,171.101412 Z M356.66838,244.788009 C351.936528,249.957976 349.592378,256.01263 341.74839,263.505287 C325.24327,279.271145 317.133328,288.735253 313.802633,287.415227 C305.058501,283.949739 321.228361,275.529134 327.262744,262.492344 C336.831872,241.819026 342.254643,217.930369 341.157682,212.287002 C339.368967,203.084874 328.016608,186.686013 314.722228,196.232046 C311.9914,198.192918 304.409681,208.559932 301.672443,212.047745 C301.409669,212.382574 294.243414,220.01909 289.554167,222.280923 C284.86492,224.542755 283.962401,236.236774 297.013351,228.795052 C310.0643,221.35333 310.870158,207.223662 322.181541,203.676617 C327.533494,201.998342 337.830803,210.701569 332.44004,227.869533 C329.280783,237.930817 326.325228,252.257619 319.962051,261.981835 C314.235073,270.733809 304.718032,278.184611 303.479616,279.878333 C297.000957,288.738883 302.994068,297.143918 311.007332,298.580142 C321.286341,300.422457 332.506935,281.364667 346.168314,269.583755 C354.173211,262.680718 358.896422,255.522712 363.208414,249.273971 C366.361061,244.7053 375.572499,239.370871 372.480161,236.021594 C369.387823,232.672316 361.89317,239.079463 356.66838,244.788009 Z M133.6765,224.504694 C139.175445,224.792881 137.297477,202.537512 140.425009,191.840115 C143.552541,181.142718 158.345011,168.482055 155.30386,168.322675 C154.798011,168.296165 137.12928,179.66458 133.673048,191.486259 C130.216817,203.307939 128.177555,224.216506 133.6765,224.504694 Z" fill="#FFFFFF"></path>
            </g>
        </g>
    </g>
</svg>