<?xml version="1.0" encoding="UTF-8" standalone="no"?>
<svg width="500px" height="500px" viewBox="0 0 500 500" version="1.1" xmlns="http://www.w3.org/2000/svg" xmlns:xlink="http://www.w3.org/1999/xlink" xmlns:sketch="http://www.bohemiancoding.com/sketch/ns">
    <!-- Generator: Sketch 3.2.2 (9983) - http://www.bohemiancoding.com/sketch -->
    <title>Duck</title>
    <desc>Created with Sketch.</desc>
    <defs></defs>
    <g id="Page-1" stroke="none" stroke-width="1" fill="none" fill-rule="evenodd" sketch:type="MSPage">
        <g id="Row-2" sketch:type="MSLayerGroup" transform="translate(-1800.000000, 0.000000)">
            <g id="Duck" transform="translate(1800.000000, 0.000000)" sketch:type="MSShapeGroup">
                <path d="M250,500 C388.071187,500 500,388.071187 500,250 C500,111.928813 388.071187,0 250,0 C111.928813,0 0,111.928813 0,250 C0,388.071187 111.928813,500 250,500 Z" fill="#F2C06C"></path>
                <path d="M129.289931,300.403865 C138.692066,332.831276 158.600467,353.663919 166.898477,361.074505 C205.551703,395.593991 263.993257,384.764192 273.456012,383.041445 C340.831769,370.775313 377.924195,341.508724 377.924195,285.759227 C377.924195,281.985739 380.013559,263.792271 362.253969,244.963452 C344.494378,226.134633 315.234995,225.678655 313.153924,221.950451 C312.86441,221.431791 316.465324,219.598427 318.377333,217.752877 C321.192124,215.035925 321.812815,213.02087 322.556061,211.489995 C322.770861,211.047568 336.328522,212.750776 348.673105,207.305813 C356.282154,203.949606 371.656105,193.707218 373.745468,178.016535 C375.834832,162.325852 370.86816,160.233761 370.611423,160.233761 C367.477378,160.233761 366.454534,165.463989 353.896514,164.417943 C341.338494,163.371898 333.104623,159.338819 333.002878,159.18772 C331.431566,156.854187 334.04756,148.727262 320.466697,133.036579 C306.885834,117.345896 290.170925,116.299851 279.724107,115.253805 C269.277289,114.20776 225.400654,114.207765 212.864473,161.279809 C200.328291,208.351854 241.345395,217.388286 237.936839,222.996496 C233.48199,230.326207 221.415083,237.738805 210.775112,240.779268 C192.169938,246.095855 173.804013,241.298394 170.032523,239.733222 C151.485781,232.03631 139.874295,214.082153 136.602703,214.62813 C130.334613,215.674175 126.011509,226.617127 124.066522,238.687177 C123.712454,240.884421 119.887795,267.976454 129.289931,300.403865 Z M302.231557,184.057915 C310.023526,184.057915 316.340164,176.562574 316.340164,167.316602 C316.340164,158.070631 310.023526,150.57529 302.231557,150.57529 C294.439589,150.57529 288.122951,158.070631 288.122951,167.316602 C288.122951,176.562574 294.439589,184.057915 302.231557,184.057915 Z M306.411885,167.316602 C308.720617,167.316602 310.592213,164.740079 310.592213,161.561776 C310.592213,158.383473 308.720617,155.80695 306.411885,155.80695 C304.103154,155.80695 302.231557,158.383473 302.231557,161.561776 C302.231557,164.740079 304.103154,167.316602 306.411885,167.316602 Z M218.102459,322.173745 C233.355012,336.51986 253.143272,342.054054 271.401639,342.054054 C290.454121,342.054054 323.655738,333.683398 326.790984,304.386101 C329.92623,275.088803 307.979508,263.579151 297.528689,263.579151 C281.467005,263.579151 270.796378,278.550094 258.860656,280.320464 C230.643443,284.505792 194.065574,265.386676 194.065574,277.181468 C194.065574,291.830117 202.737651,307.722048 218.102459,322.173745 Z" fill="#FFFFFF"></path>
            </g>
        </g>
    </g>
</svg>