<?xml version="1.0" encoding="UTF-8" standalone="no"?>
<svg width="500px" height="500px" viewBox="0 0 500 500" version="1.1" xmlns="http://www.w3.org/2000/svg" xmlns:xlink="http://www.w3.org/1999/xlink" xmlns:sketch="http://www.bohemiancoding.com/sketch/ns">
    <!-- Generator: Sketch 3.3 (11970) - http://www.bohemiancoding.com/sketch -->
    <title>Elephant</title>
    <desc>Created with Sketch.</desc>
    <defs></defs>
    <g id="Page-1" stroke="none" stroke-width="1" fill="none" fill-rule="evenodd" sketch:type="MSPage">
        <g id="Row-5" sketch:type="MSLayerGroup" transform="translate(-2400.000000, 0.000000)">
            <g id="Elephant" transform="translate(2400.000000, 0.000000)" sketch:type="MSShapeGroup">
                <path d="M250,500 C388.071187,500 500,388.071187 500,250 C500,111.928813 388.071187,0 250,0 C111.928813,0 0,111.928813 0,250 C0,388.071187 111.928813,500 250,500 Z" fill="#CAA4CC"></path>
                <path d="M157.982578,291.944141 C159.981933,312.932552 177.687779,325.646817 177.976126,325.925377 C178.02249,325.970168 174.1287,330.979444 170.978384,337.918754 C165.463428,350.066739 159.890415,368.35528 164.98032,377.896664 C166.665383,381.055432 171.978061,384.8928 191.971609,385.892248 C211.965156,386.891697 220.962253,383.450017 220.962253,377.896664 C220.962253,358.907165 219.752943,347.876634 219.962575,347.913236 C220.318621,347.9754 230.928984,352.18091 243.954832,352.910476 C257.510878,353.669738 273.50431,350.952161 273.945154,350.91158 C274.924156,350.821459 268.667476,373.269623 272.945476,379.89556 C274.104597,381.690852 279.943218,387.891145 301.93612,386.891697 C323.929022,385.892248 327.839184,380.942993 328.927409,377.896664 C333.925796,363.904405 328.635644,344.070655 327.927732,339.917651 C327.052296,334.78186 324.537464,330.187769 325.928377,329.619962 C326.431271,329.414668 341.923215,313.932 343.92257,291.944141 C345.921925,269.956283 328.927406,253.438099 328.927406,252.965662 C328.927406,252.836346 341.244332,267.725524 354.919017,257.962905 C376.220871,242.755104 401.603325,195.774549 394.906128,155.019746 C383.909677,88.1024719 296.555923,129.034097 295.938052,129.034097 C295.047962,129.034097 274.816524,118.733294 254.95128,118.040167 C233.309144,117.285043 211.889345,126.128772 210.965475,126.035752 C209.999957,125.938539 104,80.0611398 104,161.016437 C104,206.201422 120.994515,233.976151 138.988708,252.965665 C156.982901,271.955179 169.884271,254.564294 169.978703,254.96456 C170.10201,255.487216 155.983223,270.955731 157.982578,291.944141 Z M180.975158,362.904954 C177.974001,361.948867 174.550884,365.314405 173.977416,369.901091 C173.504485,373.683674 172.977738,378.896123 176.976448,379.895572 C180.975158,380.895021 184.973868,375.188804 184.973868,370.900539 C184.973868,365.903299 183.205666,363.615534 180.975158,362.904954 Z M311.984044,362.748624 C308.844734,362.492154 306.266432,366.541468 306.739442,371.1396 C307.129528,374.931622 307.788828,380.128968 311.909878,380.203287 C316.030928,380.277606 318.643532,373.818125 317.678882,369.639769 C316.554748,364.770607 314.317229,362.939237 311.984044,362.748624 Z M192.960058,363.744509 C190.114198,363.361227 187.57365,366.924792 187.784897,371.133602 C187.95911,374.604555 188.31137,379.367791 192.059719,379.632081 C195.808068,379.896371 198.494842,374.140173 197.815966,370.290078 C197.024853,365.80345 195.075148,364.029371 192.960058,363.744509 Z M298.92586,363.744509 C296.08,363.361227 293.539451,366.924792 293.750699,371.133602 C293.924912,374.604555 294.277171,379.367791 298.02552,379.632081 C301.77387,379.896371 304.460644,374.140173 303.781768,370.290078 C302.990655,365.80345 301.040949,364.029371 298.92586,363.744509 Z M207.440905,364.743646 C204.87077,364.397498 202.576366,367.615803 202.767146,371.416836 C202.924481,374.551501 203.242611,378.853245 206.627796,379.091929 C210.012981,379.330613 212.439444,374.132112 211.826342,370.655039 C211.111876,366.603103 209.351071,365.000908 207.440905,364.743646 Z M285.41574,364.743646 C282.845605,364.397498 280.551201,367.615803 280.741982,371.416836 C280.899316,374.551501 281.217446,378.853245 284.602631,379.091929 C287.987816,379.330613 290.414279,374.132112 289.801177,370.655039 C289.086712,366.603103 287.325906,365.000908 285.41574,364.743646 Z M189.972253,229.978356 C198.405607,234.807935 210.149942,235.159694 212.964835,237.973941 C213.039221,238.04831 216.558133,239.615053 219.999999,247.999999 C222.089085,253.089352 223.457695,264.11422 225.999999,268.999999 C229.562454,275.846293 235.002603,280.826492 235.999999,281.999999 C240.648198,287.468931 242.736923,290.54055 242.955152,290.944691 C248.224074,300.702254 247.10805,309.728127 245.954187,311.933101 C243.130938,317.328186 232.317218,317.42274 226.960318,310.933653 C225.746447,309.463228 228.817642,307.704473 229.95935,304.936965 C230.765402,302.98309 230.959028,296.94138 222.961609,295.941932 C214.96419,294.942484 215.963867,304.936965 213.964512,307.935309 C213.144858,309.164508 212.249391,311.256148 205.967093,311.933101 C202.949435,312.258271 197.816739,313.931998 197.969672,318.929238 C198.122606,323.926479 203.796677,322.739451 205.967093,322.927031 C207.848831,323.089661 211.490771,322.816869 213.964512,323.926479 C216.069477,324.870672 218.095802,327.155234 218.962899,327.924271 C220.992627,329.724457 223.823004,330.883115 223.961286,330.922615 C230.959028,332.921512 238.521607,332.965012 242.955152,331.922064 C259.949664,327.924271 271.4477,314.585458 277.943861,302.938068 C281.16072,297.170351 286.139653,280.978661 285.94128,263.959592 C285.781085,250.215997 279.533401,240.972284 279.943215,234.975597 C280.35303,228.97891 287.150296,227.979458 288.940316,227.979462 C303.935472,227.979491 322.225637,221.920841 320.929984,185.00319 C319.941733,156.844501 294.938375,139.028578 237.95677,139.028578 C180.975165,139.028578 170.955531,182.281804 172.977739,201.993809 C174.218577,214.08921 180.435549,224.516915 189.972253,229.978356 Z M217,310.941978 C212.052781,315.787843 205,316 206,318 C207,320 215.439753,317.580827 220,313 C224.396318,308.583842 225,303 223.000001,303 C221.000001,303 221.175218,306.852297 217,310.941978 Z M249,263 C253.794285,263.01443 257,266.533079 257,265 C257,261.962434 253.746705,259 248.5,259 C243.253295,259 241,261.962434 241,265 C241,266.504487 244.295127,262.985839 249,263 Z M248.5,248 C255.391785,248.01443 260,252.533079 260,251 C260,249.550011 258.902764,247.467928 256,246 C254.812336,245.399398 251.315618,243.981497 248.40596,244 C245.306792,244.019708 242.800924,245.510771 242,246 C239.308258,247.644197 238.370674,249.741348 239,251 C240,253 241.736745,247.985839 248.5,248 Z M248,227.661417 C257.985991,227.67971 257.999999,234 260.999999,232 C261.862878,231.424748 260.890638,228.006892 258,226 C254.814379,223.78831 249.537959,223 247.272563,223 C244.326342,223 240.647381,223.884847 238,226 C234.955099,228.432755 233.186559,232.186559 234,233 C236,235 238.200245,227.643465 248,227.661417 Z M232.302748,209.473541 C236.553823,209.473541 240,205.607731 240,200.839011 C240,196.070292 236.553823,192.204481 232.302748,192.204481 C228.051673,192.204481 224.605495,196.070292 224.605495,200.839011 C224.605495,205.607731 228.051673,209.473541 232.302748,209.473541 Z M267.302748,209.473541 C271.553823,209.473541 275,205.607731 275,200.839011 C275,196.070292 271.553823,192.204481 267.302748,192.204481 C263.051673,192.204481 259.605495,196.070292 259.605495,200.839011 C259.605495,205.607731 263.051673,209.473541 267.302748,209.473541 Z M204,239 C197.000001,239.220779 194.959193,246.136349 194,250 C192.861974,254.583992 192.460591,275.513795 196,274 C198.975164,272.727531 211.999999,263 212.999999,253 C213.532463,247.675364 210.999999,238.779221 204,239 Z M295.528332,236.351928 C302.476687,235.474948 305.574203,241.986122 307.125995,245.652155 C308.967104,250.001684 312.637688,270.611016 308.905045,269.669544 C305.767453,268.87816 291.381253,261.307924 288.82922,251.587475 C287.470356,246.41169 288.579977,237.228908 295.528332,236.351928 Z" fill="#FFFFFF"></path>
            </g>
        </g>
    </g>
</svg>