<?xml version="1.0" encoding="UTF-8" standalone="no"?>
<svg width="500px" height="500px" viewBox="0 0 500 500" version="1.1" xmlns="http://www.w3.org/2000/svg" xmlns:xlink="http://www.w3.org/1999/xlink" xmlns:sketch="http://www.bohemiancoding.com/sketch/ns">
    <!-- Generator: Sketch 3.2.2 (9983) - http://www.bohemiancoding.com/sketch -->
    <title>Feet</title>
    <desc>Created with Sketch.</desc>
    <defs></defs>
    <g id="Page-1" stroke="none" stroke-width="1" fill="none" fill-rule="evenodd" sketch:type="MSPage">
        <g id="Row-3" sketch:type="MSLayerGroup">
            <g id="Feet" sketch:type="MSShapeGroup">
                <ellipse fill="#FA8997" cx="250" cy="250" rx="250" ry="250"></ellipse>
                <path d="M127.568103,228.429738 C124.579873,256.449066 143.014981,280.585402 155.458256,294.475297 C182.352332,324.496006 208.842714,336.330484 216.218943,339.506368 C247.924981,353.157609 272.154621,323.779564 271.999257,303.48151 C271.863608,285.759226 257.058102,281.095754 243.113026,264.45459 C229.167949,247.813427 236.281646,225.71129 225.183642,203.41248 C218.211103,189.402816 188.328793,172.391082 158.446487,186.400746 C152.027002,189.410381 130.556333,200.41041 127.568103,228.429738 Z M201.936406,219.574299 C205.547593,216.544153 205.266904,210.26443 201.30947,205.548144 C197.352036,200.831858 191.216457,199.464971 187.60527,202.495117 C183.994083,205.525262 184.274772,211.804986 188.232206,216.521272 C192.18964,221.237558 198.325219,222.604445 201.936406,219.574299 Z M189.32487,174.392462 C205.262099,173.391771 207.254254,164.916903 207.254254,151.376586 C207.254254,137.836269 194.305255,121.355877 180.360179,124.357948 C166.415102,127.360019 164.422948,135.683094 164.422948,149.22341 C164.422948,162.763727 173.38764,175.393152 189.32487,174.392462 Z M150.206565,180 C159.372595,180 163.184555,172.399134 163.184555,163 C163.184555,153.600866 152.384448,143 143.218418,143 C134.052388,143 129.242122,151.619504 129.242122,161.018639 C129.242122,170.417773 141.040535,180 150.206565,180 Z M123.252281,202 C132.34955,202 137.228577,194.008129 137.228577,186 C137.228577,177.991871 126.359709,167 117.26244,167 C108.165171,167 102.287838,172.991871 102.287838,181 C102.287838,189.008129 114.155012,202 123.252281,202 Z M89.309849,211 C87.3132351,220 95.4331683,228.377901 100.291224,230 C109.275984,233 119.259054,230.5 121.255668,221 C123.252281,211.5 111.556389,201 103.286145,201 C99.4876172,201 91.3064628,202 89.309849,211 Z M102.665991,263.457511 C115.665992,266.457511 121.665991,257.980359 121.665991,252.457511 C121.665991,246.934664 115.000002,238.457511 105.332996,238.457511 C95.6659904,238.457511 91.6659906,241.457511 89.6659906,246.457511 C87.6659905,251.457511 89.6659901,260.457511 102.665991,263.457511 Z M365.892786,213.954471 C385.497965,234.194264 385.830713,264.563742 384.576753,283.169974 C381.866525,323.384262 368.277852,349.019066 364.420573,356.062957 C347.840417,386.340467 310.66027,378.107508 298.285968,362.016771 C287.481933,347.967907 296.277712,335.177862 297.021258,313.478999 C297.764805,291.780137 278.551702,278.743045 273.56853,254.338729 C270.437755,239.00624 283.511867,207.203424 315.684657,199.845804 C322.596196,198.265199 346.287608,193.714677 365.892786,213.954471 Z M277.192763,212.057007 C292.040739,206.180419 291.316512,197.50473 287.132324,184.627124 C282.948136,171.749517 265.540185,160.077194 253.20532,167.241598 C240.870455,174.406003 241.547776,182.937327 245.731964,195.814933 C249.916152,208.69254 262.344788,217.933594 277.192763,212.057007 Z M304.715829,193.592095 C313.646935,195.654004 319.071017,189.105452 321.185362,179.947217 C323.299707,170.788982 315.161083,158.03032 306.229977,155.968412 C297.298872,153.906504 290.672926,161.223017 288.558581,170.381252 C286.444236,179.539487 295.784724,191.530187 304.715829,193.592095 Z M330.655303,189.013021 C337.088044,195.445761 346.189143,193.244648 351.851745,187.582046 C357.514348,181.919444 357.601324,166.461567 351.168584,160.028826 C344.735843,153.596086 336.343048,153.677076 330.680446,159.339678 C325.017843,165.00228 324.222563,182.58028 330.655303,189.013021 Z M376.304159,173.404875 C367.085711,173.323097 360.579116,183.007454 360.002511,188.096602 C358.936105,197.508759 363.457071,206.753896 373.164592,206.731718 C382.872114,206.70954 390.710951,193.086158 388.99147,184.996638 C388.201712,181.281118 385.522607,173.486653 376.304159,173.404875 Z M404.527154,224.170684 C413.794151,214.572622 409.618041,205.063563 404.884037,202.219086 C400.150033,199.374609 389.450457,200.72242 384.47158,209.008662 C379.492704,217.294903 380.004054,222.268687 383.259814,226.558212 C386.515575,230.847737 395.260156,233.768745 404.527154,224.170684 Z" fill="#FFFFFF"></path>
            </g>
        </g>
    </g>
</svg>