<?xml version="1.0" encoding="UTF-8" standalone="no"?>
<svg width="500px" height="500px" viewBox="0 0 500 500" version="1.1" xmlns="http://www.w3.org/2000/svg" xmlns:xlink="http://www.w3.org/1999/xlink" xmlns:sketch="http://www.bohemiancoding.com/sketch/ns">
    <!-- Generator: Sketch 3.3 (11970) - http://www.bohemiancoding.com/sketch -->
    <title>Fish</title>
    <desc>Created with Sketch.</desc>
    <defs></defs>
    <g id="Page-1" stroke="none" stroke-width="1" fill="none" fill-rule="evenodd" sketch:type="MSPage">
        <g id="Row-2" sketch:type="MSLayerGroup" transform="translate(-1200.000000, 0.000000)">
            <g id="Fish" transform="translate(1200.000000, 0.000000)" sketch:type="MSShapeGroup">
                <path d="M250,500 C388.071187,500 500,388.071187 500,250 C500,111.928813 388.071187,0 250,0 C111.928813,0 0,111.928813 0,250 C0,388.071187 111.928813,500 250,500 Z" fill="#62BCD4"></path>
                <path d="M342.020734,295.300311 C352.249062,324.994241 377.969462,350.873608 399.300998,350.873608 C403.420458,350.873608 388.033163,303.588653 386.942619,267.167016 C385.86102,231.044173 408.775989,194.668007 395.181538,194.621306 C371.125158,194.538666 351.458836,214.19121 342.59172,239.795594 C338.301119,231.009505 332.277054,221.20189 324.285191,211.633474 C331.060343,200.010094 336.039133,189.321197 334.473625,185.079756 C330.354165,173.918878 302.774607,135.542519 285.040106,129.275364 C267.305606,123.008208 251.081637,141.341862 239.726045,151.597121 C236.250332,154.736044 232.352807,159.262922 228.488128,164.243231 C225.584571,164.0831 222.621057,164.000741 219.596734,164.000741 C195.278929,164.000741 167.946072,176.619744 147.499413,196.016306 C135.63343,207.272877 124.08625,228.827318 124.08625,228.827318 C124.08625,228.827318 110.908406,221.24069 106.726509,234.823051 C102.544611,248.405411 116.115872,253.256254 116.115872,253.256254 C116.115872,253.256254 100,251.315917 100,271.689458 C100,292.062999 121.719011,285.295137 121.719011,285.295137 C121.719011,285.295137 147.499413,352.213454 226.283679,356.436348 C240.301596,357.187718 252.896323,356.168003 264.183129,353.824718 C270.936893,372.369602 316.911799,377.323325 316.911799,365.900855 C316.911799,361.967858 313.363373,355.462887 312.792339,349.159537 C312.234907,343.006349 312.187341,336.645419 312.299871,331.553728 C326.253369,320.40969 335.860506,307.161205 342.02074,295.300299 L342.020734,295.300311 Z M304.888727,217.898626 C304.888727,217.898626 320.448546,250.174143 321.340779,274.908247 C322.122123,296.568346 304.888727,324.316586 304.888727,324.316586 L304.888727,217.898626 Z M269.675073,197.618709 C274.521756,197.618709 286.152913,237.925123 286.152912,272.193219 C286.152912,306.461315 273.500277,337.268517 269.675072,336.824461 L269.675073,197.618709 Z M234.955568,194.341728 C234.955568,194.341728 250.539776,239.271429 251.433407,273.702974 C252.215976,303.855295 234.955567,342.482721 234.955567,342.482721 L234.955568,194.341728 Z M143.738826,242.437248 C146.163915,225.181842 158.887936,212.705524 172.158721,214.570611 C185.429507,216.435699 194.221681,231.935921 191.796592,249.191326 C189.371502,266.446732 176.647482,278.92305 163.376697,277.057962 C150.105911,275.192875 141.313737,259.692653 143.738826,242.437248 Z M156.352167,263.904605 C151.339688,263.641912 147.623212,256.808906 148.051187,248.642658 C148.479162,240.476411 152.889522,234.069314 157.902001,234.332007 C162.914481,234.5947 166.630957,241.427706 166.202982,249.593953 C165.775007,257.760201 161.364647,264.167298 156.352167,263.904605 Z" fill="#FFFFFF"></path>
            </g>
        </g>
    </g>
</svg>