<?xml version="1.0" encoding="UTF-8" standalone="no"?>
<svg width="500px" height="500px" viewBox="0 0 500 500" version="1.1" xmlns="http://www.w3.org/2000/svg" xmlns:xlink="http://www.w3.org/1999/xlink" xmlns:sketch="http://www.bohemiancoding.com/sketch/ns">
    <!-- Generator: Sketch 3.2.2 (9983) - http://www.bohemiancoding.com/sketch -->
    <title>Flower</title>
    <desc>Created with Sketch.</desc>
    <defs></defs>
    <g id="Page-1" stroke="none" stroke-width="1" fill="none" fill-rule="evenodd" sketch:type="MSPage">
        <g id="Row-2" sketch:type="MSLayerGroup" transform="translate(-2400.000000, 0.000000)">
            <g id="Flower" transform="translate(2400.000000, 0.000000)" sketch:type="MSShapeGroup">
                <path d="M250,500 C388.071187,500 500,388.071187 500,250 C500,111.928813 388.071187,0 250,0 C111.928813,0 0,111.928813 0,250 C0,388.071187 111.928813,500 250,500 Z" fill="#CAA4CC"></path>
                <path d="M149.407277,296.265171 C181.918281,312.054309 205.218737,293.966737 205.562648,294.291528 C205.952206,294.65943 170.096098,312.054309 182.903463,350.540333 C189.135713,369.268191 205.562648,391 238.073652,391 C257.603116,391 290.288294,378.171325 297.184568,342.645764 C301.643388,319.676535 292.889359,303.284715 287.332749,294.291528 C284.295178,289.375323 283.392021,286.396959 283.392021,286.396959 C283.392021,286.396959 296.199386,318.962057 329.695572,318.962057 C341.641413,318.962057 363.191758,313.04113 381.910215,289.357423 C400.628671,265.673715 387.484025,209.431948 369.102849,200.543512 C340.532573,186.728016 304.080842,228.174507 304.080842,228.174507 C304.080842,228.174507 333.6363,201.530333 324.769662,163.044312 C315.903025,124.558292 283.113411,113.963975 273.540202,111.729612 C264.265501,109.564921 226.251469,104.821864 206.54783,132.452857 C186.844191,160.083849 214.429285,204.4908 214.429285,204.4908 C214.429285,204.4908 189.663388,167.906909 163.199825,166.991597 C136.464947,166.066902 110,203.888177 110,227.187683 C110,236.816371 116.896274,280.476032 149.407277,296.265171 Z M247.710803,293.701833 C273.837494,296.973104 297.786961,273.97408 297.786961,246.948451 C297.786961,219.922823 276.943102,198.834996 249.888027,198.834996 C222.832953,198.834996 201.989094,219.922824 201.989094,246.948453 C201.989094,273.974081 221.584112,290.430563 247.710803,293.701833 Z M255.20982,285.5581 C277.299977,285.5581 291.571426,263.167998 291.571426,242.533829 C291.571426,221.899659 268.542409,210.265625 251.57366,210.265625 C234.60491,210.265625 214,227.875252 214,248.509422 C214,269.143592 233.119664,285.5581 255.20982,285.5581 Z M259.000001,265 C262.384598,267.840014 270.997892,266.769527 274.902912,262.115705 C278.807932,257.461884 281.014238,250.207445 276.055251,246.046361 C271.096264,241.885277 268.90502,246.346179 265,251 C261.09498,255.653821 255.615403,262.159985 259.000001,265 Z" fill="#FFFFFF"></path>
            </g>
        </g>
    </g>
</svg>