<?xml version="1.0" encoding="UTF-8" standalone="no"?>
<svg width="500px" height="500px" viewBox="0 0 500 500" version="1.1" xmlns="http://www.w3.org/2000/svg" xmlns:xlink="http://www.w3.org/1999/xlink" xmlns:sketch="http://www.bohemiancoding.com/sketch/ns">
    <!-- Generator: Sketch 3.3 (11970) - http://www.bohemiancoding.com/sketch -->
    <title>Gift</title>
    <desc>Created with Sketch.</desc>
    <defs></defs>
    <g id="Page-1" stroke="none" stroke-width="1" fill="none" fill-rule="evenodd" sketch:type="MSPage">
        <g id="Row-5" sketch:type="MSLayerGroup" transform="translate(-1800.000000, 0.000000)">
            <g id="Gift" transform="translate(1800.000000, 0.000000)" sketch:type="MSShapeGroup">
                <path d="M250,500 C388.071187,500 500,388.071187 500,250 C500,111.928813 388.071187,0 250,0 C111.928813,0 0,111.928813 0,250 C0,388.071187 111.928813,500 250,500 Z" fill="#F2C06C"></path>
                <path d="M132.027326,286.289325 C132.660053,322.521524 137.521899,359.808083 152.558116,366.299675 C167.656239,372.817994 202.824997,376.283372 239.606812,377.325366 L239.606812,377.325366 C239.127465,359.302541 238.228734,322.663793 237.822413,287.406869 C213.311094,287.560494 189.709822,287.624466 171.195281,287.509254 C160.604568,287.44335 142.252958,286.723227 132.027326,286.289325 L132.027326,286.289325 Z M132,270.746043 C132.332548,245.542482 134.386719,223.228409 135.991747,215.432841 C139.845861,196.713532 159.464807,193.059339 191.903241,192.299928 C192.063352,192.296179 170.322968,194.287595 158.770505,184.253698 C147.189485,174.194999 145.812054,152.089877 158.770505,134.97053 C174.415874,114.301508 202.385284,121.968948 218.823591,132.958973 C229.582133,140.151724 232.883242,149.941925 233.319164,150.057214 C234.334095,150.325636 238.645817,144.434198 249.960365,144.022541 C261.274912,143.610884 266.405076,152.024448 267.4873,152.068772 C268.693895,152.11819 274.302552,138.034747 288.195262,129.941636 C299.567904,123.316575 317.803406,120.735283 332.717379,132.958973 C350.06899,147.180583 352.166837,165.806561 344.106757,178.219025 C336.776191,189.508043 319.911717,195.273222 320.292602,195.317263 C322.977509,195.62771 345.165244,191.080378 355.545985,198.499064 C366.409427,206.262715 365.431386,226.17809 365.850117,234.542639 C366.299785,243.525197 367.013617,255.568546 367.486192,268.806235 C358.912865,268.370724 339.02499,267.530753 314.080215,267.589167 C297.38296,267.628267 278.455734,267.894395 259.294684,268.192967 C259.281864,266.995752 259.26732,265.80561 259.25098,264.623463 C258.507572,210.840757 259.25098,220.149301 257.764164,198.429364 C257.522656,194.901322 241.409188,191.189385 239.178964,199.463647 C238.287983,202.769241 237.480381,232.733656 237.658087,268.533635 C213.25733,268.911945 189.705685,269.223306 171.195281,269.059067 C160.524293,268.964386 142.198618,270.064947 132,270.746043 L132,270.746043 Z M367.917435,286.050313 C368.412471,324.479858 365.440832,366.016518 348.351817,371.328569 C334.683206,375.5774 296.845436,377.939269 257.447255,377.643026 C258.098602,359.643817 259.275648,322.52967 259.364906,287.252058 C306.077532,286.876935 351.693633,286.274172 367.917435,286.050313 L367.917435,286.050313 Z M192.001325,181.00029 C199.651147,182.81468 209.232754,180.020862 216.843553,178.930104 C223.113741,178.031479 228.229573,178.930104 228.229573,178.930104 C228.229573,178.930104 224.883906,174.092643 220.983924,167.544083 C215.875258,158.965992 209.086846,148.016198 200.282068,146.842227 C184.755676,144.772042 179.580212,159.951562 179.580212,164.438804 C179.580212,168.948699 182.509091,178.748915 192.001325,181.00029 Z M306.821336,182.325174 C299.007417,183.193761 289.83771,179.253063 282.416571,177.242913 C276.302635,175.586842 271.11542,175.855306 271.11542,175.855306 C271.11542,175.855306 275.025688,171.461636 279.694669,165.437177 C285.810662,157.545615 293.882918,147.504739 302.765138,147.412552 C318.428091,147.249988 321.71506,162.947093 321.168202,167.400888 C320.618584,171.877166 316.51719,181.247392 306.821336,182.325174 Z M246.343697,184.105568 C252.34619,184.105568 257.212172,179.632457 257.212172,174.114595 C257.212172,168.596733 252.34619,164.123622 246.343697,164.123622 C240.341205,164.123622 235.475223,168.596733 235.475223,174.114595 C235.475223,179.632457 240.341205,184.105568 246.343697,184.105568 Z" fill="#FFFFFF"></path>
            </g>
        </g>
    </g>
</svg>