<?xml version="1.0" encoding="UTF-8" standalone="no"?>
<svg width="500px" height="500px" viewBox="0 0 500 500" version="1.1" xmlns="http://www.w3.org/2000/svg" xmlns:xlink="http://www.w3.org/1999/xlink" xmlns:sketch="http://www.bohemiancoding.com/sketch/ns">
    <!-- Generator: Sketch 3.3 (11970) - http://www.bohemiancoding.com/sketch -->
    <title>Gift Tie</title>
    <desc>Created with Sketch.</desc>
    <defs></defs>
    <g id="Page-1" stroke="none" stroke-width="1" fill="none" fill-rule="evenodd" sketch:type="MSPage">
        <g id="Row-3" sketch:type="MSLayerGroup">
            <g id="Gift-Tie" sketch:type="MSShapeGroup">
                <ellipse fill="#FA8997" cx="250" cy="250" rx="250" ry="250"></ellipse>
                <path d="M152.760152,144.038526 C109.566752,156.865043 102.204926,209.349965 127.564002,233.824143 C170.757402,275.510322 226.202022,218.607736 227.547503,223.997626 C228.049989,226.010544 204.052424,275.094605 206.751903,322.512042 C209.200884,365.529388 238.443793,396.889196 266.497651,404.238904 C267.359194,404.464616 267.126795,403.276888 266.254828,401.254658 C262.93989,393.566799 255.38143,377.818109 258.544753,377.818109 C260.158808,377.818109 260.743653,380.231367 282.340354,386.644625 C303.937054,393.057884 275.141454,377.024738 257.144203,354.578334 C250.134366,345.835573 239.759403,324.58696 239.146953,306.478896 C238.618738,290.861369 246.194017,268.703561 246.194017,268.703561 C246.194017,268.703561 252.962345,280.450134 269.56995,301.163355 C287.5672,323.609759 278.206748,344.981917 283.96775,355.676051 C287.054273,361.405555 289.544944,342.963782 294.7661,343.436276 C300.543418,343.9591 305.336191,359.816388 305.56445,358.88268 C306.209667,356.243381 310.456544,324.101375 294.16665,291.543467 C289.758649,282.733387 276.8597,268.572187 267.363079,252.814154 C259.609933,239.94912 267.743653,226.241265 267.743653,226.204255 C267.743653,225.258394 318.334854,272.303692 365.127704,237.030772 C393.33368,215.768824 375.926055,156.865043 336.332104,147.245155 C296.738154,137.625268 272.356776,173.217444 267.942553,172.898188 C261.909863,172.461878 260.743653,169.691559 249.945303,169.691559 C239.146953,169.691559 234.04872,176.104818 228.348603,176.104818 C219.111242,176.104818 195.953553,131.212009 152.760152,144.038526 Z M330.65692,188.931334 C348.65417,204.96448 336.556215,225.718462 327.05747,227.410884 C317.05261,229.193483 278.740904,218.455971 278.740904,211.377738 C278.740904,209.216326 281.568818,203.329388 282.340354,198.551222 C283.024637,194.313413 281.610577,191.172046 282.340354,188.931334 C283.468617,185.467103 322.183477,181.382629 330.65692,188.931334 Z M171.483263,183.566135 C151.908683,197.630225 161.770983,219.535094 171.040786,222.211135 C180.804506,225.029761 220.028713,218.355734 220.768589,211.316277 C220.994519,209.166705 218.797448,203.016419 218.529594,198.18378 C218.292031,193.897659 220.026706,190.921311 219.535146,188.616591 C218.775174,185.053401 180.699342,176.944498 171.483263,183.566135 Z" fill="#FFFFFF"></path>
            </g>
        </g>
    </g>
</svg>