<?xml version="1.0" encoding="UTF-8" standalone="no"?>
<svg width="500px" height="500px" viewBox="0 0 500 500" version="1.1" xmlns="http://www.w3.org/2000/svg" xmlns:xlink="http://www.w3.org/1999/xlink" xmlns:sketch="http://www.bohemiancoding.com/sketch/ns">
    <!-- Generator: Sketch 3.3 (11970) - http://www.bohemiancoding.com/sketch -->
    <title>Gingerbread Man</title>
    <desc>Created with Sketch.</desc>
    <defs></defs>
    <g id="Page-1" stroke="none" stroke-width="1" fill="none" fill-rule="evenodd" sketch:type="MSPage">
        <g id="Row-4" sketch:type="MSLayerGroup" transform="translate(-1800.000000, -21.000000)">
            <g id="Gingerbread-Man" transform="translate(1779.000000, 0.000000)" sketch:type="MSShapeGroup">
                <path d="M271,521 C409.071187,521 521,409.071187 521,271 C521,132.928813 409.071187,21 271,21 C132.928813,21 21,132.928813 21,271 C21,409.071187 132.928813,521 271,521 Z" fill="#F2C06C" transform="translate(271.000000, 271.000000) rotate(-5.000000) translate(-271.000000, -271.000000) "></path>
                <path d="M324.719094,212.392973 C320.756648,214.97776 317.048512,217.588544 313.732004,219.575656 C307.586768,223.257623 302.902391,226.439337 298.989077,220.917406 C295.47633,215.960701 311.476545,199.531609 303.349581,169.201366 C295.222617,138.871122 260.464212,133.355723 239.725227,138.912718 C222.346746,143.569268 201.475003,161.75344 203.608584,190.072589 C205.742164,218.391738 230.993415,232.163483 228.836321,238.215713 C228.225784,239.928717 224.943033,243.23611 220.190535,243.033753 C215.805553,242.847045 210.130527,242.01332 204.029603,241.369784 L204.029603,241.369784 C203.353257,242.650998 202.706134,244.527322 203.095064,246.623553 C203.868276,250.790967 208.450243,256.687796 207.055432,258.559634 C204.90849,261.440832 202.458478,261.784892 198.699447,263.662073 C195.473214,265.273187 201.962953,269.93687 199.624239,273.638722 C197.285526,277.340574 194.363575,276.01374 191.263464,278.723288 C189.166069,280.556445 194.932779,286.422423 192.188258,288.699938 C190.624145,289.997903 187.080331,291.353661 184.822073,292.1344 C196.285563,297.835837 208.565844,301.473604 213.356993,304.516877 C217.124075,306.909677 226.252813,324.318901 219.065845,342.244499 C217.059121,347.249631 214.328164,351.731562 211.298041,355.811861 C211.016641,358.457447 210.917419,363.860627 214.695168,364.406587 C220.955625,365.311347 222.499878,362.56498 227.370826,365.195172 C232.241774,367.825364 226.604543,372.928596 231.33921,376.3374 C235.245664,379.149918 244.839138,372.060778 246.369567,375.585085 C246.953294,376.929306 247.682534,384.965509 251.87106,386.887494 C256.059588,388.809479 261.845319,385.026364 267.312212,385.195006 C270.042292,385.279224 272.407444,387.278571 274.495184,388.805316 L274.495184,388.805316 C277.453464,370.995211 273.921782,346.093662 290.076858,343.87162 C300.380475,342.454415 307.315761,350.468366 313.230615,359.996148 L313.230615,359.996148 C315.843226,358.887565 319.063533,355.961912 322.550539,356.220008 C328.005111,356.623735 333.363704,360.990899 337.730189,359.517263 C342.096672,358.043628 343.661929,350.127675 344.382968,348.851833 C346.273404,345.506806 355.073307,353.559902 359.252349,351.171127 C364.317395,348.275904 359.244479,342.611377 364.363673,340.504746 C369.482868,338.398116 370.731588,341.290856 377.052322,341.045448 C382.123773,340.848545 381.276032,331.394781 381.276032,331.394781 C381.276032,331.394781 381.656375,331.246611 381.84007,331.265918 C384.036698,331.496793 388.642166,336.320675 388.642166,336.320675 C388.642166,336.320675 387.464801,343.98416 385.098492,346.738744 C382.378297,349.905281 371.479129,344.442687 369.255798,346.87295 C365.969542,350.465066 368.925451,353.416883 363.860404,356.312106 C358.795357,359.207329 349.552309,352.84319 348.017712,356.446314 C346.229684,360.644477 346.43609,363.28238 342.592985,365.882385 C340.096223,367.571539 329.508265,363.369394 322.773156,363.014946 C319.899326,362.863706 317.498456,363.485781 315.741401,364.20349 C319.910422,371.410955 323.711278,378.817535 328.077941,383.273798 C339.241224,394.666141 375.614956,389.046461 394.410181,365.500128 C424.18583,328.197709 376.30143,329.900962 362.906471,320.599598 C349.511513,311.298233 335.13207,287.815239 339.291306,278.227367 C341.26342,273.681246 352.13151,264.062457 361.081929,252.706862 C360.238642,251.553882 358.891129,250.217009 356.931196,249.63686 C352.866972,248.433831 345.532689,249.839289 344.4981,247.746707 C342.905625,244.52573 343.711348,242.186554 343.745331,237.98501 C343.774498,234.378985 336.672846,238.044118 334.436225,234.279703 C332.199605,230.515287 334.70836,228.51418 333.701557,224.521852 C333.020399,221.820824 325.175743,224.295902 324.392448,220.816545 C323.926597,218.747258 324.383452,214.728424 324.719094,212.392973 Z M330.263183,208.947707 C342.694233,201.703828 356.834946,197.320078 369.034723,213.067746 C377.745673,224.311981 372.195447,237.568472 363.609468,249.37433 C362.2447,247.961769 361.097736,244.136072 358.824366,243.541492 C355.502615,242.672717 351.209786,245.41041 349.016566,243.089787 C346.823348,240.769165 347.952712,233.255436 347.858264,231.93838 C347.610637,228.485295 340.332416,233.778264 338.487037,230.67234 C336.250416,226.907925 340.711151,222.932197 338.238119,219.86878 C335.765087,216.805363 334.278537,219.139237 330.614246,217.487404 C328.352069,216.467633 329.577734,211.28388 330.263183,208.947707 L330.263183,208.947707 Z M273.383128,393.91899 C272.935895,395.509826 272.399545,397.002141 271.748772,398.367153 C263.856588,414.921196 217.621921,423.238847 191.432403,398.049836 C179.730306,386.794789 191.956985,377.762015 204.347502,364.154732 C204.71593,366.073434 205.271061,368.031836 206.097965,369.227641 C208.472265,372.661169 219.882722,368.367773 221.839843,371.017124 C224.732618,374.933069 221.484353,377.55974 226.21902,380.968544 C230.953687,384.377348 240.811334,379.014233 241.960895,382.758028 C243.3003,387.120093 242.81929,389.721971 246.369567,392.709446 C248.676086,394.650329 259.645287,391.577947 266.38055,391.929452 C269.331772,392.083472 271.701729,392.996382 273.383128,393.91899 L273.383128,393.91899 Z M199.76411,240.966212 C184.36868,239.705701 167.595147,240.766418 162.352559,256.654931 C157.418418,271.608645 166.701431,281.679657 178.818426,288.881455 C181.148036,288.453615 186.5179,287.191919 186.397334,284.667674 C186.205574,280.65285 183.451198,280.387881 185.05799,276.793631 C186.664781,273.199382 192.232312,275.368983 194.571026,271.667131 C196.50064,268.612826 188.480326,264.530841 191.444628,262.742536 C192.575255,262.060451 199.782757,259.655561 200.854746,256.647848 C201.926735,253.640134 197.538529,251.058082 196.80457,247.703965 C196.317703,245.479033 199.015857,242.818891 199.76411,240.966212 L199.76411,240.966212 Z M241.378059,186.143192 C244.385175,185.337437 246.247861,182.538084 245.538486,179.89066 C244.829111,177.243236 241.8163,175.750268 238.809185,176.556022 C235.802069,177.361776 233.939383,180.16113 234.648758,182.808554 C235.358133,185.455978 238.370944,186.948946 241.378059,186.143192 Z M265.85536,180.802375 C268.862476,179.996621 270.725162,177.197267 270.015787,174.549844 C269.306412,171.90242 266.293601,170.409452 263.286486,171.215206 C260.279371,172.02096 258.416684,174.820314 259.126059,177.467738 C259.835434,180.115161 262.848245,181.608129 265.85536,180.802375 Z M235.372346,202.716557 C235.345568,205.078718 242.927826,216.688606 257.319375,215.467436 C273.289765,214.112297 277.116738,201.317389 277.159596,197.537006 C277.186376,195.174845 272.276529,195.228402 272.249752,197.590562 C272.222974,199.952722 270.761953,205.770567 261.082094,208.340787 C247.382392,211.978366 241.659089,204.937784 239.296897,201.703721 C238.4703,200.572031 235.399124,200.354397 235.372346,202.716557 Z M275.117623,273.925501 C277.955175,273.165181 279.710922,270.516554 279.039193,268.009627 C278.367464,265.5027 275.522629,264.086795 272.685077,264.847115 C269.847524,265.607435 268.091778,268.256062 268.763507,270.762989 C269.435236,273.269916 272.28007,274.685821 275.117623,273.925501 Z M283.803573,313.060764 C286.559883,312.322214 288.26536,309.74942 287.612864,307.31427 C286.960367,304.879119 284.196984,303.503754 281.440674,304.242305 C278.684364,304.980856 276.978887,307.553649 277.631384,309.988799 C278.28388,312.42395 281.047264,313.799315 283.803573,313.060764 Z M279.901507,293.094935 C282.921173,292.285818 284.789604,289.467202 284.074763,286.799381 C283.359923,284.13156 280.332507,282.624782 277.312841,283.4339 C274.293175,284.243017 272.424745,287.061632 273.139585,289.729453 C273.854426,292.397274 276.881841,293.904052 279.901507,293.094935 Z M257.332995,246.57909 C260.286823,246.785642 261.71635,241.492925 263.800015,240.022548 C264.439224,239.571479 266.719994,241.227985 269.779322,240.440662 C272.838649,239.653339 272.242037,237.686747 272.977995,237.660582 C273.919406,237.627113 282.965608,240.77933 284.082102,236.395724 C285.020121,232.712849 281.856159,225.265135 277.939628,223.990013 C274.023098,222.714892 270.406383,231.473249 270.406383,231.473249 C270.406383,231.473249 267.898589,230.723815 266.42018,231.194506 C264.895819,231.679827 264.383469,233.379849 263.29118,232.978208 C259.427499,231.557511 257.448819,230.567167 254.461569,230.358279 C248.874753,229.96761 251.278816,246.155741 257.332995,246.57909 Z M267.89031,238.878864 C269.545481,238.878864 270.887263,237.537314 270.887263,235.882427 C270.887263,234.227541 269.545481,232.88599 267.89031,232.88599 C266.235138,232.88599 264.893357,234.227541 264.893357,235.882427 C264.893357,237.537314 266.235138,238.878864 267.89031,238.878864 Z" fill="#FFFFFF"></path>
            </g>
        </g>
    </g>
</svg>