<?xml version="1.0" encoding="UTF-8" standalone="no"?>
<svg width="500px" height="500px" viewBox="0 0 500 500" version="1.1" xmlns="http://www.w3.org/2000/svg" xmlns:xlink="http://www.w3.org/1999/xlink" xmlns:sketch="http://www.bohemiancoding.com/sketch/ns">
    <!-- Generator: Sketch 3.3 (11970) - http://www.bohemiancoding.com/sketch -->
    <title>Giraffe</title>
    <desc>Created with Sketch.</desc>
    <defs></defs>
    <g id="Page-1" stroke="none" stroke-width="1" fill="none" fill-rule="evenodd" sketch:type="MSPage">
        <g id="Row-3" sketch:type="MSLayerGroup" transform="translate(-1800.000000, 0.250000)">
            <g id="Giraffe" transform="translate(1800.000000, 0.000000)" sketch:type="MSShapeGroup">
                <path d="M250,499.001996 C388.071187,499.001996 500,387.296594 500,249.500998 C500,111.705402 388.071187,0 250,0 C111.928813,0 0,111.705402 0,249.500998 C0,387.296594 111.928813,499.001996 250,499.001996 Z" fill="#F2C06C"></path>
                <path d="M204.358438,284.320403 C214.891346,271.474613 226.908572,261.743265 235.278981,258.757391 C236.838483,258.201089 238.179153,252.156596 239.306422,243.601372 L239.306422,243.601372 C240.796145,243.903515 242.416702,244.069302 244.111592,244.069302 C251.428767,244.069302 257.36051,240.979322 257.36051,237.167637 C257.36051,233.355953 251.428767,230.265972 244.111592,230.265972 C242.941767,230.265972 241.807352,230.344951 240.726926,230.493236 C241.03323,227.129942 241.316759,223.643404 241.577706,220.139279 C221.597751,213.849098 236.945553,195.300503 236.705731,194.533669 C234.56551,187.690277 227.784606,181.670163 222.794427,174.273411 C227.410267,173.555801 230.862675,170.663592 230.862675,167.204886 C230.862675,163.206622 226.249098,159.965388 220.557961,159.965388 C219.398671,159.965388 218.284093,160.099881 217.244115,160.347868 L217.244115,160.347868 C217.149135,159.467872 217.099164,158.566054 217.099164,157.640717 C217.099164,155.539969 217.184933,153.534153 217.357563,151.621023 C217.52578,149.756792 192.914519,163.17466 192.590956,148.417479 C192.267393,133.660298 218.83605,143.097656 219.317062,141.620291 C221.882386,133.741242 226.699892,128.0997 233.90866,124.409355 C234.228451,124.245646 223.449206,106.59128 239.204586,106.59128 C253.330816,106.59128 246.0424,121.799126 246.718634,121.600617 C252.966881,119.766441 254.831183,118.903118 263.66476,118.903118 C272.270853,118.903118 273.795901,119.722549 279.685795,121.460846 C280.108631,121.585638 273.107539,104.290725 288.172972,106.59128 C303.238404,108.891835 289.620197,124.327653 290.149942,124.62708 C296.675786,128.315674 303.666825,133.881013 305.864476,141.592023 C306.344689,143.276971 334.738567,131.815651 332.287746,148.417479 C329.836926,165.019307 307.385103,149.54921 307.504326,150.917502 C307.689346,153.040908 307.779534,155.280918 307.779534,157.640717 C307.779534,163.590714 304.051283,169.749212 299.692645,175.888216 L299.692645,175.888216 C297.83228,174.091464 294.730726,172.914847 291.218854,172.914847 C285.527718,172.914847 280.914141,176.004828 280.914141,179.816512 C280.914141,183.628197 285.527718,186.718178 291.218854,186.718178 C291.46343,186.718178 291.706015,186.712471 291.94633,186.701246 C290.478623,188.903905 289.170666,191.086035 288.172972,193.236557 C287.908609,193.806388 308.335791,213.378146 281.681915,220.022215 L281.681915,220.022215 C285.696333,239.453954 289.861486,258.375082 290.933219,258.757389 C318.192977,268.481432 387.216546,350.311294 320.285577,377.20529 C318.994119,377.72422 311.51991,367.233457 296.815129,369.541459 C282.110348,371.84946 282.749896,382.453998 279.489166,385.229734 C276.461513,387.80706 263.597222,387.516164 260.65186,385.718362 C257.706497,383.920559 258.582706,369.541459 240.936966,369.541459 C223.291226,369.541459 221.541576,381.180098 220.262558,380.824871 C204.143397,376.348025 193.88127,369.098284 187.998547,360.297604 C187.632368,359.749793 180.697059,359.595685 174.393608,360.284769 C172.308751,360.512683 173.294971,362.617454 161.531146,362.617454 C149.767322,362.617454 147.474104,354.227389 158.59019,351.077447 C169.706276,347.927506 167.106381,353.687221 175.588188,353.687223 C184.069994,353.687226 185.003351,352.59694 184.714964,351.919396 C177.640801,335.299209 183.866547,315.219251 194.626253,297.882714 C196.615067,302.115617 198.499767,305.322365 206.813502,301.445607 C215.459857,297.413745 213.767261,293.783959 211.679336,289.306392 C210.320019,286.391326 207.487492,284.600696 204.358438,284.320403 L204.358438,284.320403 Z M304.095768,390.920568 C305.541481,390.862689 306.9633,389.516696 306.9633,387.049029 C306.9633,383.820847 306.201759,380.262899 303.578843,377.270691 C302.622176,376.17933 301.288595,374.937007 299.630311,375.212094 C299.413481,375.248063 300.357473,379.024361 300.758463,382.417185 C301.071104,385.062478 300.738491,386.64829 301.322539,388.592977 C301.635635,389.635485 302.22166,390.317417 302.901517,390.660096 C302.871522,389.966559 302.942273,388.974352 302.736375,387.993209 C302.06771,384.806888 300.965292,380.793686 301.688859,380.793686 C302.216872,380.793686 303.427818,383.005822 303.945164,385.421951 C304.37389,387.424207 304.515646,389.787241 304.095768,390.920568 L304.095768,390.920568 Z M236.945636,390.746329 C235.826125,390.305196 234.897343,389.043471 234.897343,387.049029 C234.897343,383.820847 235.658884,380.262899 238.2818,377.270691 C239.238467,376.17933 240.572048,374.937007 242.230332,375.212094 C242.447162,375.248063 241.50317,379.024361 241.10218,382.417185 C240.789539,385.062478 241.122152,386.64829 240.538104,388.592977 C240.110023,390.018347 239.171736,390.769665 238.180995,390.901432 C238.248829,390.210328 238.131263,389.094795 238.362436,387.993209 C239.031101,384.806888 240.133519,380.793686 239.409952,380.793686 C238.88194,380.793686 237.670993,383.005822 237.153648,385.421951 C236.745811,387.326647 236.597661,389.55782 236.945636,390.746329 L236.945636,390.746329 Z M256.72036,385.596994 C256.720359,376.847955 246.537344,371.186811 239.20368,371.186811 C231.870016,371.186811 222.817109,376.847955 222.252055,386.111644 C221.687,395.375332 256.720362,394.346034 256.72036,385.596994 Z M284.005373,385.596994 C284.005374,376.847955 294.188389,371.186811 301.522053,371.186811 C308.855717,371.186811 317.908624,376.847955 318.473679,386.111644 C319.038733,395.375332 284.005371,394.346034 284.005373,385.596994 Z M212.309044,147.458147 C212.309044,146.547665 197.588025,142.512429 197.588025,149.106719 C197.588025,155.701009 212.309044,148.368628 212.309044,147.458147 Z M311.356179,147.458147 C311.356179,146.547665 326.077198,142.512429 326.077198,149.106719 C326.077198,155.701009 311.356179,148.368628 311.356179,147.458147 Z M264.248917,218.063629 C275.483368,218.063629 287.802548,213.569112 287.802548,208.024843 C287.802548,202.480575 277.624607,192.966665 266.390157,192.966665 C255.155706,192.966665 240.695286,202.480575 240.695286,208.024843 C240.695286,213.569112 253.014467,218.063629 264.248917,218.063629 Z M257.208849,203.78574 C256.513259,201.874625 255.175071,200.607183 254.219921,200.954829 C253.264772,201.302475 253.054356,203.133563 253.749945,205.044678 C254.445534,206.955793 255.783722,208.223235 256.738872,207.875589 C257.694022,207.527943 257.904438,205.696855 257.208849,203.78574 Z M277.922745,204.818297 C279.030414,203.112637 279.237296,201.281147 278.38483,200.727549 C277.532364,200.173951 275.943361,201.107882 274.835693,202.813541 C273.728024,204.519201 273.521142,206.350692 274.373608,206.90429 C275.226074,207.457887 276.815077,206.523957 277.922745,204.818297 Z M256.211038,163.070404 C259.056606,163.070404 261.363395,161.180366 261.363395,158.848887 C261.363395,156.517407 259.056606,154.62737 256.211038,154.62737 C253.36547,154.62737 251.058681,156.517407 251.058681,158.848887 C251.058681,161.180366 253.36547,163.070404 256.211038,163.070404 Z M270.932058,163.075462 C273.777626,163.075462 276.084414,161.184292 276.084414,158.851416 C276.084414,156.51854 273.777626,154.62737 270.932058,154.62737 C268.086489,154.62737 265.779701,156.51854 265.779701,158.851416 C265.779701,161.184292 268.086489,163.075462 270.932058,163.075462 Z M269.137325,366.63485 C282.386242,366.634849 282.927457,359.424895 282.927457,350.530965 C282.927457,341.637034 264.721019,341.637034 264.721019,350.530965 C264.721019,359.424895 255.888408,366.634852 269.137325,366.63485 Z M276.088067,282.696784 C283.121787,280.679897 287.97203,276.074607 286.921387,272.410581 C285.870745,268.746555 278.052914,263.002636 271.019194,265.019523 C263.985474,267.036409 260.399391,276.050348 261.450034,279.714374 C262.500677,283.3784 269.054347,284.71367 276.088067,282.696784 Z M317.494673,321.552667 C330.230352,317.90077 326.744166,305.743 325.693523,302.078973 C324.642881,298.414947 316.82505,292.671028 309.79133,294.687915 C302.75761,296.704802 299.171527,305.71874 300.22217,309.382767 C301.272812,313.046793 304.758994,325.204563 317.494673,321.552667 Z M223.033163,337.656201 C230.066883,335.639314 234.917126,331.034024 233.866483,327.369998 C232.815841,323.705972 224.99801,317.962053 217.96429,319.97894 C210.93057,321.995826 202.398463,324.442369 204.9329,333.280999 C207.467336,342.11963 215.999443,339.673087 223.033163,337.656201 Z M273.553631,253.241931 C277.618728,253.241931 280.914141,250.151951 280.914141,246.340266 C280.914141,242.528582 277.618728,239.438601 273.553631,239.438601 C269.488534,239.438601 266.193121,242.528582 266.193121,246.340266 C266.193121,250.151951 269.488534,253.241931 273.553631,253.241931 Z M241.139954,282.406343 C247.810842,279.295658 246.504959,276.495184 244.894072,273.040625 C243.283184,269.586065 238.990644,268.178293 235.306415,269.896278 C231.622186,271.614262 229.94141,275.807437 231.552297,279.261996 C233.163185,282.716555 234.469067,285.517029 241.139954,282.406343 Z M238.483917,309.297801 C244.74285,316.49788 247.765481,313.870347 251.494086,310.62912 C255.22269,307.387894 255.443101,301.536776 251.986388,297.560282 C248.529675,293.583788 242.704824,292.987736 238.97622,296.228962 C235.247615,299.470189 232.224984,302.097722 238.483917,309.297801 Z M323.605097,347.261379 C329.296233,347.261379 333.90981,344.171398 333.90981,340.359713 C333.90981,336.548029 329.296233,333.458048 323.605097,333.458048 C317.91396,333.458048 313.300383,336.548029 313.300383,340.359713 C313.300383,344.171398 317.91396,347.261379 323.605097,347.261379 Z M302.99567,359.369671 C307.060767,359.369671 310.356179,357.162542 310.356179,354.43991 C310.356179,351.717278 307.060767,349.510149 302.99567,349.510149 C298.930572,349.510149 295.63516,351.717278 295.63516,354.43991 C295.63516,357.162542 298.930572,359.369671 302.99567,359.369671 Z M273.553631,330.706228 C280.870806,330.706228 286.802548,327.626183 286.802548,323.826756 C286.802548,320.027329 280.870806,316.947284 273.553631,316.947284 C266.236456,316.947284 260.304714,320.027329 260.304714,323.826756 C260.304714,327.626183 266.236456,330.706228 273.553631,330.706228 Z M213.197452,366.250165 C218.888588,366.250165 223.502165,363.683461 223.502165,360.517272 C223.502165,357.351083 218.888588,354.784379 213.197452,354.784379 C207.506316,354.784379 202.892738,357.351083 202.892738,360.517272 C202.892738,363.683461 207.506316,366.250165 213.197452,366.250165 Z M246.89986,346.008068 C250.707974,341.77873 251.887627,336.632714 249.53469,334.514119 C247.181752,332.395525 242.187234,334.106621 238.37912,338.33596 C234.571007,342.565298 233.391354,347.711314 235.744291,349.829908 C238.097228,351.948503 243.091747,350.237407 246.89986,346.008068 Z M282.386242,303.188341 C286.45134,303.188341 289.746752,300.621637 289.746752,297.455448 C289.746752,294.289258 292.690956,291.722554 282.386242,291.722554 C272.081529,291.722554 275.025733,294.289258 275.025733,297.455448 C275.025733,300.621637 278.321145,303.188341 282.386242,303.188341 Z" fill="#FFFFFF"></path>
            </g>
        </g>
    </g>
</svg>