<?xml version="1.0" encoding="UTF-8" standalone="no"?>
<svg width="500px" height="500px" viewBox="0 0 500 500" version="1.1" xmlns="http://www.w3.org/2000/svg" xmlns:xlink="http://www.w3.org/1999/xlink" xmlns:sketch="http://www.bohemiancoding.com/sketch/ns">
    <!-- Generator: Sketch 3.3 (11970) - http://www.bohemiancoding.com/sketch -->
    <title>Girl</title>
    <desc>Created with Sketch.</desc>
    <defs></defs>
    <g id="Page-1" stroke="none" stroke-width="1" fill="none" fill-rule="evenodd" sketch:type="MSPage">
        <g id="Row-3" sketch:type="MSLayerGroup" transform="translate(-1800.000000, 0.000000)">
            <g id="Girl" transform="translate(1800.000000, 0.000000)" sketch:type="MSShapeGroup">
                <path d="M250,500 C388.071187,500 500,388.071187 500,250 C500,111.928813 388.071187,0 250,0 C111.928813,0 0,111.928813 0,250 C0,388.071187 111.928813,500 250,500 Z" fill="#F2C06C"></path>
                <path d="M131.768548,282.616938 C143.749763,333.767188 193.570387,370.205103 250.215999,371.947621 C305.178944,373.638377 352.496424,334.188395 365.387309,283.837987 C365.805712,282.203749 388.421571,286.841725 391.42604,263.81307 C394.430509,240.784416 369.678285,238.979795 369.393267,237.316081 C368.978744,234.89641 402.547207,221.10765 393.429019,198.732091 C382.412633,171.698453 352.992163,180.937252 352.367943,179.70842 C351.59878,178.194254 350.364964,169.695962 345.357516,164.689732 C340.350068,159.683503 332.014121,158.97925 331.336661,158.682257 C331.100358,158.578664 333.33964,133.651111 308.302399,128.644882 C297.618928,126.508708 291.179608,130.067309 286.269627,133.651111 C279.672825,138.466127 276.524868,144.157031 276.097261,144.039115 C265.756543,141.187592 255.03262,139.658586 244.207061,139.658586 C179.110234,139.658586 140.510185,183.774801 130.937276,237.316084 C130.671064,238.805004 105,233.995497 105,258.806841 C105,283.618185 131.266185,280.472249 131.768548,282.616938 Z M232.68993,246.647343 C238.497559,246.647343 243.205572,242.015189 243.205572,236.301136 C243.205572,230.587084 238.497559,225.954929 232.68993,225.954929 C226.882302,225.954929 222.174289,230.587084 222.174289,236.301136 C222.174289,242.015189 226.882302,246.647343 232.68993,246.647343 Z M272.749516,246.647343 C278.557145,246.647343 283.265158,242.015189 283.265158,236.301136 C283.265158,230.587084 278.557145,225.954929 272.749516,225.954929 C266.941888,225.954929 262.233875,230.587084 262.233875,236.301136 C262.233875,242.015189 266.941888,246.647343 272.749516,246.647343 Z M301.291972,190.929858 C305.622633,191.274321 311.070519,189.622693 312.308356,190.221501 C314.393625,191.230256 312.308358,194.727109 317.315806,198.732092 C322.323254,202.737076 326.739068,200.382031 328.332192,201.73583 C334.313424,206.818535 326.329213,223.763234 343.354537,228.769464 C360.379861,233.775693 377.243836,218.757005 377.243835,202.737076 C377.243835,198.629815 373.474762,192.931249 365.387309,190.929858 C357.282827,188.924252 344.858351,190.619203 343.354537,189.72088 C341.827651,188.808774 343.049887,179.483715 338.347089,174.70219 C333.796145,170.075062 324.309798,171.189616 323.324743,170.697208 C322.875642,170.472712 320.468731,155.806456 312.308357,151.673536 C303.555423,147.240508 296.284523,148.669799 287.271116,154.677274 C273.418273,163.910255 276.136189,177.187044 281.262179,182.712157 C285.606792,187.395053 293.709163,190.326718 301.291972,190.929858 Z M325.829957,196.084717 C329.978263,196.084717 333.34113,192.722669 333.34113,188.575373 C333.34113,184.428077 329.978263,181.066029 325.829957,181.066029 C321.681651,181.066029 318.318785,184.428077 318.318785,188.575373 C318.318785,192.722669 321.681651,196.084717 325.829957,196.084717 Z M225.942566,302.191989 C221.19345,315.489515 233.541151,321.188453 233.541151,321.188453 C233.541151,321.188453 232.591329,329.736859 237.340444,339.235095 C242.08956,348.733331 253.367903,352.080125 261.086026,350.632977 C267.478422,349.434403 276.283197,343.984211 279.132667,334.485979 C281.982137,324.987746 277.233017,315.489514 277.233017,315.489514 C277.233017,315.489514 284.831606,309.790575 280.08249,298.392697 C275.333374,286.994819 262.775815,287.764343 254.437263,286.994818 C247.119003,286.319451 230.691682,288.894464 225.942566,302.191989 Z M258.367366,341.960619 C273.633892,341.062588 270.041767,324 270.041767,324 C270.041767,324 261.061458,326.694093 256.571304,327.592124 C252.081149,328.490155 243.99887,326.694093 243.99887,326.694093 C243.99887,326.694093 243.10084,342.85865 258.367366,341.960619 Z" id="Girl-" fill="#FFFFFF"></path>
            </g>
        </g>
    </g>
</svg>