<?xml version="1.0" encoding="UTF-8" standalone="no"?>
<svg width="500px" height="500px" viewBox="0 0 500 500" version="1.1" xmlns="http://www.w3.org/2000/svg" xmlns:xlink="http://www.w3.org/1999/xlink" xmlns:sketch="http://www.bohemiancoding.com/sketch/ns">
    <!-- Generator: Sketch 3.3 (11970) - http://www.bohemiancoding.com/sketch -->
    <title>Guitar</title>
    <desc>Created with Sketch.</desc>
    <defs></defs>
    <g id="Page-1" stroke="none" stroke-width="1" fill="none" fill-rule="evenodd" sketch:type="MSPage">
        <g id="Row-4" sketch:type="MSLayerGroup" transform="translate(-600.000000, 0.250000)">
            <g id="Guitar" transform="translate(600.000000, 0.000000)" sketch:type="MSShapeGroup">
                <path d="M250,499.001996 C388.071187,499.001996 500,387.296594 500,249.500998 C500,111.705402 388.071187,0 250,0 C111.928813,0 0,111.705402 0,249.500998 C0,387.296594 111.928813,499.001996 250,499.001996 Z" fill="#6DB67F"></path>
                <path d="M163.332476,136.520036 C160.388427,137.887653 157.74404,140.159152 157.437028,142.817187 C157.004793,146.559381 159.072675,147.526829 159.598208,147.49493 C160.179412,147.459652 159.651733,147.678781 160.030445,146.40382 C160.512713,144.780233 162.35338,144.18512 163.488332,143.597174 C163.540665,143.570064 163.595873,143.540842 163.653768,143.509809 L164.031347,151.724121 C160.677985,151.824129 153.233442,151.252636 153.546904,143.284962 C153.669948,140.157406 158.056839,136.827245 163.188884,133.396155 L163.332476,136.520036 Z M169.643025,142.137375 C170.369232,142.526132 170.970003,143.308387 171.317747,144.688285 C172.186298,148.134816 171.456889,149.434524 170.377375,150.136642 L169.643025,142.137375 Z M168.518008,129.882558 C169.770292,129.047994 170.997071,128.209622 172.150136,127.368834 C178.242026,122.926771 181.30387,118.288242 182.457549,114.750728 C185.050965,106.798564 176.023176,102.120821 174.294232,102.120821 C171.816732,102.120821 163.032757,104.134201 161.05003,109.60521 C158.842,115.697908 163.841367,122.066664 161.05003,124.717749 C157.394529,128.189577 143.089635,131.590603 144.469949,143.752735 C145.166952,149.894126 150.521254,153.956309 154.843613,155.447093 C159.165972,156.937878 163.839982,157.519276 163.841367,157.536369 C164.055061,160.17381 164.699453,164.86767 161.05003,167.135106 C157.400606,169.402543 153.546905,168.059689 153.546905,167.141452 C153.546905,166.480344 155.397737,167.10501 157.004793,166.673677 C158.932689,166.156231 160.63369,164.504631 160.030445,162.463708 C158.924345,158.721514 153.546904,158.25374 150.089017,160.124837 C147.978562,161.266825 146.280626,167.598709 151.385725,171.27364 C154.843613,173.762818 160.894916,174.54806 165.649513,171.741414 C168.509818,170.052972 171.276236,165.774311 170.525742,156.850417 C170.509177,156.653447 180.714039,153.575996 179.913301,143.284961 C179.695264,140.482758 175.27694,135.098571 168.999814,135.130877 L168.518008,129.882558 Z M356.115061,132.943455 C358.323809,130.017917 360.319229,127.760223 361.826624,126.74155 C368.936422,121.936861 379.408999,122.594388 390.581539,132.203765 C401.75408,141.813142 401.278994,149.910557 394.644281,159.110022 C393.900284,160.141623 392.809636,161.244703 391.459437,162.39026 L391.459437,162.39026 C392.446042,163.903901 393.571576,165.57244 393.706533,165.520882 C395.312888,164.907208 396.139203,164.511014 396.904251,164.684905 C398.713384,165.096109 401.324246,171.742144 400.741315,173.303092 C400.158384,174.86404 394.179161,178.827573 391.843641,177.264592 C389.508121,175.701611 387.153245,170.412472 388.006577,168.646404 C388.356105,167.923017 389.608576,167.058603 391.089978,166.318318 C391.218716,166.253985 390.424286,165.107269 389.573773,163.894467 C386.624656,166.122096 382.880177,168.457089 378.931117,170.702722 C380.045292,172.470062 381.552598,174.804283 381.705908,174.746449 C383.315093,174.139397 384.140539,173.741394 384.920397,173.948646 C386.764553,174.438743 389.600752,181.590844 389.055441,183.236108 C388.510131,184.881371 382.568868,188.929068 380.158329,187.197357 C377.747789,185.465647 375.210037,179.765763 376.023284,177.909896 C376.356394,177.149727 377.599927,176.265469 379.078904,175.519994 C379.240018,175.438785 377.882818,173.504647 376.794929,171.898505 L376.794929,171.898505 C371.461742,174.839095 365.953096,177.558628 361.665726,179.592013 C362.699262,181.183565 364.351668,183.676937 364.519056,183.612645 C366.124154,182.996147 366.950819,182.600741 367.709496,182.760322 C369.503564,183.137689 372.01774,189.566565 371.418695,191.091319 C370.81965,192.616074 364.824313,196.543413 362.521021,195.052819 C360.21773,193.562225 357.941327,188.44934 358.811822,186.721822 C359.16838,186.014224 360.424651,185.158342 361.907052,184.420302 C362.089982,184.329227 360.448757,182.139422 359.416301,180.649089 C356.014638,182.232885 353.807507,183.193374 353.807507,183.193374 L303.181824,240.318047 L303.181824,240.318047 C315.578554,254.575959 322.983442,270.920304 320.65801,282.817357 C315.560625,308.895892 290.009301,309.343645 283.510012,318.626848 C277.010722,327.910051 285.676442,343.382058 256.429646,379.483406 C250.707583,386.546545 233.572407,400.545364 212.017832,395.986879 C192.280771,391.812773 153.285748,363.261399 139.442428,332.03592 C129.400514,309.385027 139.282979,283.163651 147.024933,274.273765 C165.439587,253.128689 193.603178,254.675889 202.268896,246.424153 C212.017831,237.140947 204.435336,209.291337 245.597496,209.291337 C256.861387,209.291337 268.395264,213.352307 278.949457,219.751121 C279.72996,218.997153 280.479118,218.273455 281.19112,217.58565 C299.710816,199.695337 336.750208,163.914709 336.750208,163.914709 C336.750208,163.914709 337.10429,163.276798 337.73271,162.166788 C336.107571,161.142638 333.366368,159.446995 333.238158,159.579537 C332.042645,160.815449 331.460912,161.523499 330.699063,161.693578 C328.897494,162.09577 323.798533,157.241896 323.679832,155.591854 C323.561132,153.941811 327.317757,147.833715 330.069661,148.241196 C332.821566,148.648677 337.129396,152.393417 337.088892,154.342921 C337.072302,155.141444 336.299507,156.45159 335.268974,157.747901 C335.147981,157.900098 337.362534,159.107633 338.949289,160.03207 L338.949289,160.03207 C340.710381,156.961046 343.367265,152.406863 346.315411,147.626512 L346.315411,147.626512 C344.887347,146.677015 342.071064,144.833828 341.930674,144.970258 C340.697777,146.168376 340.090289,146.854387 339.348411,147.021501 C337.59407,147.41668 333.053751,142.747892 333.057065,141.154725 C333.060378,139.561558 337.092241,133.648301 339.699535,134.031547 C342.30683,134.414793 346.167944,138.015341 345.990882,139.898323 C345.918357,140.669599 345.085139,141.93783 344.006001,143.193664 C343.872003,143.349601 346.156814,144.635816 347.614611,145.536261 C349.931282,141.83906 352.367763,138.11604 354.651141,134.934672 C353.217529,133.97439 350.282523,132.037087 350.140209,132.175122 C348.906107,133.372116 348.298955,134.05844 347.550971,134.21986 C345.78219,134.601574 341.149197,129.846366 341.137065,128.238796 C341.124933,126.631226 345.14135,120.703566 347.779536,121.115618 C350.417722,121.527671 354.354053,125.198359 354.193442,127.096682 C354.127655,127.874242 353.298078,129.145868 352.219898,130.402595 C352.078983,130.566845 354.657894,132.020684 356.115061,132.943455 L356.115061,132.943455 Z M254.391418,307.086197 C265.30267,299.726464 267.821175,284.380336 260.016655,272.80966 C252.212136,261.238985 237.040005,257.825341 226.128753,265.185073 C215.217501,272.544806 212.698996,287.890934 220.503516,299.46161 C228.308035,311.032285 243.480165,314.445929 254.391418,307.086197 Z M226.099624,342.350593 C230.305645,337.677988 220.982133,329.539647 212.359123,322.36728 C207.657556,318.456654 203.164235,314.108363 201.185681,312.438045 C192.491927,305.098682 188.638489,295.410286 181.687812,302.123375 C174.737135,308.836464 175.575708,309.981807 190.353532,322.457408 C205.131355,334.933009 216.627749,352.873205 226.099624,342.350593 Z M127.011469,232.581766 C130.304342,232.581766 134.074248,229.902141 135.236677,226.46967 C135.432322,225.891962 139.093279,218.831194 139.444923,212.335448 C139.478068,211.723185 146.728144,209.882425 153.982501,210.043412 C160.855888,210.195944 166.224672,212.335448 166.224672,212.335448 C166.224672,212.335448 165.935931,215.767283 165.076968,218.212298 C164.066047,221.089859 163.244476,221.724628 163.546697,221.885597 C163.552152,221.888502 162.533337,218.665365 159.338451,217.301525 C155.405394,215.622572 148.99612,216.266769 147.09628,223.222618 C143.653169,235.828816 153.541261,237.867352 158.573315,236.401825 C167.754943,233.727783 171.461037,218.677469 171.963189,214.627484 C173.256986,204.192691 170.068983,194.353172 169.285215,193.235147 C166.60724,189.415087 137.149516,197.437213 136.001813,200.493261 C135.335805,202.266672 134.407684,219.660913 133.636837,218.212298 C132.24583,215.598249 129.798412,213.863471 127.011469,213.863471 C122.680098,213.863471 119.168828,218.053704 119.168828,223.222619 C119.168828,228.391533 122.680098,232.581766 127.011469,232.581766 Z M224.814083,185.549877 C233.53031,183.277861 242.344815,178.037908 237.950079,169.913665 C237.07463,168.295284 228.050499,146.861291 226.816262,145.952011 C226.565559,145.767314 250.384733,140.895488 251.396071,138.204577 C251.623059,137.600621 245.242314,135.616354 241.972979,131.819687 C238.704368,128.023863 238.547349,122.415607 237.137327,122.090666 C234.932996,121.582675 232.281568,128.675885 225.813854,131.155331 C220.86606,133.052105 211.530097,129.928317 211.339327,132.513735 C210.86275,138.972558 230.202099,164.175268 229.086232,164.051027 C225.058685,163.602602 220.619391,164.761194 217.004925,166.221534 C210.194075,168.973296 206.420929,175.530837 208.577368,180.868212 C210.733807,186.205586 216.097856,187.821893 224.814083,185.549877 Z M167.668325,112.787868 C165.738544,117.933386 167.668325,122.702891 167.668325,122.702891 C167.668325,122.702891 174.043926,118.59892 176.159361,114.282953 C177.90609,110.719231 174.008272,107.485699 173.478329,107.485699 C172.940141,107.485699 169.598106,107.642351 167.668325,112.787868 Z" fill="#FFFFFF" transform="translate(260.000000, 249.500998) rotate(-5.000000) translate(-260.000000, -249.500998) "></path>
            </g>
        </g>
    </g>
</svg>