<?xml version="1.0" encoding="UTF-8" standalone="no"?>
<svg width="500px" height="500px" viewBox="0 0 500 500" version="1.1" xmlns="http://www.w3.org/2000/svg" xmlns:xlink="http://www.w3.org/1999/xlink" xmlns:sketch="http://www.bohemiancoding.com/sketch/ns">
    <!-- Generator: Sketch 3.3 (11970) - http://www.bohemiancoding.com/sketch -->
    <title>Heart</title>
    <desc>Created with Sketch.</desc>
    <defs></defs>
    <g id="Page-1" stroke="none" stroke-width="1" fill="none" fill-rule="evenodd" sketch:type="MSPage">
        <g id="Row-2" sketch:type="MSLayerGroup">
            <g id="Heart" sketch:type="MSShapeGroup">
                <ellipse fill="#FA8997" cx="250" cy="250" rx="250" ry="250"></ellipse>
                <path d="M135.000062,182.729767 C107.000061,210.729767 108.367497,260.533528 131.000063,291.729767 C168.000063,342.729767 243.792127,368.729686 267.000067,368.729763 C282.000067,368.729813 318.517408,340.044351 351.000067,294.729767 C378.331529,256.601303 395.079086,203.741904 380.000067,166.729765 C366.968358,134.742844 337.000067,123.729765 299.000067,135.729765 C261.000067,147.729765 241.03462,203.729766 238.000063,203.729766 C232.826073,203.729767 219.877691,177.297539 198.000067,166.729767 C191.718064,163.695307 163.000063,154.729767 135.000062,182.729767 Z M337.000063,171.729765 C352.000063,176.729765 350.502344,189.729765 354.000063,189.729765 C359.000063,189.729765 359.000063,182.192667 359.000063,175.729765 C359.000063,162.474931 347.870542,150.729765 331.854284,150.729765 C315.838026,150.729765 305.000063,160.474931 305.000063,173.729765 C305.000063,180.83389 322.000063,166.729765 337.000063,171.729765 Z" fill="#FFFFFF"></path>
            </g>
        </g>
    </g>
</svg>