<?xml version="1.0" encoding="UTF-8" standalone="no"?>
<svg width="500px" height="500px" viewBox="0 0 500 500" version="1.1" xmlns="http://www.w3.org/2000/svg" xmlns:xlink="http://www.w3.org/1999/xlink" xmlns:sketch="http://www.bohemiancoding.com/sketch/ns">
    <!-- Generator: Sketch 3.3 (11970) - http://www.bohemiancoding.com/sketch -->
    <title>Helicopter </title>
    <desc>Created with Sketch.</desc>
    <defs></defs>
    <g id="Page-1" stroke="none" stroke-width="1" fill="none" fill-rule="evenodd" sketch:type="MSPage">
        <g id="Row-4" sketch:type="MSLayerGroup" transform="translate(-1200.000000, -21.000000)">
            <g id="Helicopter-" transform="translate(1200.000000, 21.000000)" sketch:type="MSShapeGroup">
                <path d="M250,500 C388.071187,500 500,388.071187 500,250 C500,111.928813 388.071187,4.54747351e-13 250,4.54747351e-13 C111.928813,4.54747351e-13 0,111.928813 0,250 C0,388.071187 111.928813,500 250,500 Z" fill="#62BCD4"></path>
                <path d="M176.55374,340.894449 C156.855775,333.596677 139.241272,318.059512 136.095704,288.623154 C131.324825,243.977069 172.7058,216.4153 182.969825,210.256889 C193.233849,204.098478 208.05471,200.501749 208.05471,200.501749 C208.05471,200.501749 208.924347,183.403925 209.062666,175.530609 L209.062666,175.530609 C193.241531,181.628447 164.279045,190.113049 148.181641,192.951456 C136.239736,195.057136 115.488566,195.442726 110.787819,187.573757 C106.087073,179.704788 126.45406,172.385894 137.582898,170.42358 C154.343693,167.4682 189.972853,166.465564 208.452962,167.524424 C206.522955,159.215863 204.958143,148.92623 204.958143,141.583821 C204.958143,134.145161 208.956298,121.567867 215.943384,119.566271 C222.93047,117.564676 225.924935,130.648433 225.924935,137.58063 C225.924935,145.395537 223.268356,157.733019 220.362954,167.363269 C238.588698,165.617166 276.865709,165.570643 294.202643,168.627612 C305.331481,170.589927 324.366364,179.704788 319.665618,187.573757 C314.964871,195.442726 294.560997,193.08752 282.619092,190.98184 C266.671043,188.169769 237.92958,180.756971 221.913388,175.253664 L221.913388,175.253664 C221.927161,175.403875 221.935136,175.557654 221.937047,175.71503 C222.040886,184.266921 221.95459,184.141781 221.871576,189.904241 C221.864612,190.387708 220.781146,201.366301 221.871576,201.52815 C222.563042,201.630783 225.175869,202.412842 225.929663,202.554553 C265.619525,210.016104 273.734919,240.247091 273.84111,240.584865 C274.712084,243.35527 355.751374,246.835995 366.876239,247.300934 L366.876239,247.300934 C366.929464,247.268024 366.983704,247.236819 367.038973,247.207358 C367.554015,246.932814 342.405329,214.362498 367.418171,209.271023 C392.431013,204.179548 377.595382,245.960008 378.004133,246.180954 C379.280555,246.870909 384.487804,244.867991 384.487803,255.613766 C384.487803,266.35954 377.82063,269.400861 378.004134,269.501635 C386.463077,274.147038 398.857431,301.606657 380.056937,305.712264 C357.655522,310.604233 365.187683,276.055935 366.271448,271.505461 C353.232551,272.448711 276.22029,278.219602 275.509223,282.987879 C271.894518,307.227362 260.260564,333.298938 232.765255,342.745309 C233.627984,349.08381 234.059043,365.389211 236.22221,366.410972 C242.120783,369.197135 270.239859,362.763555 270.239859,372.414087 C270.239859,382.767516 263.929692,380.401178 254.231554,380.418239 C241.15538,380.441243 221.265478,380.418239 196.201446,380.418239 C178.482349,380.418239 149.363822,380.010432 140.172377,374.415124 C126.719584,366.225714 132.168225,352.403704 140.172377,352.403704 C148.17653,352.403704 140.172377,364.409933 148.17653,366.410972 C156.180682,368.41201 169.001265,367.004315 170.187952,366.410972 C173.362656,364.823619 173.055533,349.099018 176.55374,340.894449 Z M187.711318,344.154405 C199.918625,346.847144 212.041987,346.875373 221.283714,345.517554 C221.805545,352.9078 224.873028,365.69281 222.214944,366.410972 C217.129691,367.784906 193.663715,366.410971 186.196257,366.410972 C182.716413,366.410972 186.252031,353.241283 187.711315,344.154402 Z M198.135017,269.188858 C216.489772,269.287807 224.353379,268.087856 225.576322,254.813925 C227.943642,229.118818 221.761186,215.103305 204.764529,215.103305 C187.767873,215.103305 153.177568,248.249372 153.177568,261.795341 C153.177568,268.343548 180.959423,269.096266 198.135017,269.188858 Z" fill="#FFFFFF"></path>
            </g>
        </g>
    </g>
</svg>