<?xml version="1.0" encoding="UTF-8" standalone="no"?>
<svg width="500px" height="500px" viewBox="0 0 500 500" version="1.1" xmlns="http://www.w3.org/2000/svg" xmlns:xlink="http://www.w3.org/1999/xlink" xmlns:sketch="http://www.bohemiancoding.com/sketch/ns">
    <!-- Generator: Sketch 3.3 (11970) - http://www.bohemiancoding.com/sketch -->
    <title>Hippo</title>
    <desc>Created with Sketch.</desc>
    <defs></defs>
    <g id="Page-1" stroke="none" stroke-width="1" fill="none" fill-rule="evenodd" sketch:type="MSPage">
        <g id="Row-3" sketch:type="MSLayerGroup" transform="translate(-2400.000000, 0.000000)">
            <g id="Hippo" transform="translate(2400.000000, 0.000000)" sketch:type="MSShapeGroup">
                <path d="M250,500 C388.071187,500 500,388.071187 500,250 C500,111.928813 388.071187,0 250,0 C111.928813,0 0,111.928813 0,250 C0,388.071187 111.928813,500 250,500 Z" fill="#CAA4CC" transform="translate(250.000000, 250.000000) scale(-1, 1) translate(-250.000000, -250.000000) "></path>
                <path d="M245.818063,268.484292 C246.84025,268.494646 247.884191,268.500002 248.952499,268.500002 C252.320807,268.500002 255.944086,268.427422 259.674163,268.304569 L259.674163,268.304569 C259.364394,271.070453 259.412891,274.151788 260.754222,275.742145 C263.537516,279.042174 269.740066,278.107825 271.735316,275.742145 C273.155709,274.058049 273.106292,270.631265 272.727775,267.715941 C280.466645,267.288199 287.939651,266.757141 293.875155,266.314203 C314.690006,264.760889 323.813283,251.255327 323.813283,236.767754 C323.813283,213.813031 287.270317,191.199983 248.952496,191.199983 C210.634675,191.199983 181.07624,212.813031 181.07624,235.767754 C181.07624,249.709014 191.411483,264.576595 211.017805,266.314203 C218.607463,266.986835 225.313993,267.637587 232.703588,268.05153 C232.362636,270.880426 232.371835,274.10311 233.754222,275.742145 C236.537516,279.042174 242.740066,278.107825 244.735316,275.742145 C246.032559,274.204062 246.103812,271.212378 245.818063,268.484292 Z M151.948432,183.5 C134.406834,211.506622 118.490314,250.723577 120.174204,277.330961 C124.009925,337.939744 157.874355,360.954027 163.607811,368.922605 C163.797143,369.185747 164.353063,350.362497 170.320321,338.13721 C172.263786,334.15558 177.498891,330.743283 179.909626,329.089755 C189.184923,322.727807 203.598329,325.590896 216.36031,331.039999 C242.623708,342.253929 241.160429,371.520281 241.650984,371.50766 C249.443965,371.307163 253.940306,373.122612 261.087599,371.50766 C261.7932,371.348228 259.665368,341.278805 285.383368,329.08975 C298.474824,322.88505 324.708105,318.896326 333.338478,338.13721 C341.968852,357.378093 336.215279,368.922605 336.215279,368.922605 C336.215279,368.922605 383.563092,336.37509 379.727356,272.323346 C377.60802,236.933228 361.869832,203.834081 344.948434,181.5 C331.244191,163.412153 315.510123,152.462677 315.510123,152.462677 C315.510123,152.462677 335.080051,133.510841 315.510123,117.492588 C295.940194,101.474336 282.515169,122.639308 282.515169,122.639308 C282.515169,122.639308 268.862244,117.492588 249.347584,117.492588 C229.832924,117.492588 213.472191,125.52544 213.472191,125.52544 C213.472191,125.52544 208.677539,103.398425 186.622141,119.753176 C164.566743,136.107927 181.905882,142.248458 179.909625,149.576544 C179.897162,149.622293 164.251652,163.856885 151.948432,183.5 Z M165.362269,240.828377 C170.707338,272.27169 212.389532,293.499996 255.948431,293.499996 C296.948431,293.499996 331.783152,277.093644 338.797821,240.828376 C344.078295,213.528754 316.941861,191.942826 315.118806,189.020356 C314.252117,187.631001 314.84676,183.640418 312.242012,173.627649 C308.487981,159.196987 303.108487,157.140923 301.601955,155.137486 C298.599475,151.144687 319.913455,141.517808 305.529499,129.192426 C291.145544,116.867043 284.202353,139.0521 280.404691,137.03882 C271.311663,132.218273 260.328376,129.192426 247.481971,129.192426 C232.771637,129.192426 221.310511,133.02486 212.389534,139.036003 C208.930558,141.366733 210.595397,121.677264 193.334651,131.297706 C176.073905,140.918147 197.852126,153.097179 195.71434,156.450095 C194.936792,157.669606 189.715045,165.284803 187.581069,173.627649 C185.527495,181.656158 186.023225,184.434583 183.745347,187.096268 C179.278263,192.316026 160.0172,209.385063 165.362269,240.828377 Z M234.888323,180.839975 C239.893796,180.839975 243.951534,175.939477 243.951534,169.894407 C243.951534,163.849336 239.893796,158.948839 234.888323,158.948839 C229.88285,158.948839 225.825113,163.849336 225.825113,169.894407 C225.825113,175.939477 229.88285,180.839975 234.888323,180.839975 Z M235.788699,179.057482 C237.955447,179.057482 239.711944,176.73338 239.711944,173.866455 C239.711944,170.999529 237.955447,168.675427 235.788699,168.675427 C233.62195,168.675427 231.865453,170.999529 231.865453,173.866455 C231.865453,176.73338 233.62195,179.057482 235.788699,179.057482 Z M264.836763,180.839975 C259.83129,180.839975 255.773553,175.939477 255.773553,169.894407 C255.773553,163.849336 259.83129,158.948839 264.836763,158.948839 C269.842236,158.948839 273.899974,163.849336 273.899974,169.894407 C273.899974,175.939477 269.842236,180.839975 264.836763,180.839975 Z M264.738857,179.057482 C262.572108,179.057482 260.815612,176.73338 260.815612,173.866455 C260.815612,170.999529 262.572108,168.675427 264.738857,168.675427 C266.905606,168.675427 268.662103,170.999529 268.662103,173.866455 C268.662103,176.73338 266.905606,179.057482 264.738857,179.057482 Z M227.559438,384.340593 C236.649213,380.612693 237.277746,372.548416 237.277746,365.797452 C237.277746,344.326448 213.085096,331.639036 194.031277,331.639036 C174.977458,331.639036 170.221423,343.83847 170.221423,370.677226 C170.221423,389.077278 207.739767,392.469039 227.559438,384.340593 Z M212.010145,376.841373 C212.010145,369.932548 207.691669,362.782108 203.263669,362.782108 C198.835668,362.782108 194.517192,369.932548 194.517192,376.841373 C194.517192,383.750198 212.010145,383.750198 212.010145,376.841373 Z M231.619804,373.389234 C230.301538,366.607343 224.698035,360.412282 220.35139,361.257184 C216.004745,362.102086 213.129979,369.945156 214.448245,376.727047 C215.766511,383.508937 232.93807,380.171124 231.619804,373.389234 Z M191.567532,375.321997 C193.003957,368.564146 191.077459,360.844472 187.577738,360.100583 C184.078017,359.356694 179.1782,365.62539 177.741774,372.383241 C176.305348,379.141092 190.131106,382.079848 191.567532,375.321997 Z M276.150976,383.378549 C267.061201,379.650649 266.432668,371.586371 266.432668,364.835408 C266.432668,343.364404 290.625317,330.676992 309.679137,330.676992 C328.732956,330.676992 333.488991,342.876426 333.488991,369.715182 C333.488991,388.115234 295.970647,391.506995 276.150976,383.378549 Z M290.728437,375.523345 C290.728437,368.61452 294.572943,361.464081 298.514951,361.464081 C302.45696,361.464081 306.301466,368.61452 306.301466,375.523345 C306.301466,382.43217 290.728437,382.43217 290.728437,375.523345 Z M308.492137,376.106378 C307.292432,369.302513 309.83687,361.593114 313.718991,360.908591 C317.601112,360.224069 322.628871,366.598285 323.828576,373.40215 C325.028281,380.206015 309.691842,382.910243 308.492137,376.106378 Z M273.877532,372.843447 C274.839055,366.001858 279.055228,359.373692 282.357942,359.837858 C285.660657,360.302025 287.886533,367.835562 286.92501,374.677151 C285.963487,381.51874 272.916009,379.685037 273.877532,372.843447 Z M273.334989,225.496441 C278.847504,225.400219 283.238025,220.838928 283.141492,215.308513 C283.044958,209.778097 278.497925,205.372811 272.985409,205.469033 C267.472893,205.565254 263.082372,210.126545 263.178906,215.656961 C263.27544,221.187377 267.822473,225.592662 273.334989,225.496441 Z M228.405454,225.494918 C233.91797,225.398696 238.308491,220.837406 238.211957,215.30699 C238.115423,209.776574 233.56839,205.371288 228.055874,205.46751 C222.543359,205.563731 218.152838,210.125022 218.249372,215.655438 C218.345905,221.185854 222.892938,225.591139 228.405454,225.494918 Z" fill="#FFFFFF"></path>
            </g>
        </g>
    </g>
</svg>