<?xml version="1.0" encoding="UTF-8" standalone="no"?>
<svg width="500px" height="500px" viewBox="0 0 500 500" version="1.1" xmlns="http://www.w3.org/2000/svg" xmlns:xlink="http://www.w3.org/1999/xlink" xmlns:sketch="http://www.bohemiancoding.com/sketch/ns">
    <!-- Generator: Sketch 3.3 (11970) - http://www.bohemiancoding.com/sketch -->
    <title>Horse</title>
    <desc>Created with Sketch.</desc>
    <defs></defs>
    <g id="Page-1" stroke="none" stroke-width="1" fill="none" fill-rule="evenodd" sketch:type="MSPage">
        <g id="Row-5" sketch:type="MSLayerGroup" transform="translate(-600.000000, 0.000000)">
            <g id="Horse" transform="translate(600.000000, 0.000000)" sketch:type="MSShapeGroup">
                <path d="M250,500 C388.071187,500 500,388.071187 500,250 C500,111.928813 388.071187,0 250,0 C111.928813,0 0,111.928813 0,250 C0,388.071187 111.928813,500 250,500 Z" fill="#6DB67F"></path>
                <path d="M292.851243,167.898035 C297.125343,170.923974 300.908116,174.735689 303.721128,179.489993 C312.846191,194.912368 303.806214,225.679421 302.626204,227.92045 C300.985984,231.035489 296.60412,251.585333 296.60412,251.585333 C296.60412,251.585333 306.458438,249.934293 306.458439,259.840525 C306.45844,269.746757 299.888892,280.203329 299.888892,280.203329 C299.888892,280.203329 305.363514,290.109561 297.699044,302.217175 C290.034573,314.32479 271.424142,319.670808 259.924154,320.378597 C233.098506,322.029634 216.674642,315.975828 206.27286,302.217175 C195.871079,288.458523 204.630474,280.203329 204.630474,280.203329 C204.630474,280.203329 195.07531,272.594755 196.966003,259.290179 C198.60839,247.732909 207.945119,253.212487 207.915247,251.585333 C207.835931,247.265003 188.754071,215.26249 196.966003,184.443108 C198.292373,179.465243 202.413121,175.187974 207.436554,171.671641 C199.430452,184.331412 198.331448,212.235555 201.017021,217.630984 C203.744178,223.109959 213.348641,177.530301 231.814536,172.371653 C233.462597,171.911249 228.700088,186.866974 238.088103,199.298091 C243.265039,206.153116 256.338483,209.03744 258.049456,207.891635 C259.760429,206.745829 251.518779,195.240835 250.635239,190.704547 C249.751699,186.168258 249.30721,179.801942 252.916537,181.5381 C258.035529,184.000437 262.356772,191.194813 269.455943,195.28777 C285.115353,204.31605 304.816052,201.751327 304.816052,198.725188 C304.816052,195.310894 304.129088,180.535342 292.851243,167.898035 Z M296.755226,385.69759 C298.956762,385.596522 301.12191,383.246167 301.12191,378.937161 C301.12191,373.300152 299.962234,367.087312 295.968052,361.862358 C294.511237,359.956638 292.480457,357.78731 289.955218,358.267663 C289.625029,358.330472 291.062543,364.924592 291.673171,370.849096 C292.149261,375.468272 291.642758,378.237395 292.532147,381.633182 C293.008931,383.453595 293.90133,384.644375 294.936619,385.242757 C294.890942,384.031712 294.998681,382.299133 294.68514,380.585874 C293.666895,375.021964 291.98813,368.014164 293.089981,368.014164 C293.894039,368.014164 295.738071,371.876967 296.525886,376.095978 C297.178752,379.592292 297.394617,383.718589 296.755226,385.69759 L296.755226,385.69759 Z M208.433902,384.606985 C206.481945,383.725004 204.862538,381.202372 204.862538,377.214782 C204.862538,370.760509 206.190347,363.64692 210.763611,357.664444 C212.431638,355.482429 214.756845,352.998588 217.648197,353.548583 C218.026257,353.620498 216.38033,361.170646 215.681172,367.954095 C215.136058,373.242968 215.715995,376.413562 214.69766,380.301677 C213.951266,383.151493 212.315287,384.653641 210.58785,384.91709 C210.706124,383.535331 210.501138,381.304986 210.904208,379.102529 C212.070079,372.731953 213.992234,364.70815 212.730636,364.70815 C211.810004,364.70815 209.698621,369.130988 208.796587,373.961679 C208.08549,377.769837 207.827179,382.230736 208.433902,384.606985 L208.433902,384.606985 Z M277.513256,145.593545 C284.118159,147.358192 288.177416,149.12557 288.264535,149.147786 C288.344414,149.168157 297.448827,133.234925 311.957951,124.486908 C330.222765,113.474465 355.075433,109.586976 359.041906,115.328759 C362.727173,120.663476 357.94693,150.2442 345.35471,166.843344 C332.762489,183.442488 318.383115,182.56453 318.527805,182.870104 C322.225061,190.67841 352.338531,207.164892 356.65777,251.557787 C356.759831,252.606763 371.030412,259.342366 379.818371,250.859354 C381.681441,249.060934 383.056671,241.646977 378.175984,236.129072 C375.664686,233.289901 365.10753,228.966646 359.041907,223.932917 C353.319045,219.183637 351.968305,213.669563 352.992724,212.474858 C354.84233,210.317797 367.986313,215.636282 374.891211,214.76647 C387.932727,213.123625 398.200659,207.230741 405.001631,212.474858 C415.403412,220.495499 426.900118,251.55779 399.527009,263.463219 C372.1539,275.368648 358.120477,269.264901 357.454003,272.467657 C356.726289,275.964706 356.430946,283.976317 356.417249,284.087724 C351.486913,324.19093 328.724671,340.877418 314.198453,353.48881 C313.776844,353.854843 299.750587,336.195446 278.966302,344.203602 C258.182017,352.211759 254.413677,373.948184 253.806379,373.948184 C252.390552,373.948184 248.774038,373.916822 247.334869,373.853256 C246.862503,373.832392 242.867281,348.779692 221.536042,344.775614 C200.204802,340.771535 189.588798,351.919607 189.146674,351.545265 C181.816722,345.339063 141.141744,332.460455 141.141744,272.467657 C141.141744,212.474859 180.664069,187.169244 182.375055,183.477849 C182.461694,183.290928 163.041258,182.870104 151.544013,162.26427 C140.046769,141.658436 137.232777,120.14342 141.141744,114.756375 C146.735265,107.047806 173.905728,114.789522 190.41565,125.631676 C206.238817,136.022834 212.086917,150.526151 212.206057,150.462435 C212.899149,150.091769 216.653199,147.458155 225.697688,145.194036 C225.95176,143.375603 226.254928,141.238357 226.591647,138.926594 C227.190759,134.813361 226.060121,127.982312 227.017916,127.444839 C229.575525,126.00962 235.969549,124.5744 250.036402,126.72723 C264.103254,128.880059 271.789893,138.485684 274.759961,141.797033 C275.815948,142.97436 276.734411,144.293315 277.513256,145.593545 Z M242.912732,374.311653 C242.912729,356.819245 225.15782,345.500628 212.370984,345.500628 C199.584148,345.500628 183.799673,356.819245 182.814455,375.340618 C181.829238,393.861991 242.912734,391.80406 242.912732,374.311653 Z M259.376345,374.311653 C259.376347,356.819245 277.131256,345.500628 289.918092,345.500628 C302.704928,345.500628 318.489403,356.819245 319.474621,375.340618 C320.459839,393.861991 259.376342,391.80406 259.376345,374.311653 Z M251.879811,244.566542 C233.981149,245.095232 220.506877,255.816048 220.506877,255.816048 C220.506877,255.816048 214.868264,253.939555 209.557633,255.816048 C204.247002,257.692541 204.083012,262.326583 204.083012,264.922789 C204.083012,270.592337 211.747482,280.178221 211.747482,280.178221 C211.747482,280.178221 211.534859,291.160538 216.12718,298.118335 C222.149263,307.242357 235.872194,312.599265 250.069835,312.599265 C263.823131,312.599265 278.537868,309.92081 287.844725,298.118335 C293.11872,291.430126 292.224422,280.178221 292.224422,280.178221 L298.246506,268.672624 C298.246506,268.672624 302.626204,257.95881 296.056657,255.816048 C289.487111,253.673286 284.01249,255.816048 284.01249,255.816048 C284.01249,255.816048 269.778473,244.037852 251.879811,244.566542 Z M223.317896,279.274491 C226.162347,277.968197 225.83896,274.620746 224.738054,269.852199 C223.637148,265.083652 219.192248,261.388525 215.775255,262.1774 C212.358262,262.966275 212.8275,266.929655 213.928406,271.698201 C215.029312,276.466748 220.473445,280.580786 223.317896,279.274491 Z M280.961865,279.627006 C283.921875,281.028306 286.387376,278.517813 289.468978,274.428389 C292.550579,270.338966 292.522858,264.29124 289.592504,262.083059 C286.662149,259.874879 283.80107,262.916511 280.719469,267.005934 C277.637867,271.095357 278.001856,278.225707 280.961865,279.627006 Z M227.680704,220.098874 C232.218952,220.098874 235.89793,216.30074 235.89793,211.615504 C235.89793,206.930268 232.218952,203.132133 227.680704,203.132133 C223.142455,203.132133 219.463477,206.930268 219.463477,211.615504 C219.463477,216.30074 223.142455,220.098874 227.680704,220.098874 Z M229.098376,211.294241 C231.038367,211.294241 232.611039,209.721054 232.611039,207.78043 C232.611039,205.839805 231.038367,204.266619 229.098376,204.266619 C227.158386,204.266619 225.585713,205.839805 225.585713,207.78043 C225.585713,209.721054 227.158386,211.294241 229.098376,211.294241 Z M275.888431,220.098874 C280.42668,220.098874 284.105658,216.30074 284.105658,211.615504 C284.105658,206.930268 280.42668,203.132133 275.888431,203.132133 C271.350183,203.132133 267.671205,206.930268 267.671205,211.615504 C267.671205,216.30074 271.350183,220.098874 275.888431,220.098874 Z M277.306104,211.294241 C279.246094,211.294241 280.818767,209.721054 280.818767,207.78043 C280.818767,205.839805 279.246094,204.266619 277.306104,204.266619 C275.366114,204.266619 273.793441,205.839805 273.793441,207.78043 C273.793441,209.721054 275.366114,211.294241 277.306104,211.294241 Z M304.374816,166.069721 C305.775307,168.081872 307.090416,168.361332 310.400782,168.361332 C313.41813,168.361332 330.386422,166.356674 337.791536,156.330371 C345.607917,145.747225 346.008762,132.268448 342.174057,131.122642 C338.339351,129.976836 327.423169,128.178783 318.070193,135.132962 C309.037081,141.849314 303.827001,156.707677 303.827001,159.194885 C303.827001,161.55535 303.151359,164.311923 304.374816,166.069721 Z M195.326393,165.694461 C197.18113,164.091315 197.321594,162.754199 196.975566,159.461967 C196.660167,156.461149 192.892822,139.795354 182.147398,133.47884 C170.805194,126.811518 157.358355,127.821784 156.619661,131.755252 C155.880968,135.68872 155.233817,146.73305 163.127553,155.30788 C170.751329,163.589458 186.072898,167.217875 188.546481,166.957891 C190.894015,166.711155 193.706111,167.094955 195.326393,165.694461 Z" fill="#FFFFFF"></path>
            </g>
        </g>
    </g>
</svg>