<?xml version="1.0" encoding="UTF-8" standalone="no"?>
<svg width="500px" height="500px" viewBox="0 0 500 500" version="1.1" xmlns="http://www.w3.org/2000/svg" xmlns:xlink="http://www.w3.org/1999/xlink" xmlns:sketch="http://www.bohemiancoding.com/sketch/ns">
    <!-- Generator: Sketch 3.3 (11970) - http://www.bohemiancoding.com/sketch -->
    <title>Ice Cream</title>
    <desc>Created with Sketch.</desc>
    <defs></defs>
    <g id="Page-1" stroke="none" stroke-width="1" fill="none" fill-rule="evenodd" sketch:type="MSPage">
        <g id="Row-2" sketch:type="MSLayerGroup">
            <g id="Ice-Cream" sketch:type="MSShapeGroup">
                <path d="M250,500 C388.071187,500 500,388.071187 500,250 C500,111.928813 388.071187,0 250,0 C111.928813,0 0,111.928813 0,250 C0,388.071187 111.928813,500 250,500 Z" fill="#FA8997"></path>
                <path d="M276.094541,282.314761 C269.816293,292.889836 261.878185,306.973409 254.620673,321.948325 C237.734281,356.791156 215.973453,393.806958 205.264434,393.806952 C190.810957,393.806946 196.157578,328.405392 195.393186,285.851463 C195.211383,275.730421 195.194918,267.419413 195.231018,261.365041 C209.991465,255.383565 215.223971,256.984624 218.445851,258.402554 C225.199016,261.374583 230.206532,265.81119 234.868213,266.693776 C246.956094,268.982346 248.497284,261.859374 257.859523,266.693776 C264.879798,270.318852 267.440234,281.081713 274.281884,282.091758 C274.893245,282.182015 275.497492,282.256245 276.094541,282.314761 L276.094541,282.314761 Z M202.826137,253.283133 C203.926888,252.550654 212.348212,249.979859 220.343323,253.283133 C227.096488,256.073283 232.104004,260.238384 236.765685,261.066957 C248.853566,263.215475 250.394756,256.528407 259.756995,261.066957 C266.77727,264.47019 269.337706,274.574397 276.179356,275.522631 C293.448094,277.91603 305.041948,268.305587 309.024074,253.283132 C309.798024,250.363429 324.35162,246.611283 318.877499,222.147835 C316.326185,210.746197 299.170657,202.132288 284.694651,214.364011 C270.218644,226.595734 262.260001,209.152758 254.282869,207.692163 C246.422376,206.252923 238.145934,214.364012 230.196739,214.364012 C222.305588,214.364012 213.913618,202.091339 208.300259,198.796363 C197.809298,192.638292 185.308952,194.348464 176.55036,211.028087 C168.893258,225.61006 171.076238,274.410656 202.826137,253.283133 Z M322.160792,166.047415 C313.129257,149.848798 290.527164,145.76209 288.646238,150.134084 C284.795217,159.085333 277.244072,165.251043 263.60936,161.071931 C241.841878,154.400082 250.470134,139.41563 245.734864,138.696376 C230.638236,136.403305 202.090029,143.111646 189.651522,157.828679 C176.258836,173.674682 162.442159,224.547173 180.944527,197.859776 C199.446895,171.172379 218.345864,205.034743 228.832997,206.755575 C239.32013,208.476408 241.1978,199.96127 251.688853,200.510939 C262.179907,201.060609 267.331072,206.908715 271.279583,208.979525 C281.880855,214.539399 290.108487,204.014879 299.577312,202.307676 C318.079674,198.971751 321.122573,227.182116 324.609916,218.987299 C327.421987,212.379285 331.620478,183.013948 322.160792,166.047415 Z M260.607554,154.864028 C263.133617,156.428865 266.674764,156.598874 269.974058,156.598874 C278.636454,156.598874 285.658714,150.283567 285.658714,142.493241 C285.658714,137.822457 283.226165,133.30988 279.384631,130.551766 C279.02037,130.290237 285.029639,122.848687 290.338788,119.291427 C295.647937,115.734167 299.357181,114.550335 300.957086,112.685087 C302.431664,110.965952 299.895257,104.554207 295.647937,106.586927 C291.400618,108.619647 287.995156,112.575383 283.967811,116.242347 C279.524319,120.288221 275.257722,128.478751 274.942258,128.387608 C273.428827,127.950352 270.777181,127.422307 269.102192,127.422307 C265.158949,127.422307 261.770623,128.818836 259.014809,130.979567 C255.716735,133.565464 254.289401,138.249179 254.289401,142.493241 C254.289401,147.316423 256.50136,152.320337 260.607554,154.864028 Z M276.535001,147.749507 C274.411341,150.290407 271.074105,149.670295 271.225852,150.290407 C271.500898,151.414383 276.535001,153.339488 279.189576,149.274047 C281.844151,145.208607 279.189576,142.667707 278.658661,143.175887 C278.127746,143.684067 278.658661,145.208607 276.535001,147.749507 Z" fill="#FFFFFF" transform="translate(250.000000, 250.000000) rotate(5.000000) translate(-250.000000, -250.000000) "></path>
            </g>
        </g>
    </g>
</svg>