<?xml version="1.0" encoding="UTF-8" standalone="no"?>
<svg width="500px" height="500px" viewBox="0 0 500 500" version="1.1" xmlns="http://www.w3.org/2000/svg" xmlns:xlink="http://www.w3.org/1999/xlink" xmlns:sketch="http://www.bohemiancoding.com/sketch/ns">
    <!-- Generator: Sketch 3.3 (11970) - http://www.bohemiancoding.com/sketch -->
    <title>Jellyfish</title>
    <desc>Created with Sketch.</desc>
    <defs></defs>
    <g id="Page-1" stroke="none" stroke-width="1" fill="none" fill-rule="evenodd" sketch:type="MSPage">
        <g id="Row-4" sketch:type="MSLayerGroup" transform="translate(-2400.000000, -21.000000)">
            <g id="Jellyfish" transform="translate(2400.000000, 21.000000)" sketch:type="MSShapeGroup">
                <path d="M250,500 C388.071187,500 500,388.071187 500,250 C500,111.928813 388.071187,6.82121026e-13 250,6.82121026e-13 C111.928813,6.82121026e-13 0,111.928813 0,250 C0,388.071187 111.928813,500 250,500 Z" fill="#CAA4CC"></path>
                <path d="M277.078747,203.334146 C277.338413,204.112152 277.477929,204.936847 277.477929,205.790826 C277.477929,210.506003 273.224634,214.328408 267.977929,214.328408 C262.731224,214.328408 258.477929,210.506003 258.477929,205.790826 C258.477929,201.07565 262.731224,197.253245 267.977929,197.253245 C269.448425,197.253245 270.840887,197.5535 272.083547,198.089514 C270.573529,198.631827 269.5,200.015995 269.5,201.637931 C269.5,203.732804 271.290861,205.431034 273.5,205.431034 C275.066183,205.431034 276.422132,204.577471 277.078747,203.334146 Z M246.078747,203.334146 C246.338413,204.112152 246.477929,204.936847 246.477929,205.790826 C246.477929,210.506003 242.224634,214.328408 236.977929,214.328408 C231.731224,214.328408 227.477929,210.506003 227.477929,205.790826 C227.477929,201.07565 231.731224,197.253245 236.977929,197.253245 C238.448425,197.253245 239.840887,197.5535 241.083547,198.089514 C239.573529,198.631827 238.5,200.015995 238.5,201.637931 C238.5,203.732804 240.290861,205.431034 242.5,205.431034 C244.066183,205.431034 245.422132,204.577471 246.078747,203.334146 L246.078747,203.334146 Z M128.311342,218.773302 C131.310659,230.471693 145.802413,224.878015 146.307247,230.471693 C148.174063,251.156484 136.309521,273.665728 166.653069,267.366598 C173.214963,266.00439 188.776467,262.867219 191.297008,270.066225 C193.817548,277.265231 170.681442,298.043709 163.355535,300.838582 C159.68659,302.238305 149.189788,303.910204 149.549679,296.432563 C149.81736,290.870814 153.089479,289.613237 158.654888,293.022898 C164.220298,296.432559 171.802377,286.462376 163.355535,283.969829 C162.264174,283.647783 152.31085,278.984735 144.027336,283.969829 C135.743823,288.954923 136.555292,303.407981 141.266165,308.895298 C145.943916,314.344034 153.411588,318.041993 167.23634,315.638922 C174.112553,314.443673 179.820734,314.526561 196.295866,291.569885 C205.633092,278.559266 203.602164,294.722015 200.682503,313.423607 C198.450548,327.720168 196.530244,343.500414 193.817552,348.865522 C191.297008,353.850605 190.967247,357.884355 175.58555,357.370625 C163.611079,356.970693 155.403656,352.015102 152.090351,342.054129 C148.777045,332.093155 139.324518,333.982249 139.690323,339.922797 C140.103354,346.630274 146.951836,368.805903 172.824379,371.298445 C198.696922,373.790987 204.080203,361.540935 205.958432,358.83571 C219.134628,339.857949 212.037346,286.473721 223.08045,286.263988 C227.791775,286.174509 224.284241,314.054341 223.080452,331.417694 C222.103852,345.504083 223.080452,381.109326 223.080452,383.76118 C223.080452,388.746273 236.331321,388.746273 236.331321,383.76118 C236.331321,378.776086 241.285627,286.263988 247.284262,286.263988 C250.131512,286.263988 248.913497,301.865954 249.097784,318.836252 C249.301757,337.619263 250.773625,358.078539 251.505407,360.914715 C252.898349,366.313351 263.388045,365.733025 263.342874,359.921281 C263.297703,354.109538 264.374422,356.968381 263.388041,328.925147 C262.401661,300.881912 259.281528,283.564366 266.279939,285.364112 C273.278349,287.163858 270.578441,334.754024 283.271233,353.850616 C299.83826,378.776086 326.342917,372.266979 332.972305,368.805898 C347.550914,361.194677 349.539333,341.648834 349.539333,338.895335 C349.539333,333.910241 340.714617,332.093155 338.309363,341.154774 C335.90411,350.216392 331.106315,356.45428 316.268562,356.45428 C300.649131,356.45428 297.510979,343.569392 295.27334,338.895334 C289.950149,327.776066 277.277439,282.946981 284.275846,281.314666 C286.96417,280.687638 288.785662,296.262943 295.273343,305.977228 C301.84969,315.824275 313.67051,321.480454 320.620289,321.480454 C334.426145,321.480454 350.993173,314.002813 353.754344,301.540069 C354.964162,296.07947 350.993173,281.599693 337.187316,279.107146 C323.38146,276.614599 320.620289,284.09225 320.620289,289.077344 C320.620289,294.062438 326.142631,296.554975 328.903803,291.569881 C330.109275,289.393488 335.544032,289.679586 337.187316,291.569881 C339.308024,294.009363 337.506523,298.638333 337.187316,299.047522 C336.398088,300.059229 330.265376,308.895294 319.267879,305.977233 C308.270382,303.059173 306.73609,291.41386 306.270837,288.063739 C305.271065,280.864733 311.269699,260.167592 323.266969,267.366598 C324.619437,268.178151 346.983237,271.865976 352.260371,261.067468 C357.537506,250.268959 344.757162,242.044773 346.307548,240.370326 C346.654316,239.995811 365.257413,236.770823 371.256048,215.173799 C375.725028,199.084027 367.456501,176.794706 357.537506,161.181256 C343.972131,139.828053 301.628401,110.692564 244.329499,112.587969 C187.030597,114.483374 152.025516,150.382748 134.309977,186.377776 C131.38001,192.330981 125.312025,207.074911 128.311342,218.773302 Z M242.285402,130.865531 C201.294724,133.403599 162.17693,163.847558 153.305653,181.626882 C145.224979,197.821725 139.308839,219.697896 158.304515,224.774031 C166.67139,227.009876 148.437388,252.753853 161.303833,256.076858 C167.481334,257.672315 177.300191,246.770623 194.296325,251.000735 C202.692974,253.09055 200.29496,267.075163 218.290864,267.075163 C236.286769,267.075163 232.287679,251.000735 253.282901,251.000735 C269.27926,251.000735 264.280398,267.075163 282.276302,267.075163 C302.271751,267.075163 296.67757,252.460193 306.270841,251.000735 C323.074732,248.444302 329.265598,263.691078 340.263105,258.614938 C346.683791,255.65133 339.589536,247.274826 337.263787,240.002443 C335.605941,234.818523 338.702256,229.994754 340.263105,229.004143 C364.257644,213.775738 361.21776,186.153346 337.263794,161.322342 C319.979765,143.405486 283.276081,128.327464 242.285402,130.865531 Z M166.568749,225.011253 C174.595569,229.845794 164.356348,238.548624 171.585512,241.644882 C180.615685,245.512515 185.993308,240.869545 194.662622,240.481785 C201.887613,240.158626 200.682738,254.985408 217.739732,254.0185 C234.796727,253.051591 234.796727,241.644882 246.836958,241.644882 C258.877189,241.644882 266.90401,254.0185 279.947594,253.051591 C292.991178,252.084683 290.468699,249.921193 298.007941,245.316326 C300.797165,243.612705 330.115225,255.952316 326.101815,236.614152 C322.088404,217.275988 339.145399,227.911978 343.158809,207.514728 C347.076647,187.603206 317.205793,140.30074 256.014305,140.30074 C194.822817,140.30074 155.148436,180.47305 156.535222,204.706181 C156.928775,211.583235 158.541928,220.176712 166.568749,225.011253 Z" fill="#FFFFFF"></path>
            </g>
        </g>
    </g>
</svg>