<?xml version="1.0" encoding="UTF-8" standalone="no"?>
<svg width="500px" height="500px" viewBox="0 0 500 500" version="1.1" xmlns="http://www.w3.org/2000/svg" xmlns:xlink="http://www.w3.org/1999/xlink" xmlns:sketch="http://www.bohemiancoding.com/sketch/ns">
    <!-- Generator: Sketch 3.3 (11970) - http://www.bohemiancoding.com/sketch -->
    <title>Kite</title>
    <desc>Created with Sketch.</desc>
    <defs></defs>
    <g id="Page-1" stroke="none" stroke-width="1" fill="none" fill-rule="evenodd" sketch:type="MSPage">
        <g id="Row-2" sketch:type="MSLayerGroup" transform="translate(-2400.000000, 0.000000)">
            <g id="Kite" transform="translate(2400.000000, 0.000000)" sketch:type="MSShapeGroup">
                <path d="M250,500 C388.071187,500 500,388.071187 500,250 C500,111.928813 388.071187,0 250,0 C111.928813,0 0,111.928813 0,250 C0,388.071187 111.928813,500 250,500 Z" fill="#CAA4CC"></path>
                <path d="M184.024909,388.054089 C191.389663,385.352127 196.906925,383.80798 203.279603,380.388719 C204.082323,379.958019 201.58346,378.008631 200.806661,375.894274 C199.966006,373.606112 200.806661,371.158395 200.806661,371.158395 C200.806661,371.158395 184.024909,373.2886 181.787343,368.945809 C179.549776,364.603018 198.569094,349.837529 204.163011,350.706087 C209.756928,351.574645 208.638145,364.603018 208.638145,364.603018 C208.638145,364.603018 210.875716,363.070822 216.469629,362.865901 C222.063541,362.660981 223.40216,365.424066 224.301108,364.603018 C229.029995,360.283922 235.488942,347.231854 235.488942,347.231854 C235.488942,347.231854 231.013809,346.363296 227.792868,341.151947 C227.739004,341.064798 216.469624,348.100412 211.994495,345.494738 C207.519365,342.889063 211.994495,339.41483 214.232062,332.466365 C216.469629,325.5179 216.363623,320.498825 220.944758,320.30655 C224.925945,320.139456 232.983775,330.814929 233.251375,330.729249 C234.466022,330.340341 235.004429,329.150009 237.657328,328.005811 C240.310226,326.861614 243.320426,326.386458 243.320426,326.386458 C243.320426,326.386458 245.187046,299.246305 244.88851,299.107782 C219.063438,287.124734 150.981502,200.561332 150.981502,173.4017 C150.981502,168.610009 169.764009,150.860999 191.346514,134.523946 C214.783927,116.782805 241.308582,100.56133 244.989502,100.56133 C247.723332,100.56133 272.705263,112.972798 296.412412,128.730785 C322.027764,145.757141 346.465817,166.46735 348.452637,173.4017 C356.234374,200.56133 281.641548,286.198536 254.600948,298.746701 C254.130161,298.965169 253.389477,328.123574 253.389477,328.123574 C253.389477,328.123574 255.9944,330.719517 256.73747,332.017488 C257.486112,333.325192 257.864611,335.940598 257.864611,335.940598 C257.864611,335.940598 271.941538,328.924196 275.765145,330.729249 C277.571955,331.582209 275.818555,337.751666 273.527578,343.757621 C271.260126,349.701907 268.478619,355.485398 265.696094,355.917436 C260.102177,356.785994 256.371387,346.212864 256.037267,346.363296 C255.301805,346.694424 253.211179,348.235791 251.043706,348.901896 C248.088053,349.810224 244.989502,349.837529 244.989502,349.837529 C244.989502,349.837529 237.4613,360.483057 233.251375,365.471576 C232.080175,366.859382 230.834255,368.202363 229.525405,369.500085 C228.959346,370.061331 231.013809,370.682925 231.013809,374.157158 C231.013809,377.631391 228.776242,379.368507 228.776242,379.368507 C228.776242,379.368507 243.320426,376.762832 244.989502,381.105623 C245.741681,383.062727 241.78365,385.885874 236.607726,389.791205 C230.29833,394.551762 222.264999,400.23797 219.825974,399.345345 C215.996235,397.943752 216.469624,386.316972 216.469624,386.316972 C216.469624,386.316972 214.529876,386.708673 211.994495,386.316972 C210.358996,386.064298 207.966299,384.83833 207.390191,385.136053 C187.193291,395.573484 166.124375,398.843174 166.124375,394.133996 C166.124375,389.791205 176.108374,390.958487 184.024909,388.054089 Z M188.291954,170.362726 C188.291954,163.820744 232.03124,127.185647 242.528669,127.185647 C248.883105,127.185647 244.579459,172.298504 243.44377,174.744521 C240.566186,180.942187 188.291954,176.904708 188.291954,170.362726 Z M314.89144,174.127651 C314.89144,167.10581 270.893662,127.610972 262.415944,127.610972 C257.193793,127.610972 258.706256,174.911471 259.598681,177.466041 C261.922617,184.118311 314.89144,181.149491 314.89144,174.127651 Z M185.920771,192.329313 C185.920771,198.831046 229.577009,269.237827 239.102006,269.237827 C244.012364,269.237827 242.178432,194.379022 239.102005,192.329313 C235.630633,190.016468 185.920771,189.381901 185.920771,192.329313 Z M313.298732,199.297783 C313.298732,204.971173 268.12241,267.084422 259.123821,267.084422 C251.269744,267.084422 256.1072,209.080648 256.107202,199.297784 C256.107203,195.598391 313.298732,197.101257 313.298732,199.297783 Z M243.70015,344.086712 C247.716759,344.086712 250.972865,342.040267 250.972865,338.57379 C250.972865,335.107314 248.209415,332.366712 244.192805,332.366712 C240.176196,332.366712 236.427434,335.107314 236.427434,338.57379 C236.427434,342.040267 239.68354,344.086712 243.70015,344.086712 Z M215.905461,379.630471 C219.922071,379.630471 223.178176,377.705665 223.178176,374.445234 C223.178176,371.184803 220.414727,368.6071 216.398117,368.6071 C212.381507,368.6071 208.632746,371.184803 208.632746,374.445234 C208.632746,377.705665 211.888852,379.630471 215.905461,379.630471 Z" fill="#FFFFFF" transform="translate(250.000000, 250.000000) rotate(10.000000) translate(-250.000000, -250.000000) "></path>
            </g>
        </g>
    </g>
</svg>