<?xml version="1.0" encoding="UTF-8" standalone="no"?>
<svg width="500px" height="500px" viewBox="0 0 500 500" version="1.1" xmlns="http://www.w3.org/2000/svg" xmlns:xlink="http://www.w3.org/1999/xlink" xmlns:sketch="http://www.bohemiancoding.com/sketch/ns">
    <!-- Generator: Sketch 3.3 (11970) - http://www.bohemiancoding.com/sketch -->
    <title>Ladybug</title>
    <desc>Created with Sketch.</desc>
    <defs></defs>
    <g id="Page-1" stroke="none" stroke-width="1" fill="none" fill-rule="evenodd" sketch:type="MSPage">
        <g id="Row-4" sketch:type="MSLayerGroup" transform="translate(-2400.000000, 0.000000)">
            <g id="Ladybug" transform="translate(2400.000000, 0.000000)" sketch:type="MSShapeGroup">
                <path d="M250,500 C388.071187,500 500,388.071187 500,250 C500,111.928813 388.071187,0 250,0 C111.928813,0 0,111.928813 0,250 C0,388.071187 111.928813,500 250,500 Z" fill="#CAA4CC"></path>
                <path d="M149.544669,356.701229 C161.551083,367.057118 175.65724,376.281573 192.088993,381.518757 C199.157869,383.771774 203.036236,369.921532 208.634007,359.064809 C210.005899,356.404063 219.270088,372.064463 255.905478,369.70089 C292.540868,367.337316 297.968375,351.637521 304.358735,354.337662 C308.889545,356.252081 313.81303,377.973397 322.085537,377.973397 C330.358044,377.973397 344.923647,367.268681 352.811993,359.064802 C382.356662,328.338346 379.993089,301.924507 379.993089,292.884743 C379.993089,266.769261 367.18519,241.294377 346.903059,223.159324 C332.95307,210.686089 316.584441,205.018033 296.645808,199.524745 C295.199341,199.126229 294.448218,177.563383 280.723,167.615346 C280.15242,167.201789 291.436977,148.561796 306.722309,138.070677 C311.331354,134.90725 312.631243,133.34353 318.540177,132.161743 C324.449111,130.979956 326.812684,132.161743 326.812684,132.161743 C326.812684,132.161743 323.964232,142.663318 327.994471,148.706758 C332.69325,155.752691 344.723079,158.067971 350.448419,151.070331 C361.0845,138.070675 344.69358,127.20701 343.357699,126.252809 C326.812684,114.434942 310.840033,124.492119 300.813375,130.979956 C280.723,143.979611 271.413289,163.581486 270.801094,163.43549 C265.789752,162.240386 259.873889,161.724887 253.541905,161.706412 C243.99074,161.678545 235.552491,163.031056 228.796932,165.665418 C227.776629,166.06329 212.362944,138.936915 189.725419,126.252809 C184.968416,123.587397 154.271816,112.071368 141.272162,125.071022 C128.272507,138.070677 141.361415,151.683538 148.362882,153.433904 C171.998618,159.342838 168.453257,132.161743 168.453257,132.161743 C168.453257,132.161743 176.725765,129.798169 190.907206,138.070677 C205.088647,146.343184 219.674521,170.817536 219.270088,171.160706 C207.881234,180.824413 204.44404,198.608717 202.922045,198.990852 C187.423,202.882274 174.429171,204.19876 162.544324,212.523243 C135.65136,231.359835 120,262.238736 120,292.884743 C120,319.665798 128.331858,338.404547 149.544669,356.701229 Z M184.998272,360.246587 C207.452221,368.519094 232.269743,219.613964 202.725074,219.613964 C173.180404,219.613964 145.999309,246.042077 141.272162,285.794023 C136.545015,325.545968 162.544324,351.974079 184.998272,360.246587 Z M322.850101,354.780447 C301.369293,364.445509 266.774919,219.930981 295.786552,217.90229 C324.798185,215.873599 353.30358,239.958509 360.675017,278.668671 C368.046454,317.378833 344.330909,345.115385 322.850101,354.780447 Z M190.890392,256.678158 C197.743562,256.678158 203.299153,251.122567 203.299153,244.269397 C203.299153,237.416228 197.743562,231.860636 190.890392,231.860636 C184.037223,231.860636 178.481631,237.416228 178.481631,244.269397 C178.481631,251.122567 184.037223,256.678158 190.890392,256.678158 Z M190.890392,306.313202 C197.743562,306.313202 203.299153,300.757611 203.299153,293.904441 C203.299153,287.051272 197.743562,281.49568 190.890392,281.49568 C184.037223,281.49568 178.481631,287.051272 178.481631,293.904441 C178.481631,300.757611 184.037223,306.313202 190.890392,306.313202 Z M330.341231,338.221445 C337.1944,338.221445 342.749992,332.665854 342.749992,325.812684 C342.749992,318.959515 337.1944,313.403923 330.341231,313.403923 C323.488061,313.403923 317.93247,318.959515 317.93247,325.812684 C317.93247,332.665854 323.488061,338.221445 330.341231,338.221445 Z M336.250165,266.132452 C343.103334,266.132452 348.658926,260.576861 348.658926,253.723691 C348.658926,246.870522 343.103334,241.31493 336.250165,241.31493 C329.396995,241.31493 323.841404,246.870522 323.841404,253.723691 C323.841404,260.576861 329.396995,266.132452 336.250165,266.132452 Z M346.295352,307.494989 C351.516815,307.494989 355.749646,303.262158 355.749646,298.040695 C355.749646,292.819233 351.516815,288.586401 346.295352,288.586401 C341.07389,288.586401 336.841058,292.819233 336.841058,298.040695 C336.841058,303.262158 341.07389,307.494989 346.295352,307.494989 Z M163.118403,314.58571 C168.339866,314.58571 172.572697,310.352878 172.572697,305.131416 C172.572697,299.909953 168.339866,295.677122 163.118403,295.677122 C157.896941,295.677122 153.664109,299.909953 153.664109,305.131416 C153.664109,310.352878 157.896941,314.58571 163.118403,314.58571 Z M162.52751,274.40496 C166.117265,274.40496 169.027337,271.494888 169.027337,267.905133 C169.027337,264.315377 166.117265,261.405305 162.52751,261.405305 C158.937755,261.405305 156.027683,264.315377 156.027683,267.905133 C156.027683,271.494888 158.937755,274.40496 162.52751,274.40496 Z M184.981459,332.312511 C188.571214,332.312511 191.481286,329.402439 191.481286,325.812684 C191.481286,322.222929 188.571214,319.312857 184.981459,319.312857 C181.391703,319.312857 178.481631,322.222929 178.481631,325.812684 C178.481631,329.402439 181.391703,332.312511 184.981459,332.312511 Z M316.15979,290.949974 C319.749545,290.949974 322.659617,288.039903 322.659617,284.450147 C322.659617,280.860392 319.749545,277.95032 316.15979,277.95032 C312.570034,277.95032 309.659962,280.860392 309.659962,284.450147 C309.659962,288.039903 312.570034,290.949974 316.15979,290.949974 Z M311.432642,251.951011 C315.022398,251.951011 317.93247,249.040939 317.93247,245.451184 C317.93247,241.861429 315.022398,238.951357 311.432642,238.951357 C307.842887,238.951357 304.932815,241.861429 304.932815,245.451184 C304.932815,249.040939 307.842887,251.951011 311.432642,251.951011 Z" fill="#FFFFFF"></path>
            </g>
        </g>
    </g>
</svg>