<?xml version="1.0" encoding="UTF-8" standalone="no"?>
<svg width="500px" height="500px" viewBox="0 0 500 500" version="1.1" xmlns="http://www.w3.org/2000/svg" xmlns:xlink="http://www.w3.org/1999/xlink" xmlns:sketch="http://www.bohemiancoding.com/sketch/ns">
    <!-- Generator: Sketch 3.3 (11970) - http://www.bohemiancoding.com/sketch -->
    <title>Lion</title>
    <desc>Created with Sketch.</desc>
    <defs></defs>
    <g id="Page-1" stroke="none" stroke-width="1" fill="none" fill-rule="evenodd" sketch:type="MSPage">
        <g id="Row-2" sketch:type="MSLayerGroup" transform="translate(-600.000000, 0.000000)">
            <g id="Lion" transform="translate(600.000000, 0.000000)" sketch:type="MSShapeGroup">
                <path d="M250,500 C388.071187,500 500,388.071187 500,250 C500,111.928813 388.071187,0 250,0 C111.928813,0 0,111.928813 0,250 C0,388.071187 111.928813,500 250,500 Z" fill="#6DB67F"></path>
                <path d="M265.264859,289.820093 C264.212745,289.846378 263.169226,289.859222 262.136013,289.859222 C255.040697,289.859222 217.431728,287.564892 204.659077,264.621583 C191.886425,241.678275 203.320108,216.294168 204.659076,212.999137 C206.620119,208.17326 186.080673,195.791656 198.853326,176.289846 C211.625978,156.788036 225.193413,175.152903 231.365533,170.554019 C235.760222,167.27951 252.634456,160.563753 266.747168,160.22953 C282.883223,159.847391 296.30164,166.160915 298.712246,167.112523 C300.475023,167.808394 318.451801,152.199372 330.063303,167.112523 C341.674805,182.025673 323.643951,198.145485 325.418702,201.527483 C332.283604,214.609371 337.030202,229.821306 337.030202,233.648117 C337.030202,271.942093 304.226318,286.334223 274.298617,289.26703 C275.181162,278.800358 273.964144,263.399046 274.564133,263.327787 C283.019144,262.323596 291.099468,252.073078 291.212874,245.576028 C291.340918,238.240404 250.411034,239.186767 250.28299,246.522391 C250.177353,252.574367 258.599103,261.151129 266.147593,262.885253 C267.204006,263.127944 265.822419,279.024188 265.264859,289.820093 Z M343.482444,281.529669 C352.541208,305.993395 353.303078,347.133631 321.348719,362.721123 C316.951444,364.866136 323.348719,374.721123 319.348719,382.721123 C315.348719,390.721123 304.928574,383.667887 303.348719,384.721123 C294.348719,390.721123 284.348719,384.721123 284.348719,384.721123 C284.348719,384.721123 284.142001,388.253945 273.348719,388.253945 C262.555437,388.253945 268.454138,370.308191 261.348719,370.721123 C254.243301,371.134055 262.505057,388.253945 251.348719,388.253945 C244.153198,388.253945 240.348719,385.721123 240.348719,385.721123 C240.348719,385.721123 237.348719,389.270394 230.848719,388.721123 C224.348719,388.171853 223.589555,384.717569 221.348719,384.922295 C217.230477,385.298544 214.179895,387.054203 211.348719,386.721123 C194.348719,384.721123 208.555104,365.833509 201.348719,362.721123 C175.879435,351.721123 169.384955,330.806601 169.348719,330.721123 C169.243565,330.473071 157.34872,333.721123 149.34872,328.721123 C141.34872,323.721123 141.97134,301.670723 140.34872,295.72112 C137.348719,284.72112 133.348723,289.252607 132.348721,289.72112 C131.864226,289.948112 129.500455,294.841759 125.044536,298.000002 C120.30339,301.360406 113.429727,302.990496 112.044536,303.000002 C109.254564,303.019146 112.708882,296.739912 112.044536,295.72112 C111.684184,295.168512 105.40535,295.154498 107.044536,291.000002 C108.422752,287.506931 116.044536,281.721119 116.044536,281.721119 C116.044536,281.721119 103.100392,288.170971 102.276498,285.72112 C101.207708,282.543071 107.044536,267 117.348719,265.721119 C128.235962,264.369874 133.34872,275.72112 133.34872,275.72112 C133.34872,275.72112 145.34872,269.721121 149.34872,281.721119 C153.34872,293.721117 150.34872,310.721121 157.34872,312.721117 C164.34872,314.721113 165.93389,308.118627 165.93389,308.118627 C165.93389,308.118627 165.58664,293.743272 170.911256,280.502398 C165.980118,267.096292 173.756939,258.948415 172.804796,256.998495 C170.41985,252.114291 151.229313,254.548455 149.960166,234.948136 C148.69102,215.347816 162.651628,215.311071 162.651628,207.997697 C162.651628,204.846701 145.249485,193.497327 149.960166,178.584176 C154.670848,163.671026 172.804796,163.671026 172.804796,163.671026 C172.804796,163.671026 162.272795,147.611382 179.623224,132.046458 C196.973653,116.481534 213.739451,135.027108 215.955766,134.496499 C217.077042,134.228054 217.779445,111.22112 252.761006,111.22112 C285.758806,111.22112 288.172782,131.468778 290.835391,132.046459 C291.04901,132.092806 313.680012,121.02128 327.640619,129.596419 C341.601227,138.171559 346.376429,156.282147 347.946957,157.771878 C348.239031,158.048926 374.599026,154.080407 382.213903,185.947337 C389.82878,217.814268 368.377168,228.403544 368.253303,228.823036 C368.021088,229.609474 386.021342,244.748295 377.137319,264.348615 C368.253296,283.948934 344.325677,277.552496 344.139519,277.823834 C343.915983,278.149654 343.846788,279.564515 343.482444,281.529669 L343.482444,281.529669 Z M307.763278,306.398219 C306.704064,320.47913 299.964699,344.31113 261.504992,344.31113 C223.816853,344.311129 216.428464,321.42576 215.112996,307.257184 C216.778451,308.419384 218.766779,309.551469 221.148766,310.59612 C234.21227,316.325287 240.150225,307.15862 240.150225,307.15862 C240.150225,307.15862 244.900588,319.16513 259.151679,318.616953 C273.40277,318.068776 273.40277,304.866953 273.40277,304.866953 C273.40277,304.866953 281.715915,317.47112 294.779406,314.03362 C299.725535,312.732106 304.160925,309.683884 307.763278,306.398219 L307.763278,306.398219 Z M253.271206,229.767445 C258.230064,229.767445 262.250013,222.890871 262.250013,214.408186 C262.250013,205.925501 258.230064,199.048927 253.271206,199.048927 C248.312348,199.048927 244.292399,205.925501 244.292399,214.408186 C244.292399,222.890871 248.312348,229.767445 253.271206,229.767445 Z M252.87821,226.443753 C255.128259,226.443753 256.952284,223.251709 256.952284,219.314123 C256.952284,215.376537 255.128259,212.184493 252.87821,212.184493 C250.628161,212.184493 248.804136,215.376537 248.804136,219.314123 C248.804136,223.251709 250.628161,226.443753 252.87821,226.443753 Z M283.461924,229.767445 C288.420783,229.767445 292.440732,222.890871 292.440732,214.408186 C292.440732,205.925501 288.420783,199.048927 283.461924,199.048927 C278.503066,199.048927 274.483117,205.925501 274.483117,214.408186 C274.483117,222.890871 278.503066,229.767445 283.461924,229.767445 Z M282.901088,227.232301 C285.151137,227.232301 286.975163,224.040257 286.975163,220.102671 C286.975163,216.165086 285.151137,212.973042 282.901088,212.973042 C280.651039,212.973042 278.827014,216.165086 278.827014,220.102671 C278.827014,224.040257 280.651039,227.232301 282.901088,227.232301 Z M206.981377,198.085989 C208.54806,198.960591 222.560609,179.690642 219.767516,177.940281 C218.104288,176.897978 216.102396,176.289846 213.948279,176.289846 C208.176709,176.289846 203.497927,180.655475 203.497927,186.040752 C203.497927,189.598668 203.931008,196.383117 206.981377,198.085989 Z M325.233307,189.931432 C323.946372,191.181721 305.423859,176.195093 307.668753,173.781469 C309.00554,172.344206 310.781823,171.238668 312.862541,170.681142 C318.437449,169.18735 324.086713,172.193266 325.480526,177.395044 C326.401382,180.831727 327.739002,187.49709 325.233307,189.931432 Z M221.451704,379.389396 C221.451704,379.389396 226.521657,382.152356 230.577619,382.152356 C234.633582,382.152355 237.675555,380.310382 237.675555,380.310382 C237.675555,380.310382 244.773487,383.994329 247.81546,382.152356 C250.857434,380.310382 253.899403,374.784463 251.871422,370.179529 C249.84344,365.574596 241.731517,366.495583 241.731517,366.495583 C241.731517,366.495583 236.661564,361.89065 231.591611,361.89065 C226.521657,361.89065 221.451703,366.495583 221.451703,366.495583 C221.451703,366.495583 217.395741,361.89065 213.339779,367.41657 C210.576599,371.181178 211.311797,376.626436 214.353769,379.389396 C217.395741,382.152356 221.451704,379.389396 221.451704,379.389396 Z M282.162226,380.957211 C282.162226,380.957211 287.562332,383.066872 291.614105,382.569376 C295.665879,382.071881 298.481116,379.87774 298.481116,379.87774 C298.481116,379.87774 306.018904,382.649163 308.834142,380.455022 C311.64938,378.260881 314.017428,372.424701 311.432559,368.1209 C308.847689,363.817099 300.855941,365.722599 300.855941,365.722599 C300.855941,365.722599 295.232242,361.791919 290.167525,362.413788 C285.102809,363.035657 280.597074,368.210075 280.597074,368.210075 C280.597074,368.210075 275.986318,364.155022 272.605324,370.115575 C270.301976,374.176284 271.697403,379.46942 275.071623,381.827828 C278.445842,384.186236 282.162226,380.957211 282.162226,380.957211 Z" fill="#FFFFFF"></path>
            </g>
        </g>
    </g>
</svg>