<?xml version="1.0" encoding="UTF-8" standalone="no"?>
<svg width="500px" height="499px" viewBox="0 0 500 499" version="1.1" xmlns="http://www.w3.org/2000/svg" xmlns:xlink="http://www.w3.org/1999/xlink" xmlns:sketch="http://www.bohemiancoding.com/sketch/ns">
    <!-- Generator: Sketch 3.3 (11970) - http://www.bohemiancoding.com/sketch -->
    <title>Lollipop</title>
    <desc>Created with Sketch.</desc>
    <defs></defs>
    <g id="Page-1" stroke="none" stroke-width="1" fill="none" fill-rule="evenodd" sketch:type="MSPage">
        <g id="Row-5" sketch:type="MSLayerGroup">
            <g id="Lollipop" sketch:type="MSShapeGroup">
                <ellipse fill="#FA8997" cx="250" cy="249.500998" rx="250" ry="249.500998"></ellipse>
                <path d="M257.255328,277.96534 C254.86159,278.146599 252.441966,278.238939 250,278.238939 C199.465945,278.238939 158.5,238.695227 158.5,189.915586 C158.5,141.135945 199.465945,101.592232 250,101.592232 C300.534055,101.592232 341.5,141.135945 341.5,189.915586 C341.5,231.225224 312.120218,265.911078 272.430102,275.565744 C276.50604,294.528733 292.626854,370.211517 293.5,385.025366 C294.5,401.991434 276.5,398.997422 274.5,391.01339 C270.099808,373.447754 260.082164,299.228405 257.255328,277.96534 Z M240.908555,207.97015 C229.579912,205.611041 223.337215,201.242462 223.337215,179.938115 C223.337215,158.633768 250.067939,148.446317 267.265565,152.466721 C271.793557,153.525259 308.500015,166.462496 297.500008,203.388643 C286.5,240.314791 252.091446,242.310799 235.5,238.318783 C201.410625,230.116645 185.830055,188.428395 193.5,165.464489 C206.5,126.542339 239.476463,115.498282 266.094139,118.5583 C309.500008,123.54832 324.623964,156.44115 328.500008,177.440535 C335.500008,215.36469 319.221925,241.649831 297.500014,256.282855 C276.337281,270.539187 234.936226,271.087383 205.064947,253.070332 C175.193668,235.05328 169.553717,206.461241 170.277113,190.541101 C171.81321,156.735474 179.443347,148.760433 180.5,147.500416 C215.167045,106.161353 195.269155,130.664029 186.499999,162.783216 C185.053323,168.082022 180.599477,190.449066 186.499999,207.970148 C193.725269,229.424952 213.680812,246.399854 239.151422,250.30313 C285.422624,257.394021 299.409332,226.023188 300.500008,224.346727 C310.061948,209.649222 309.306496,185.622255 307.679653,174.331708 C305.318487,157.944849 289.497195,144.428005 286.594044,142.935829 C279.188902,139.129696 254.965627,130.792785 234.46573,141.629753 C213.965833,152.466721 209.70153,171.508261 209.280143,174.331708 C204.594453,205.727587 224.860287,223.107449 251.920042,220.304246 C278.979797,217.501042 281.511004,197.218707 280.736931,190.541099 C279.446512,179.409188 268.560245,171.693782 264.92272,170.967864 C246.635473,167.318393 239.558664,175.460231 239.151421,179.938115 C237.481778,198.296823 250.296644,196.363221 251.920042,192.832851 C255.062829,185.998297 247.35138,192.223021 247.35138,188.908366 C247.35138,185.593712 248.762359,175.836411 258.588345,178.65892 C267.159034,181.120846 266.282815,185.75644 266.094143,190.541099 C265.919615,194.967057 262.446509,212.455276 240.908555,207.97015 Z" fill="#FFFFFF" transform="translate(250.000000, 249.500998) rotate(-8.000000) translate(-250.000000, -249.500998) "></path>
            </g>
        </g>
    </g>
</svg>