<?xml version="1.0" encoding="UTF-8" standalone="no"?>
<svg width="500px" height="499px" viewBox="0 0 500 499" version="1.1" xmlns="http://www.w3.org/2000/svg" xmlns:xlink="http://www.w3.org/1999/xlink" xmlns:sketch="http://www.bohemiancoding.com/sketch/ns">
    <!-- Generator: Sketch 3.3 (11970) - http://www.bohemiancoding.com/sketch -->
    <title>Magic Hat</title>
    <desc>Created with Sketch.</desc>
    <defs></defs>
    <g id="Page-1" stroke="none" stroke-width="1" fill="none" fill-rule="evenodd" sketch:type="MSPage">
        <g id="Row-5" sketch:type="MSLayerGroup" transform="translate(-2400.000000, 0.000000)">
            <g id="Magic-Hat" transform="translate(2400.000000, 0.000000)" sketch:type="MSShapeGroup">
                <path d="M250,499.001996 C388.071187,499.001996 500,387.296594 500,249.500998 C500,111.705402 388.071187,0 250,0 C111.928813,0 0,111.705402 0,249.500998 C0,387.296594 111.928813,499.001996 250,499.001996 Z" fill="#CAA4CC"></path>
                <path d="M279.934817,183.884637 C295.195805,168.91005 354.432994,110.743009 357.624366,106.968715 C361.830965,101.993756 348.135672,98.2716452 344.930028,101.453552 C338.767266,107.57068 285.84194,164.446416 272.696408,179.144767 C272.196773,175.098262 272.291439,169.497245 269.23161,168.814927 C264.791955,167.824918 262.068244,178.000143 260.218539,179.110785 C258.368834,180.221427 246.658332,177.427008 244.256197,181.955206 C241.854062,186.483404 251.494338,192.419134 251.385551,194.850865 C251.276764,197.282595 244.799755,204.034745 247.712018,208.043132 C250.624282,212.051519 260.485406,204.788753 261.883944,205.200938 C263.282482,205.613122 268.062883,215.114858 273.215821,211.821184 C278.36876,208.527511 273.993162,197.325853 273.993162,197.325853 C273.993162,197.325853 290.720833,193.518941 289.676787,187.75371 C289.026812,184.164538 284.151787,183.978624 279.934817,183.884637 Z M171.90213,274.377633 L171.905206,274.352131 C171.905206,274.352131 171.803975,274.338743 171.613213,274.309571 C166.700138,273.149246 163.905205,272.339433 163.905205,272.339433 L163.93466,272.522262 C154.953995,269.802208 141.593904,263.47611 141.593955,249.911085 C141.594045,226.20586 199.565958,219.594802 233.9588,219.594802 C275.363052,219.594802 323.905207,225.237638 323.905204,249.911086 C323.905203,256.771868 314.400831,266.289007 299.931406,271.621598 C299.914224,271.436474 299.905205,271.341429 299.905205,271.341429 C299.905205,271.341429 268.905205,283.317477 231.905205,282.319473 C206.230981,281.62696 183.445723,277.090181 171.90213,274.377633 L171.90213,274.377633 Z M169.097077,297.632834 L168.905206,299.223533 C168.905206,299.223533 159.905206,370.551827 159.905206,382.939459 C159.905206,390.818604 196.917594,404.454168 233.9588,404.685773 C271.000007,404.917379 300.944631,392.700151 304.905204,385.113892 C308.063897,379.06359 296.194102,306.249198 296.194102,306.249198 C296.194102,306.249198 296.105143,304.277368 296.016561,301.284579 C284.487832,305.443222 257.804223,309.265581 231.905205,309.265581 C201.49328,309.265581 174.938421,299.853262 169.097077,297.632834 L169.097077,297.632834 Z M187.642413,252.443982 C222.220001,257.667758 241.6699,257.667758 267.603088,252.443983 C288.990962,248.135779 311.269509,237.289551 284.891883,233.538986 C263.920341,230.557099 222.513487,229.494387 196.28681,233.538986 C176.568667,236.579859 153.064825,247.220207 187.642413,252.443982 Z M179.694455,154.549336 C179.29939,155.913578 182.063269,159.748472 179.824857,161.57016 C177.586445,163.391848 174.800158,160.010474 173.514318,159.919158 C172.228478,159.827841 168.741352,164.08669 166.566002,161.83405 C164.390653,159.58141 167.445633,156.778894 167.374906,155.799902 C167.304179,154.82091 163.364899,152.176166 164.375902,149.71193 C165.386905,147.247695 168.66775,149.072133 169.980667,148.171213 C171.293585,147.270294 169.718302,143.366972 173.224377,143.05191 C176.730452,142.736848 175.992305,147.163568 176.947392,148.15259 C177.902479,149.141611 181.615296,145.725253 183.441026,148.623899 C185.266755,151.522546 180.089519,153.185094 179.694455,154.549336 Z M234.969425,186.027354 C234.969425,186.027354 236.224093,190.117705 234.535461,190.813491 C232.846829,191.509277 231.585154,188.318896 231.186754,188.107668 C230.788354,187.89644 226.780535,189.64117 226.095399,188.236433 C225.410263,186.831696 228.149353,185.004771 228.293345,184.266528 C228.437336,183.528285 225.091009,180.640579 226.29556,179.104012 C227.500111,177.567445 229.930888,180.191593 231.03934,179.885024 C232.147792,179.578454 232.576676,176.234593 234.363707,176.691211 C236.150739,177.14783 235.081268,180.887977 235.771304,181.636751 C236.46134,182.385524 239.585013,182.741507 239.63212,184.570865 C239.679227,186.400223 234.969425,186.027354 234.969425,186.027354 Z M210.424602,160.698558 C210.424602,160.698558 208.998914,165.353935 206.709961,164.941589 C204.421007,164.529243 205.228462,160.718939 204.943153,160.267316 C204.657844,159.815694 199.161876,158.925136 199.377947,157.165381 C199.594017,155.405627 203.780725,155.41533 204.436598,154.809644 C205.09247,154.203958 203.451643,149.359507 205.7903,148.671728 C208.128957,147.983949 208.963578,151.999959 210.3642,152.41237 C211.764822,152.824781 214.49531,149.939943 216.108143,151.50238 C217.720976,153.064816 214.032368,155.918148 214.266687,157.06182 C214.501005,158.205492 217.620231,160.519201 216.429565,162.275815 C215.238898,164.032429 210.424602,160.698558 210.424602,160.698558 Z M200.486706,199.303937 C200.486706,199.303937 199.061018,203.959314 196.772065,203.546967 C194.483111,203.134621 195.290566,199.324318 195.005257,198.872695 C194.719948,198.421072 189.22398,197.530515 189.440051,195.77076 C189.656122,194.011005 193.842829,194.020708 194.498702,193.415022 C195.154574,192.809337 193.513747,187.964885 195.852404,187.277106 C198.191061,186.589327 199.025682,190.605337 200.426304,191.017748 C201.826926,191.430159 204.557414,188.545321 206.170247,190.107758 C207.78308,191.670195 204.094472,194.523527 204.328791,195.667199 C204.56311,196.810871 207.682336,199.124579 206.491669,200.881193 C205.301002,202.637807 200.486706,199.303937 200.486706,199.303937 Z M216.457187,123.636531 C216.457187,123.636531 218.203583,130.607207 215.402275,132.089382 C212.600967,133.571557 210.542229,127.416333 209.865566,127.185103 C209.188904,126.953872 203.766621,130.255778 202.55926,128.246391 C201.351899,126.237005 205.04027,123.107005 205.250659,121.929977 C205.461049,120.752949 200.994877,117.658124 202.492383,115.515586 C203.989889,113.373047 209.697913,114.990585 210.698886,114.493298 C211.699858,113.996011 213.720597,109.121691 215.889053,109.701265 C218.057508,110.280838 216.224455,115.734283 217.41251,116.727367 C218.600565,117.72045 224.798641,116.525167 224.954347,119.344853 C225.110053,122.164539 216.457187,123.636531 216.457187,123.636531 Z M174.633578,124.415815 C174.633578,124.415815 177.426348,135.563055 172.946603,137.933293 C168.466857,140.303532 165.174601,130.460331 164.092508,130.090556 C163.010415,129.72078 154.339306,135.001063 152.40854,131.787728 C150.477774,128.574394 156.376077,123.569016 156.712523,121.686757 C157.04897,119.804499 149.906838,114.855372 152.301593,111.429106 C154.696348,108.00284 163.824404,110.589544 165.425121,109.794302 C167.025839,108.99906 170.257328,101.204232 173.725039,102.131065 C177.192751,103.057897 174.261402,111.778839 176.161294,113.36694 C178.061187,114.955042 187.972916,113.043591 188.221915,117.552726 C188.470914,122.061861 174.633578,124.415815 174.633578,124.415815 Z" fill="#FFFFFF"></path>
            </g>
        </g>
    </g>
</svg>