<?xml version="1.0" encoding="UTF-8" standalone="no"?>
<svg width="500px" height="500px" viewBox="0 0 500 500" version="1.1" xmlns="http://www.w3.org/2000/svg" xmlns:xlink="http://www.w3.org/1999/xlink" xmlns:sketch="http://www.bohemiancoding.com/sketch/ns">
    <!-- Generator: Sketch 3.3 (11970) - http://www.bohemiancoding.com/sketch -->
    <title>Monkey</title>
    <desc>Created with Sketch.</desc>
    <defs></defs>
    <g id="Page-1" stroke="none" stroke-width="1" fill="none" fill-rule="evenodd" sketch:type="MSPage">
        <g id="Row-3" sketch:type="MSLayerGroup" transform="translate(-1800.000000, 0.000000)">
            <g id="Monkey" transform="translate(1800.000000, 0.000000)" sketch:type="MSShapeGroup">
                <path d="M250,500 C388.071187,500 500,388.071187 500,250 C500,111.928813 388.071187,0 250,0 C111.928813,0 0,111.928813 0,250 C0,388.071187 111.928813,500 250,500 Z" fill="#F2C06C"></path>
                <path d="M169.915772,219.504286 C161.650717,236.998849 148.429719,261.426112 148.42972,281.989243 C148.42972,311.011572 163.258602,291.67656 164.670221,296.160352 C167.834031,306.209715 172.213277,315.434334 177.672214,323.675077 C178.732269,325.275324 146.754869,328.324921 133.142934,326 C119.530998,323.675079 102.466259,316.080823 98.5895584,303.2491 C94.7128575,290.417377 98.640617,281.439514 107.5152,277.719757 C116.389782,274 128.67776,279.384119 131.04879,281.989243 C137.490519,289.066969 136.624293,298.625723 133.142934,301 C125.627583,306.125448 117.177794,297.27231 112.883308,296.160347 C108.588822,295.048384 104.412319,302.15728 110.10735,306.881393 C115.802381,311.605507 127.609091,318 141.519509,311 C149.728061,306.869293 150.797825,286.278737 139.723847,272.496412 C131.899735,262.758768 115.960634,260.547902 107.5152,262.245516 C87.1163903,266.345875 80.0260628,284.248569 83.8955256,303.2491 C87.7649885,322.249632 106.217545,340.893036 139.723849,341 C173.230152,341.106964 188.760213,337.543906 189.117761,337.911923 C194.393247,343.341881 200.275901,348.110875 206.701014,352.143051 C207.11553,352.403187 201.692388,387.92654 212.581108,389.950728 C223.469829,391.974915 255.289478,394.051458 260.646535,388.925539 C266.003592,383.79962 262.069098,367.39668 262.268131,367.39668 C266.868388,367.39668 271.347673,367.287239 275.700933,367.055226 C275.951133,367.041891 272.43206,383.79962 279.931939,389.950723 C287.431819,396.101826 325.382028,391.262263 327.074039,389.950723 C337.510137,381.861322 332.080111,352.026118 332.281571,351.898849 C336.900636,348.980832 347.999995,340.468765 357.999995,323.675079 C367.999995,306.881393 367.269317,289.696409 367.676493,287.621394 C368.243815,284.730247 392.855989,306.88139 388.628496,277.719757 C384.401004,248.558124 366.822474,227.425063 364.664742,219 C361.464423,206.504057 360.316757,206.004123 355.251432,194.46373 C354.456065,192.651634 367.67649,192.330183 379.856866,179.521746 C392.037242,166.713308 388.087688,138.443899 379.856866,124.018515 C373.535768,112.940123 355.251433,102.67112 335.195488,111.210078 C315.139543,119.749036 311.028003,134.991806 309.716518,134.069787 C296.84851,125.023146 283.349428,119.749036 267.244764,119.749036 C267.169565,119.749036 266.003592,118.298523 268.146414,115.223237 C270.289237,112.147951 271.360649,111.122856 271.360649,110.097761 C271.360649,109.072666 268.146414,110.184982 266.003592,111.122856 C263.860769,112.06073 260.646535,115.223237 260.646535,115.223237 C260.646535,115.223237 260.646535,111.122856 255.289478,109.072666 C249.932421,107.022475 245.214949,106.932144 244.575365,107.022475 C243.156488,107.222868 250.58166,113.044347 253.146655,117.273428 C254.511013,119.522936 253.360037,121.360085 252.585395,121.576754 C242.111506,124.506324 232.175987,130.833111 221.567684,139.650972 C219.957618,140.989294 210.63444,121.061477 193.091099,115.479557 C181.951039,111.935025 162.575788,115.030485 152.489845,128.287995 C136.290341,149.581501 138.498674,171.129338 148.42972,183.791227 C158.411032,196.517204 176.155196,200.306331 175.628251,201.478895 C174.21564,204.622255 173.315824,212.307426 169.915772,219.504286 Z M193.804174,234.456776 C193.804174,264.34313 226.848259,290.513538 275.00668,285.690525 C323.803896,280.803538 339.968685,255.804171 339.968685,230.187297 C339.968685,204.570422 315.607933,191.761984 315.607933,191.761984 C315.607933,191.761984 315.607933,161.87563 299.367432,153.336672 C283.126931,144.797714 266.886429,157.606151 266.886429,157.606151 C266.886429,157.606151 250.645928,144.797714 230.345302,153.336672 C210.044675,161.87563 218.164926,191.761984 218.164926,191.761984 C218.164926,191.761984 193.804174,204.570422 193.804174,234.456776 Z M165.685474,145.743996 C149.469518,171.253746 178.776611,184.00862 182.652656,184.00862 C184.93841,184.00862 188.704414,174.921723 194.063397,167.002119 C199.338413,159.206603 206.225362,152.597458 206.225362,149.995621 C206.225362,143.97016 181.901429,120.234245 165.685474,145.743996 Z M366.330422,141.821836 C348.752797,117.230543 325.948053,139.625547 324.496061,143.219354 C323.639802,145.338668 330.654257,152.234457 335.989675,160.169955 C341.241496,167.981117 344.789492,176.842414 347.201874,177.81708 C352.788584,180.074257 383.908046,166.41313 366.330422,141.821836 Z M251.935069,196.967771 C254.126472,196.967771 255.902955,195.064254 255.902955,192.716147 C255.902955,190.368039 254.126472,188.464522 251.935069,188.464522 C249.743666,188.464522 247.967182,190.368039 247.967182,192.716147 C247.967182,195.064254 249.743666,196.967771 251.935069,196.967771 Z M287.359129,196.741242 C289.740772,196.741242 291.671476,194.837725 291.671476,192.489617 C291.671476,190.14151 289.740772,188.237993 287.359129,188.237993 C284.977486,188.237993 283.046783,190.14151 283.046783,192.489617 C283.046783,194.837725 284.977486,196.741242 287.359129,196.741242 Z M275.287962,229.465714 C281.796928,229.465714 290.098391,219.488358 289.216307,215.114379 C288.763824,212.870658 282.787839,211.013998 273.145136,212.039094 C263.502434,213.064189 261.359611,217.284656 261.359611,219.21476 C261.359611,223.177772 268.778997,229.465714 275.287962,229.465714 Z M307.4303,256.108634 C312.427699,254.075305 313.021421,248.579062 311.715945,244.831613 C310.104533,240.205956 308.501711,242.2796 304.216066,247.907165 C299.93042,253.534729 288.144895,253.107242 288.144895,255.083452 C288.144895,257.436867 300.123522,259.081597 307.4303,256.108634 Z M235.840239,387.30645 C250.870941,387.30645 254.091805,385.710603 254.091805,381.181056 C254.091805,378.934787 253.018182,372.955195 248.723696,371.930105 C244.42921,370.905015 243.629652,373.695407 240.134725,372.979586 C237.78177,372.49766 237.876987,370.905015 234.656122,370.905015 C231.435257,370.905015 230.574904,373.883607 227.251265,372.979586 C224.396999,372.203233 222.956779,369.879926 218.662293,371.930105 C214.367807,373.980284 215.288923,378.114917 215.288923,381.181056 C215.288923,385.710603 220.809537,387.30645 235.840239,387.30645 Z M305.625641,388.331539 C320.656343,388.331539 323.877207,386.735693 323.877207,382.206146 C323.877207,379.959877 322.803584,373.980284 318.509098,372.955195 C314.214612,371.930105 313.415054,374.720496 309.920127,374.004675 C307.567172,373.52275 307.662389,371.930105 304.441524,371.930105 C301.220659,371.930105 300.360306,374.908696 297.036667,374.004675 C294.182402,373.228323 292.742181,370.905016 288.447695,372.955195 C284.153209,375.005374 285.074325,379.140007 285.074325,382.206146 C285.074325,386.735692 290.594939,388.331539 305.625641,388.331539 Z M272.703918,350.45878 C299.544457,350.45878 315.648783,326.881722 315.648781,305.35484 C315.648779,283.827957 299.002222,294.078853 267.872619,294.078853 C236.743016,294.078853 211.507487,277.677417 216.875595,308.430108 C222.243703,339.182799 245.863379,350.45878 272.703918,350.45878 Z M269.156821,343.795699 C271.232128,343.795699 272.914497,341.500958 272.914497,338.670251 C272.914497,335.839544 271.232128,333.544803 269.156821,333.544803 C267.081514,333.544803 265.399146,335.839544 265.399146,338.670251 C265.399146,341.500958 267.081514,343.795699 269.156821,343.795699 Z" fill="#FFFFFF"></path>
            </g>
        </g>
    </g>
</svg>