<?xml version="1.0" encoding="UTF-8" standalone="no"?>
<svg width="500px" height="501px" viewBox="0 0 500 501" version="1.1" xmlns="http://www.w3.org/2000/svg" xmlns:xlink="http://www.w3.org/1999/xlink" xmlns:sketch="http://www.bohemiancoding.com/sketch/ns">
    <!-- Generator: Sketch 3.3 (11970) - http://www.bohemiancoding.com/sketch -->
    <title>Mouse</title>
    <desc>Created with Sketch.</desc>
    <defs></defs>
    <g id="Page-1" stroke="none" stroke-width="1" fill="none" fill-rule="evenodd" sketch:type="MSPage">
        <g id="Row-1" sketch:type="MSLayerGroup" transform="translate(-2478.000000, -78.750000)">
            <g id="Mouse" transform="translate(2478.000000, 79.000000)" sketch:type="MSShapeGroup">
                <path d="M250,500 C388.071187,500 500,388.071187 500,250 C500,111.928813 388.071187,0 250,0 C111.928813,0 0,111.928813 0,250 C0,388.071187 111.928813,500 250,500 Z" fill="#CAA4CC"></path>
                <path d="M219.000912,200.543583 C215.596129,207.077505 202.370688,211.968731 195.343143,211.968731 C187.233321,211.968731 183.922152,207.0715 183.922152,199.036344 C183.922152,191.001188 192.080003,178.021214 203.500994,178.021214 C211.650325,178.021214 216.476872,183.806775 218.573371,190.040541 C219.514938,184.06649 222.739988,178.719999 233.786409,178.719999 C249.38769,178.719999 254.079671,191.001188 254.079671,199.036344 C254.079671,207.0715 250.768502,211.968731 242.65868,211.968731 C235.631135,211.968731 222.405694,207.077505 219.000912,200.543583 L219.000912,200.543583 Z M211.147028,270.660718 C198.977065,257.561362 188.684466,223.99584 195.557489,218.093082 C199.37224,214.81686 210.634708,211.024138 220.307934,211.086634 C229.812506,211.14804 237.729224,215.008769 241.5226,218.093082 C247.308092,222.797141 240.234099,255.947176 229.55404,269.817335 C229.341668,266.167214 225.297995,263.256487 220.34078,263.256487 C215.247595,263.256487 211.118752,266.32908 211.118752,270.119315 C211.118752,270.301529 211.128295,270.482083 211.147028,270.660718 L211.147028,270.660718 Z M234.419583,356.266269 C231.435396,362.793368 223.337289,376.020324 235.325595,376.820078 C249.082852,377.737841 263.486384,373.149025 263.757256,373.149025 C264.137957,373.149025 263.757257,375.902315 267.425859,376.820078 C269.013216,377.217183 270.57697,375.988297 272.01161,375.902315 C273.89262,375.789581 275.615035,376.662613 277.514512,375.902315 C280.862713,374.56214 282.100265,372.231262 282.100265,372.231262 C282.100265,372.231262 283.617912,372.604934 285.768866,371.313499 C290.354618,368.56021 284.994267,363.848938 283.934565,363.053631 C280.76878,360.677706 275.588303,358.976728 265.591557,360.300341 C261.11287,360.893339 256.354661,362.175494 251.834301,363.053631 C245.351086,364.313076 237.955556,365.101904 238.077045,364.889157 C238.706904,363.786167 241.705382,358.203181 243.007017,355.322114 C281.289353,349.925945 303.067732,330.128049 307.892895,302.465463 C308.144179,301.024857 326.773297,307.065786 340.138876,299.201577 C344.687187,296.525384 358.692718,288.026318 356.425216,265.265767 C354.07914,241.716527 335.451682,203.719906 340.138876,190.930184 C346.653412,173.154284 379.272852,187.558924 381.210559,188.544508 C392.255162,194.162166 390.626528,188.54451 385.740626,185.614084 C383.483463,184.260301 367.011578,173.255253 354.796582,174.770275 C341.76751,176.386266 333.432355,181.172887 330.367073,197.394148 C325.481171,223.250003 343.396144,249.105858 343.396144,276.577704 C343.396144,291.121622 309.118587,287.934617 309.226334,287.286913 C309.626414,284.881901 309.85404,271.277315 307.956315,253.839815 C306.058591,236.402315 296.584424,212.955424 296.584424,212.955424 C296.584424,212.955424 317.92771,192.228586 320.276912,185.614081 C327.369232,165.644663 319.422455,136.481336 307.956311,128.888902 C273.689612,106.19883 248.598671,157.168822 245.753775,155.524884 C236.093478,149.942632 226.182654,146.716816 216.578447,146.716816 C205.205056,146.716816 194.420784,150.38016 184.6415,156.693127 C182.197229,158.271013 170.889515,128.888902 148.045049,128.888902 C137.320576,128.888902 111.270986,136.992503 110.514855,171.027609 C110.184501,185.897556 115.381468,197.486231 124.374265,205.822409 C135.964647,216.566506 141.410861,221.907752 141.410861,221.907752 C141.410861,221.907752 131.687595,243.482994 131.687597,265.265767 C131.6876,296.673458 139.957563,346.925074 200.832627,355.519038 C202.177295,358.450233 205.057131,363.810792 205.672928,364.889157 C205.794417,365.101904 198.398887,364.313076 191.915672,363.053631 C187.395312,362.175494 182.637102,360.893339 178.158416,360.300341 C168.16167,358.976728 162.981193,360.677706 159.815408,363.053631 C158.755706,363.848938 153.395355,368.56021 157.981107,371.313499 C160.132061,372.604934 161.649708,372.231262 161.649708,372.231262 C161.649708,372.231262 162.88726,374.56214 166.235461,375.902315 C168.134938,376.662613 169.857353,375.789581 171.738363,375.902315 C173.173003,375.988297 174.736757,377.217183 176.324114,376.820078 C179.992716,375.902315 179.612016,373.149025 179.992717,373.149025 C180.263589,373.149025 194.667121,377.737841 208.424378,376.820078 C220.317715,376.026659 212.44162,363.002151 209.402261,356.422641 C211.725423,356.589139 214.116831,356.700161 216.578444,356.753034 C222.840475,356.887536 228.787919,356.719497 234.419583,356.266269 L234.419583,356.266269 Z M280.286184,368.101328 C281.108149,369.49629 281.064273,370.854618 281.203947,370.854618 C281.710475,370.854618 286.061081,370.247873 285.792763,368.101328 C285.524445,365.954783 282.081526,363.247601 280.286184,362.594749 C278.490842,361.941897 277.532895,363.699954 277.532895,364.430275 C277.532895,364.820171 279.344776,366.503658 280.286184,368.101328 Z M272.944079,369.936854 C273.36133,371.605857 272.026316,372.690144 272.944079,373.607907 C273.861842,374.52567 277.532895,374.52567 278.450658,370.854617 C279.368421,367.183565 275.697368,365.348038 274.779605,364.430275 C273.861842,363.512512 271.108553,365.53548 271.108553,366.265802 C271.108553,366.655697 272.526828,368.267851 272.944079,369.936854 Z M265.601974,371.02375 C266.042478,371.772381 264.684211,372.690144 266.519737,374.52567 C268.355263,376.361196 271.108553,375.443433 270.190789,369.936854 C269.273026,364.430275 264.684211,366.265802 264.684211,368.101328 C264.684211,369.019091 265.161469,370.275119 265.601974,371.02375 Z M163.742169,368.101328 C162.920205,369.49629 162.96408,370.854618 162.824406,370.854618 C162.317878,370.854618 157.967272,370.247873 158.23559,368.101328 C158.503909,365.954783 161.946827,363.247601 163.742169,362.594749 C165.537511,361.941897 166.495459,363.699954 166.495459,364.430275 C166.495459,364.820171 164.683578,366.503658 163.742169,368.101328 Z M170.300667,370.854617 C169.883416,372.52362 171.21843,373.607907 170.300667,374.52567 C169.382904,375.443434 165.711851,375.443433 164.794088,371.772381 C163.876325,368.101328 167.547378,366.265802 168.465141,365.348039 C169.382904,364.430276 172.136193,366.453243 172.136193,367.183565 C172.136193,367.57346 170.717918,369.185615 170.300667,370.854617 Z M177.679006,371.02375 C177.238501,371.772381 178.596769,372.690144 176.761243,374.52567 C174.925716,376.361196 172.172427,375.443433 173.09019,369.936854 C174.007953,364.430275 178.596769,366.265802 178.596769,368.101328 C178.596769,369.019091 178.11951,370.275119 177.679006,371.02375 Z M126.83233,151.578975 C103.987864,179.131206 134.509883,208.304157 141.518059,208.304157 C148.949606,208.304157 149.93852,197.986466 156.203788,187.234804 C161.33492,178.429402 170.889512,173.209458 170.889512,164.544731 C170.889512,159.357048 149.676797,124.026744 126.83233,151.578975 Z M306.987473,145.096097 C329.428296,172.648328 299.445577,201.821279 292.561229,201.821279 C285.260991,201.821279 284.28955,191.503588 278.134985,180.751926 C273.094515,171.946524 263.708745,166.72658 263.708745,158.061853 C263.708745,152.87417 284.546649,117.543866 306.987473,145.096097 Z M210.25175,205.404302 C212.913955,204.934883 214.569385,201.703312 213.949256,198.186386 C213.329127,194.66946 210.668269,192.198967 208.006064,192.668386 C205.343859,193.137805 203.688429,196.369375 204.308558,199.886301 C204.928687,203.403228 207.589545,205.87372 210.25175,205.404302 Z M228.983254,205.45434 C231.666378,205.783786 234.194293,203.17742 234.629511,199.632859 C235.064728,196.088298 233.24244,192.947794 230.559315,192.618348 C227.876191,192.288902 225.348276,194.895267 224.913058,198.439829 C224.477841,201.98439 226.30013,205.124894 228.983254,205.45434 Z M171.470427,246.997486 C169.113812,248.773323 194.613814,260.036552 196.97043,258.260715 C199.327045,256.484878 173.827043,245.221649 171.470427,246.997486 Z M169.940351,272.053432 C168.882879,274.808243 196.476709,270.847061 197.534182,268.09225 C198.591655,265.337439 170.997824,269.298621 169.940351,272.053432 Z M171.600394,259.726348 C169.454311,261.872431 193.092266,265.747311 195.238349,263.601228 C197.384432,261.455145 173.746477,257.580265 171.600394,259.726348 Z M265.496379,246.997486 C267.852994,248.773323 242.352992,260.036552 239.996377,258.260715 C237.639762,256.484878 263.139764,245.221649 265.496379,246.997486 Z M266.060131,272.053432 C267.117604,274.808243 239.523774,270.847061 238.466301,268.09225 C237.408828,265.337439 265.002658,269.298621 266.060131,272.053432 Z M263.764299,259.726348 C265.910382,261.872431 242.272427,265.747311 240.126343,263.601228 C237.98026,261.455145 261.618215,257.580265 263.764299,259.726348 Z" fill="#FFFFFF" transform="translate(250.000000, 250.000000) scale(-1, 1) translate(-250.000000, -250.000000) "></path>
            </g>
        </g>
    </g>
</svg>