<?xml version="1.0" encoding="UTF-8" standalone="no"?>
<svg width="500px" height="500px" viewBox="0 0 500 500" version="1.1" xmlns="http://www.w3.org/2000/svg" xmlns:xlink="http://www.w3.org/1999/xlink" xmlns:sketch="http://www.bohemiancoding.com/sketch/ns">
    <!-- Generator: Sketch 3.3 (11970) - http://www.bohemiancoding.com/sketch -->
    <title>Notebook</title>
    <desc>Created with Sketch.</desc>
    <defs></defs>
    <g id="Page-1" stroke="none" stroke-width="1" fill="none" fill-rule="evenodd" sketch:type="MSPage">
        <g id="Row-2" sketch:type="MSLayerGroup" transform="translate(-600.000000, 0.250000)">
            <g id="Notebook" transform="translate(600.000000, 0.000000)" sketch:type="MSShapeGroup">
                <path d="M250,499.001996 C388.071187,499.001996 500,387.296594 500,249.500998 C500,111.705402 388.071187,0 250,0 C111.928813,0 0,111.705402 0,249.500998 C0,387.296594 111.928813,499.001996 250,499.001996 Z" fill="#6DB67F"></path>
                <path d="M158.32256,338.904675 C160.224546,352.758748 161.972904,362.231302 163.329772,364.597136 C166.584911,370.272794 229.602339,371.914024 258.764901,376.931657 C292.935437,382.810949 324.155638,396.292502 331.224907,394.531649 C338.294176,392.770795 332.992224,380.444819 332.992224,380.444819 C332.992224,380.444819 343.596127,383.966526 345.363444,376.923112 C347.130762,369.879697 340.012625,355.801968 347.130762,355.792867 C359.077243,355.777593 364.803934,359.314575 368.338568,352.27116 C370.204289,348.553366 355.403626,288.913615 349.445768,226.971781 C344.116378,171.563926 348.307658,113.332323 338.294176,107.512487 C317.086369,95.1865106 149.196592,121.565135 143.880597,134.302643 C143.125447,136.112037 142.834651,141.805737 142.911787,150.279014 C137.094978,151.885377 131.5,155.988821 131.5,166.074918 C131.5,174.754286 138.342081,180.019443 144.051498,181.124248 L144.051498,181.124248 C144.220719,184.251593 144.4065,187.482527 144.607424,190.800816 L144.607424,190.800816 C137.81423,192.77836 129.535891,197.598561 131.982985,210.187768 C133.60223,218.518062 141.019442,222.396319 146.784423,222.560232 C147.053351,226.123189 147.332403,229.7221 147.620311,233.342426 C140.915122,235.484854 132.965334,240.481188 135.597484,252.86448 C137.331426,261.022035 144.589103,264.782775 150.312613,264.970169 L150.312613,264.970169 C150.517598,267.230287 150.7246,269.482354 150.93331,271.722838 L150.93331,271.722838 C143.99165,273.581477 134.528184,278.345729 137.366141,291.697263 C139.314456,300.863365 148.236778,304.478258 154.120436,303.710154 C154.239485,304.823447 154.358589,305.928078 154.477697,307.023475 C147.535394,308.880771 138.064534,313.643723 140.903454,326.999792 C142.926702,336.518427 152.470721,340.050637 158.32256,338.904675 L158.32256,338.904675 Z M157.297155,331.13315 C156.714023,326.548633 156.120915,321.615171 155.524203,316.405754 C151.299477,318.59362 148.918164,322.17219 149.553491,325.16117 C150.352681,328.921066 154.006307,330.172497 157.297155,331.13315 L157.297155,331.13315 Z M170.950539,317.954343 L173.947761,347.882932 C173.947761,347.882932 217.406931,336.559314 264.149253,335.52706 C306.134828,334.599854 345.505771,338.868049 349.044776,335.52706 C351.051699,333.632429 342.292675,279.092427 336.664179,222.558967 C331.559409,171.285893 329.78405,121.001458 326.859193,120.18163 C321.67097,118.727388 289.885224,118.754406 255.30597,123.711883 C205.94214,130.78896 153.530835,144.010837 153.530835,144.010837 L154.085368,149.548094 C157.181203,149.975606 161.020411,150.998 163.335821,152.83647 C167.637008,156.251674 170.410448,163.427229 166.873134,166.074918 C165.314814,167.241326 160.918412,160.025782 154.97553,158.436763 L154.97553,158.436763 L158.156054,190.195712 L158.156054,190.195712 C159.0832,190.422724 159.951262,190.724954 160.707877,191.117986 C165.581691,193.649739 169.673335,200.164261 166.706215,203.438256 C165.81222,204.424712 162.866915,201.815685 159.131069,199.931667 L162.410732,232.680563 C162.970979,232.851199 163.500248,233.05503 163.985187,233.296284 C168.902444,235.742592 173.107159,242.184713 170.19763,245.509993 C169.387001,246.436456 166.768975,244.31962 163.399884,242.557688 L163.399884,242.557688 L166.395793,272.473176 L166.395793,272.473176 C171.026033,275.134124 174.748287,281.163247 171.966287,284.342775 C171.347037,285.050511 169.673062,283.982296 167.415261,282.653012 L169.931075,307.774537 C174.562257,310.434889 178.286007,316.465312 175.503601,319.645304 C174.884165,320.353253 173.209369,319.284183 170.950539,317.954343 L170.950539,317.954343 Z M151.831636,281.184691 C152.30883,286.115908 152.792408,290.96378 153.2789,295.688561 C150.121355,294.742697 146.776613,293.436208 146.016177,289.858641 C145.388675,286.906473 147.703965,283.379148 151.831636,281.184691 L151.831636,281.184691 Z M149.530657,256.197805 C149.155935,251.919796 148.789751,247.629415 148.434154,243.350146 C145.342987,245.525857 143.708152,248.488327 144.247521,251.025858 C144.848978,253.855493 147.067135,255.264379 149.530657,256.197805 Z M145.236375,200.731426 C145.518874,205.014361 145.822303,209.406094 146.144005,213.876182 C143.583053,212.898549 141.23736,211.451141 140.663793,208.50039 C140.155629,205.886117 141.946302,202.864063 145.236375,200.731426 L145.236375,200.731426 Z M143.575189,171.641572 C143.404449,167.926358 143.26349,164.410192 143.155314,161.127488 C141.382888,162.537486 140.343284,164.297663 140.343284,166.074918 C140.343284,168.583919 141.755036,170.300394 143.575189,171.641572 L143.575189,171.641572 Z M264.066853,350.510296 C290.06667,349.246651 327.820895,351.413197 334.759541,354.032003 C341.698188,356.65081 340.201492,370.829588 334.895522,372.594715 C329.589551,374.359841 294.204641,359.738405 271.136122,357.549438 C244.71976,355.042795 188.072213,359.314565 188.072213,359.314565 C188.072213,359.314565 241.76,351.594456 264.066853,350.510296 Z M276.529852,365.534208 C292.102667,367.928319 324.022334,375.634616 327.690272,379.410044 C331.35821,383.185472 329.333662,388.905528 324.155638,389.257622 C318.977613,389.609717 313.852743,384.928439 302.593571,380.812884 C295.163478,378.096969 287.316939,375.474086 281.740025,374.249769 C261.010665,369.698987 209.271982,362.836272 209.271982,362.836272 C209.271982,362.836272 256.167217,362.403728 276.529852,365.534208 Z M181.022388,238.445103 C179.122263,200.710961 173.333783,164.922543 181.022388,157.249286 C196.940299,141.363149 294.216424,127.242135 313.671648,143.128274 C324.010715,151.570626 319.253467,194.358518 324.283581,238.4451 C328.718729,277.317094 338.816881,312.913274 331.358207,317.875798 C323.925986,322.820722 294.242607,324.322804 264.149253,326.701426 C229.790365,329.417202 194.696995,332.347263 188.097015,326.701426 C181.696444,321.226171 183.056139,278.832896 181.022388,238.445103 Z M217.535309,305.078729 C212.059006,300.483639 209.320896,294.426566 209.320896,286.907328 C209.320896,279.979882 211.779963,272.82627 216.698171,265.446277 C222.279116,257.021946 228.766868,252.809844 236.161621,252.809844 C239.789236,252.809844 244.027202,253.784545 248.875649,255.733977 C254.770523,258.135956 257.717915,260.903412 257.717915,264.036427 C257.717915,265.74218 257.124949,267.256449 255.938998,268.579278 C254.683285,270.00654 253.010295,269.461077 251.073135,268.724153 C250.335547,268.443564 247.052306,267.335998 242.999999,265.864011 C239.203025,264.484772 227.999999,262.47505 223,275.449101 C218.000001,288.423152 223,299.857061 233.841795,300.495437 C241.30996,300.93517 248.697156,296.618929 253.010295,294.95502 C254.95869,294.203375 256.27978,294.787323 256.697654,295.209779 C258.040569,296.567419 258.712016,298.116498 258.712016,299.857062 C258.712016,302.572343 255.747183,305.287582 249.817429,308.002863 C244.51553,310.404841 240.190363,311.605813 236.841795,311.605813 C229.167995,311.605813 222.732564,309.43014 217.535309,305.078729 Z M244.391389,214.821838 C241.879258,214.602055 239.983789,211.108111 238.704925,204.339903 C238.215372,201.758645 237.713636,197.272567 237.199702,190.881533 C234.38023,191.029728 230.673743,191.410561 226.080132,192.024043 L214.983153,193.380064 C213.297065,196.927373 210.493508,202.083223 206.572399,208.847769 C205.561478,210.338791 204.305128,211.018596 202.80331,210.887204 C201.711079,210.791646 200.770421,210.300386 199.981305,209.41341 C199.19219,208.526433 198.850288,207.481165 198.955589,206.277573 C199.073134,204.934028 201.581597,200.0062 206.481055,191.49394 C206.080527,190.725575 205.921896,189.865566 206.005157,188.913889 C206.203514,186.646658 207.668816,185.30823 210.401105,184.898565 C214.038018,179.180936 218.572399,172.639377 224.004384,165.273693 C231.403967,155.23147 235.895559,150.279713 237.479294,150.418272 C239.63645,150.606998 240.976255,152.275454 241.498749,155.42369 L242.844916,169.756589 L246.394811,199.470474 L248.149068,206.308445 C248.742578,208.644956 249.00627,210.19106 248.940151,210.946804 C248.83485,212.150396 248.32346,213.121011 247.405964,213.858678 C246.488468,214.596345 245.48362,214.917395 244.391389,214.821838 Z M234.968181,165.941134 L221.560985,184.269384 C224.940861,183.690839 230.043173,183.079694 236.868074,182.43593 L234.968181,165.941134 Z M306.943321,259.817284 C302.542997,263.67785 296.35577,267.05929 288.381454,269.961703 C287.401752,270.318286 286.306263,270.197197 285.094953,269.598434 C283.883643,268.99967 283.10062,268.212952 282.745859,267.238255 L279.144642,257.343994 C277.964857,254.102559 276.486881,249.403851 274.710673,243.247729 C272.806776,236.599007 271.349618,231.815713 270.339153,228.897703 C269.557346,226.820597 268.552388,223.669605 267.324247,219.444631 C267.071221,218.253213 267.174893,217.368375 267.635267,216.790089 C270.387348,214.710264 273.734133,212.953068 277.675723,211.518446 C281.685665,210.058947 286.03107,210.017539 290.712069,211.394221 C296.111167,212.971601 299.648063,216.060983 301.322864,220.662461 C303.443179,226.487977 302.835488,231.907301 299.499773,236.920595 C303.445353,237.127415 306.58855,237.805943 308.92946,238.956199 C311.27037,240.106455 312.820313,241.724258 313.579336,243.809657 C314.577616,246.55241 314.050567,249.747611 311.998173,253.395356 C310.584871,255.963374 308.899937,258.103995 306.943321,259.817284 Z M281.265084,216.863839 C278.831075,217.749746 277.151774,218.451024 276.22713,218.967695 L278.331078,224.956684 L282.462048,238.390813 C285.732203,237.509365 287.47477,237.016649 287.689804,236.91265 C290.962444,235.412716 293.331505,233.341036 294.797056,230.697549 C296.361027,227.838112 296.56409,224.817869 295.40625,221.636729 C294.620572,219.478099 292.720472,217.905247 289.705891,216.918127 C286.69131,215.931007 283.877736,215.912911 281.265084,216.863839 Z M283.961563,247.107396 C284.879155,250.036162 285.749898,252.632357 286.573818,254.896058 L289.157917,261.995812 C294.804778,259.70747 299.159364,257.164437 302.221806,254.366639 C303.525816,253.192859 304.639456,251.699963 305.56276,249.887905 C306.46216,248.214021 306.803664,247.079843 306.587281,246.485336 C306.196127,245.410649 299.156282,243.501622 294.108848,244.307452 C289.061414,245.113282 285.368631,246.828318 283.961563,247.107396 Z" fill="#FFFFFF"></path>
            </g>
        </g>
    </g>
</svg>