<?xml version="1.0" encoding="UTF-8" standalone="no"?>
<svg width="500px" height="500px" viewBox="0 0 500 500" version="1.1" xmlns="http://www.w3.org/2000/svg" xmlns:xlink="http://www.w3.org/1999/xlink" xmlns:sketch="http://www.bohemiancoding.com/sketch/ns">
    <!-- Generator: Sketch 3.2.2 (9983) - http://www.bohemiancoding.com/sketch -->
    <title>Nursing </title>
    <desc>Created with Sketch.</desc>
    <defs></defs>
    <g id="Page-1" stroke="none" stroke-width="1" fill="none" fill-rule="evenodd" sketch:type="MSPage">
        <g id="Row-1" sketch:type="MSLayerGroup">
            <g id="Nursing-" sketch:type="MSShapeGroup">
                <ellipse id="Nursing" fill="#FA8997" cx="250" cy="250" rx="250" ry="250"></ellipse>
                <path d="M171.226512,207.994663 C171.226511,215 176.356424,229.677689 189.982863,234.29033 C212.342663,241.859272 248.276508,234.878374 253.740461,234.878374 C268.713778,234.878374 332.699123,243.508933 334.157516,207.994663 C335.615908,172.480392 311.196299,173.051394 310.835964,168.093231 C308.820768,140.3644 292.447442,109 253.740461,109 C215.033479,109 197.808988,141.147065 196.743754,168.093231 C196.519229,173.772814 171.226518,177.348036 171.226512,207.994663 Z M255.113134,221.410158 C268.743817,221.410158 281.612923,214.996921 288.071851,207.100584 C293.534564,200.422166 294.726073,190.387698 294.726073,190.387698 C294.726073,190.387698 277.486567,191.267162 263.256178,180.000976 C249.02579,168.73479 249.333332,152.244368 246.149557,153.796875 C245.918764,153.909416 239.951501,160.795254 232.419972,168.36621 C222.47135,178.366911 210.325897,189.77067 210.325897,190.387698 C210.325897,206.713869 229.954142,221.410158 255.113134,221.410158 Z M258.971863,244 C232.393154,242.868751 204.140406,244.72564 190.971861,257 C167.668696,278.720808 140.971859,335.000002 152.971859,357.000002 C166.329636,381.48926 221.576507,391.999995 253.97186,391.999995 C288.442321,391.999995 319.959364,381.032897 341.971863,352.999998 C354.473311,337.079414 349.796326,311.139753 338.971863,289.000002 C330.736655,272.156169 318.807072,257.290918 308.971863,252 C299.072278,246.674451 279.427053,244.870619 258.971863,244 Z M292.975079,334.616208 C304.579648,334.616208 313.987009,325.438046 313.987009,314.116209 C313.987009,302.794371 304.579648,293.616209 292.975079,293.616209 C281.37051,293.616209 271.963148,302.794371 271.963148,314.116209 C271.963148,325.438046 281.37051,334.616208 292.975079,334.616208 Z M232.971859,364.000002 C255.971859,369.000002 288.971859,360 290.971859,347 C291.517597,343.452701 282.052205,342.338284 275.971859,336 C270.582306,330.381814 268.564625,319.451327 267.971859,317 C266.907788,312.599634 266.463664,303.749299 263.971859,299 C262.64136,296.464112 260.060389,296 257.971859,296 C255.4757,296 252.961331,297.698679 251.971859,301 C250.582945,305.634041 251.258716,312.579345 250.971859,315 C250.435544,319.525724 248.971859,325 241.971859,325 C233.272459,325 224.792649,320.474916 214.971859,321 C203.906182,321.591643 194.971859,327.562774 194.971859,334 C194.971859,346.150264 209.971859,359.000002 232.971859,364.000002 Z" id="Nursing" fill="#FFFFFF"></path>
            </g>
        </g>
    </g>
</svg>