<?xml version="1.0" encoding="UTF-8" standalone="no"?>
<svg width="500px" height="500px" viewBox="0 0 500 500" version="1.1" xmlns="http://www.w3.org/2000/svg" xmlns:xlink="http://www.w3.org/1999/xlink" xmlns:sketch="http://www.bohemiancoding.com/sketch/ns">
    <!-- Generator: Sketch 3.3 (11970) - http://www.bohemiancoding.com/sketch -->
    <title>Owl Sleeping</title>
    <desc>Created with Sketch.</desc>
    <defs></defs>
    <g id="Page-1" stroke="none" stroke-width="1" fill="none" fill-rule="evenodd" sketch:type="MSPage">
        <g id="Row-2" sketch:type="MSLayerGroup" transform="translate(-2400.000000, 0.000000)">
            <g id="Owl-Sleeping" transform="translate(2400.000000, 0.000000)" sketch:type="MSShapeGroup">
                <path d="M250,500 C388.071187,500 500,388.071187 500,250 C500,111.928813 388.071187,0 250,0 C111.928813,0 0,111.928813 0,250 C0,388.071187 111.928813,500 250,500 Z" fill="#CAA4CC"></path>
                <path d="M141,236 C134.09804,258.965844 132.708781,286.252688 135,300 C140,330 153.676934,351.205456 158.405355,358 C163.82068,365.781597 176.769257,337.280546 177.369285,337.999823 C185.614362,347.883527 201.078709,358.80863 222.526237,365.273275 C223.244996,365.489921 213.310885,371.999793 214.309167,376.999789 C215.30745,381.999784 223.293709,375.999789 224.291991,376.999789 C225.290274,377.999788 225.290274,383.999782 228.285121,384.999782 C231.279968,385.999781 232.69992,381.154995 233.276533,379.999786 C234.274815,377.999788 239.266227,381.999784 242.261074,379.999786 C245.255922,377.999788 236.337204,369.265987 236.721669,369.330097 C243.131769,370.398993 249.121451,369.999795 256.736171,369.999795 C259.962216,369.999795 263.048414,369.891118 266.00121,369.686245 C266.931859,369.621674 261.727581,376.999789 263.225005,380.999785 C264.722428,384.999782 271.115622,377.334687 272.209546,378.999787 C273.46082,380.904393 276.762258,385.960944 279.197523,385.999781 C281.587688,386.037898 283.1198,381.095773 283.545724,378.999787 C283.938037,377.069202 291.176912,379.999786 292.175194,376.999789 C293.173477,373.999791 283.283311,367.150024 283.545727,367.088095 C307.449712,361.446867 312.019612,358.815916 322.123666,349.999813 C324.508909,347.918614 334.692167,337.160524 334.692167,337.160524 C334.692167,337.160524 346.012014,367.088089 353.000005,358 C356.514954,353.428706 376.393804,323 378.000005,275 C379.606206,227 350.071824,197.301282 350.075574,195.999945 C350.180694,159.524178 349.053246,142.134245 343.087598,139.999993 C329.111645,134.999997 325.296304,160.210771 319.128821,154.99998 C302.00532,140.532656 293.173478,132 262.725865,132 C236.691035,132 210.72828,138.199365 192.346956,156.999978 C185.818752,163.677094 176.374437,131.000001 164.395049,139.999993 C152.41566,148.999985 162.194723,193.4658 158.405354,200.99994 C155.346531,207.081587 145.636784,220.571388 141,236 Z M205.324627,256.999894 C226.288557,261.999889 245.255923,243.999905 245.255923,243.999905 C245.255923,243.999905 246.833508,252.38727 250.247335,253.999896 C255.361189,256.415583 261.228441,241.999907 261.228441,241.999907 C261.228441,241.999907 274.206113,258.999898 296.168325,258.99989 C318.130538,258.999882 338.096186,244.577691 338.096186,222.999921 C338.096186,202.352915 329.111645,173.999964 296.168325,173.999964 C263.225006,173.999963 255.238746,209.999934 255.238746,209.999934 C255.238746,209.999934 243.259357,168.935475 211.31432,173.999964 C179.369283,179.064453 171.383025,201.999941 171.383025,217.499928 C171.383025,237.54125 184.360697,251.999898 205.324627,256.999894 Z M295.153159,235.864048 C303.786062,234.929814 308.941886,224.653235 308.007651,221.850531 C307.073417,219.047827 304.270713,227.618095 295.153159,230.258641 C286.035605,232.899188 278.112145,213.44242 279.980614,221.850531 C281.849084,230.258642 286.520256,236.798283 295.153159,235.864048 Z M211.153159,237.864048 C219.786062,236.929814 224.941886,226.653235 224.007651,223.850531 C223.073417,221.047827 220.270713,229.618095 211.153159,232.258641 C202.035605,234.899188 194.112145,215.44242 195.980614,223.850531 C197.849084,232.258642 202.520256,238.798283 211.153159,237.864048 Z M251.5,350 C273,350 310,348 310,317 C310,286 287.674651,272 251.5,272 C215.325349,272 197,298.90861 197,321 C197,343.09139 230,350 251.5,350 Z M229,310 C231.858749,310 236,309 238,305 C238.649731,303.700538 231.001929,306.365792 227,303 C223.29258,299.881902 225.255214,292.581595 224,293 C221,294 220,298.439341 220,300.5 C220,305.19442 223.20101,310 229,310 Z M275.622169,306.394683 C273.600728,304.373242 271.379529,300.737829 272.793742,296.495188 C273.253171,295.116901 276.776365,302.409332 281.98613,302.859149 C286.812501,303.275863 290.586805,296.725975 291.178518,297.909402 C292.592732,300.737829 290.160751,304.584023 288.703645,306.04113 C285.384188,309.360586 279.722674,310.495188 275.622169,306.394683 Z M270.812993,334.759792 C268.162406,333.688886 264.697312,331.210362 264.341371,326.752413 C264.225738,325.30418 270.318235,330.640277 275.289606,329.018718 C279.895127,327.516493 280.810147,320.01255 281.817224,320.8707 C284.224169,322.921703 283.488346,327.412395 282.71641,329.323005 C280.957849,333.675596 276.189722,336.932132 270.812993,334.759792 Z M230.206931,326.469449 C229.908111,323.62636 230.469754,319.403267 234.238785,316.996109 C235.463213,316.214107 233.611972,324.098608 237.377642,327.726793 C240.866189,331.087974 247.921353,328.373002 247.636446,329.665074 C246.955509,332.753169 242.645016,334.211728 240.595645,334.427126 C235.926942,334.917826 230.813091,332.236671 230.206931,326.469449 Z M248.805475,314.367668 C246.749062,312.381813 244.464755,308.785719 245.804708,304.519043 C246.240013,303.132948 249.889941,310.36278 255.106763,310.721606 C259.939671,311.054025 263.599089,304.439263 264.211366,305.612183 C265.674727,308.415498 263.310242,312.303551 261.878787,313.785865 C258.617769,317.162748 252.976919,318.395985 248.805475,314.367668 Z" fill="#FFFFFF"></path>
            </g>
        </g>
    </g>
</svg>