<?xml version="1.0" encoding="UTF-8" standalone="no"?>
<svg width="500px" height="500px" viewBox="0 0 500 500" version="1.1" xmlns="http://www.w3.org/2000/svg" xmlns:xlink="http://www.w3.org/1999/xlink" xmlns:sketch="http://www.bohemiancoding.com/sketch/ns">
    <!-- Generator: Sketch 3.3 (11970) - http://www.bohemiancoding.com/sketch -->
    <title>Owl</title>
    <desc>Created with Sketch.</desc>
    <defs></defs>
    <g id="Page-1" stroke="none" stroke-width="1" fill="none" fill-rule="evenodd" sketch:type="MSPage">
        <g id="Row-1" sketch:type="MSLayerGroup" transform="translate(-2400.000000, 0.000000)">
            <g id="Owl" transform="translate(2400.000000, 0.000000)" sketch:type="MSShapeGroup">
                <path d="M250,500 C388.071187,500 500,388.071187 500,250 C500,111.928813 388.071187,0 250,0 C111.928813,0 0,111.928813 0,250 C0,388.071187 111.928813,500 250,500 Z" fill="#CAA4CC"></path>
                <path d="M118.474058,295.999858 C115.843811,312.14274 116.477493,329.999829 122.467188,330.999828 C128.456882,331.999827 135.444859,314.999842 137.441424,314.999842 C139.437989,314.999842 136.443142,332.999826 144.429401,334.999825 C152.41566,336.999823 152.137903,321.754257 155.410506,322.999835 C157.57092,323.822106 160.09703,330.999828 166.391612,332.999826 C172.686194,334.999825 171.921561,327.662386 172.686196,328.660341 C174.852831,331.4881 177.08841,334.265648 179.369285,336.999823 C187.614362,346.883527 201.078709,358.80863 222.526237,365.273275 C223.244996,365.489921 213.310885,371.999793 214.309167,376.999789 C215.30745,381.999784 223.293709,375.999789 224.291991,376.999789 C225.290274,377.999788 225.290274,383.999782 228.285121,384.999782 C231.279968,385.999781 232.69992,381.154995 233.276533,379.999786 C234.274815,377.999788 239.266227,381.999784 242.261074,379.999786 C245.255922,377.999788 236.337204,369.265987 236.721669,369.330097 C243.131769,370.398993 249.121451,369.999795 256.736171,369.999795 C259.962216,369.999795 263.048414,369.891118 266.00121,369.686245 C266.931859,369.621674 261.727581,376.999789 263.225005,380.999785 C264.722428,384.999782 271.115622,377.334687 272.209546,378.999787 C273.46082,380.904393 276.762258,385.960944 279.197523,385.999781 C281.587688,386.037898 283.1198,381.095773 283.545724,378.999787 C283.938037,377.069202 291.176912,379.999786 292.175194,376.999789 C293.173477,373.999791 283.283311,367.150024 283.545727,367.088095 C307.449712,361.446867 312.140842,357.999805 322.123666,348.999813 C325.837849,345.6513 332.848107,333.292039 336.099621,329.660337 C336.956349,328.703434 339.094468,336.999823 344.08588,329.660337 C349.077292,322.32085 347.971596,318.999839 349.077292,318.999839 C351.073857,318.999839 354.068704,335.999824 363.053246,334.999825 C372.037787,333.999826 369.04294,313.999843 369.04294,313.999843 C369.04294,313.999843 374.034352,327.999831 382.020611,329.660337 C390.00687,331.320842 394,323.393076 394,313.999843 C394,281.999871 361.678304,250.817324 361.064503,245.678491 C358.359638,223.032951 350.051336,204.410499 350.075574,195.999945 C350.180694,159.524178 349.053246,142.134245 343.087598,139.999993 C329.111645,134.999997 325.296304,160.210771 319.128821,154.99998 C302.00532,140.532656 293.173478,132 262.725865,132 C236.691035,132 210.72828,138.199365 192.346956,156.999978 C185.818752,163.677094 176.374437,131.000001 164.395049,139.999993 C152.41566,148.999985 162.194723,193.4658 158.405354,200.99994 C150.793403,216.134258 145.437591,234.204539 144.429401,250.999897 C144.357336,252.200417 134.424114,259.654037 128.456882,269.999881 C125.53086,275.072947 120.071049,286.198484 118.474058,295.999858 Z M205.324627,256.999894 C226.288557,261.999889 245.255923,243.999905 245.255923,243.999905 C245.255923,243.999905 246.833508,252.38727 250.247335,253.999896 C255.361189,256.415583 261.228441,241.999907 261.228441,241.999907 C261.228441,241.999907 274.206113,258.999898 296.168325,258.99989 C318.130538,258.999882 338.096186,244.577691 338.096186,222.999921 C338.096186,202.352915 329.111645,173.999964 296.168325,173.999964 C263.225006,173.999963 255.238746,209.999934 255.238746,209.999934 C255.238746,209.999934 243.259357,168.935475 211.31432,173.999964 C179.369283,179.064453 171.383025,201.999941 171.383025,217.499928 C171.383025,237.54125 184.360697,251.999898 205.324627,256.999894 Z M211.5,243.999903 C220.675635,243.999903 230.508192,239.557717 235,232 C237.402462,227.957724 238,222.600025 238,217.499952 C238,202.864432 227.583261,190 213.5,190 C207.66192,190 200.282064,192.038828 195.983766,195.46871 C189.913235,200.312767 186,208.931446 186,217.499952 C186,232.135471 197.416739,243.999903 211.5,243.999903 Z M295.5,243.999903 C304.675635,243.999903 314.508192,239.557717 319,232 C321.402462,227.957724 322,222.600025 322,217.499952 C322,202.864432 311.583261,190 297.5,190 C291.66192,190 284.282064,192.038828 279.983766,195.46871 C273.913235,200.312767 270,208.931446 270,217.499952 C270,232.135471 281.416739,243.999903 295.5,243.999903 Z M207.5,220 C211.642136,220 215,216.642136 215,212.5 C215,208.357864 211.642136,205 207.5,205 C203.357864,205 200,208.357864 200,212.5 C200,216.642136 203.357864,220 207.5,220 Z M289.5,219 C293.642136,219 297,215.642136 297,211.5 C297,207.357864 293.642136,204 289.5,204 C285.357864,204 282,207.357864 282,211.5 C282,215.642136 285.357864,219 289.5,219 Z M251.5,350 C273,350 310,348 310,317 C310,286 287.674651,272 251.5,272 C215.325349,272 197,298.90861 197,321 C197,343.09139 230,350 251.5,350 Z M229,310 C231.858749,310 236,309 238,305 C238.649731,303.700538 231.001929,306.365792 227,303 C223.29258,299.881902 225.255214,292.581595 224,293 C221,294 220,298.439341 220,300.5 C220,305.19442 223.20101,310 229,310 Z M275.622169,306.394683 C273.600728,304.373242 271.379529,300.737829 272.793742,296.495188 C273.253171,295.116901 276.776365,302.409332 281.98613,302.859149 C286.812501,303.275863 290.586805,296.725975 291.178518,297.909402 C292.592732,300.737829 290.160751,304.584023 288.703645,306.04113 C285.384188,309.360586 279.722674,310.495188 275.622169,306.394683 Z M270.812993,334.759792 C268.162406,333.688886 264.697312,331.210362 264.341371,326.752413 C264.225738,325.30418 270.318235,330.640277 275.289606,329.018718 C279.895127,327.516493 280.810147,320.01255 281.817224,320.8707 C284.224169,322.921703 283.488346,327.412395 282.71641,329.323005 C280.957849,333.675596 276.189722,336.932132 270.812993,334.759792 Z M230.206931,326.469449 C229.908111,323.62636 230.469754,319.403267 234.238785,316.996109 C235.463213,316.214107 233.611972,324.098608 237.377642,327.726793 C240.866189,331.087974 247.921353,328.373002 247.636446,329.665074 C246.955509,332.753169 242.645016,334.211728 240.595645,334.427126 C235.926942,334.917826 230.813091,332.236671 230.206931,326.469449 Z M248.805475,314.367668 C246.749062,312.381813 244.464755,308.785719 245.804708,304.519043 C246.240013,303.132948 249.889941,310.36278 255.106763,310.721606 C259.939671,311.054025 263.599089,304.439263 264.211366,305.612183 C265.674727,308.415498 263.310242,312.303551 261.878787,313.785865 C258.617769,317.162748 252.976919,318.395985 248.805475,314.367668 Z" fill="#FFFFFF"></path>
            </g>
        </g>
    </g>
</svg>