<?xml version="1.0" encoding="UTF-8" standalone="no"?>
<svg width="500px" height="500px" viewBox="0 0 500 500" version="1.1" xmlns="http://www.w3.org/2000/svg" xmlns:xlink="http://www.w3.org/1999/xlink" xmlns:sketch="http://www.bohemiancoding.com/sketch/ns">
    <!-- Generator: Sketch 3.2.2 (9983) - http://www.bohemiancoding.com/sketch -->
    <title>Pacifier</title>
    <desc>Created with Sketch.</desc>
    <defs></defs>
    <g id="Page-1" stroke="none" stroke-width="1" fill="none" fill-rule="evenodd" sketch:type="MSPage">
        <g id="Row-2" sketch:type="MSLayerGroup" transform="translate(-600.000000, 0.000000)">
            <g id="Pacifier" transform="translate(600.000000, 0.000000)" sketch:type="MSShapeGroup">
                <path d="M250,500 C388.071187,500 500,388.071187 500,250 C500,111.928813 388.071187,0 250,0 C111.928813,0 0,111.928813 0,250 C0,388.071187 111.928813,500 250,500 Z" fill="#6DB67F"></path>
                <path d="M283.296948,251.19828 C291.916916,258.295689 304.265933,268.973284 312.465405,279.714327 C316.642015,285.18555 331.041707,305.874743 321.753556,316.80955 C312.465405,327.744358 290.009268,328.198799 289.761036,329.174625 C280.91098,363.965168 255.000002,391.00001 206.167677,391 C170.58072,390.999992 135.990536,358.456571 137.022553,316.809553 C137.799762,285.445289 149.459489,262.603188 172.111124,254.984181 C173.907494,254.379962 152.502805,224.071493 174.072351,213.767264 C187.484497,207.359998 215.276886,214.181 239.350572,224.37084 C240.473414,223.811982 241.4586,223.236441 242.26027,222.638158 C249.817531,216.998206 261.867575,208.177632 260.835612,191.651316 C259.803648,175.125 251.547937,163.763158 265.995429,137.94079 C280.442921,112.118422 300.270262,110.211648 306.24201,110.024862 C324.950712,109.439688 341.358347,119.267555 350.616439,130.710528 C357.699854,139.465608 363,149.290098 363,160.664473 C363,174.741019 346.488574,205.078948 313.465752,215.407895 C292.601903,221.933733 284.803143,236.452903 283.296948,251.19828 L283.296948,251.19828 Z M284.030998,268.014447 C295.595623,279.332873 301.327272,289.548892 297.961919,294.934583 C292.375164,303.87526 263.833888,296.118551 234.213195,277.609487 C204.592501,259.100424 190.236155,237.805064 195.82291,228.864387 C199.354008,223.213449 210.006924,223.850535 224.84741,229.757861 C217.514269,232.232676 210.620894,234.800522 209.237441,238.131579 C204.668959,249.131502 234.76727,269.925511 237.100454,271.184211 C239.922883,272.706847 268.059359,291.842113 283.538807,287.710534 C288.957675,286.264198 285.62044,276.363642 284.030998,268.014447 L284.030998,268.014447 Z M210.295744,366.269851 C226.509872,368.004396 246.944547,357.287717 257.768516,345.661393 C266.234791,336.567534 267.056667,326.083358 267.056667,326.083358 C267.056667,326.083358 248.480365,319.900821 225.775996,306.505324 C203.071627,293.109826 190.687425,276.62306 190.687425,276.62306 C190.687425,276.62306 173.143141,286.927289 166.95104,299.292364 C160.758938,311.657438 161.854913,324.309361 163.854989,332.265896 C166.909424,344.416793 181.399274,363.178582 210.295744,366.269851 Z M338.232877,186.466628 C343.647285,186.466628 353.712328,176.136659 353.712328,164.257196 C353.712328,152.377732 350.874526,142.047764 345.460118,142.047764 C340.04571,142.047764 345.460118,147.982502 345.460118,161.674704 C345.460118,175.366905 332.818469,186.466628 338.232877,186.466628 Z" fill="#FFFFFF"></path>
            </g>
        </g>
    </g>
</svg>