<?xml version="1.0" encoding="UTF-8" standalone="no"?>
<svg width="500px" height="500px" viewBox="0 0 500 500" version="1.1" xmlns="http://www.w3.org/2000/svg" xmlns:xlink="http://www.w3.org/1999/xlink" xmlns:sketch="http://www.bohemiancoding.com/sketch/ns">
    <!-- Generator: Sketch 3.3 (11970) - http://www.bohemiancoding.com/sketch -->
    <title>Pail and Shovel</title>
    <desc>Created with Sketch.</desc>
    <defs></defs>
    <g id="Page-1" stroke="none" stroke-width="1" fill="none" fill-rule="evenodd" sketch:type="MSPage">
        <g id="Row-4" sketch:type="MSLayerGroup" transform="translate(0.000000, 0.250000)">
            <g id="Pail-and-Shovel" sketch:type="MSShapeGroup">
                <ellipse fill="#FA8997" cx="250" cy="249.500998" rx="250" ry="249.500998"></ellipse>
                <path d="M249.818922,207.183085 C254.902757,209.809734 258.37897,212.790636 259.654519,216.039348 C262.941773,224.411697 254.409209,334.101739 227.133594,352.551372 C207.436632,365.874691 165.238939,361.266529 146.355823,352.551366 C127.472707,343.836203 114.883964,279.772141 109.638654,230.666547 C108.624238,221.169776 113.238998,213.846578 121.415899,208.395661 C121.690423,203.432911 122.255781,198.908738 123.250125,195.491652 C129.823095,172.9035 138.583976,154.395458 162.4154,146.206104 C197.239694,134.239197 224.894907,149.250633 233.286876,155.608675 C250.288077,168.489366 250.310152,197.591465 249.818922,207.183085 L249.818922,207.183085 Z M232.489873,200.982163 C206.242513,194.292114 166.917079,192.88637 139.836842,200.45609 C142.890893,189.99344 150.187749,171.041519 164.625583,162.446908 C176.529231,155.360857 203.826847,154.1918 220.412878,168.430361 C231.943665,178.329162 233.027368,192.63218 232.489871,200.982163 L232.489873,200.982163 Z M135.522697,225.337712 C144.855464,228.906667 162.308172,231.674393 183.98256,231.674393 C244.993357,231.674392 281.085071,209.744184 188.248366,209.744184 C162.726363,209.744184 146.303598,211.401605 137.173583,213.805155 C136.726853,216.976101 136.143197,221.079808 135.522697,225.337712 L135.522697,225.337712 Z M134.691092,230.979182 C139.560889,233.130323 142.957688,237.987591 142.957688,243.635001 C142.957688,251.277505 136.736941,257.472978 129.063261,257.472978 C121.389581,257.472978 115.168835,251.277505 115.168835,243.635001 C115.168835,238.683629 117.779928,234.339633 121.705565,231.894294 C121.845455,234.160568 122.003457,236.292758 122.164443,238.217661 C121.03568,239.652575 120.356868,241.496953 120.356868,243.508904 C120.356868,248.082664 123.864881,251.79043 128.192234,251.79043 C132.519588,251.79043 136.027601,248.082664 136.027601,243.508904 C136.027601,241.194623 135.129455,239.102059 133.681474,237.599357 C134.005218,235.53121 134.347097,233.282943 134.691092,230.979182 L134.691092,230.979182 Z M194.910015,306.695944 C192.111553,307.553511 181.563506,319.559444 176.181848,316.12918 C170.800191,312.698916 174.029185,297.477099 174.029185,297.477099 C174.029185,297.477099 160.252141,289.330214 161.113207,284.399204 C161.974272,279.468194 174.244451,279.682585 178.98031,275.609143 C183.716169,271.535701 181.884911,264.068219 188.452027,261.888073 C193.618417,260.172939 199.000074,271.964484 201.58327,273.250834 C204.166466,274.537185 218.589311,271.106918 220.526708,274.322793 C223.569397,279.373339 211.700786,293.189266 211.700786,293.189266 C211.700786,293.189266 218.374041,307.33912 214.283982,311.198171 C210.193922,315.057222 197.708477,305.838377 194.910015,306.695944 Z M321.550608,191.416599 C320.670367,191.80408 335.914058,240.827498 337.466568,249.333035 C337.470935,249.356957 342.58634,250.108719 346.368245,252.929546 C350.086137,255.702628 352.471659,260.545789 352.471659,260.545789 C352.471659,260.545789 387.735612,252.641297 388.779645,276.373603 C389.562118,294.160303 394.53543,330.84954 383.078546,349.234176 C374.339323,363.257835 318.76356,372.410023 301.543364,358.00605 C283.671414,343.056912 273.356276,305.39965 271.818759,296.466921 C268.799793,278.927222 295.024089,273.571422 295.026827,271.808115 C295.027839,271.156021 294.898191,269.195656 296.26449,265.166645 C297.859936,260.461913 302.437033,256.970381 302.437033,256.970381 C302.437033,256.970381 291.291105,196.008539 290.55807,196.006304 C284.948676,195.989196 262.875852,184.956952 259.145427,180.066524 C241.525807,156.967952 268.865505,143.782097 287.850266,138.033568 C304.870294,132.879953 337.610435,127.820523 337.594026,151.707747 C337.581906,169.351205 324.188872,190.255238 321.550608,191.416599 Z M293.764562,184.180293 C287.99739,184.077752 266.663664,180.304501 274.775748,166.29345 C278.630808,159.635057 288.394495,163.41544 297.361753,160.357331 C307.569373,156.876221 315.234167,150.525231 317.610905,150.328709 C325.783823,149.652925 320.106655,166.307526 318.514142,170.321765 C315.182466,178.719903 301.714148,184.321638 293.764562,184.180293 Z M336.85696,307.899619 C349.235614,304.328736 346.686812,277.416468 346.548969,270.98236 C346.257522,257.378497 333.522138,256.704885 322.078217,258.259877 C312.304339,259.587946 302.520961,264.200456 307.36454,275.082856 C312.208119,285.965256 324.478306,311.470503 336.85696,307.899619 Z" fill="#FFFFFF"></path>
            </g>
        </g>
    </g>
</svg>