<?xml version="1.0" encoding="UTF-8" standalone="no"?>
<svg width="500px" height="501px" viewBox="0 0 500 501" version="1.1" xmlns="http://www.w3.org/2000/svg" xmlns:xlink="http://www.w3.org/1999/xlink" xmlns:sketch="http://www.bohemiancoding.com/sketch/ns">
    <!-- Generator: Sketch 3.3 (11970) - http://www.bohemiancoding.com/sketch -->
    <title>Paint Kit</title>
    <desc>Created with Sketch.</desc>
    <defs></defs>
    <g id="Page-1" stroke="none" stroke-width="1" fill="none" fill-rule="evenodd" sketch:type="MSPage">
        <g id="Row-1" sketch:type="MSLayerGroup" transform="translate(-679.000000, -78.750000)">
            <g id="Paint-Kit" transform="translate(679.000000, 79.000000)" sketch:type="MSShapeGroup">
                <path d="M250,500 C388.071187,500 500,388.071187 500,250 C500,111.928813 388.071187,0 250,0 C111.928813,0 0,111.928813 0,250 C0,388.071187 111.928813,500 250,500 Z" fill="#6DB67F"></path>
                <path d="M236.96597,322.426613 C236.96597,261.964393 236.96597,188.380221 236.96597,188.380221 C236.96597,188.380221 203.077731,117.490478 198.732978,117.490478 C194.388225,117.490478 160.500137,188.380221 160.500137,188.380221 C160.500137,188.380221 160.593595,263.541469 160.597477,322.298383 C166.576767,322.864347 185.743067,324.593228 196.752664,324.593228 C210.017855,324.593228 229.187011,323.08777 236.96597,322.426613 Z M236.96597,340.034565 C236.96597,360.101275 236.96597,377.468682 236.96597,388.350367 C236.96597,402.89365 160.381931,401.07574 160.500137,388.350367 C160.561556,381.738267 160.588572,363.143641 160.595636,339.797232 C166.38323,340.948333 184.599171,344.367902 196.752664,344.367902 C210.013863,344.367902 229.186134,341.356824 236.96597,340.034565 Z M207.267907,142.623069 C216.578441,157.682335 229.014527,182.386995 229.014527,185.714203 C229.014527,187.89808 224.800916,180.689613 217.849456,180.689613 C210.897997,180.689613 210.052042,185.709986 207.422374,185.709986 C205.114222,185.709986 203.946537,180.689613 196.126152,180.689613 C188.305766,180.689613 186.567888,185.714205 186.567888,185.714205 C186.567888,185.714205 184.830023,180.689613 177.878563,180.689613 C170.927104,180.689613 168.451446,185.714205 168.451446,185.714205 C168.451446,185.714205 181.195163,158.614058 190.07407,142.551533 C193.035257,143.197439 203.719698,143.218252 207.267907,142.623069 L207.267907,142.623069 Z M278.399217,194.56455 C272.831978,210.646711 263.032351,239.256176 263.034166,241.371301 C263.034526,241.790525 263.034889,242.21173 263.035255,242.634863 L263.035255,242.634863 C272.069489,243.627179 290.677491,245.518505 301.267058,245.518505 C311.147714,245.518505 327.537192,243.928564 337.111273,242.899376 C337.110706,242.386464 337.11042,241.87707 337.11042,241.371301 C337.11042,239.963224 325.989722,210.797685 319.74198,194.523244 C313.956159,195.581872 305.174927,196.99512 299.529193,196.99512 C294.015252,196.99512 284.711693,195.618241 278.399217,194.56455 Z M281.23184,185.322455 C273.058791,179.855793 266.837908,170.435873 269.505461,156.638301 C274.091449,132.917866 290.14241,127.98095 290.142409,117.823044 C290.142408,104.884625 280.970432,96.2590115 297.021392,104.884625 C313.042746,113.494328 332.249703,137.339252 331.416307,154.481897 C331.416307,163.265806 326.834816,177.019219 316.957955,184.945968 C313.385344,185.884378 308.351531,186.567931 301.267059,186.567931 C288.767374,186.567931 284.247391,186.077837 281.23184,185.322455 Z M263.047573,256.521089 C263.093524,307.600621 263.15716,375.855704 263.034166,388.59853 C262.915961,400.845328 339.5,402.59487 339.5,388.59853 C339.5,366.589117 337.579267,302.845594 337.181853,256.593038 C328.838198,257.598556 312.414643,259.421424 303.004923,259.421424 C291.737928,259.421424 272.322,257.508716 263.047573,256.521089 L263.047573,256.521089 Z M290.975804,133.620327 C291.362784,135.47817 290.309924,142.271118 288.68281,148.650623 C287.43368,153.548148 285.336031,158.399773 286.389816,159.386548 C288.68281,161.533734 295.561794,137.914697 297.854788,140.061883 C298.937007,141.075286 300.084427,147.738099 300.147783,155.092178 C300.218665,163.319826 299.180325,172.26966 300.147782,172.269659 C301.340788,172.269659 307.792582,161.32847 309.31976,150.797808 C310.727867,141.088201 307.165114,131.734379 309.31976,131.473142 C312.104339,131.13553 315.784089,139.66829 318.491738,148.650623 C321.294438,157.94828 322.268466,167.343702 323.077725,165.828104 C325.370721,161.533734 327.663716,155.092179 325.370721,144.356253 C324.439231,139.994967 318.467405,127.658145 311.612754,120.737216 C303.442427,112.487891 294.021476,107.854106 293.268799,107.854106 C291.647704,107.854106 295.561793,118.590031 293.268799,122.884401 C290.975804,127.178772 276.615145,141.644699 277.217838,142.209068 C277.557061,142.526719 290.790652,132.731433 290.975804,133.620327 Z" fill="#FFFFFF"></path>
            </g>
        </g>
    </g>
</svg>