<?xml version="1.0" encoding="UTF-8" standalone="no"?>
<svg width="500px" height="500px" viewBox="0 0 500 500" version="1.1" xmlns="http://www.w3.org/2000/svg" xmlns:xlink="http://www.w3.org/1999/xlink" xmlns:sketch="http://www.bohemiancoding.com/sketch/ns">
    <!-- Generator: Sketch 3.3 (11970) - http://www.bohemiancoding.com/sketch -->
    <title>Panda</title>
    <desc>Created with Sketch.</desc>
    <defs></defs>
    <g id="Page-1" stroke="none" stroke-width="1" fill="none" fill-rule="evenodd" sketch:type="MSPage">
        <g id="Row-2" sketch:type="MSLayerGroup" transform="translate(-2400.000000, 0.250000)">
            <g id="Panda" transform="translate(2400.000000, 0.000000)" sketch:type="MSShapeGroup">
                <path d="M250,499.001996 C388.071187,499.001996 500,387.296594 500,249.500998 C500,111.705402 388.071187,0 250,0 C111.928813,0 0,111.705402 0,249.500998 C0,387.296594 111.928813,499.001996 250,499.001996 Z" fill="#CAA4CC"></path>
                <path d="M209.890685,218.243922 C208.998151,218.700365 208.027921,218.960579 206.949213,218.960579 C171.45266,218.960579 188.529686,175.903779 208.995827,164.889249 C220.340921,158.783512 238.671732,157.880004 239.695039,171.898496 C240.081088,177.187058 239.602569,183.183971 237.494674,188.522601 C242.316432,186.536744 247.166137,185.571258 251.495426,186.052093 C256.79439,186.640625 261.995897,188.659897 266.642892,191.67404 C265.576036,185.624688 266.58522,179.196789 268.355058,173.79728 C272.730809,160.447527 290.17468,165.727496 299.629649,174.374535 C316.686072,189.973483 322.728945,235.833876 288.526838,227.306332 C286.640483,226.836011 285.305663,225.620275 284.252588,223.985892 C282.589774,239.079122 266.550291,246.287548 247.009148,246.287548 C226.361628,246.287548 209.623505,238.239763 209.623505,221.346303 C209.623505,220.322725 209.715004,219.286704 209.890685,218.243922 L209.890685,218.243922 Z M317.716898,251.83115 C341.397623,265.886663 350.378276,293.721371 350.378276,315.588967 C350.378276,316.123426 350.705179,326.561948 349.380449,327.778638 C349.154074,327.986551 369.337054,336.355016 352.37394,360.596983 C346.190498,369.433733 336.408655,384.976318 313.458559,388.726986 C290.508462,392.477654 281.758359,371.97845 281.364074,372.043472 C270.816081,373.782944 259.462667,374.661981 247.601762,374.661981 C237.962825,374.661981 228.715493,374.114356 220.010173,372.997429 C219.685951,372.95583 211.679871,389.664653 187.731945,388.726986 C163.784018,387.789319 140.83392,357.783982 140.83392,342.78131 C140.83392,327.778638 150.258306,327.672269 150.051862,326.771989 C149.004404,322.204152 148.573625,317.39818 148.816562,312.375816 C150.086184,286.128258 160.722703,258.598323 186.862507,247.500011 C184.985527,246.079337 183.159366,244.609484 181.366537,243.093577 C167.89455,231.702482 161.494791,223.953039 160.900395,214.070651 C159.877088,197.057212 170.313307,189.951104 174.203388,180.043773 C176.361777,174.546745 178.421709,169.109344 180.975793,163.867262 C181.218313,163.369507 169.086852,166.032704 160.900395,154.023217 C152.713939,142.013731 155.842656,132.75407 161.923702,123.146989 C167.856526,113.774077 177.273308,106.986062 193.646221,110.989224 C210.019135,114.992386 210.65513,132.398677 211.357545,132.012214 C223.450563,125.35873 237.141792,122.408897 252.643679,122.038287 C252.979088,122.030269 254.825969,119.018885 257.091258,116.993967 C259.32213,114.999815 261.972604,113.991596 262.207793,113.991596 C262.879932,113.991596 259.625862,119.963094 260.161179,119.996339 C260.341247,120.007522 261.099809,117.823659 263.160874,115.993177 C265.343857,114.054418 268.844591,112.476035 269.370942,112.990805 C270.39425,113.991596 268.155654,116.721565 267.676551,118.995549 C267.220675,121.159288 266.776325,122.969645 267.676554,123.146989 C280.142745,125.602818 291.363069,131.722749 300.4075,138.843011 C300.802404,139.153901 303.981804,125.922149 313.373154,120.99713 C322.963174,115.967924 338.859436,119.368169 348.165594,132.012214 C359.466109,147.365942 353.169577,161.471104 343.049059,169.035076 C336.673412,173.800169 325.936117,175.055794 326.069348,175.265217 C327.30483,177.207241 327.881807,188.325042 328.722747,193.05405 C330.769361,204.563141 337.93251,207.065117 337.93251,220.075395 C337.93251,235.293165 329.663536,244.8937 317.716908,251.831156 L317.716898,251.83115 Z M220.660343,323.617087 C228.642985,339.146546 224.631194,359.764154 225.051779,359.944818 C230.850301,362.435601 237.940339,364.046121 246.60393,364.347648 C258.941942,364.77706 267.208549,364.162415 274.543178,359.944816 C276.423393,358.863644 270.551857,341.02188 279.532329,323.617087 C288.512802,306.212294 300.486765,310.900629 300.486765,310.900629 C300.486765,310.900629 302.343066,275.475453 250.099501,275.475453 C198.61886,275.475453 199.705907,309.962962 199.705907,309.962962 C199.705907,309.962962 212.6777,308.087628 220.660343,323.617087 Z M162.051652,357.666371 C166.548186,356.291642 168.639204,350.093833 166.722072,343.823177 C164.80494,337.55252 159.605636,333.583586 155.109103,334.958314 C150.612569,336.333042 148.521551,342.530851 150.438683,348.801508 C152.355815,355.072165 157.555119,359.041099 162.051652,357.666371 Z M180.44805,338.079022 C185.011626,336.683796 187.275536,330.857108 185.504634,325.064749 C183.733732,319.27239 178.598623,315.707808 174.035047,317.103034 C169.47147,318.498259 167.207561,324.324947 168.978463,330.117306 C170.749364,335.909666 175.884474,339.474247 180.44805,338.079022 Z M206.583781,341.580798 C211.147357,340.185572 213.364555,334.206096 211.536031,328.225264 C209.707507,322.244432 204.525686,318.527063 199.96211,319.922288 C195.398534,321.317514 193.181336,327.29699 195.00986,333.277822 C196.838384,339.258654 202.020205,342.976023 206.583781,341.580798 Z M292.432352,344.536292 C287.935819,343.161564 285.975244,336.537094 288.053286,329.740125 C290.131328,322.943155 295.461075,318.54756 299.957608,319.922288 C304.454142,321.297017 306.414717,327.921487 304.336675,334.718456 C302.258633,341.515426 296.928886,345.911021 292.432352,344.536292 Z M319.435236,340.777286 C314.87166,339.382061 312.856737,332.740975 314.934779,325.944005 C317.012821,319.147036 322.396916,314.768057 326.960492,316.163282 C331.524069,317.558507 333.538992,324.199593 331.46095,330.996563 C329.382908,337.793532 323.998812,342.172511 319.435236,340.777286 Z M337.380345,359.572318 C332.816769,358.177093 330.801846,351.536007 332.879888,344.739037 C334.95793,337.942068 340.342025,333.563089 344.905602,334.958314 C349.469178,336.353539 351.484101,342.994625 349.406059,349.791595 C347.328017,356.588564 341.943922,360.967543 337.380345,359.572318 Z M194.527275,378.85689 C207.398838,376.120954 212.248777,364.579902 210.576198,356.711035 C208.903619,348.842168 198.656576,344.353063 187.688788,346.684338 C176.721,349.015613 169.185744,357.284463 170.858324,365.15333 C172.530903,373.022197 181.655712,381.592825 194.527275,378.85689 Z M305.20295,378.85689 C292.331387,376.120954 287.481447,364.579902 289.154027,356.711035 C290.826606,348.842168 301.073649,344.353063 312.041437,346.684338 C323.009225,349.015613 330.544481,357.284463 328.871901,365.15333 C327.199322,373.022197 318.074513,381.592825 305.20295,378.85689 Z M182.389844,157.880004 C184.060748,157.880004 186.553929,150.781487 191.599607,144.862832 C196.99406,138.535058 202.855985,135.347373 202.855985,134.849622 C202.855985,126.835162 183.41315,113.821883 173.18008,125.837734 C162.94701,137.853585 173.629912,157.880004 182.389844,157.880004 Z M326.586651,166.891892 C324.915746,166.891892 322.422565,159.793375 317.376887,153.87472 C311.982434,147.546947 306.12051,144.359261 306.12051,143.86151 C306.12051,135.84705 325.563344,122.833771 335.796414,134.849622 C346.029485,146.865473 335.346583,166.891892 326.586651,166.891892 Z M211.136061,202.176044 C216.450382,204.005912 222.756003,199.688116 225.220059,192.531978 C227.684115,185.37584 225.373518,178.091243 220.059197,176.261375 C214.744876,174.431508 208.439255,178.749303 205.975199,185.905441 C203.511143,193.061579 205.82174,200.346176 211.136061,202.176044 Z M290.387399,207.812299 C295.747487,206.173556 298.298861,198.977717 296.086051,191.739944 C293.873242,184.502171 287.734195,179.963261 282.374107,181.602004 C277.014019,183.240747 274.462645,190.436586 276.675454,197.674359 C278.888264,204.912132 285.02731,209.451042 290.387399,207.812299 Z M219.47169,191.350832 C221.527875,191.530725 223.361224,189.773661 223.56659,187.426319 C223.771956,185.078977 222.27157,183.030249 220.215385,182.850356 C218.1592,182.670463 216.325851,184.427527 216.120485,186.774869 C215.915119,189.122211 217.415505,191.170939 219.47169,191.350832 Z M282.64671,195.914263 C284.518746,195.617762 285.728823,193.435863 285.349491,191.040856 C284.970159,188.645849 283.145064,186.944674 281.273028,187.241175 C279.400991,187.537677 278.190915,189.719575 278.570247,192.114583 C278.949579,194.50959 280.774673,196.210765 282.64671,195.914263 Z M248.275937,203.959372 C240.548763,203.959372 234.59884,208.076145 233.046969,209.270967 C227.225021,213.753423 230.083258,220.030943 247.77843,220.670394 C247.808058,220.671465 247.484603,228.01905 246.68319,228.80219 C245.818028,229.647625 243.587903,230.16753 241.904944,230.37338 C235.533951,231.152644 232.695136,228.096622 231.55208,227.256325 C229.048746,225.416043 228.048743,222.592333 226.773835,221.801478 C226.062984,221.360522 224.251309,221.392291 225.512572,223.155412 C226.773835,224.918534 230.445065,230.152935 235.53395,231.931908 C240.784047,233.767237 248.201675,230.366384 248.275938,230.37338 C248.443995,230.389212 253.850556,235.828227 261.814298,234.269699 C267.690097,233.119788 271.543726,228.084904 272.253633,226.501719 C272.963539,224.918534 271.37079,224.918534 270.574416,226.501718 C269.778042,228.084902 266.330702,232.711171 259.425177,232.711171 C253.648765,232.711171 250.95724,230.890006 249.780894,228.80219 C249.293593,227.937314 249.380633,220.942525 249.437766,220.942525 C264.125418,220.942525 265.263073,216.353094 261.814297,211.926765 C260.128554,209.7632 256.003112,203.959372 248.275937,203.959372 Z M252.276248,210.826817 C255.99693,213.330781 259.259984,210.314181 255.447668,208.144866 C251.635353,205.975551 248.555566,208.322854 252.276248,210.826817 Z" fill="#FFFFFF"></path>
            </g>
        </g>
    </g>
</svg>