<?xml version="1.0" encoding="UTF-8" standalone="no"?>
<svg width="500px" height="500px" viewBox="0 0 500 500" version="1.1" xmlns="http://www.w3.org/2000/svg" xmlns:xlink="http://www.w3.org/1999/xlink" xmlns:sketch="http://www.bohemiancoding.com/sketch/ns">
    <!-- Generator: Sketch 3.3 (11970) - http://www.bohemiancoding.com/sketch -->
    <title>Penguin</title>
    <desc>Created with Sketch.</desc>
    <defs></defs>
    <g id="Page-1" stroke="none" stroke-width="1" fill="none" fill-rule="evenodd" sketch:type="MSPage">
        <g id="Row-4" sketch:type="MSLayerGroup" transform="translate(-600.000000, 0.000000)">
            <g id="Penguin" transform="translate(600.000000, 0.000000)" sketch:type="MSShapeGroup">
                <path d="M250,500 C388.071187,500 500,388.071187 500,250 C500,111.928813 388.071187,0 250,0 C111.928813,0 0,111.928813 0,250 C0,388.071187 111.928813,500 250,500 Z" fill="#6DB67F"></path>
                <path d="M130.905243,243.006646 C122.605346,273.652335 121.600513,306.297941 128.909038,321.856505 C129.09589,322.254279 135.895754,331.837499 144.878674,329.8413 C153.861593,327.845101 156.796848,316.832101 156.940329,316.987529 C163.13263,323.695419 170.083407,329.776265 177.511229,335.155072 C177.920334,335.451323 172.651048,339.581725 169.831228,344.812791 C164.694251,354.342428 160.734264,367.737652 164.840717,369.765275 C176.77161,375.656335 218.842622,378.949732 239.69838,375.753872 C244.942411,374.950295 241.809835,361.831412 244.743269,362.156433 C248.463093,362.568586 252.114475,362.77858 255.668014,362.77858 C262.800082,362.77858 270.198038,361.841088 277.65893,360.054266 C278.024972,359.966602 275.794423,371.369625 280.620561,372.759574 C287.25803,374.671194 314.495686,377.355048 334.518078,375.753872 C348.330573,374.649297 357.766849,370.003726 358.47253,367.769077 C361.228897,359.040607 353.711979,346.902841 347.493406,337.826095 C343.767679,332.387954 337.000927,327.339793 337.614201,326.76006 C341.583955,323.007417 345.345933,319.008927 348.847072,314.787641 C349.995449,313.403054 350.48772,326.847002 359.470639,330.8394 C368.453559,334.831797 374.733163,330.515238 378.434581,323.852704 C388.415602,305.886915 385.869239,263.44672 378.434581,243.006646 C366.478445,210.135696 336.493875,182.973649 332.521881,174.137793 C316.120996,137.653385 285.611079,113.253729 244.68889,116.248027 C203.766701,119.242325 192.39089,136.495293 175.81984,172.141594 C171.848004,180.685487 143.880571,195.097876 130.905243,243.006646 Z M232.711667,191.10548 C232.571593,189.977073 235.549633,186.510116 239.698383,184.118784 C243.036385,182.194765 247.716839,182.278527 247.6832,181.461788 C247.621473,179.963085 255.973138,142 230.000001,142 C206.000001,142 212.335955,171.23671 210.753416,174.13779 C206.756282,181.465259 196.49868,188.797762 192.710598,192.150671 C179.570677,203.781084 168.914865,220.14933 166.836921,243.006649 C160.848308,308.881208 224.950499,335.828516 255.973139,335.829891 C305.584434,335.832092 345.497209,298.900214 345.497209,254.983841 C345.497209,232.263616 332.363771,210.608261 315.000001,191.10548 C310.754434,186.33691 303.125852,180.433039 299.000001,176.137791 C295.230423,172.213443 302.954453,144.19291 279.000001,143 C255.045549,141.80709 259.660426,181.461788 259.660426,181.461788 C259.660426,181.461788 264.37753,182.009766 267.645243,184.118784 C271.436689,186.565824 273.844356,189.707553 273.633856,191.10548 C272.456706,198.92292 261.351508,210.069372 254.669915,210.069372 C247.988322,210.069372 233.836681,200.168322 232.711667,191.10548 Z M231.891824,177.880261 C235.698073,177.880261 238.783647,174.101486 238.783647,169.440131 C238.783647,164.778775 235.698073,161 231.891824,161 C228.085575,161 225,164.778775 225,169.440131 C225,174.101486 228.085575,177.880261 231.891824,177.880261 Z M277.891824,177.880261 C281.698073,177.880261 284.783647,174.101486 284.783647,169.440131 C284.783647,164.778775 281.698073,161 277.891824,161 C274.085575,161 271,164.778775 271,169.440131 C271,174.101486 274.085575,177.880261 277.891824,177.880261 Z" fill="#FFFFFF"></path>
            </g>
        </g>
    </g>
</svg>