<?xml version="1.0" encoding="UTF-8" standalone="no"?>
<svg width="500px" height="500px" viewBox="0 0 500 500" version="1.1" xmlns="http://www.w3.org/2000/svg" xmlns:xlink="http://www.w3.org/1999/xlink" xmlns:sketch="http://www.bohemiancoding.com/sketch/ns">
    <!-- Generator: Sketch 3.3 (11970) - http://www.bohemiancoding.com/sketch -->
    <title>Pig</title>
    <desc>Created with Sketch.</desc>
    <defs></defs>
    <g id="Page-1" stroke="none" stroke-width="1" fill="none" fill-rule="evenodd" sketch:type="MSPage">
        <g id="Row-1" sketch:type="MSLayerGroup">
            <g id="Pig" sketch:type="MSShapeGroup">
                <path d="M250,500 C388.071187,500 500,388.071187 500,250 C500,111.928813 388.071187,0 250,0 C111.928813,0 0,111.928813 0,250 C0,388.071187 111.928813,500 250,500 Z" fill="#FA8997"></path>
                <path d="M175.68595,362.358046 C184.218372,366.920727 195.212241,370.328 204.801265,373.209291 C206.916236,373.844793 203.655085,387.289697 205.876033,389.065999 C207.493736,390.359828 215.062468,390.647024 217.487603,389.065999 C219.852303,387.524374 217.073947,382.964163 218.64876,383.259922 C219.644532,383.446934 219.788207,388.955887 222.132231,390.227214 C224.414876,391.46525 237.827146,391.311248 238.38843,389.065999 C239.549587,384.421137 236.801692,379.049203 239.387178,379.257607 C243.646779,379.600954 245.63903,379.776276 250,379.776276 C258.876659,379.776276 265.229592,379.461219 273.639445,378.524209 C275.23171,378.346801 272.806183,384.748396 274.384298,387.904783 C275.545455,390.227214 283.956107,390.648185 288.318182,389.065999 C290.730166,388.191138 290.43171,383.259922 291.801653,383.259922 C293.171596,383.259922 291.801653,387.904783 294.123967,389.065999 C295.140299,389.57419 306.082546,390.372047 306.735537,389.065999 C307.896694,386.743568 304.222606,372.611494 306.735537,371.647769 C356.581069,352.531687 390.5,306.413729 390.5,254.365024 C390.5,212.174958 369.992398,177.499421 334.764463,154.500505 C315.483185,141.912527 292.541414,133.505964 266.256198,131.276199 C265.823287,131.239475 259.083321,131.377782 255.805785,130.114984 C254.747156,129.707106 254.418234,126.799546 254.644628,126.631337 C255.250222,126.181387 259.289256,128.953768 261.61157,124.308907 C263.933884,119.664045 261.61157,116.180399 259.289256,115.019184 C254.644628,112.696753 251.161157,119.664045 250,118.50283 C248.838843,117.341615 253.483471,110.374323 250,109.213107 C246.516529,108.051892 245.332361,111.8141 245.355372,116.180399 C245.385971,121.986476 247.126917,121.377621 247.677686,124.308907 C248.416128,128.239022 247.950419,131.276199 247.677686,131.276199 C218.546285,131.276199 185.352085,143.147061 162.913223,156.822936 C125.582695,179.574875 109.5,210.704632 109.5,254.365024 C109.5,300.394137 134.903248,340.549646 175.68595,362.358046 Z M254.644628,123.147691 C256.966942,124.308907 259.289256,122.749225 259.289256,120.825261 C259.289256,118.901296 258.542239,118.50283 256.939016,118.50283 C255.335792,118.50283 252.322314,121.986476 254.644628,123.147691 Z M250,358.506173 C294.890252,358.506173 330.119835,327.331927 330.119835,288.876544 C330.119835,273.790125 321.991736,258.703705 308.057851,256.382716 C305.669997,255.984967 319.669421,256.382716 324.31405,237.814814 C325.230658,234.150475 332.347726,226.255878 333.603306,223.888888 C335.907734,219.544635 325.202344,216.719211 313.863636,216.925925 C300.075431,217.177296 284.708637,220.997133 282.512397,220.407407 C274.827653,218.343927 277.867769,214.604938 251.161157,212.283951 C224.454545,209.962963 219.809917,220.407407 215.165289,220.407407 C210.520661,220.407407 160.590909,209.714011 160.590909,222.728395 C160.590909,225.049383 169.768037,231.546301 169.880165,237.814814 C170.129265,251.740742 186.442026,256.188315 186.136363,256.382717 C173.363635,264.506174 169.880165,270.308643 168.719008,288.876543 C166.317528,327.278277 205.109748,358.506173 250,358.506173 Z M225.615702,319.049383 C232.582645,319.262093 240.727042,317.88889 248.258264,317.88889 C256.599917,317.88889 264.676207,318.989742 271.501439,319.262092 C282.778701,319.712092 290.640496,317.900228 290.640496,305.123457 C290.640496,284.613919 267.417355,262.185185 248.258264,263.345679 C229.099174,264.506173 210.520661,283.453426 210.520661,303.962963 C210.520661,317.491008 218.64876,318.836674 225.615702,319.049383 Z M238.38843,306.283951 C245.355372,305.123457 245.355372,301.96374 245.355372,293.631741 C245.355372,285.299741 246.360926,279.592593 241.871901,279.592593 C237.382876,279.592593 225.615702,288.668 225.615702,297 C225.615702,305.332 231.421488,307.444444 238.38843,306.283951 Z M260.54667,306.283951 C253.579728,305.123457 253.579728,301.96374 253.579728,293.631741 C253.579728,285.299741 252.574174,279.592593 257.063199,279.592593 C261.552224,279.592593 273.319397,288.668 273.319397,297 C273.319397,305.332 267.513612,307.444444 260.54667,306.283951 Z M239.549587,257.677204 C239.549587,251.267974 238.272314,240.269797 232.524587,240.269797 C226.77686,240.269797 226.77686,252.428468 226.77686,258.837698 C226.77686,260.925779 239.549587,258.850361 239.549587,257.677204 Z M256.966942,257.677204 C256.966942,251.267974 258.244215,240.269797 263.991942,240.269797 C269.739669,240.269797 269.739669,252.428468 269.739669,258.837698 C269.739669,260.925779 256.966942,258.850361 256.966942,257.677204 Z M298.207809,235.652996 C301.964079,241.513145 304.789198,248.151495 306.74935,248.151495 C312.646054,248.151495 319.561662,242.430332 319.561662,235.652996 C319.561662,228.87566 327.03551,226.809838 325.967817,223.608589 C324.900125,220.407341 317.37123,220.448087 311.02012,220.407341 C301.661861,220.347301 291.801653,223.83958 291.801653,227.87692 C291.801653,229.052281 296.074657,232.325072 298.207809,235.652996 Z M196.583414,236.81349 C192.827143,242.673638 190.002025,249.311988 188.041872,249.311988 C182.145169,249.311988 175.229561,243.590826 175.229561,236.81349 C175.229561,230.036154 167.755712,227.970331 168.823405,224.769083 C169.891098,221.567834 177.419992,221.608581 183.771102,221.567834 C193.129361,221.507795 202.989569,225.000074 202.989569,229.037414 C202.989569,230.212774 198.716565,233.485566 196.583414,236.81349 Z M266.845406,338.758891 C273.786565,338.151619 278.98478,332.759203 278.70548,329.566782 C278.426179,326.374362 272.977415,328.902996 266.036256,329.510269 C259.095098,330.117542 253.29002,328.573491 253.56932,331.765911 C253.848621,334.958332 259.904247,339.366164 266.845406,338.758891 Z M233.743802,256.382716 C235.02638,256.382716 236.066116,254.564218 236.066116,252.320988 C236.066116,250.077757 235.02638,248.259259 233.743802,248.259259 C232.461223,248.259259 231.421488,250.077757 231.421488,252.320988 C231.421488,254.564218 232.461223,256.382716 233.743802,256.382716 Z M262.772727,256.382716 C264.055306,256.382716 265.095041,254.564218 265.095041,252.320988 C265.095041,250.077757 264.055306,248.259259 262.772727,248.259259 C261.490149,248.259259 260.450413,250.077757 260.450413,252.320988 C260.450413,254.564218 261.490149,256.382716 262.772727,256.382716 Z" fill="#FFFFFF"></path>
            </g>
        </g>
    </g>
</svg>