<?xml version="1.0" encoding="UTF-8" standalone="no"?>
<svg width="500px" height="500px" viewBox="0 0 500 500" version="1.1" xmlns="http://www.w3.org/2000/svg" xmlns:xlink="http://www.w3.org/1999/xlink" xmlns:sketch="http://www.bohemiancoding.com/sketch/ns">
    <!-- Generator: Sketch 3.3 (11970) - http://www.bohemiancoding.com/sketch -->
    <title>Plane</title>
    <desc>Created with Sketch.</desc>
    <defs></defs>
    <g id="Page-1" stroke="none" stroke-width="1" fill="none" fill-rule="evenodd" sketch:type="MSPage">
        <g id="Row-2" sketch:type="MSLayerGroup" transform="translate(-1200.000000, 0.250000)">
            <g id="Plane" transform="translate(1200.000000, 0.000000)" sketch:type="MSShapeGroup">
                <path d="M250,499.001996 C388.071187,499.001996 500,387.296594 500,249.500998 C500,111.705402 388.071187,0 250,0 C111.928813,0 0,111.705402 0,249.500998 C0,387.296594 111.928813,499.001996 250,499.001996 Z" id="Socks" fill="#62BCD4"></path>
                <path d="M193.127229,199.534805 C194.450491,199.015964 195.743493,198.519367 197,198.048349 C234.802744,183.877493 268.328184,175.427226 306.222726,175.427226 C315.430081,175.427226 323.001806,177.707331 329.206347,181.23396 C338.223087,173.606863 354.050373,170.749401 359,171.10224 C376.492622,172.349219 388.000003,191.06232 365,220.004435 C364.827494,220.221509 364.656552,220.435719 364.487157,220.647097 L364.487157,220.647097 C369.134365,221.404382 374.815614,222.848373 379.481633,225.601576 C385.218529,228.986654 390.050865,233.87957 393.483209,238.959314 L393.483209,238.959314 C392.728795,236.168498 392.259349,233.249703 392.259349,230.426033 C392.259349,218.702348 398.222284,210.163314 402.481522,210.163314 C406.740761,210.163314 410.148152,221.597022 410.148152,233.320707 C410.148152,239.498941 409.08358,244.792748 407.640125,248.559708 C409.693846,250.683681 411,253.874853 411,257.44299 C411,260.940357 409.745145,264.075563 407.761439,266.198637 C409.592154,270.489868 411,276.460378 411,283.410101 C411,296.808598 406.253991,309.875692 401.38629,309.875692 C396.518588,309.875692 388.851958,300.116797 388.851958,286.7183 C388.851958,286.084443 388.874564,285.446391 388.917997,284.806078 L388.917997,284.806078 C377.94769,298.62212 356.15534,308.276354 314.330366,310.171241 L314.33037,310.171235 C307.272797,318.826941 293.735133,329.332637 275.863543,339.876052 C255.957792,351.619527 234.520086,360.672616 223.628367,358.443261 C216.335433,356.950517 200.953206,351.266189 207.137341,342.653702 C210.788543,337.568766 230.447302,322.358198 245.616404,308.203758 C246.553037,307.329776 247.415888,306.444268 248.216933,305.555394 C201.649805,296.998936 157.787119,279.215327 135.851852,267.140809 C134.260757,266.264973 130.418094,263.648062 128.185186,261.348372 C124.877295,257.94155 123.289483,254.701115 123.074074,254.548318 C121.477595,253.415877 117.978436,253.578844 114.555556,252.659717 C104.316079,249.910167 89,244.719551 89,241.074844 C89,236.211774 115.364253,237.93815 119.666667,235.282407 C120.910238,234.514789 128.900183,229.542036 130.021841,228.906784 C130.71713,228.513005 131.53444,228.063715 132.461041,227.565721 C127.206987,216.130632 119.864527,200.142126 110.296296,179.288851 C88.1481466,131.018544 112.000001,140.672605 117.962963,141.638011 C122.983868,142.450898 127.362813,142.455455 135,144.53423 C139.898191,145.867474 147.191353,147.742168 153.379585,152.257479 C159.002809,156.360524 160.947922,161.611085 163.962963,165.773165 C169.439264,173.33286 173.268302,179.804303 179.296297,187.012102 C183.834576,192.438616 188.767034,196.53959 193.127229,199.534805 L193.127229,199.534805 Z M319.783515,298.468629 C358.098462,295.037269 392.259349,285.100599 392.259349,265.162121 C392.259349,260.733433 371.815003,279.635491 327.51892,284.459947 C283.222837,289.284403 179.297411,265.300638 179.297411,268.056795 C179.297411,271.624144 215.377347,289.322277 254.722583,296.680763 C258.267423,291.099317 260.831285,286.657208 266.230188,285.954834 C277.526785,284.485194 299.552406,286.810576 312.968352,291.226196 C317.495024,292.71607 319.66608,295.215218 319.783515,298.468629 L319.783515,298.468629 Z M254.260013,234.285598 C263.630339,234.285598 263.630339,228.885641 263.630339,222.224456 C263.630339,215.563272 263.630338,210.083139 253.408166,210.163314 C244.037757,210.23681 244.889688,219.491413 244.889688,222.224456 C244.889688,228.885641 244.889688,234.285598 254.260013,234.285598 Z M284.926533,233.320707 C294.296858,233.320707 294.296858,227.92075 294.296858,221.259565 C294.296858,214.59838 294.296858,209.118247 284.074685,209.198423 C274.704276,209.271918 275.556207,218.526521 275.556207,221.259565 C275.556207,227.92075 275.556207,233.320706 284.926533,233.320707 Z M326.667072,232.355816 C341.148484,232.364058 351.568203,222.413158 355.629896,218.364892 C355.910328,218.085387 348.589099,200.023401 347.841318,200.323992 C344.520519,201.658877 340.08948,203.750784 335.18555,205.338858 C329.158132,207.290758 320.414222,207.26864 317.296747,207.26864 C308.77827,207.26864 308.77827,211.703706 308.77827,218.364891 C308.77827,225.026076 307.532826,232.344926 326.667072,232.355816 Z M165.666667,245.583528 C165.666667,234.147075 143.938548,236.702036 126.735931,239.571163 C116.332213,241.30634 106.888889,242.048448 106.888889,243.038765 C106.888889,245.666576 165.666667,263.936464 165.666667,245.583528 Z" fill="#FFFFFF"></path>
            </g>
        </g>
    </g>
</svg>