<?xml version="1.0" encoding="UTF-8" standalone="no"?>
<svg width="500px" height="500px" viewBox="0 0 500 500" version="1.1" xmlns="http://www.w3.org/2000/svg" xmlns:xlink="http://www.w3.org/1999/xlink" xmlns:sketch="http://www.bohemiancoding.com/sketch/ns">
    <!-- Generator: Sketch 3.3 (11970) - http://www.bohemiancoding.com/sketch -->
    <title>Pram</title>
    <desc>Created with Sketch.</desc>
    <defs></defs>
    <g id="Page-1" stroke="none" stroke-width="1" fill="none" fill-rule="evenodd" sketch:type="MSPage">
        <g id="Row-1" sketch:type="MSLayerGroup" transform="translate(-600.000000, 0.000000)">
            <g id="Pram" transform="translate(600.000000, 0.000000)" sketch:type="MSShapeGroup">
                <path d="M250,500 C388.071187,500 500,388.071187 500,250 C500,111.928813 388.071187,0 250,0 C111.928813,0 0,111.928813 0,250 C0,388.071187 111.928813,500 250,500 Z" fill="#6DB67F"></path>
                <path d="M276.450788,244.16056 L379.664242,252.248741 C379.561748,254.524218 379.426515,256.638526 379.275932,258.565993 C376.622028,292.535956 357.547233,315.22677 334.002292,331.214391 C330.962531,333.278467 320.314913,311.20976 291.887279,322.791388 C263.459645,334.373017 273.70511,355.621084 269.633886,355.761689 C265.473563,355.905372 260.628479,355.97281 256.284774,355.950736 C251.74282,355.927654 260.301019,332.267266 228.714759,322.791388 C197.128499,313.31551 196.985835,336.718714 189.758371,332.267266 C155.939885,311.438213 141.561039,283.089606 146.590483,259.618868 C147.512155,255.317731 158.971049,252.899171 170.545053,251.630752 C171.243739,251.554182 170.806615,220.662481 170.806615,220.662481 C170.806615,220.662481 140.273231,218.55673 138.16748,217.503855 C136.061729,216.450979 133.955979,230.138359 124.480101,228.032608 C118.342646,226.668729 122.143104,211.059975 122.37435,208.027977 C122.504807,206.317481 129.744477,189.076221 137.114605,191.181971 C144.484732,193.287722 141.326106,204.869351 141.326106,204.869351 C141.326106,204.869351 170.806615,204.869351 180.282493,211.186603 C184.18038,213.785194 187.652621,252.248741 187.652621,252.248741 C187.652621,252.248741 244.537668,252.248741 250.825141,252.248741 C251.409288,252.248741 248.739608,248.191886 245.318006,241.720883 C247.312902,241.721144 249.712386,241.72144 252.416841,241.721742 L252.416841,241.721742 C256.48878,228.328496 267.494238,192.574398 275.041273,172.230215 C280.271789,158.130564 292.006054,132.226428 296.970104,121.394424 C292.652668,120.517519 288.151796,119.906052 283.464276,119.586449 C278.213967,119.228473 247.666515,114.322072 239.243512,123.79795 C227.435789,137.081639 226.924424,147.606318 226.609008,165.912963 C226.249556,186.775449 233.358168,210.211425 236.084886,219.609605 C238.558497,228.135402 242.242084,235.903638 245.318006,241.720883 L252.251976,242.264254 C251.34505,245.249989 250.825141,246.984364 250.825141,246.984364 L256.089517,245.931489 C256.089517,245.931489 256.643109,244.754827 257.61036,242.684156 L269.627881,243.625893 L266.618271,248.037239 L275.041273,245.931489 L276.450788,244.16056 Z M270.925889,241.723334 C266.378888,241.723068 262.018105,241.722711 258.059371,241.722329 L258.059371,241.722329 C263.553199,229.946944 279.131419,196.302997 286.622902,177.494592 C293.00027,161.483329 302.678248,130.92545 305.040737,123.399015 C318.21259,127.289095 329.497513,133.764531 339.003278,141.938668 L270.925889,241.723334 Z M278.390351,241.723673 C292.192179,241.72411 306.602746,241.723446 316.103412,241.719987 C334.796025,241.713182 369.118573,243.155099 379.861705,243.627681 C379.872869,228.235845 378.047993,208.312688 370.852929,189.076221 C365.378713,174.440553 357.207556,160.339611 346.106137,148.692978 C342.064901,155.861825 332.973076,170.964063 316.103412,194.340597 L278.390351,241.723673 Z M216.080255,381.752407 C221.770667,381.752407 230.202943,381.528489 235.032011,378.593781 C242.804075,373.870563 245.636214,364.542906 245.636214,355.956961 C245.636214,346.760545 241.826034,338.77507 233.979135,334.373017 C229.948106,332.111639 224.278123,330.161516 219.238881,330.161516 C213.583171,330.161516 206.72304,331.576607 202.392875,334.373017 C195.354431,338.918427 191.864122,347.338483 191.864122,355.956961 C191.864122,369.877667 201.231501,381.752407 216.080255,381.752407 Z M308.808734,380.699532 C303.118322,380.699532 294.686046,380.475614 289.856978,377.540906 C282.084914,372.817688 279.252775,363.490031 279.252775,354.904086 C279.252775,345.70767 283.062955,337.722195 290.909853,333.320142 C294.940883,331.058763 300.610865,329.10864 305.650108,329.10864 C311.305817,329.10864 318.165949,330.523732 322.496113,333.320142 C329.534558,337.865551 333.024867,346.285607 333.024867,354.904086 C333.024867,368.824792 323.657487,380.699532 308.808734,380.699532 Z M321.367788,364.906402 C316.055072,369.181745 307.028952,370.269439 306.627533,372.276529 C305.574658,377.540906 315.902473,377.438216 321.367788,372.276529 C323.58459,370.182883 325.532275,366.878413 326.632165,363.853526 C328.243949,359.42084 326.826926,354.280268 324.526414,355.430524 C322.420664,356.483399 324.682981,362.238541 321.367788,364.906402 Z" fill="#FFFFFF"></path>
            </g>
        </g>
    </g>
</svg>