<?xml version="1.0" encoding="UTF-8" standalone="no"?>
<svg width="500px" height="500px" viewBox="0 0 500 500" version="1.1" xmlns="http://www.w3.org/2000/svg" xmlns:xlink="http://www.w3.org/1999/xlink" xmlns:sketch="http://www.bohemiancoding.com/sketch/ns">
    <!-- Generator: Sketch 3.2.2 (9983) - http://www.bohemiancoding.com/sketch -->
    <title>Pumping </title>
    <desc>Created with Sketch.</desc>
    <defs></defs>
    <g id="Page-1" stroke="none" stroke-width="1" fill="none" fill-rule="evenodd" sketch:type="MSPage">
        <g id="Row-1" sketch:type="MSLayerGroup" transform="translate(-600.000000, 0.000000)">
            <g id="Pumping-" transform="translate(600.000000, 0.000000)" sketch:type="MSShapeGroup">
                <path d="M250,500 C388.071187,500 500,388.071187 500,250 C500,111.928813 388.071187,0 250,0 C111.928813,0 0,111.928813 0,250 C0,388.071187 111.928813,500 250,500 Z" id="Pumping" fill="#6DB67F"></path>
                <path d="M200.423734,244.224783 C200.308866,236.57418 201.635253,228.64921 201.694208,222.57939 C201.752578,216.569837 207.802469,189.620047 201.469954,169.158173 C197.440232,156.137177 183.642642,146.926538 177.457687,138.634155 C171.627987,130.818077 173.276238,123.574773 173.417693,122.486279 C175.668217,105.16856 229.801973,112.441612 278.840163,123.887698 C312.12195,131.656056 345.515439,135.431712 352.024819,152.319119 C355.148738,160.423561 346.762166,169.479017 332.860099,175.156719 C318.958032,180.83442 308.709288,187.449162 306.623197,189.344945 C302.083615,193.470395 272.626725,246.508323 266.639187,255.766137 C265.591596,257.385902 264.630148,258.879077 263.713208,260.252838 C267.71226,262.775801 268.840415,268.719803 267.06892,274.981918 C265.297727,281.242964 257.495942,288.272724 256.689235,288.853078 C254.908878,290.133887 252.765798,290.578992 253.388855,291.133144 C264.371414,300.901129 271.604097,314.435176 272.678897,329.774862 C274.958814,362.314115 248.666835,390.656219 213.954117,393.078724 C179.241399,395.501229 149.252943,371.08678 146.973026,338.547527 C146.649599,333.931526 146.78868,329.538424 147.347784,325.376386 C150.541154,301.604558 167.436585,285.370522 190.117854,278.195387 C190.153634,278.184068 186.35027,269.456178 186.954274,262.247429 C187.558277,255.03868 188.239974,256.160103 189.854066,252.853134 C192.069495,248.314141 195.900714,244.606233 200.423734,244.224783 L200.423734,244.224783 L200.423734,244.224783 Z M322.870482,166.120241 C327.961581,164.811872 339.785529,162.701402 332.335263,156.971001 C328.811981,154.261056 324.003605,145.436714 258.863005,132.444029 C193.722406,119.451344 193.780274,127.105694 192.779263,129.969615 C188.128694,143.275027 285.853432,175.633311 322.870482,166.120241 L322.870482,166.120241 Z M200.932444,251.768533 C200.186979,252.72728 197.844222,254.650422 196.898769,257.223962 C196.317802,258.805364 196.833189,261.081233 196.888156,262.201636 C197.165694,267.858833 203.646829,276.97594 221.326497,281.51401 C227.163319,283.012223 237.530738,283.532134 241.708695,283.240566 C246.978488,282.872801 253.187271,280.557224 257.125059,277.710305 C259.912926,275.694749 263.073217,267.324043 259.673007,264.782869 C259.518083,264.667085 255.656206,271.149502 248.253533,273.899689 C247.871789,274.041512 241.035658,274.428739 239.776161,274.491301 C232.623469,274.846592 226.955662,273.061696 223.563037,271.754262 C218.399081,269.764201 212.009286,267.126464 208.863433,264.331637 C200.936972,257.289639 201.701079,250.779989 200.932444,251.768533 L200.932444,251.768533 Z M247.303184,352.666659 C239.836505,360.068453 236.060177,366.999554 234.352727,368.337825 C232.645277,369.676096 229.169372,371.315406 224.825573,372.533619 C221.556675,373.450377 217.417213,373.991526 215.71114,374.251897 C211.737989,374.858256 209.993633,378.381098 211.65723,379.88235 C215.519507,383.367722 225.189223,381.347651 228.431081,380.831946 C239.151406,379.126589 259.643484,364.468531 259.464019,355.965408 C259.284554,347.462285 254.769863,345.264864 247.303184,352.666659 L247.303184,352.666659 Z" id="Pumping" fill="#FFFFFF"></path>
            </g>
        </g>
    </g>
</svg>