<?xml version="1.0" encoding="UTF-8" standalone="no"?>
<svg width="500px" height="501px" viewBox="0 0 500 501" version="1.1" xmlns="http://www.w3.org/2000/svg" xmlns:xlink="http://www.w3.org/1999/xlink" xmlns:sketch="http://www.bohemiancoding.com/sketch/ns">
    <!-- Generator: Sketch 3.3 (11970) - http://www.bohemiancoding.com/sketch -->
    <title>Rabbit</title>
    <desc>Created with Sketch.</desc>
    <defs></defs>
    <g id="Page-1" stroke="none" stroke-width="1" fill="none" fill-rule="evenodd" sketch:type="MSPage">
        <g id="Row-1" sketch:type="MSLayerGroup" transform="translate(-1878.000000, -78.750000)">
            <g id="Rabbit" transform="translate(1878.000000, 79.000000)" sketch:type="MSShapeGroup">
                <path d="M250,500 C388.071187,500 500,388.071187 500,250 C500,111.928813 388.071187,0 250,0 C111.928813,0 0,111.928813 0,250 C0,388.071187 111.928813,500 250,500 Z" fill="#F2C06C"></path>
                <path d="M251.796803,295.244461 C253.558559,294.697973 258.904126,291.422747 258.904125,287.572805 C258.904125,283.356274 243.578594,282.674895 243.57861,287.572805 C243.578619,290.41641 246.695967,293.715092 249.478088,294.885425 C247.254025,299.642957 245.694561,315.501113 249.177635,316.58822 C252.615568,317.661237 253.281604,300.745938 251.796803,295.244461 L251.796803,295.244461 Z M317.364587,276.337615 C315.801647,246.110163 294.324604,231.253345 294.324604,231.253345 C294.324604,231.253345 310.91026,214.904769 326.366499,191.253349 C349.298872,156.161812 362.775426,113.952478 338.630883,104.709289 C326.366499,100.014148 309.025595,103.545953 286.848166,135.253345 C264.670737,166.960738 257.115271,221.253345 257.115271,221.253345 C257.115271,221.253345 261.214658,175.25335 247.329841,143.253346 C233.445025,111.253342 215.049167,110.492545 204.60733,116.253347 C192.215857,123.089771 184.434254,152.253346 192.858639,179.25335 C201.283023,206.253353 219.792543,226.353483 217.424084,227.25335 C199,234.25335 190,259.287226 190,272.25335 C190,274.946372 190.245445,277.587168 190.724391,280.15923 C164.878375,302.449333 184.984417,347.362964 184.984417,347.362964 C184.984417,347.362964 168.116115,344.678151 159.475339,351.051322 C147.563953,359.836794 147.37868,378.823997 148.372879,381.842982 C149.848929,386.325156 162.797127,387.671859 176.365363,388.034111 C180.907164,388.15537 193.03588,387.467802 194.559255,387.806659 C194.671804,387.831694 195.1872,365.360972 220.337573,365.360972 C245.487946,365.360972 246.049687,387.481615 248.567772,388.188556 C250.738372,388.797942 252.865504,389.217569 254.42308,388.188556 C255.136865,387.716994 258.890647,365.360972 281.228483,365.360972 C303.566318,365.360972 308.853052,387.806659 309.523074,387.806659 C325.066519,387.806659 348.183524,390.960993 351.220377,384.848857 C353.555603,380.148854 350.943003,361.488578 339.306865,352.833046 C330.696166,346.427983 316.266069,348.051322 316.266069,348.051322 C316.266069,348.051322 341.536664,309.433273 317.364587,276.337615 L317.364587,276.337615 Z M236.278831,224.220833 C242.617551,223.442539 247.142238,217.750625 238.635957,182.230155 C230.129676,146.709685 222.795444,136.420694 215.654058,137.297546 C208.512673,138.174398 210.226642,160.845259 212.131817,176.36167 C214.036993,191.878081 229.940112,224.999127 236.278831,224.220833 Z M278.720224,224.67881 C285.316929,228.335423 296.659021,218.359486 314.482429,177.719362 C332.305836,137.079238 330.824367,130.680448 324.612133,127.23695 C318.399898,123.793452 302.090647,142.916835 287.801464,168.695203 C273.512282,194.473571 272.123519,221.022197 278.720224,224.67881 Z M236.720585,274.897638 C254.493785,274.897638 245.726038,241.614345 232.927909,241.614345 C220.12978,241.614345 218.947385,274.897638 236.720585,274.897638 Z M266.180822,274.897638 C248.407622,274.897638 257.17537,241.614345 269.973498,241.614345 C282.771627,241.614345 283.954022,274.897638 266.180822,274.897638 Z M236.110688,272.390057 C238.623554,272.390057 240.660636,270.694601 240.660636,268.603151 C240.660636,266.5117 238.623554,264.816245 236.110688,264.816245 C233.597821,264.816245 231.56074,266.5117 231.56074,268.603151 C231.56074,270.694601 233.597821,272.390057 236.110688,272.390057 Z M265.590199,272.390057 C268.103066,272.390057 270.140147,270.694601 270.140147,268.603151 C270.140147,266.5117 268.103066,264.816245 265.590199,264.816245 C263.077332,264.816245 261.040251,266.5117 261.040251,268.603151 C261.040251,270.694601 263.077332,272.390057 265.590199,272.390057 Z M214.219896,313.253346 C214.219896,313.253346 208.344128,355.247476 256.942406,355.253346 C286.31271,355.256894 288.984292,316.253346 288.984292,316.253346 C288.984292,316.253346 271.012961,324.522009 252.137549,323.742337 C233.262136,322.962665 214.219896,313.253346 214.219896,313.253346 Z M292.317471,287.191634 C294.720646,289.594808 267.974805,294.210045 265.57163,291.80687 C263.168455,289.403696 289.914297,284.788459 292.317471,287.191634 Z M289.549036,298.396643 C290.469105,300.793503 265.108495,297.866096 264.188426,295.469236 C263.268358,293.072376 288.628968,295.999783 289.549036,298.396643 Z M291.833409,274.981267 C294.379679,276.900019 265.744999,290.506209 263.198729,288.587457 C260.652458,286.668705 289.287139,273.062515 291.833409,274.981267 Z M210.850761,287.191634 C208.447587,289.594808 235.193428,294.210045 237.596603,291.80687 C239.999777,289.403696 213.253936,284.788459 210.850761,287.191634 Z M212.203601,298.396643 C211.283532,300.793503 236.644143,297.866096 237.564211,295.469236 C238.484279,293.072376 213.123669,295.999783 212.203601,298.396643 Z M210.94154,275.527542 C208.39527,277.446294 236.206654,289.959934 238.752924,288.041182 C241.299194,286.122429 213.48781,273.60879 210.94154,275.527542 Z M163.096793,367.552062 C167.494507,361.783901 172.856811,357.179437 172.636234,355.38298 C172.393046,353.402374 163.518751,358.643856 158.638669,364.941657 C154.000477,370.927298 153.332127,377.886835 153.563261,379.769269 C153.817005,381.835851 158.037816,374.187552 163.096793,367.552062 Z M170.671038,372.325255 C174.050695,368.613968 178.025147,365.763103 177.981434,364.511333 C177.93324,363.131249 171.499224,366.209447 167.755081,370.256772 C164.196523,374.103485 163.316009,378.861033 163.361814,380.172711 C163.4121,381.612704 166.7832,376.594591 170.671038,372.325255 Z M336.069398,370.968028 C331.001502,365.778809 325.118025,361.862166 325.118025,360.052218 C325.118025,358.056738 334.564948,362.177646 340.176163,367.833772 C345.509249,373.209544 347.020772,380.035754 347.020772,381.932325 C347.020772,384.014426 341.899329,376.937524 336.069398,370.968028 Z M327.220982,375.740905 C323.713862,372.149826 319.642338,369.439405 319.642338,368.186872 C319.642338,366.805946 326.179862,369.657725 330.062973,373.571916 C333.753612,377.292094 334.799626,382.016015 334.799626,383.328492 C334.799626,384.769362 331.25545,379.871956 327.220982,375.740905 Z M244.125654,391.168604 C244.125654,382.135151 237.846913,369.35992 223.196518,367.996877 C208.546122,366.633834 198.081554,379.409066 198.081554,388.442518 C198.081554,397.475971 244.125654,400.202057 244.125654,391.168604 Z M228.551705,388.038261 C229.161295,391.297789 228.870673,394.989489 229.314421,394.989489 C230.164964,394.989489 232.388485,393.630157 231.733568,389.031294 C231.078652,384.432431 229.612326,382.080066 227.491084,382.080066 C226.441144,382.080066 227.954271,384.843732 228.551705,388.038261 Z M215.372456,386.756575 C214.762866,390.016102 215.053488,393.707803 214.60974,393.707803 C213.759197,393.707803 211.535676,392.34847 212.190593,387.749607 C212.845509,383.150745 214.311835,380.79838 216.433077,380.79838 C217.483017,380.79838 215.96989,383.562045 215.372456,386.756575 Z M259.377724,389.53296 C260.166884,380.512827 267.552407,368.30494 282.300277,368.223761 C297.048147,368.142581 306.381247,381.813158 305.592087,390.833292 C304.802928,399.853426 258.588565,398.553094 259.377724,389.53296 Z M290.017809,387.319948 C290.627399,390.579475 290.336777,394.271176 290.780525,394.271176 C291.631068,394.271176 293.854589,392.911843 293.199672,388.31298 C292.544756,383.714118 291.07843,381.361753 288.957188,381.361753 C287.907248,381.361753 289.420375,384.125418 290.017809,387.319948 Z M279.275544,386.319948 C278.665954,389.579475 278.956577,393.271176 278.512829,393.271176 C277.662285,393.271176 275.438765,391.911843 276.093681,387.31298 C276.748598,382.714118 278.214923,380.361753 280.336165,380.361753 C281.386105,380.361753 279.872979,383.125418 279.275544,386.319948 Z" fill="#FFFFFF"></path>
            </g>
        </g>
    </g>
</svg>