<?xml version="1.0" encoding="UTF-8" standalone="no"?>
<svg width="500px" height="500px" viewBox="0 0 500 500" version="1.1" xmlns="http://www.w3.org/2000/svg" xmlns:xlink="http://www.w3.org/1999/xlink" xmlns:sketch="http://www.bohemiancoding.com/sketch/ns">
    <!-- Generator: Sketch 3.2.2 (9983) - http://www.bohemiancoding.com/sketch -->
    <title>Rattle</title>
    <desc>Created with Sketch.</desc>
    <defs></defs>
    <g id="Page-1" stroke="none" stroke-width="1" fill="none" fill-rule="evenodd" sketch:type="MSPage">
        <g id="Row-3" sketch:type="MSLayerGroup" transform="translate(-1800.000000, 0.000000)">
            <g id="Rattle" transform="translate(1800.000000, 0.000000)" sketch:type="MSShapeGroup">
                <path d="M250,500 C388.071187,500 500,388.071187 500,250 C500,111.928813 388.071187,0 250,0 C111.928813,0 0,111.928813 0,250 C0,388.071187 111.928813,500 250,500 Z" fill="#F2C06C"></path>
                <path d="M342.469418,219.977042 C338.923898,225.288711 334.722142,230.044568 329.991197,234.000001 C318.212705,243.847723 302.220676,248.000001 285.493326,248.000001 C279.051572,248.000001 272.814521,247.142441 266.894911,245.53763 C263.320994,244.568739 261.668673,246.935866 255.994737,251.000001 C251.724136,254.058954 245.995216,261.000001 237.995598,257.000001 C229.904161,252.954089 229.995981,251.000001 233.99579,240.000001 C237.995598,229.000001 233.921003,225.684253 231.922327,223.320643 C221.97464,211.55662 215.996651,196.461393 215.996651,180.000001 C215.996651,170.643754 217.927842,161.728847 221.421475,153.616088 C228.941754,156.883639 264.369884,172.380259 281,181.5 C301.04682,192.493418 334.90181,214.930886 342.469418,219.977042 Z M348.517857,208.978949 C352.667835,199.650274 354.99,189.340021 354.99,179.000001 C354.99,171.104526 355.989953,159.000002 337.990814,136 C319.991675,112.999999 296.683197,112 285.493326,112 C260.957769,112 239.391872,124.440805 227.025078,143.227129 C237.333768,147.430671 271.421957,161.513437 289,171 C307.711583,181.098315 341.109731,203.888699 348.517857,208.978949 Z M190.997847,277.000002 C192.581784,277.000002 206.804864,274.17426 219.996459,276.000002 C230.763539,277.490186 240.995455,286.000002 242.995359,291.000002 C247.14166,301.36625 257.994641,316.000002 274.993828,318.000002 C291.993015,320.000002 298.958155,310.064139 300.992584,306.000002 C306.904806,294.18928 301.354563,277.421361 293.992919,272.000002 C281.55262,262.838551 250.78845,268.650298 246.995168,268.000002 C239.338523,266.687394 230.072524,265.523983 220.996412,253.000001 C216.284892,246.498651 214.203922,235.278848 208.996986,228.000001 C204.584816,221.832169 197.039328,219.000001 192.997751,219.000001 C174.998613,219.000001 161.999234,232.000001 161.999234,251.000001 C161.999234,270.000002 175.810743,277.000002 190.997847,277.000002 Z M246.995168,280.000002 C248.329741,282.224397 258.851869,292.86639 258.994594,293.000001 C265.277245,298.881503 272.755616,303.731079 275.99378,304.000006 C284.721196,304.724808 291.040407,296.858538 285.993302,290.000002 C282.772163,285.62278 277.993685,281.000002 267.994163,280.000002 C261.374165,279.33797 243.995311,275.000001 246.995168,280.000002 Z M221.381545,266.703686 C219.921736,264.040861 208.412216,251.301326 208.256098,251.14138 C201.383886,244.100631 193.203747,238.295201 189.661716,237.973269 C180.115323,237.105608 173.20312,246.522324 178.723843,254.732681 C182.247252,259.972655 187.474141,265.506586 198.412013,266.703686 C205.653229,267.496204 224.662907,272.689189 221.381545,266.703686 Z M201.997321,380 C205.418123,374.337139 209.873324,359.932178 215.996651,345 C222.524043,329.082478 230.69198,312.582767 232.995838,306.000002 C239.995503,286.000002 213.996747,274.000002 203.997225,280.000002 C181.424033,293.544565 146,336.404003 146,354.000002 C146,375.000003 173.878575,389 182.99823,389 C191.997799,389 197.283086,387.804033 201.997321,380 Z M189.997895,373.000003 C196.416779,369.72062 197.440427,359.757552 196.99756,354.000002 C196.490539,347.408412 188.522902,361.099451 182.523189,364.099452 C176.523476,367.099453 166.998995,366.000003 167.998947,370.000003 C170.048501,378.19861 181.923549,377.125154 189.997895,373.000003 Z" fill="#FFFFFF"></path>
            </g>
        </g>
    </g>
</svg>