<?xml version="1.0" encoding="UTF-8" standalone="no"?>
<svg width="500px" height="500px" viewBox="0 0 500 500" version="1.1" xmlns="http://www.w3.org/2000/svg" xmlns:xlink="http://www.w3.org/1999/xlink" xmlns:sketch="http://www.bohemiancoding.com/sketch/ns">
    <!-- Generator: Sketch 3.3 (11970) - http://www.bohemiancoding.com/sketch -->
    <title>Reindeer</title>
    <desc>Created with Sketch.</desc>
    <defs></defs>
    <g id="Page-1" stroke="none" stroke-width="1" fill="none" fill-rule="evenodd" sketch:type="MSPage">
        <g id="Row-3" sketch:type="MSLayerGroup" transform="translate(0.000000, 0.250000)">
            <g id="Reindeer" sketch:type="MSShapeGroup">
                <ellipse fill="#FA8997" cx="250" cy="249.500998" rx="250" ry="249.500998"></ellipse>
                <path d="M295.451416,388.6447 C297.31027,388.143354 298.956313,386.034106 298.956313,382.503709 C298.956313,377.288653 297.832179,371.540869 293.960413,366.707024 C292.548247,364.943954 290.579707,362.937009 288.131863,363.381405 C287.811794,363.439513 289.20525,369.540037 289.797163,375.021069 C290.258662,379.294481 289.767682,381.856324 290.629813,384.997923 C291.287715,387.395313 292.761994,388.612343 294.29007,388.748377 C293.908591,387.963653 294.288753,385.825281 293.88529,383.721208 C292.978861,378.994153 291.484445,373.040381 292.465299,373.040381 C293.181062,373.040381 294.822596,376.322188 295.523899,379.906627 C296.184417,383.282605 296.342452,387.349933 295.451416,388.6447 L295.451416,388.6447 Z M209.109048,387.749125 C207.216915,386.933164 205.64714,384.599361 205.64714,380.910257 C205.64714,374.939113 206.934254,368.358004 211.367355,362.82334 C212.984259,360.804657 215.238202,358.506741 218.040938,359.015568 C218.407412,359.082099 216.81193,366.067089 216.1342,372.34277 C215.605793,377.235749 216.167956,380.169012 215.180831,383.766086 C214.457313,386.402582 212.871474,387.792289 211.19698,388.036018 C211.31163,386.757688 211.112926,384.694294 211.503642,382.656699 C212.633781,376.762986 214.497026,369.339797 213.274093,369.339797 C212.381677,369.339797 210.335004,373.431568 209.460617,377.900662 C208.771314,381.423765 208.52092,385.550748 209.109048,387.749125 L209.109048,387.749125 Z M161.038541,209.248261 C155.75746,233.435038 194.969067,227.302325 186.548421,232.875161 C161.1499,249.684061 154.546856,279.373066 154.546856,293.238087 C154.546856,335.757486 173.609459,365.362456 181.347905,371.61573 C181.814668,371.992912 192.89797,344.076498 217.580244,348.50469 C242.262518,352.932882 245.189438,379.282544 245.688128,379.303566 C247.207501,379.367615 251.025562,379.399215 252.520291,379.399215 C253.161434,379.399215 252.251631,356.630224 281.021852,349.429027 C309.792073,342.227829 319.928036,373.099685 320.373142,372.730875 C321.074276,372.149923 350.435218,335.757486 350.435218,296.935426 C350.435218,249.173483 324.727712,236.458389 316.277983,232.875161 C312.538904,231.289552 339.539069,230.411691 336.37042,209.248261 C333.201772,188.084831 293.065559,202.193785 294.121775,197.154873 C295.177991,192.115961 310.59273,190.122294 313.133665,174.98366 C314.02672,169.662931 323.893514,167.264913 331.08934,163.898054 C342.635319,158.495799 353.318025,152.272096 354.224372,140.053904 C355.395924,124.26056 344.892046,121.615151 335.314204,123.58676 C330.113079,124.657417 324.86988,128.970471 322.639611,128.970472 C316.302314,128.970473 326.048444,107.81119 307.852585,107.81119 C289.656725,107.81119 293.857937,124.881715 289.656729,128.970471 C289.175253,129.43906 283.300414,124.142717 277.222316,121.571195 C270.372294,118.673086 266.215186,120.218612 260.322858,124.594542 C254.430531,128.970473 250.477693,139.798513 255.400275,148.117526 C260.322857,156.436538 250.302936,159.821109 249.760697,159.866925 C249.604215,159.880147 240.839408,154.744563 245.68813,149.04186 C250.536852,143.339158 242.719409,124.420096 234.973671,120.563413 C225.338199,115.765812 212.431816,130.508856 209.624483,131.649019 C208.367151,132.159669 209.850479,108.788376 193.781241,107.811191 C177.712003,106.834005 182.309848,132.969607 175.825567,128.970471 C158.926109,118.547848 148.463943,120.172412 146.251515,128.970472 C145.370153,132.475342 144.589729,143.221038 151.532596,153.82023 C156.813676,161.882489 170.305378,164.132268 181.106648,171.960313 C185.062915,174.827554 189.629076,182.844078 194.837457,188.084831 C199.534315,192.810881 205.150286,195.871735 204.343403,197.154873 C201.174754,202.193785 166.319622,185.061484 161.038541,209.248261 Z M242.531155,378.224439 C242.531153,362.041407 225.320404,351.570034 212.925464,351.570034 C200.530525,351.570034 185.229819,362.041407 184.274797,379.176382 C183.319774,396.311357 242.531158,394.407471 242.531155,378.224439 Z M258.490184,378.224439 C258.490186,362.041407 275.700935,351.570034 288.095875,351.570034 C300.490814,351.570034 315.79152,362.041407 316.746542,379.176382 C317.701565,396.311357 258.490181,394.407471 258.490184,378.224439 Z M246.677925,306.18576 C267.043695,306.18576 304.258878,303.687726 313.594019,277.53374 C317.552767,266.442636 306.80543,248.856885 292.258453,236.866365 C291.54407,236.277526 293.228251,226.956146 291.288654,218.6254 C291.068254,217.678759 297.999999,223.552893 313.594019,222.078225 C325.182909,220.982308 328.164672,204.64614 309.745024,203.592813 C292.288647,202.594571 291.526506,205.632936 286.439662,205.441569 C282.955969,205.310512 280.408079,202.150131 281.59067,199.896013 C283.339547,196.562505 297.77608,183.724258 300.01684,180.48658 C301.948004,177.69624 301.244697,172.808162 310.684627,166.6227 C315.753927,163.301069 328.96081,160.697702 333.070056,157.071561 C334.848421,155.502271 342.687976,146.931116 338.808783,139.528497 C334.929589,132.125877 325.418818,134.930271 323.292007,137.970681 C319.412813,143.516234 315.105481,143.459468 311.654426,137.970681 C309.701055,134.863911 311.198692,125.470178 308.74503,123.79793 C301.956441,119.171293 296.4321,125.053198 296.13765,128.424567 C295.167852,139.528497 290.593308,146.66809 283.530263,139.528497 C280.67685,136.64416 276.945535,132.659293 273.832279,132.125877 C269.148494,131.323371 265.368573,135.256346 264.134294,137.97068 C261.792806,143.119906 264.085226,150.428939 266.073891,152.48308 C269.807482,156.339597 277.472607,157.118836 279.651069,162.661682 C282.560465,170.064302 268.187882,163.363657 260.2551,162.661682 C256.955696,162.369717 253.387789,165.004491 253.466511,166.6227 C254.140957,180.486579 261.764572,180.797648 259.285302,185.794872 C257.448972,189.496182 254.436309,191.346837 249.587317,191.346837 C244.738325,191.346837 241.547339,185.111078 241.851186,182.335095 C242.155032,179.559113 249.764626,174.900425 248.617519,168.213647 C247.497084,161.682349 238.11024,161.09199 236.979937,161.736355 C231.081207,165.099113 226.72797,166.546591 223.402759,165.437664 C222.034878,164.981489 218.585864,163.047114 223.402759,158.960372 C226.498411,156.333964 236.979937,155.259062 236.979937,146.931117 C236.979937,137.417824 234.057472,133.970297 230.191348,132.125877 C226.325224,130.281457 223.386217,135.681422 218.55377,139.528497 C213.499961,143.551798 207.411945,145.714315 206.916189,137.04856 C205.94639,120.09662 194.308809,118.245965 192.369212,130.275222 C190.429615,142.304479 185.120493,141.840109 183.641026,141.692561 C180.166626,141.346057 178.533088,138.405871 177.822235,137.970681 C173.895671,135.566803 169.616664,134.760825 168.12425,135.197905 C163.471747,136.560472 160.645411,140.227049 161.335661,143.516233 C166.184654,166.622701 184.168403,163.763661 190.429615,166.6227 C195.420839,168.901828 200.455963,177.825407 203.036994,182.335098 C208.855785,192.501944 216.789201,195.021098 218.553771,197.123237 C222.432965,201.744534 216.614174,205.441569 212.734981,205.441569 C208.855787,205.441569 194.999999,201.596805 185.580622,203.593051 C177.264994,205.35538 175.115565,217.930168 183.641026,221.153967 C191.108837,223.977829 208.998315,217.769927 208.855786,218.381191 C206.916189,226.699519 211.880142,235.032149 208.855786,236.866365 C198.188003,243.336176 186.550421,252.578763 186.550421,266.442636 C186.550421,297.867432 226.312156,306.18576 246.677925,306.18576 Z M250.07222,280.17827 C260.516515,280.17827 268.98329,272.478143 268.98329,262.979556 C268.98329,253.480968 260.516515,245.780841 250.07222,245.780841 C239.627924,245.780841 231.16115,253.480968 231.16115,262.979556 C231.16115,272.478143 239.627924,280.17827 250.07222,280.17827 Z M242.662132,240.729589 C247.019337,240.729589 250.55155,235.581435 250.55155,229.230865 C250.55155,222.880295 247.019337,217.732142 242.662132,217.732142 C238.304926,217.732142 234.772713,222.880295 234.772713,229.230865 C234.772713,235.581435 238.304926,240.729589 242.662132,240.729589 Z M261.087275,240.729589 C265.444481,240.729589 268.976694,235.581435 268.976694,229.230865 C268.976694,222.880295 265.444481,217.732142 261.087275,217.732142 C256.73007,217.732142 253.197857,222.880295 253.197857,229.230865 C253.197857,235.581435 256.73007,240.729589 261.087275,240.729589 Z M242.793595,227.610315 C244.40032,227.610315 245.702828,226.16188 245.702828,224.375144 C245.702828,222.588408 244.40032,221.139972 242.793595,221.139972 C241.18687,221.139972 239.884362,222.588408 239.884362,224.375144 C239.884362,226.16188 241.18687,227.610315 242.793595,227.610315 Z M259.27925,227.610315 C260.885975,227.610315 262.188483,226.16188 262.188483,224.375144 C262.188483,222.588408 260.885975,221.139972 259.27925,221.139972 C257.672525,221.139972 256.370017,222.588408 256.370017,224.375144 C256.370017,226.16188 257.672525,227.610315 259.27925,227.610315 Z M250.575337,297.699836 C254.150674,297.994481 264.604416,300.405694 273.825416,296.011087 C285.462348,290.465078 287,279.763503 287,279.373061 C287,279.365792 287,279.441118 290,280.439122 C293,281.437126 293.121222,278.72186 291,278.448726 C288.878777,278.175592 287.764772,278.159529 286.432093,277.524391 C285.25573,276.963752 283.80904,275.255354 282.800291,274.075158 C282.145898,273.309546 280.096175,274.20714 281,275.449102 C282.056583,276.900972 284.499853,278.366714 284.462348,278.448726 C282.84418,281.987239 280.109291,290.11145 273.825416,293.164412 C265.712817,297.105844 253.103101,295.614987 250.55155,295.013083 C248,294.411178 247,297.40519 250.575337,297.699836 Z M201.983617,170.307142 C212.016582,177.751198 222.785401,190.084225 226.854361,190.155249 C235.95775,190.314149 216.107193,166.422035 213.747832,163.116683 C211.530221,160.009915 219.281865,151.656951 215.945135,148.363429 C213.084741,145.540073 205.661126,148.937286 204.024097,148.155346 C203.267772,147.794081 201.158395,141.634839 194.726931,141.521734 C192.756349,141.48708 191.013795,148.868116 190.719489,148.847589 C181.224439,148.185329 176.90438,140.192823 174.236345,148.559874 C172.184229,154.995383 189.570063,161.096786 201.983617,170.307142 Z M297.752425,170.8934 C288.40643,179.183559 278.753484,192.40822 274.706198,192.833607 C265.651299,193.785315 283.343984,168.254028 285.406287,164.755622 C287.344687,161.467399 278.894531,153.82182 281.931514,150.250015 C284.534952,147.188104 292.226404,149.925378 293.789053,149.003738 C294.511014,148.577929 296.075551,142.258281 302.472684,141.585067 C304.432747,141.378797 306.811969,148.579872 307.103366,148.533773 C316.504565,147.046485 320.111592,138.707875 323.498711,146.810553 C326.10391,153.042719 309.316006,160.63618 297.752425,170.8934 Z M203.600515,214.576972 C204.412875,213.615581 204.277954,208.323484 199.8692,207.628496 C197.332347,207.228591 194.967396,209.730046 192.645512,209.648964 C186.288465,209.426971 184.633527,211.483466 184.575155,213.155016 C184.363772,219.208235 201.113351,217.520418 203.600515,214.576972 Z M296.429396,214.087511 C295.668465,213.084923 296.080167,207.80714 300.519253,207.34384 C303.073558,207.077252 305.304352,209.699051 307.627297,209.739598 C313.987251,209.850612 315.532292,211.990901 315.503102,213.663215 C315.397394,219.719202 298.759103,217.157092 296.429396,214.087511 Z" fill="#FFFFFF"></path>
            </g>
        </g>
    </g>
</svg>