<?xml version="1.0" encoding="UTF-8" standalone="no"?>
<svg width="500px" height="500px" viewBox="0 0 500 500" version="1.1" xmlns="http://www.w3.org/2000/svg" xmlns:xlink="http://www.w3.org/1999/xlink" xmlns:sketch="http://www.bohemiancoding.com/sketch/ns">
    <!-- Generator: Sketch 3.3 (11970) - http://www.bohemiancoding.com/sketch -->
    <title>Rocking Horse</title>
    <desc>Created with Sketch.</desc>
    <defs></defs>
    <g id="Page-1" stroke="none" stroke-width="1" fill="none" fill-rule="evenodd" sketch:type="MSPage">
        <g id="Row-3" sketch:type="MSLayerGroup" transform="translate(-600.000000, 0.250000)">
            <g id="Rocking-Horse" transform="translate(600.000000, 0.000000)" sketch:type="MSShapeGroup">
                <path d="M250,499.001996 C388.071187,499.001996 500,387.296594 500,249.500998 C500,111.705402 388.071187,0 250,0 C111.928813,0 0,111.705402 0,249.500998 C0,387.296594 111.928813,499.001996 250,499.001996 Z" fill="#6DB67F"></path>
                <path d="M315.291413,137.616405 C324.039532,127.291341 331.050829,118.986616 336.733986,124.42064 C339.368963,126.940106 337.432739,141.506494 339.943209,146.189759 C341.000165,148.161501 348.686348,152.269778 352.780101,157.074318 C357.848981,163.023292 363.036437,170.02165 364.898472,175.238591 L364.898472,175.238591 C360.683724,176.046297 353.9858,179.837209 349.544445,184.291187 C345.06788,188.780475 342.346993,194.48172 340.986722,199.299704 C340.148268,198.964619 339.245788,198.782256 338.305556,198.782256 C337.9476,198.782256 337.595117,198.808688 337.249556,198.859915 C334.117142,192.894434 328.349859,184.544405 320.644444,177.045652 C314.406016,170.974541 303.020478,162.934818 296.558785,158.532208 C296.374112,158.799437 296.19006,159.07219 296.006727,159.350633 C295.111151,160.710817 294.321616,162.197909 293.625321,163.769347 C299.383746,168.246913 309.043308,175.211613 317.433334,182.612975 C323.216501,187.714665 329.311797,195.195814 333.693897,200.424873 C331.627887,202.063539 330.277778,204.773477 330.277778,207.839174 C330.277778,212.841172 333.871936,216.896093 338.305556,216.896093 C342.739175,216.896093 346.333333,212.841172 346.333333,207.839174 C346.333333,205.592874 345.608487,203.537574 344.408281,201.954744 C347.422163,198.137337 351.621981,192.569363 355.966666,187.913954 C359.872171,183.729134 364.539573,181.094009 367.03283,179.197059 C370.953256,179.735072 381.663108,181.087166 381.663108,193.356181 C381.663108,204.727415 372.794311,222.310226 362.40777,226.009859 C356.224294,228.212381 346.361655,218.897897 346.361655,218.897897 C346.361655,218.897897 342.388482,220.524342 338.219755,220.200303 C334.575961,219.917068 331.071722,220.248134 330.987473,220.893907 C330.438614,225.100978 329.89469,228.33876 330.106317,233.266232 C330.534212,243.229207 336.885642,252.49501 335.524763,265.285735 C333.667602,282.740958 318.554407,310.321735 334.897575,325.257443 L334.897575,325.257443 C346.355709,321.775109 357.063866,317.32457 369.516615,312.205132 C400.226438,299.580047 396.599479,334.51366 389.932755,340.886702 C367.73186,362.109607 311.821179,380.816601 243.885521,375.330555 C165.715062,369.018012 124.925271,338.483635 112.088379,327.599077 C99.2514864,316.714518 104.295417,271.173606 135.005239,299.580046 C146.451972,310.16822 161.358888,317.560126 178.169979,322.667451 C185.818488,309.962484 189.10973,294.992362 189.10973,280.432655 C189.10973,274.472044 176.272838,258.663539 182.691284,236.894417 C183.464886,234.27063 184.132343,231.757546 185.053371,229.573939 C185.209419,229.203975 177.942397,227.921326 176.144444,224.141627 C175.020675,221.779212 163.299999,253.123765 147.244444,249.500998 C140.667535,248.016988 137.611111,245.878231 134.4,238.632696 C131.188889,231.387162 138.272926,236.844321 137.611111,235.009929 C136.763487,232.660517 132.82255,233.990339 131.188889,231.387162 C128.481724,227.073397 127.977778,216.099619 127.977778,214.0378 C127.977778,211.160809 134.443613,220.616217 134.4,216.896093 C134.374352,214.708382 128.954255,213.508499 127.977778,209.650558 C126.432935,203.547075 132.959978,193.161351 134.4,191.536722 C135.949348,189.788751 140.73602,195.689057 144.033333,198.782256 C147.569888,202.099886 149.698702,202.685317 153.666666,202.405023 C160.123313,201.948932 163.179155,191.536722 176.144443,191.536722 C189.109731,191.536722 190.685606,199.662253 192.2,202.405023 C195.494683,208.372137 195.758772,214.391592 196.172691,214.037801 C200.656283,210.205514 205.119057,208.554631 208.365068,207.868927 C209.661574,207.595046 211.081674,207.422299 212.606104,207.322677 C215.250551,207.149861 214.82093,196.863294 217.992736,196.984368 C222.895713,197.171526 227.620405,207.868927 250.084966,207.868927 C261.773153,207.868927 280.097234,199.811132 286.131713,196.984367 C286.226807,196.939822 286.321453,196.654465 286.420903,196.16557 C280.56452,196.584073 268.061497,196.342668 272.679372,187.201964 C277.863228,176.940947 280.455157,171.077509 275.2713,176.940947 C270.087443,182.804385 267.282678,166.781463 273.975336,159.350634 C278.612542,154.201965 287.257856,150.340055 285.639014,150.555475 C285.285554,150.60251 271.383408,156.418915 277.863228,143.226178 C281.498795,135.824265 292.047722,129.667332 302.486546,130.033441 C308.163265,130.232535 312.982177,134.616746 315.291413,137.616405 Z M295.988128,332.483536 C288.729424,333.075626 280.754574,333.387271 271.803542,333.387271 C252.861571,333.387271 233.195453,332.626626 214.393321,330.174829 C219.421334,319.410615 224.430145,303.19674 230.829628,302.201773 C236.41221,301.333815 240.987374,308.620241 246.788889,311.088042 C254.23547,314.255607 262.604413,312.792341 266.055556,311.088042 C270.050463,309.115212 278.9,300.21974 286.13171,305.882767 C289.319687,308.379217 292.901569,322.18224 295.988128,332.483536 L295.988128,332.483536 Z M246.521188,267.055859 C247.576932,267.241369 244.577778,276.487125 244.577778,294.600961 C244.577778,312.714798 262.706806,308.513242 263.844443,301.846496 C265.448019,292.44927 259.866227,267.103592 261.336945,266.789664 C292.155765,260.211326 294.228973,216.349606 285.322224,209.650558 C284.83248,209.282206 272.685438,216.265728 256.422223,216.896093 C237.995332,217.610322 224.311111,209.650558 221.1,213.273325 C217.98271,216.790244 215.062498,261.528113 246.521188,267.055859 Z M248.943561,262.393031 C249.741699,262.533275 259.032353,262.429117 260.144209,262.191789 C283.443104,257.218593 285.010441,224.059322 278.276977,218.994871 C277.906733,218.716398 268.723621,223.995911 256.428701,224.472464 C242.49805,225.012418 232.152838,218.994871 229.725252,221.733667 C227.368595,224.392443 225.160927,258.214078 248.943561,262.393031 Z M256.40442,247.865023 C255.354806,248.228629 251.398571,253.31911 249.380083,251.864688 C247.361595,250.410266 248.572688,243.956259 248.572688,243.956259 C248.572688,243.956259 243.405359,240.502004 243.728317,238.41127 C244.051275,236.320536 248.653427,236.411437 250.429697,234.684309 C252.205966,232.957181 251.51912,229.790991 253.982235,228.866615 C255.919983,228.139403 257.938471,233.138984 258.907345,233.684393 C259.876219,234.229802 265.285767,232.775379 266.012423,234.138901 C267.153639,236.280317 262.702102,242.138231 262.702102,242.138231 C262.702102,242.138231 265.205027,248.137728 263.670976,249.773954 C262.136925,251.410181 257.454034,247.501417 256.40442,247.865023 Z M336.7,177.045652 C338.473448,177.045652 339.911111,174.6127 339.911111,171.611502 C339.911111,168.610303 338.473448,166.177351 336.7,166.177351 C334.926552,166.177351 333.488889,168.610303 333.488889,171.611502 C333.488889,174.6127 334.926552,177.045652 336.7,177.045652 Z M327.294188,140.696546 C330.476121,141.654768 333.589686,144.95199 333.589686,144.694345 C333.589686,139.910511 335.003465,131.368348 332.293722,130.033441 C329.583979,128.698534 320.630045,135.912712 320.630045,140.696546 C320.630045,141.038776 323.998306,139.704009 327.294188,140.696546 Z" fill="#FFFFFF"></path>
            </g>
        </g>
    </g>
</svg>