<?xml version="1.0" encoding="UTF-8" standalone="no"?>
<svg width="500px" height="500px" viewBox="0 0 500 500" version="1.1" xmlns="http://www.w3.org/2000/svg" xmlns:xlink="http://www.w3.org/1999/xlink" xmlns:sketch="http://www.bohemiancoding.com/sketch/ns">
    <!-- Generator: Sketch 3.3 (11970) - http://www.bohemiancoding.com/sketch -->
    <title>Rocket</title>
    <desc>Created with Sketch.</desc>
    <defs></defs>
    <g id="Page-1" stroke="none" stroke-width="1" fill="none" fill-rule="evenodd" sketch:type="MSPage">
        <g id="Row-4" sketch:type="MSLayerGroup" transform="translate(-600.000000, -21.000000)">
            <g id="Rocket" transform="translate(600.000000, 21.000000)" sketch:type="MSShapeGroup">
                <path d="M250,500 C388.071187,500 500,388.071187 500,250 C500,111.928813 388.071187,1.36424205e-12 250,1.36424205e-12 C111.928813,1.36424205e-12 0,111.928813 0,250 C0,388.071187 111.928813,500 250,500 Z" fill="#6DB67F"></path>
                <path d="M269.989307,193.204276 C269.984457,192.544006 269.945333,191.882804 269.870809,191.222418 L269.870809,191.222418 C264.275956,193.513673 253.501297,197.839506 247.565498,199.654262 C239.409873,202.147687 225.251607,205.100321 220.669148,206.033018 C221.850212,208.363649 223.494251,210.400834 225.485572,212.094991 L269.989307,193.204276 L269.989307,193.204276 Z M269.854803,195.624193 C268.783225,204.690447 261.416366,213.168731 250.734917,216.434378 C242.245592,219.029825 233.650811,217.724769 227.489428,213.607229 L269.854803,195.624193 L269.854803,195.624193 Z M269.43588,188.803921 C269.355478,188.480226 269.266115,188.15725 269.167656,187.835204 C268.335114,185.112082 266.926209,182.69754 265.07983,180.6511 L265.07983,180.6511 L265.535156,182.140403 C265.535156,182.140403 249.121671,189.156689 241.174712,191.586318 C234.726322,193.557789 223.727047,195.793004 218.653127,196.783182 C218.572809,198.867467 218.830241,200.968836 219.461028,203.032045 C219.559487,203.354091 219.666008,203.671822 219.78036,203.985137 L269.43588,188.803921 L269.43588,188.803921 Z M264.705036,180.247025 C258.626148,173.870966 248.182508,171.287287 237.893767,174.432871 C227.504793,177.609099 220.251376,185.716413 218.876003,194.499728 C224.363261,193.209758 234.948454,190.658103 241.271486,188.724958 C248.444165,186.53205 262.744807,181.007151 264.705036,180.247025 L264.705036,180.247025 Z M260.812448,305.503644 C260.52136,307.928135 256.019204,346.082266 260.355925,351.124503 C261.472308,352.422504 266.866388,351.979233 274.352263,350.474991 L274.352263,350.474991 C272.763984,356.459712 272.714389,362.691807 274.387085,368.162951 C275.964217,373.321516 276.833488,373.892457 282.942288,381.285197 C289.051088,388.677936 286.178881,376.13106 287.810662,371.504319 C289.442443,366.877578 292.535715,360.65673 294.149354,360.686988 C295.923917,360.720263 296.919414,366.146944 300.027055,371.040339 C304.557434,378.174021 311.681825,383.90433 314.267221,382.544828 C316.980043,381.118321 318.939335,374.60725 318.155195,368.183436 C317.312536,361.280226 314.334621,356.429067 315.739287,354.786313 C317.386646,352.859729 321.187862,355.212021 326.42101,359.699952 C331.654158,364.187882 330.856105,368.547934 332.969828,368.855335 C338.04423,369.593309 337.223102,349.763387 335.84022,345.240185 C334.442519,340.668509 331.890578,336.663726 328.517659,333.451207 C334.807411,330.673156 338.959722,328.202973 339.195656,326.594301 C340.16852,319.961004 311.912212,291.199194 309.620903,288.879409 C319.916474,285.342337 328.140975,282.502207 331.874553,281.211537 L332.162656,282.171956 C332.162656,282.171956 380.685154,304.936152 385.568989,294.574747 C390.452823,284.213342 368.482772,242.528946 356.817181,233.700557 C345.38686,225.050217 316.537584,226.055148 315.378578,226.099201 C311.755413,218.623599 307.435795,210.427153 302.287371,201.541424 C272.933961,150.880009 228.786053,114.622661 218.334753,119.607939 C207.883452,124.593217 195.818531,176.017888 202.633829,239.191137 C203.48966,247.124118 204.48138,254.274564 205.564116,260.715082 C200.848705,264.254445 181.90805,279.093808 178.623602,291.45332 C174.86629,305.59224 183.21713,351.966106 193.444762,357.124216 C202.421999,361.651713 222.180361,325.369363 226.877358,316.430183 C229.944465,315.765059 243.917169,311.1854 260.812448,305.503644 L260.812448,305.503644 Z M279.811033,357.519431 C279.671424,362.10403 281.604486,366.386867 283.042229,366.229809 C284.43689,366.077458 285.194019,360.722179 287.000927,357.00817 C288.363778,354.206899 293.090464,351.398677 295.113129,351.748721 C299.817502,352.562864 301.892047,357.81705 301.892047,357.81705 C301.892047,357.81705 306.484796,367.454432 308.596031,366.531697 C310.81132,365.563485 309.612644,360.818175 309.565368,357.585963 C309.514563,354.112537 309.228919,350.080522 314.660967,347.828622 C320.093015,345.576723 327.779487,355.433563 329.64057,353.808689 C330.648765,352.928455 330.362857,346.861392 327.724858,342.713752 C325.493225,339.205028 318.802841,337.693737 318.802841,337.693737 C318.802841,337.693737 318.349569,337.737708 301.560468,343.51941 C284.771367,349.301112 282.95569,347.591727 282.186338,348.888525 C281.346191,350.304652 279.908994,354.302509 279.811033,357.519431 Z M261.008894,243.340623 C266.339307,241.710952 269.345881,236.090045 267.724265,230.785975 C266.102648,225.481905 260.466913,222.503217 255.1365,224.132888 C249.806086,225.762559 246.799512,231.383466 248.421129,236.687536 C250.042745,241.991605 255.67848,244.970294 261.008894,243.340623 Z M272.465882,272.340623 C277.796296,270.710952 280.80287,265.090045 279.181253,259.785975 C277.559636,254.481905 271.923902,251.503217 266.593488,253.132888 C261.263074,254.762559 258.2565,260.383466 259.878117,265.687536 C261.499734,270.991605 267.135468,273.970294 272.465882,272.340623 Z M160.013664,161.642085 C158.883981,161.933497 154.625942,166.013263 152.453473,164.847616 C150.281004,163.68197 151.584485,158.509406 151.584485,158.509406 C151.584485,158.509406 146.022965,155.740992 146.37056,154.065373 C146.718155,152.389754 151.671384,152.462607 153.583157,151.0784 C155.49493,149.694194 154.755687,147.15665 157.406702,146.415809 C159.492272,145.832985 161.664741,149.839899 162.707526,150.277017 C163.750311,150.714135 169.572529,149.548488 170.354618,150.641283 C171.582892,152.357521 166.791768,157.052346 166.791768,157.052346 C166.791768,157.052346 169.485629,161.860644 167.834553,163.171998 C166.183476,164.483351 161.143348,161.350673 160.013664,161.642085 Z M131.221069,179.247288 C129.774744,179.62038 124.323212,184.843672 121.541817,183.351304 C118.760423,181.858936 120.429259,175.236544 120.429259,175.236544 C120.429259,175.236544 113.308889,171.692166 113.753912,169.546885 C114.198935,167.401603 120.540515,167.494876 122.988143,165.722687 C125.43577,163.950499 124.489323,160.701702 127.883397,159.753209 C130.553535,159.007024 133.334929,164.137045 134.669999,164.696683 C136.005068,165.256322 143.459207,163.763953 144.460509,165.163049 C146.033058,167.360336 139.89902,173.371082 139.89902,173.371082 C139.89902,173.371082 143.34795,179.527107 141.23409,181.206023 C139.12023,182.884939 132.667395,178.874195 131.221069,179.247288 Z M323.151385,134.896694 C321.78677,135.248708 316.643222,140.17691 314.018963,138.768853 C311.394703,137.360797 312.969259,131.112537 312.969259,131.112537 C312.969259,131.112537 306.251154,127.768399 306.671036,125.744316 C307.090917,123.720232 313.074229,123.808235 315.383577,122.136167 C317.692926,120.464098 316.799949,117.398842 320.002274,116.503935 C322.521562,115.799906 325.145822,120.640105 326.405466,121.168127 C327.665111,121.696149 334.698128,120.288091 335.642861,121.608145 C337.126568,123.681296 331.339074,129.352465 331.339074,129.352465 C331.339074,129.352465 334.593156,135.160705 332.598718,136.74477 C330.604281,138.328835 324.515999,134.544679 323.151385,134.896694 Z M155.000585,201.601685 C153.62843,201.955644 148.456463,206.911075 145.817705,205.495239 C143.178946,204.079402 144.762201,197.79662 144.762201,197.79662 C144.762201,197.79662 138.006978,194.434006 138.429179,192.398738 C138.851381,190.363471 144.867751,190.451961 147.189859,188.770654 C149.511967,187.089347 148.614056,184.007155 151.834075,183.107303 C154.367283,182.399384 157.006042,187.266326 158.272646,187.797265 C159.53925,188.328205 166.611126,186.912367 167.561079,188.239715 C169.052984,190.32432 163.233513,196.026823 163.233513,196.026823 C163.233513,196.026823 166.505574,201.867154 164.500117,203.459972 C162.49466,205.05279 156.372739,201.247725 155.000585,201.601685 Z M134.281133,143.801172 C133.242745,144.069034 129.328825,147.81909 127.331926,146.747646 C125.335027,145.676202 126.533166,140.921664 126.533166,140.921664 C126.533166,140.921664 121.421106,138.376983 121.74061,136.836781 C122.060113,135.296579 126.613042,135.363544 128.370313,134.091203 C130.127584,132.818862 129.448084,130.486393 131.884855,129.805424 C133.801877,129.269701 135.798776,132.952793 136.757287,133.354585 C137.715798,133.756377 143.067488,132.684932 143.786371,133.689412 C144.915381,135.266951 140.511456,139.582358 140.511456,139.582358 C140.511456,139.582358 142.987611,144.002068 141.469968,145.207444 C139.952325,146.412819 135.31952,143.533311 134.281133,143.801172 Z" fill="#FFFFFF"></path>
            </g>
        </g>
    </g>
</svg>