<?xml version="1.0" encoding="UTF-8" standalone="no"?>
<svg width="500px" height="500px" viewBox="0 0 500 500" version="1.1" xmlns="http://www.w3.org/2000/svg" xmlns:xlink="http://www.w3.org/1999/xlink" xmlns:sketch="http://www.bohemiancoding.com/sketch/ns">
    <!-- Generator: Sketch 3.3 (11970) - http://www.bohemiancoding.com/sketch -->
    <title>Saturn</title>
    <desc>Created with Sketch.</desc>
    <defs></defs>
    <g id="Page-1" stroke="none" stroke-width="1" fill="none" fill-rule="evenodd" sketch:type="MSPage">
        <g id="Row-4" sketch:type="MSLayerGroup" transform="translate(-1200.000000, 0.250000)">
            <g id="Saturn" transform="translate(1200.000000, 0.000000)" sketch:type="MSShapeGroup">
                <path d="M250,499.001996 C388.071187,499.001996 500,387.296594 500,249.500998 C500,111.705402 388.071187,0 250,0 C111.928813,0 0,111.705402 0,249.500998 C0,387.296594 111.928813,499.001996 250,499.001996 Z" fill="#62BCD4"></path>
                <path d="M332.404342,254.008554 C385.409122,216.037144 414.916435,171.907113 408.591564,158.939251 C402.290254,146.019698 353.722047,150.290954 293.227982,172.04796 C274.50679,159.33859 251.373611,155.100295 229.692107,162.565836 C201.971653,172.110754 184.159834,198.192475 181.753893,227.942272 C126.622231,264.4598 87.8588411,305.56878 96.444336,323.171654 C104.903482,340.515473 158.057881,332.435531 218.839866,310.563438 C235.64309,322.371662 257.255447,325.993631 282.921769,317.156002 C316.278286,305.670425 331.282854,281.817161 332.404333,254.00856 L332.404342,254.008554 Z M326.564837,216.787112 C338.630299,206.078238 344.642151,197.054609 342.003983,191.876913 C339.333793,186.636371 328.267664,186.248961 312.200431,189.853552 C318.085632,197.384437 322.889395,206.099805 326.224721,215.786296 C326.339603,216.119938 326.452977,216.453548 326.564837,216.787112 L326.564837,216.787112 Z M183.387172,253.09144 C166.129619,266.646205 156.840773,278.396485 160.006374,284.609326 C163.008989,290.50229 176.628183,290.258521 196.036794,285.102468 C192.232674,278.648039 189.007479,271.539708 186.389155,263.935542 C185.148725,260.333072 184.15104,256.711403 183.387172,253.09144 L183.387172,253.09144 Z M272.510761,276.736953 C276.732496,274.677875 280.973704,272.493163 285.212098,270.202437 C345.800701,237.456105 405.814468,183.045804 400.151387,164.292948 C394.092152,144.228262 302.738897,176.295649 302.738897,176.295649 L304.850534,179.207908 C304.850534,179.207908 384.694317,157.048185 385.859382,171.263626 C387.006444,185.259389 354.941465,229.600536 275.220539,269.403737 C273.969241,270.028488 272.706835,270.651515 271.433287,271.272666 C189.021262,311.467698 126.807611,314.628878 122.133302,306.37383 C114.330802,292.59425 179.048272,242.617297 179.048272,242.617297 L178.309241,237.926638 C178.309241,237.926638 96.2425558,294.609264 105.853264,314.314135 C115.463971,334.019006 207.938577,308.230911 272.510761,276.736953 Z M164.637808,173.052358 C164.637808,173.052358 168.540621,182.233642 164.728968,184.626811 C160.917314,187.01998 156.783649,179.18115 155.686988,178.784416 C154.590327,178.387683 147.341676,183.736228 144.908124,180.386731 C142.474572,177.037234 147.14134,171.936673 147.109397,169.993919 C147.077454,168.051165 139.37079,162.837601 141.00524,159.324614 C142.639689,155.811627 151.791192,158.607371 153.162838,157.805718 C154.534483,157.004065 156.147854,148.982847 159.614045,149.987166 C163.080236,150.991485 161.924818,159.974696 164.02559,161.642507 C166.126363,163.310317 175.182199,161.463069 176.2606,166.130976 C177.339,170.798882 164.637808,173.052358 164.637808,173.052358 Z M142.295873,205.035147 C142.295873,205.035147 144.740639,210.786404 142.352977,212.285512 C139.965315,213.784619 137.375941,208.87429 136.688981,208.625771 C136.00202,208.377253 131.461385,211.727641 129.936981,209.629479 C128.412577,207.531317 131.335892,204.336269 131.315883,203.119307 C131.295874,201.902344 126.468334,198.63651 127.492171,196.435936 C128.516008,194.235362 134.248611,195.986647 135.107825,195.484483 C135.967039,194.982319 136.977672,189.957738 139.148932,190.586855 C141.320193,191.215971 140.596426,196.843155 141.912374,197.88789 C143.228321,198.932625 148.900997,197.775488 149.576519,200.699516 C150.25204,203.623544 142.295873,205.035147 142.295873,205.035147 Z M105.518492,187.320377 C105.518492,187.320377 107.963257,193.071635 105.575595,194.570742 C103.187933,196.06985 100.598559,191.15952 99.9115988,190.911002 C99.2246384,190.662484 94.6840028,194.012872 93.1595989,191.91471 C91.635195,189.816548 94.5585101,186.6215 94.5385009,185.404537 C94.5184917,184.187575 89.6909519,180.92174 90.7147891,178.721166 C91.7386263,176.520592 97.4712289,178.271877 98.330443,177.769713 C99.1896571,177.267549 100.20029,172.242969 102.371551,172.872085 C104.542811,173.501202 103.819045,179.128385 105.134992,180.17312 C106.450939,181.217855 112.123615,180.060718 112.799137,182.984746 C113.474659,185.908775 105.518492,187.320377 105.518492,187.320377 Z M241.221391,357.029297 C241.221391,357.029297 245.124204,366.21058 241.31255,368.603749 C237.500897,370.996918 233.367231,363.158088 232.270571,362.761355 C231.17391,362.364621 223.925258,367.713166 221.491706,364.363669 C219.058154,361.014172 223.724922,355.913611 223.69298,353.970857 C223.661037,352.028103 215.954373,346.814539 217.588822,343.301552 C219.223272,339.788565 228.374774,342.584309 229.74642,341.782656 C231.118066,340.981004 232.731436,332.959785 236.197627,333.964104 C239.663819,334.968423 238.508401,343.951635 240.609173,345.619445 C242.709946,347.287256 251.765782,345.440007 252.844182,350.107914 C253.922582,354.77582 241.221391,357.029297 241.221391,357.029297 Z M377.179705,282.992406 C377.179705,282.992406 381.082518,292.17369 377.270865,294.566859 C373.459211,296.960028 369.325546,289.121198 368.228885,288.724464 C367.132224,288.327731 359.883573,293.676276 357.450021,290.326779 C355.016469,286.977282 359.683237,281.876721 359.651294,279.933967 C359.619352,277.991213 351.912687,272.777649 353.547137,269.264662 C355.181586,265.751675 364.333089,268.547419 365.704735,267.745766 C367.076381,266.944113 368.689751,258.922895 372.155942,259.927214 C375.622133,260.931533 374.466715,269.914744 376.567488,271.582555 C378.66826,273.250365 387.724097,271.403117 388.802497,276.071023 C389.880897,280.73893 377.179705,282.992406 377.179705,282.992406 Z M393.508986,314.009172 C393.508986,314.009172 396.089033,320.078678 393.569249,321.660739 C391.049465,323.242801 388.316806,318.060755 387.591833,317.798485 C386.866859,317.536215 382.074965,321.071998 380.466208,318.857734 C378.85745,316.643469 381.942528,313.271621 381.921412,311.987318 C381.900295,310.703014 376.805621,307.256463 377.886113,304.934119 C378.966605,302.611775 385.016424,304.459968 385.923183,303.930017 C386.829942,303.400065 387.896499,298.097447 390.187907,298.761376 C392.479316,299.425305 391.715499,305.363871 393.104265,306.466417 C394.49303,307.568963 400.479607,306.347796 401.192509,309.433627 C401.905411,312.519457 393.508986,314.009172 393.508986,314.009172 Z M193.916348,347.42968 C193.916348,347.42968 196.361113,353.180937 193.973451,354.680045 C191.58579,356.179152 188.996416,351.268823 188.309455,351.020304 C187.622495,350.771786 183.081859,354.122174 181.557455,352.024012 C180.033052,349.92585 182.956367,346.730802 182.936357,345.51384 C182.916348,344.296877 178.088808,341.031043 179.112646,338.830469 C180.136483,336.629895 185.869085,338.38118 186.7283,337.879016 C187.587514,337.376852 188.598147,332.352271 190.769407,332.981388 C192.940668,333.610504 192.216901,339.237688 193.532848,340.282423 C194.848795,341.327158 200.521471,340.170021 201.196993,343.094049 C201.872515,346.018077 193.916348,347.42968 193.916348,347.42968 Z M351.425998,326.202329 C351.425998,326.202329 353.870763,331.953587 351.483101,333.452694 C349.095439,334.951802 346.506065,330.041472 345.819105,329.792954 C345.132145,329.544435 340.591509,332.894823 339.067105,330.796661 C337.542701,328.698499 340.466016,325.503451 340.446007,324.286489 C340.425998,323.069526 335.598458,319.803692 336.622295,317.603118 C337.646133,315.402544 343.378735,317.153829 344.237949,316.651665 C345.097163,316.149501 346.107796,311.124921 348.279057,311.754037 C350.450317,312.383154 349.726551,318.010337 351.042498,319.055072 C352.358445,320.099807 358.031121,318.94267 358.706643,321.866698 C359.382165,324.790727 351.425998,326.202329 351.425998,326.202329 Z" fill="#FFFFFF"></path>
            </g>
        </g>
    </g>
</svg>