<?xml version="1.0" encoding="UTF-8" standalone="no"?>
<svg width="500px" height="500px" viewBox="0 0 500 500" version="1.1" xmlns="http://www.w3.org/2000/svg" xmlns:xlink="http://www.w3.org/1999/xlink" xmlns:sketch="http://www.bohemiancoding.com/sketch/ns">
    <!-- Generator: Sketch 3.3 (11970) - http://www.bohemiancoding.com/sketch -->
    <title>Seahorse</title>
    <desc>Created with Sketch.</desc>
    <defs></defs>
    <g id="Page-1" stroke="none" stroke-width="1" fill="none" fill-rule="evenodd" sketch:type="MSPage">
        <g id="Row-3" sketch:type="MSLayerGroup" transform="translate(-1200.000000, 0.250000)">
            <g id="Seahorse" transform="translate(1200.000000, 0.000000)" sketch:type="MSShapeGroup">
                <path d="M250,499.001996 C388.071187,499.001996 500,387.296594 500,249.500998 C500,111.705402 388.071187,0 250,0 C111.928813,0 0,111.705402 0,249.500998 C0,387.296594 111.928813,499.001996 250,499.001996 Z" fill="#62BCD4"></path>
                <path d="M322.548314,281.861629 C323.863743,284.791335 325.84349,287.935397 328.719475,291.400976 C337.972596,302.55104 351.466709,325.290241 352.330782,350.034079 C353.194856,374.777917 333.677098,387.145493 324.740345,392.439121 C303.952203,404.752841 286.042798,399.314212 274.548782,391.457588 C263.054767,383.600964 260.634116,364.642182 268.311275,355.340189 C271.11839,351.938961 282.657917,349.884391 289.457664,354.601741 C296.257412,359.319091 296.660646,370.866215 286.489828,364.614985 C276.319009,358.363755 275.13874,369.966176 280.26613,376.393527 C284.326705,381.483591 292.160789,384.531848 299.862873,382.509404 C329.732435,374.666137 314.91547,334.824643 293.481056,327.315145 C272.046641,319.805647 244.859746,312.497031 240.221367,274.672189 C237.142714,249.566534 258.939182,218.245424 264.908152,210.387027 C267.601319,206.841362 265.58972,200.058597 265.58972,200.058597 C265.58972,200.058597 261.719045,201.80719 257.309896,202.087165 C252.900747,202.36714 249.594922,200.047232 247.981413,200.673493 C239.228084,204.070972 228.705751,205.739957 224.959966,206.432221 C223.851186,206.637136 230.355062,219.13121 220.508211,221.452087 C216.543796,222.386489 212.436181,220.364972 210.394998,216.850446 C208.200776,213.072419 211.45768,207.728887 210.049368,206.952911 C201.592888,202.293415 196.565085,200.81739 199.590525,192.453735 C202.615966,184.090077 215.260475,192.980692 216.157856,191.875191 C216.902562,190.957773 227.934158,185.965208 232.437163,183.048698 C238.738952,178.967149 242.11879,175.422669 244.86736,171.967378 C244.891894,171.427851 244.87382,170.848746 244.803675,170.227327 C243.647198,159.982003 232.457511,159.081855 233.674741,152.578267 C234.891971,146.074679 249.04574,149.140822 252.365704,142.517328 C254.461835,138.335443 243.735092,126.329444 255.690633,125.961078 C267.646174,125.592712 271.037472,128.426266 275.589721,127.606606 C284.22751,126.051321 277.099466,115.441413 283.887148,116.014252 C293.905107,116.859707 302.682703,124.965015 305.20109,128.36013 C306.492498,130.101115 312.438204,124.016494 319.670908,124.482953 C327.894364,125.013309 323.797734,141.917497 324.909839,144.034913 C327.000065,148.014641 338.631155,148.783783 340.634833,152.176277 C343.254944,156.612474 339.747985,165.429445 336.927934,167.307012 C331.951304,170.620411 346.111968,179.481996 345.210464,185.512926 C344.30896,191.543857 331.908673,194.558822 335.254293,195.450982 C337.45437,196.037666 343.511393,201.33946 343.396669,204.264937 C343.174336,209.9345 336.068076,213.12976 336.678768,213.601587 C337.091493,213.920462 341.271146,215.550568 345.755275,219.475513 C350.239405,223.400458 343.849221,227.673384 344.466831,229.832643 C344.753464,230.834755 352.627088,234.667028 352.688244,241.300293 C352.7494,247.933557 346.079261,247.418779 344.362319,248.657681 C341.887426,250.443503 352.795808,248.106756 350.55527,258.960035 C348.314732,269.813313 336.548358,263.980938 335.397113,266.439293 C334.432121,268.499926 344.365372,274.289183 337.640705,281.217517 C333.401488,285.585124 326.828208,283.787258 322.548314,281.861629 L322.548314,281.861629 Z M270.99807,176.774639 C276.384544,176.680618 280.637444,170.090475 280.497187,162.055143 C280.356929,154.019812 275.876628,147.582108 270.490153,147.676129 C265.103679,147.77015 260.850779,154.360293 260.991037,162.395625 C261.131294,170.430956 265.611595,176.868661 270.99807,176.774639 Z M269.530458,171.854813 C271.814936,171.814938 273.622176,169.221975 273.567041,166.063269 C273.511905,162.904563 271.615273,160.376251 269.330795,160.416127 C267.046317,160.456003 265.239077,163.048965 265.294212,166.207671 C265.349348,169.366378 267.24598,171.894689 269.530458,171.854813 Z M287.988429,216.983152 C290.278406,216.983152 292.134799,215.130465 292.134799,212.845058 C292.134799,210.559652 290.278406,208.706964 287.988429,208.706964 C285.698451,208.706964 283.842058,210.559652 283.842058,212.845058 C283.842058,215.130465 285.698451,216.983152 287.988429,216.983152 Z M331.110681,359.333593 C333.400658,359.333593 335.257051,357.480905 335.257051,355.195499 C335.257051,352.910093 333.400658,351.057405 331.110681,351.057405 C328.820704,351.057405 326.96431,352.910093 326.96431,355.195499 C326.96431,357.480905 328.820704,359.333593 331.110681,359.333593 Z M328.622859,374.230732 C330.45484,374.230732 331.939955,372.748582 331.939955,370.920257 C331.939955,369.091932 330.45484,367.609782 328.622859,367.609782 C326.790877,367.609782 325.305762,369.091932 325.305762,370.920257 C325.305762,372.748582 326.790877,374.230732 328.622859,374.230732 Z M282.18351,241.811718 C284.931483,241.811718 287.159155,239.588492 287.159155,236.846005 C287.159155,234.103517 284.931483,231.880292 282.18351,231.880292 C279.435537,231.880292 277.207866,234.103517 277.207866,236.846005 C277.207866,239.588492 279.435537,241.811718 282.18351,241.811718 Z M326.96431,341.125979 C329.712283,341.125979 331.939955,338.902753 331.939955,336.160266 C331.939955,333.417778 329.712283,331.194553 326.96431,331.194553 C324.216338,331.194553 321.988666,333.417778 321.988666,336.160266 C321.988666,338.902753 324.216338,341.125979 326.96431,341.125979 Z M314.525199,324.573602 C317.731167,324.573602 320.330118,321.979839 320.330118,318.78027 C320.330118,315.580701 317.731167,312.986938 314.525199,312.986938 C311.319231,312.986938 308.720281,315.580701 308.720281,318.78027 C308.720281,321.979839 311.319231,324.573602 314.525199,324.573602 Z M275.549317,264.985045 C279.213281,264.985045 282.18351,262.020745 282.18351,258.364095 C282.18351,254.707444 279.213281,251.743144 275.549317,251.743144 C271.885354,251.743144 268.915125,254.707444 268.915125,258.364095 C268.915125,262.020745 271.885354,264.985045 275.549317,264.985045 Z M295.451895,308.021225 C299.115859,308.021225 302.086088,305.056924 302.086088,301.400274 C302.086088,297.743624 299.115859,294.779324 295.451895,294.779324 C291.787932,294.779324 288.817703,297.743624 288.817703,301.400274 C288.817703,305.056924 291.787932,308.021225 295.451895,308.021225 Z M273.890769,294.779324 C279.386714,294.779324 283.842058,290.332873 283.842058,284.847897 C283.842058,279.362922 279.386714,274.916471 273.890769,274.916471 C268.394824,274.916471 263.93948,279.362922 263.93948,284.847897 C263.93948,290.332873 268.394824,294.779324 273.890769,294.779324 Z M292.134799,197.1203 C293.966781,197.1203 295.451895,195.63815 295.451895,193.809825 C295.451895,191.9815 293.966781,190.499349 292.134799,190.499349 C290.302817,190.499349 288.817703,191.9815 288.817703,193.809825 C288.817703,195.63815 290.302817,197.1203 292.134799,197.1203 Z M158.217519,171.669194 C158.349647,171.487927 158.624608,168.818071 159.700072,167.477015 C160.575205,166.385763 162.294615,166.557249 162.350266,166.560563 C164.666293,166.698503 164.67416,164.796274 163.424738,164.17281 C162.241617,163.58243 158.458517,162.933733 156.80311,164.585835 C155.147703,166.237938 155.561555,169.761709 155.561555,170.781221 C155.561555,172.507836 157.067036,173.247544 158.217519,171.669194 Z M160.941627,183.171991 C168.48424,183.171991 174.598735,176.792324 174.598735,168.922605 C174.598735,161.052886 168.48424,154.673219 160.941627,154.673219 C153.399015,154.673219 147.28452,161.052886 147.28452,168.922605 C147.28452,176.792324 153.399015,183.171991 160.941627,183.171991 Z M162.390407,178.220197 C167.304697,178.220197 171.288517,173.781157 171.288517,168.305323 C171.288517,162.82949 167.304697,158.39045 162.390407,158.39045 C157.476116,158.39045 153.492296,162.82949 153.492296,168.305323 C153.492296,173.781157 157.476116,178.220197 162.390407,178.220197 Z M171.881393,202.351606 C171.978213,202.220966 172.179696,200.296783 172.967766,199.330275 C173.609039,198.543802 174.868974,198.667393 174.909753,198.669781 C176.606872,198.769195 176.612637,197.398246 175.697095,196.948911 C174.830138,196.523421 172.05799,196.0559 170.844954,197.246582 C169.631919,198.437263 169.935178,200.976869 169.935178,201.711638 C169.935178,202.956022 171.038352,203.489134 171.881393,202.351606 Z M173.877543,210.641751 C179.404555,210.641751 183.885084,206.043881 183.885084,200.372121 C183.885084,194.700361 179.404555,190.102491 173.877543,190.102491 C168.35053,190.102491 163.870002,194.700361 163.870002,200.372121 C163.870002,206.043881 168.35053,210.641751 173.877543,210.641751 Z M174.332431,208.260388 C177.598393,208.260388 180.245978,204.795326 180.245978,200.520956 C180.245978,196.246586 177.598393,192.781525 174.332431,192.781525 C171.066469,192.781525 168.418884,196.246586 168.418884,200.520956 C168.418884,204.795326 171.066469,208.260388 174.332431,208.260388 Z M178.150842,121.138801 C178.32343,120.905926 178.682588,117.475941 180.087375,115.753076 C181.230486,114.351135 183.476405,114.571444 183.549096,114.575702 C186.574324,114.752914 186.5846,112.309106 184.952587,111.508136 C183.407178,110.749671 178.465638,109.916284 176.303321,112.038754 C174.141005,114.161224 174.681584,118.688241 174.681584,119.998015 C174.681584,122.216212 176.648065,123.166521 178.150842,121.138801 Z M181.709112,135.916539 C171.856843,135.916539 163.870002,127.720528 163.870002,117.610237 C163.870002,107.499946 171.856843,99.303935 181.709112,99.303935 C191.561381,99.303935 199.548223,107.499946 199.548223,117.610237 C199.548223,127.720528 191.561381,135.916539 181.709112,135.916539 Z M183.646574,130.017067 C177.202579,130.017067 171.978688,124.210743 171.978688,117.048279 C171.978688,109.885816 177.202579,104.079492 183.646574,104.079492 C190.09057,104.079492 195.31446,109.885816 195.31446,117.048279 C195.31446,124.210743 190.09057,130.017067 183.646574,130.017067 Z" fill="#FFFFFF" transform="translate(250.000000, 249.500998) rotate(-11.000000) translate(-250.000000, -249.500998) "></path>
            </g>
        </g>
    </g>
</svg>