<?xml version="1.0" encoding="UTF-8" standalone="no"?>
<svg width="500px" height="500px" viewBox="0 0 500 500" version="1.1" xmlns="http://www.w3.org/2000/svg" xmlns:xlink="http://www.w3.org/1999/xlink" xmlns:sketch="http://www.bohemiancoding.com/sketch/ns">
    <!-- Generator: Sketch 3.2.2 (9983) - http://www.bohemiancoding.com/sketch -->
    <title>Shoes</title>
    <desc>Created with Sketch.</desc>
    <defs></defs>
    <g id="Page-1" stroke="none" stroke-width="1" fill="none" fill-rule="evenodd" sketch:type="MSPage">
        <g id="Row-3" sketch:type="MSLayerGroup" transform="translate(-2400.000000, 0.000000)">
            <g id="Shoes" transform="translate(2400.000000, 0.000000)" sketch:type="MSShapeGroup">
                <path d="M250,500 C388.071187,500 500,388.071187 500,250 C500,111.928813 388.071187,0 250,0 C111.928813,0 0,111.928813 0,250 C0,388.071187 111.928813,500 250,500 Z" fill="#CAA4CC"></path>
                <path d="M387.745296,239.893149 C382.102752,223.891509 362.362309,174.000462 347.728222,169.885959 C330.564293,165.060167 299.624982,180.590023 269.694927,200.889144 C244.395782,218.047494 222.238684,239.011651 212.6706,249.894175 C176.726066,290.776679 156.800285,340.461815 193.662488,352.90476 C202.997686,356.055884 222.674867,357.905271 248.685965,352.904757 C274.697064,347.904243 295.395649,338.581182 307.711147,333.902808 C357.73249,314.900856 391.793293,302.265166 394.748284,278.897157 C395.834507,270.307326 393.38784,255.894789 387.745296,239.893149 Z M314.366857,206.88976 C334.028113,198.888939 346.727798,186.887705 346.727798,180.887089 C346.727798,175.790429 320.467437,184.34563 298.707309,194.888527 C286.017974,201.036577 272.696211,208.109233 272.696211,212.890378 C272.696211,219.689484 294.705602,214.890581 314.366857,206.88976 Z M231,268 C235.999999,271.999999 241.000001,277 244.000001,274 C247.000001,271 237.46335,262.97068 235,261 C230.371509,257.297207 221.444881,253.832679 220,256 C216,262 227.588742,265.270994 231,268 Z M243,252 C247.132705,255.999999 253.999999,261.999999 255.522372,260 C257.044745,258.000001 250.119562,248.97068 248.083502,247 C244.257864,243.297207 236.194253,240.832679 235,243 C231.693836,249 240.180455,249.270994 243,252 Z M257.822173,238 C261.954878,241.999999 266,250 269,249 C272,248 268,239 262,233 C258.248795,229.248796 247.57851,227.68596 247,230 C246,234 255.002628,235.270994 257.822173,238 Z M201,333.999999 C189.999998,325.999997 181.07191,319.023365 180.259706,321.523071 C177.092467,331.270831 186.931014,342.594736 199.588917,346.707538 C205.8488,348.741498 210.622267,349.576534 215.999999,348 C219.680471,346.921034 212.000001,342.000001 201,333.999999 Z M176,298 C183,280 193.17836,267.085542 208,250 C229.090719,225.687821 262,201 274,194 C286,187 299,181.889143 297,176 C292.66621,163.238846 283.840643,152.60452 277.728222,150.885959 C260.564293,146.060167 229.624982,161.590023 199.694927,181.889144 C174.395782,199.047494 152.238684,220.011651 142.6706,230.894175 C106.726066,271.776679 89.2517972,318.625901 124,336 C126.114269,337.057135 145.011685,344.067253 161.999999,338 C176.000002,333 169,316 176,298 Z M244.154953,189.812651 C262.337498,181.493234 273.962791,169.287252 273.858066,163.28755 C273.769117,158.191666 249.446589,167.172722 229.352485,178.067968 C217.634685,184.42149 205.343667,191.709764 205.42711,196.490181 C205.54577,203.288251 225.972407,198.132069 244.154953,189.812651 Z M163,250 C167.999999,253.999999 173.000001,259 176.000001,256 C179.000001,253 169.46335,244.97068 167,243 C162.371509,239.297207 153.444881,235.832679 152,238 C148,244 159.588742,247.270994 163,250 Z M173,235 C177.132705,238.999999 183.999999,244.999999 185.522372,243 C187.044745,241.000001 180.119562,231.97068 178.083502,230 C174.257864,226.297207 166.194253,223.832679 165,226 C161.693836,232 170.180455,232.270994 173,235 Z M187.822173,222 C191.954878,225.999999 196,234 199,233 C202,232 198,223 192,217 C188.248795,213.248796 177.57851,211.68596 177,214 C176,218 185.002628,219.270994 187.822173,222 Z M133.058102,318.315847 C123.957424,313.126875 116.508768,308.446397 116.234031,311.060345 C115.162677,321.253599 123.838257,329.937411 133.655948,330.969292 C138.511222,331.479602 142.12158,331.1744 145.865408,328.389296 C148.42765,326.483195 142.15878,323.504819 133.058102,318.315847 Z" fill="#FFFFFF"></path>
            </g>
        </g>
    </g>
</svg>