<?xml version="1.0" encoding="UTF-8" standalone="no"?>
<svg width="500px" height="500px" viewBox="0 0 500 500" version="1.1" xmlns="http://www.w3.org/2000/svg" xmlns:xlink="http://www.w3.org/1999/xlink" xmlns:sketch="http://www.bohemiancoding.com/sketch/ns">
    <!-- Generator: Sketch 3.2.2 (9983) - http://www.bohemiancoding.com/sketch -->
    <title>Sleep </title>
    <desc>Created with Sketch.</desc>
    <defs></defs>
    <g id="Page-1" stroke="none" stroke-width="1" fill="none" fill-rule="evenodd" sketch:type="MSPage">
        <g id="Row-1" sketch:type="MSLayerGroup" transform="translate(-2400.000000, 0.000000)">
            <g id="Sleep-" transform="translate(2400.000000, 0.000000)" sketch:type="MSShapeGroup">
                <path d="M250,500 C388.071187,500 500,388.071187 500,250 C500,111.928813 388.071187,0 250,0 C111.928813,0 0,111.928813 0,250 C0,388.071187 111.928813,500 250,500 Z" id="Sleep" fill="#CAA4CC"></path>
                <path d="M148.433911,193.75293 C141.425405,211.428479 136.365251,230.272261 134.794263,245.587891 C133.126704,261.844994 134.567047,274.086434 134.794263,276.833984 C140.257153,342.892578 199.173168,366.166016 225.618481,369.894531 C252.063793,373.623047 267.279691,375.335432 291.511059,369.894531 C314.094425,364.823672 336.16656,349.149365 342.577465,341.373047 C344.697109,338.801956 345.746685,335.509104 345.187332,333.796875 C344.659557,332.181306 342.577469,332.072266 342.577469,332.072266 C342.577469,332.072266 333.685102,332.26811 327.573324,331.485982 C326.147379,331.303503 266.776688,327.859375 236.105789,298.386719 C226.406641,289.066494 215.536739,268.405861 211.889969,248.116211 C207.956884,226.233582 211.644208,204.936468 211.889969,203.171875 C215.984584,173.772058 231.57375,148.178472 236.105789,142.1875 C243.774734,132.049805 248.368236,126 233.594067,126 C207.847027,126 165.537286,150.61798 148.433911,193.75293 Z M277.814283,209.672363 C277.814283,209.672363 271.743972,231.140137 262.566724,230.602051 C253.389477,230.063965 257.465405,210.27661 256.128735,208.569335 C254.792065,206.862059 236.381665,206.979489 236.381665,199.658934 C236.381665,192.33838 250.225171,189.892334 252.506177,187.080079 C254.787183,184.267824 248.307697,168.800428 255.230298,165.473877 C262.152898,162.147326 273.925855,175.657715 277.156812,175.936523 C280.387769,176.215331 292.691234,166.417969 297.215894,171.457031 C301.740553,176.496093 289.038647,188.14551 290.508618,192.7146 C291.978589,197.28369 309.170972,204.052977 305.346509,211.851073 C301.522046,219.649169 277.814283,209.672363 277.814283,209.672363 Z M348.15608,251.639403 C348.15608,251.639403 352.688481,267.044645 345.90266,269.875487 C339.116839,272.706329 334.457072,260.721893 332.897601,259.963252 C331.338131,259.204612 315.222263,266.278084 312.655591,261.015625 C310.088918,255.753166 321.173261,248.507647 321.826977,245.686279 C322.480693,242.864912 309.505201,232.26123 314.460767,226.288818 C319.416333,220.316406 328.783521,230.019776 333.221264,228.732179 C337.659007,227.444582 339.732742,214.689939 346.782056,216.227539 C353.83137,217.765138 349.168785,232.096573 351.827466,234.865723 C354.486147,237.634873 366.857021,238.642222 366.841869,245.588868 C366.826718,252.535514 348.15608,251.639403 348.15608,251.639403 Z M350.266674,170.094239 C349.563794,172.642334 354.847841,179.911235 350.703441,183.266845 C346.559041,186.622455 341.245434,180.203613 338.833529,179.997089 C336.421624,179.790564 330.004185,187.683359 325.866285,183.398438 C321.728385,179.113517 327.375986,173.940538 327.216626,172.102295 C327.057266,170.264052 319.603373,165.195313 321.430249,160.60083 C323.257125,156.006347 329.454762,159.518383 331.89021,157.864502 C334.325658,156.210621 331.26692,148.845946 337.827955,148.351073 C344.38899,147.8562 343.127176,156.139213 344.943921,158.020507 C346.760666,159.901802 353.624095,153.595461 357.124584,159.08252 C360.625073,164.569579 350.969554,167.546143 350.266674,170.094239 Z" id="Sleep" fill="#FFFFFF"></path>
            </g>
        </g>
    </g>
</svg>