<?xml version="1.0" encoding="UTF-8" standalone="no"?>
<svg width="500px" height="500px" viewBox="0 0 500 500" version="1.1" xmlns="http://www.w3.org/2000/svg" xmlns:xlink="http://www.w3.org/1999/xlink" xmlns:sketch="http://www.bohemiancoding.com/sketch/ns">
    <!-- Generator: Sketch 3.2.2 (9983) - http://www.bohemiancoding.com/sketch -->
    <title>Sleepsuit</title>
    <desc>Created with Sketch.</desc>
    <defs></defs>
    <g id="Page-1" stroke="none" stroke-width="1" fill="none" fill-rule="evenodd" sketch:type="MSPage">
        <g id="Row-4" sketch:type="MSLayerGroup" transform="translate(-1800.000000, -21.000000)">
            <g id="Sleepsuit" transform="translate(1779.000000, 0.000000)" sketch:type="MSShapeGroup">
                <path d="M271,521 C409.071187,521 521,409.071187 521,271 C521,132.928813 409.071187,21 271,21 C132.928813,21 21,132.928813 21,271 C21,409.071187 132.928813,521 271,521 Z" fill="#F2C06C" transform="translate(271.000000, 271.000000) rotate(-5.000000) translate(-271.000000, -271.000000) "></path>
                <path d="M281.785441,253.650439 C281.898447,253.865415 282.246689,254.476574 282.961405,255.337128 C284.607314,257.318888 287.27574,260.977625 286.978749,266.671717 C286.519406,275.478535 279.066992,279.682831 274.354195,280.345172 C266.508728,281.44778 261.807592,276.760638 259.668489,272.452649 C255.272599,263.599667 263.335352,258.185925 263.228867,258.110356 C263.13486,258.043642 258.125496,263.198719 249.744542,260.491135 C241.363588,257.783552 238.218684,247.481608 237.892127,245.15804 C237.101926,239.535466 242.205669,229.510983 248.688618,228.827416 C255.105775,228.150787 262.322954,236.139178 262.322954,236.139178 C262.322954,236.139178 254.160136,226.35856 257.977861,219.022477 C261.795586,211.686394 271.129889,211.541732 273.44145,211.749558 C275.827409,211.964074 284.099415,213.408608 287.544338,222.395238 C290.989262,231.381868 284.760654,238.813939 284.760654,238.813939 C284.760654,238.813939 292.151432,227.575927 299.514485,229.940886 C304.251631,231.462422 309.331096,244.588733 305.617241,250.938855 C301.903385,257.288978 296.903723,259.448678 294.020985,259.853821 C286.432918,260.920254 282.271228,254.443104 281.789847,253.64558 C284.216275,250.968326 285.543001,247.205588 285.007127,243.392649 C284.012031,236.312168 277.774655,231.55482 270.686459,232.551001 C263.598263,233.547182 258.913816,239.839492 259.908912,246.919974 C260.904009,254.000456 266.643671,257.590414 273.609088,257.485461 C276.821261,257.437061 279.706413,255.941998 281.785441,253.650439 L281.785441,253.650439 Z M178.349558,256.518659 C166.02753,286.376792 159.357996,327.482798 159.349558,327.518659 C155.349558,344.518659 186.73885,342.09877 199.349559,365.518659 C201.260119,369.066842 202.595764,373.124853 204.34956,379.518659 C205.717815,384.506902 205.34956,388.518643 211.34956,393.518643 C217.34956,398.518643 254.349556,409.518643 268.349556,405.518643 C273.080757,404.166872 276.809529,399.727226 281.34956,394.518643 C285.890723,389.308763 288.190751,385.518659 292.34956,381.518659 C296.508369,377.518659 300.471164,377.304529 306.34956,377.518659 C315.586169,377.855117 326.011821,380.174712 332.34956,374.518659 C347.000697,361.443394 349.180386,321.553578 350.349564,288.518659 C351.32046,261.086158 352.349564,240.086101 352.349564,227.518659 C352.349564,217.446452 376.887889,246.224333 387.349564,243.518654 C399.40392,240.401063 422.986144,202.700789 418.349548,196.518658 C394.349564,164.518656 346.349564,158.518656 330.349564,158.518656 C314.349564,158.518656 322.842468,193.658836 285.422844,185.365944 C248.00322,177.073051 264.999529,151.27633 252.349556,142.518657 C239.349556,133.518658 174.349557,131.518657 167.349558,142.518657 C165.021977,146.176284 164.609922,156.72249 164.349558,167.518658 C164.014924,181.394524 164.725431,196.019354 170.349558,200.518654 C180.349558,208.51865 203.34956,201.518659 203.34956,206.518659 C203.34956,211.518659 189.135731,230.382134 178.349558,256.518659 Z M274.408102,254.42888 C279.456838,253.719327 281.999409,248.143628 281.336623,243.42766 C280.673837,238.711692 275.036829,236.792428 271.158598,237.337478 C267.280367,237.882528 263.136722,242.569079 263.799508,247.285047 C264.462294,252.001014 269.359367,255.138434 274.408102,254.42888 Z M277.603894,249.894432 C278.861093,249.717744 280.277336,247.592713 280.023651,245.787646 C279.769965,243.982579 278.632752,242.028906 276.790751,242.287783 C274.948749,242.546659 275.488537,243.932965 275.742222,245.738032 C275.995908,247.543099 276.346695,250.07112 277.603894,249.894432 Z" fill="#FFFFFF" transform="translate(288.972566, 270.688533) rotate(-5.000000) translate(-288.972566, -270.688533) "></path>
            </g>
        </g>
    </g>
</svg>