<?xml version="1.0" encoding="UTF-8" standalone="no"?>
<svg width="500px" height="500px" viewBox="0 0 500 500" version="1.1" xmlns="http://www.w3.org/2000/svg" xmlns:xlink="http://www.w3.org/1999/xlink" xmlns:sketch="http://www.bohemiancoding.com/sketch/ns">
    <!-- Generator: Sketch 3.3 (11970) - http://www.bohemiancoding.com/sketch -->
    <title>Slice of Cake</title>
    <desc>Created with Sketch.</desc>
    <defs></defs>
    <g id="Page-1" stroke="none" stroke-width="1" fill="none" fill-rule="evenodd" sketch:type="MSPage">
        <g id="Row-4" sketch:type="MSLayerGroup" transform="translate(0.000000, -21.000000)">
            <g id="Slice-of-Cake" transform="translate(0.000000, 21.000000)" sketch:type="MSShapeGroup">
                <path d="M250,500 C388.071187,500 500,388.071187 500,250 C500,111.928813 388.071187,4.54747351e-13 250,4.54747351e-13 C111.928813,4.54747351e-13 0,111.928813 0,250 C0,388.071187 111.928813,500 250,500 Z" fill="#FA8997"></path>
                <path d="M248.903345,164.768331 C250.960307,163.539994 253.254408,162.145435 255.44545,161.241603 C259.35769,159.627755 262.93575,159.539439 263.597534,160.221486 C264.909611,161.573735 260.973381,165.630483 260.973381,166.98273 C260.973381,167.801449 268.845842,168.33498 267.533765,173.743975 C266.221688,179.152971 258.116757,177.869011 257.03715,177.800722 C253.0372,177.54771 261.5401,186.170273 254.412997,188.618712 C250.476766,189.970961 246.540534,184.561965 245.228458,184.561965 C243.916381,184.561965 239.773063,193.885421 236.04392,191.323209 C232.10769,188.618712 236.153163,182.597103 234.731844,180.505218 C233.840971,179.194039 225.547306,181.857468 226.859383,177.800722 C227.3734,176.211457 227.787388,173.537958 233.183163,170.598217 C234.434443,169.916491 236.035266,169.428184 237.741483,168.983327 C235.929592,170.620601 234.796372,172.497255 234.796372,174.147277 C234.796372,175.195746 241.229605,171.335385 241.738513,172.364751 C242.37272,173.647557 238.02279,179.632188 240.447946,181.076081 C242.182943,182.109066 242.935681,176.083128 245.766195,176.083128 C246.803627,176.083128 249.315255,181.758781 250.697881,181.758782 C253.50467,181.758784 249.585847,174.726172 250.697881,173.179352 C251.083412,172.643084 252.400437,173.312974 253.832241,173.501993 C256.363374,173.83614 259.433722,173.981599 259.639794,172.687393 C259.851387,171.358509 257.386412,170.772866 255.122808,169.952933 C253.934824,169.522617 252.314111,168.94841 252.219031,168.339724 C252.168483,168.01612 253.186957,168.017082 256.090734,166.726514 C258.99451,165.435947 260.050602,164.073581 256.413375,163.822738 C253.069223,163.592107 251.010508,164.603797 248.903345,164.768331 L248.903345,164.768331 Z M243.871841,150.836065 C243.868196,149.991423 243.784016,149.104338 243.549164,148.185757 C241.344511,139.562642 234.361836,129.07163 216.417877,131.304587 C189.28659,134.680821 201.320285,157.198602 199.460823,158.314458 C196.49426,160.094681 186.419859,149.137057 168.938125,154.938225 C148.58966,161.690692 157.948866,186.809926 155.679057,188.245571 C152.337605,190.359025 128.241195,178.571862 118.066962,195.453032 C107.89273,212.334201 128.241195,242.720307 128.241195,242.720307 C128.241195,242.720307 126.996084,264.512983 128.496118,288.155992 C130.185828,314.788592 134.82235,343.80656 138.415428,347.383559 C145.198249,354.136026 362.248544,374.39343 379.205599,367.640962 C385.438676,365.158889 385.371598,354.462125 384.093652,340.682341 L384.093652,340.682341 L318.633073,339.470467 C318.633073,339.470467 230.374759,330.043489 186.556793,325.435262 C176.148137,324.34061 160.45283,322.361827 153.652033,319.288392 C146.851235,316.214958 145.343711,302.566328 153.652033,300.195321 C161.960354,297.824314 224.128877,318.012037 271.566761,322.361828 C298.782193,324.857332 334.945711,327.064869 359.977127,325.435262 C369.247844,324.831716 376.87995,323.30271 382.203729,321.920752 C380.394484,302.345055 379.213208,281.371276 372.906485,270.525983 C370.083455,259.638175 332.183458,220.450507 297.229413,191.43628 C296.843433,187.990392 296.236852,184.814642 295.450338,182.094346 C293.199083,174.307987 288.914596,166.987131 282.26699,163.055632 C276.283297,159.51678 267.765308,158.975907 267.765308,158.975907 C267.765308,158.975907 269.083643,153.536275 262.491969,153.536275 C260.582836,153.536275 253.263625,156.256091 253.263625,156.256091 C253.263625,156.256091 250.444699,150.081843 244.035282,150.816458 C243.980428,150.822745 243.925948,150.829282 243.871841,150.836065 L243.871841,150.836065 Z M236.447253,165.220529 C234.621989,164.498776 233.179242,164.118762 232.181033,164.118762 C220.719223,164.118762 200.976955,171.259627 182.421368,183.637366 C157.053969,200.559012 132.20122,224.361583 136.749528,232.943377 C138.964371,237.122367 157.816904,246.977931 246.209383,264.118762 C334.601862,281.259593 365.580079,275.504037 366.175128,274.039569 C368.063687,269.391657 359.970982,260.251074 346.418184,248.291202 C335.658981,238.79658 320.878023,227.217987 309.04908,216.885255 C305.203717,213.526282 301.316896,210.232595 297.438066,207.034711 C296.159272,222.688701 290.263474,238.508234 276.993651,241.930305 C255.900295,247.369938 218.986922,223.289228 218.986922,201.13306 C218.986922,193.245223 221.201724,187.742647 224.260261,182.094346 C224.353038,181.923012 220.305256,179.37453 224.260261,173.934897 C228.215265,168.495265 234.130946,166.4414 236.125274,165.775448 C236.302978,165.716108 236.400975,165.522096 236.447253,165.220529 L236.447253,165.220529 Z M241.404871,161.695723 C241.387377,166.825141 242.154081,171.281168 244.035282,172.574989 C245.359967,173.486058 247.990286,172.778129 247.990286,169.855172 C247.990286,164.895042 245.359874,165.775448 246.678209,161.695723 C247.996545,157.615999 248.755375,154.896183 244.04154,154.896183 C242.723205,154.896183 241.41779,157.907743 241.404871,161.695723 Z M281.474578,235.828606 C282.38764,235.600954 282.727186,233.809535 282.232975,231.827361 C281.738763,229.845187 280.597942,228.422865 279.684879,228.650517 C278.771817,228.878169 278.432271,230.669588 278.926483,232.651762 C279.420694,234.633936 280.561515,236.056258 281.474578,235.828606 Z M286.006869,212.615032 C286.942662,212.53316 287.557115,210.819069 287.379288,208.786501 C287.201462,206.753934 286.298695,205.172582 285.362901,205.254453 C284.427108,205.336324 283.812655,207.050416 283.990481,209.082983 C284.168308,211.115551 285.071075,212.696903 286.006869,212.615032 Z M267.979823,224.804639 C268.787245,224.603326 269.079844,222.988447 268.633362,221.197705 C268.18688,219.406964 267.17039,218.118477 266.362969,218.31979 C265.555547,218.521103 265.262947,220.135982 265.70943,221.926724 C266.155912,223.717465 267.172401,225.005952 267.979823,224.804639 Z M251.118959,221.841487 C251.925893,221.640296 252.225972,220.057102 251.789204,218.305324 C251.352437,216.553546 250.344218,215.296547 249.537285,215.497738 C248.730352,215.69893 248.430273,217.282124 248.86704,219.033902 C249.303807,220.78568 250.312026,222.042679 251.118959,221.841487 Z M289.136852,188.618744 C289.943104,188.309253 290.042049,186.613443 289.357851,184.831046 C288.673654,183.04865 287.465405,181.854625 286.659152,182.164116 C285.852899,182.473608 285.753954,184.169418 286.438152,185.951814 C287.12235,187.73421 288.330599,188.928236 289.136852,188.618744 Z M273.767049,200.844688 C274.735437,200.492224 274.888671,198.470639 274.109306,196.329352 C273.329942,194.188065 271.913108,192.737938 270.94472,193.090403 C269.976332,193.442867 269.823098,195.464452 270.602463,197.605739 C271.381828,199.747026 272.798661,201.197153 273.767049,200.844688 Z M257.63636,206.031146 C258.469448,205.588185 258.36681,203.76591 257.407112,201.96098 C256.447414,200.15605 254.994074,199.051956 254.160986,199.494917 C253.327898,199.937878 253.430536,201.760153 254.390234,203.565083 C255.349932,205.370013 256.803272,206.474107 257.63636,206.031146 Z M237.586427,210.619752 C238.482142,210.396426 238.815237,208.639043 238.330415,206.694528 C237.845593,204.750013 236.726446,203.354715 235.830731,203.578042 C234.935016,203.801369 234.601921,205.558751 235.086743,207.503266 C235.571565,209.447781 236.690712,210.843079 237.586427,210.619752 Z" fill="#FFFFFF" transform="translate(250.000000, 250.000000) rotate(4.000000) translate(-250.000000, -250.000000) "></path>
            </g>
        </g>
    </g>
</svg>