<?xml version="1.0" encoding="UTF-8" standalone="no"?>
<svg width="500px" height="500px" viewBox="0 0 500 500" version="1.1" xmlns="http://www.w3.org/2000/svg" xmlns:xlink="http://www.w3.org/1999/xlink" xmlns:sketch="http://www.bohemiancoding.com/sketch/ns">
    <!-- Generator: Sketch 3.3 (11970) - http://www.bohemiancoding.com/sketch -->
    <title>Smiling Boy</title>
    <desc>Created with Sketch.</desc>
    <defs></defs>
    <g id="Page-1" stroke="none" stroke-width="1" fill="none" fill-rule="evenodd" sketch:type="MSPage">
        <g id="Row-3" sketch:type="MSLayerGroup" transform="translate(-600.000000, 0.000000)">
            <g id="Smiling-Boy" transform="translate(600.000000, 0.000000)" sketch:type="MSShapeGroup">
                <path d="M250,500 C388.071187,500 500,388.071187 500,250 C500,111.928813 388.071187,0 250,0 C111.928813,0 0,111.928813 0,250 C0,388.071187 111.928813,500 250,500 Z" fill="#6DB67F"></path>
                <path d="M139.383968,305.094566 C150.745465,353.72923 197.98916,388.375117 251.704827,390.031937 C303.824861,391.639541 348.694885,354.129722 360.919,306.255564 C361.315761,304.701698 382.761834,309.111577 385.6109,287.215479 C388.459965,265.319381 361.189282,263.603514 360.919006,262.021621 C360.708958,260.792233 354.410809,223.308002 332,200.08174 C319.924604,187.566961 294.340773,176.045218 272,171.08174 C268.524434,170.309569 261.651553,169.468686 261.651553,169.468686 C261.651553,169.468686 254.313731,158.016328 251.704834,153.081741 C248.42988,146.887346 244,136.081739 244,136.081739 C244,136.081739 254,155.081741 269,153.081741 C277.555288,151.941036 289,141.08174 283,125.08174 C277,109.081741 260.117418,109.851099 254,110.08174 C241.698811,110.545523 234,116.081738 230,128.081739 C227.822485,134.614284 229.913013,142.674072 233,150.081741 C237.259451,160.302906 240.427337,169.08174 240,169.08174 C192,169.08174 147.673451,211.113517 138.595692,262.021623 C138.343251,263.437317 114,258.864344 114,282.455458 C114,306.046572 138.907589,303.055354 139.383968,305.094566 Z M235.085279,270.893968 C240.592513,270.893968 245.057008,266.489624 245.057008,261.056591 C245.057008,255.623558 240.592513,251.219214 235.085279,251.219214 C229.578045,251.219214 225.11355,255.623558 225.11355,261.056591 C225.11355,266.489624 229.578045,270.893968 235.085279,270.893968 Z M273.072817,270.893968 C278.580051,270.893968 283.044546,266.489624 283.044546,261.056591 C283.044546,255.623558 278.580051,251.219214 273.072817,251.219214 C267.565583,251.219214 263.101088,255.623558 263.101088,261.056591 C263.101088,266.489624 267.565583,270.893968 273.072817,270.893968 Z M195.673208,305.30356 C192.824143,304.351556 190.232478,309.611657 189.025388,311.967589 C187.41793,315.104941 186.176323,319.583623 187.126011,320.535627 C189.960296,323.376822 192.22816,317.343171 193.773831,318.631619 C205.802792,328.658784 228.741381,354.807781 253.604204,354.80778 C281.730339,354.807779 302.034537,334.187878 311.535195,321.487631 C312.434498,320.285464 316.283637,325.295648 318.183014,322.53585 C320.082391,319.776051 316.656744,315.52573 313.434572,311.967589 C312.027874,310.414219 307.736448,305.303559 304.887383,307.207568 C302.038317,309.111577 305.579387,314.339293 304.887383,314.823602 C304.257031,315.264762 282.094858,346.239744 251.229983,343.383731 C220.365108,340.527718 197.977531,313.281598 197.572585,312.919593 C196.866205,312.28812 198.522273,306.255564 195.673208,305.30356 Z" fill="#FFFFFF"></path>
            </g>
        </g>
    </g>
</svg>