<?xml version="1.0" encoding="UTF-8" standalone="no"?>
<svg width="500px" height="499px" viewBox="0 0 500 499" version="1.1" xmlns="http://www.w3.org/2000/svg" xmlns:xlink="http://www.w3.org/1999/xlink" xmlns:sketch="http://www.bohemiancoding.com/sketch/ns">
    <!-- Generator: Sketch 3.3 (11970) - http://www.bohemiancoding.com/sketch -->
    <title>Snail</title>
    <desc>Created with Sketch.</desc>
    <defs></defs>
    <g id="Page-1" stroke="none" stroke-width="1" fill="none" fill-rule="evenodd" sketch:type="MSPage">
        <g id="Row-5" sketch:type="MSLayerGroup" transform="translate(-600.000000, 0.000000)">
            <g id="Snail" transform="translate(600.000000, 0.000000)" sketch:type="MSShapeGroup">
                <path d="M250,499.001996 C388.071187,499.001996 500,387.296594 500,249.500998 C500,111.705402 388.071187,0 250,0 C111.928813,0 0,111.705402 0,249.500998 C0,387.296594 111.928813,499.001996 250,499.001996 Z" fill="#6DB67F"></path>
                <path d="M353.904943,224.020919 C351.491025,225.950473 349.403991,227.695213 349.354725,229.211595 C348.350224,260.129723 367,266.052207 367,297.629874 C367,329.20754 356.28785,330.797588 356.928044,339.733429 C358.582765,362.830054 371.249289,359.963756 360.95683,368.119938 C347.902773,378.464528 335.09515,375.350122 308.80237,377.018045 C282.50959,378.685967 258.776624,374.699482 223.439224,376.843577 C184.766072,379.190069 168.94135,379.944318 163.861999,379.848588 C155.135926,379.684129 132.726179,381.51112 133.002533,354.811258 C133.239404,331.926044 162.524305,336.188367 161.461685,334.824422 C123.821247,286.510386 160.358817,217.550234 232.082542,214.640956 C269.001261,213.143449 291.736442,235.891564 294.535582,233.838292 C295.87448,232.856161 280.568744,223.318904 280.568503,208.159813 C280.568142,185.445204 293.733243,180.810853 292.500747,178.655578 C290.756905,175.606107 288.319949,171.266985 286.957247,167.878561 C286.566049,166.905829 275.453426,166.027616 270.287364,158.688136 C262.661343,147.853764 262.294401,128.750055 282.040621,121.847526 C302.855177,114.571548 310.233889,133.330736 307.684089,148.16225 C306.176318,156.932558 296.363018,163.838099 296.90896,164.507068 C297.745692,165.532355 298.531132,166.746691 299.136266,168.161438 C299.675699,169.42258 300.102852,170.999138 300.62732,172.263045 C300.866924,172.840461 306.396439,170.530043 312.05862,169.882904 C318.051739,169.197942 324.193486,170.12325 324.368454,168.858223 C324.846081,165.40496 325.408717,161.254517 325.408717,161.254517 C325.408717,161.254517 314.283347,154.942886 314.744286,140.215742 C315.205224,125.488598 327.750279,118.618009 339.272478,119.176967 C350.276365,119.710781 357.27141,135.457117 353.628633,146.527375 C350.092921,157.272263 336.073149,163.358395 336.073149,163.358395 C336.073149,163.358395 335.045048,167.325553 334.439421,171.332532 C334.05323,173.887663 341.702977,174.929721 345.919147,181.241354 C350.861585,188.640213 349.840291,200.173342 353.628636,208.159817 C355.056974,211.170996 359.877437,210.775603 360.95683,213.422761 C361.861612,215.641695 360.708125,217.763706 358.827567,219.754914 C356.679987,220.534374 348.119097,223.495034 343.218408,223.02495 C337.035156,222.43184 333.31594,219.65088 330.12217,218.539146 C329.423633,218.295989 330.51185,215.182741 329.370297,214.275063 C328.800148,213.821723 328.252482,217.188963 327.230493,219.049027 C326.281533,220.776173 324.202495,223.008904 324.790228,223.419565 C326.010924,224.27249 328.800123,221.84628 329.095956,222.06072 C331.731267,223.970969 336.463116,225.012845 342.228585,225.789755 C346.216107,226.327083 350.611463,225.211563 353.904943,224.020919 Z M215.193843,316.192514 C204.417923,313.948505 198.479805,309.793068 198.479805,289.528156 C198.479805,269.263243 223.906343,259.572835 240.264901,263.397085 C248.366717,265.2911 264.915587,274.062828 267.007367,291.661304 C267.929789,299.421787 265.409011,319.354316 255.30754,329.145755 C242.501867,341.558399 220.695519,342.212507 212.491394,342.212505 C200.708343,342.212503 189.352317,335.930228 182.933072,329.145752 C178.861829,324.842871 171.390967,312.916993 170.105875,299.613819 C169.391075,292.214258 170.822355,267.190704 182.933071,253.08885 C191.276983,243.373105 212.395937,233.918776 232.01104,234.06629 C238.406402,234.114386 254.198473,237.467216 267.007367,245.26532 C273.80243,249.402181 290.964155,261.797221 292.078425,284.195284 C293.192694,306.593347 282.593986,332.563433 282.050002,333.2577 C278.707194,337.523997 267.420338,333.790992 270.350175,329.145755 C271.236108,327.741113 281.579537,304.129794 278.707194,284.195284 C276.461229,268.607936 261.411855,255.750576 258.650348,254.331203 C251.606501,250.71077 228.565074,242.780616 209.065363,253.08885 C189.565651,263.397085 185.509402,281.509592 185.108575,284.195284 C180.651498,314.059365 199.928567,330.591268 225.668082,327.924832 C251.407598,325.258396 253.815308,305.965631 253.079002,299.613822 C251.851542,289.025035 241.496414,281.686062 238.036363,280.995561 C220.641347,277.524147 213.909814,285.268747 213.52244,289.528156 C211.934258,306.991146 224.123889,305.151885 225.668082,301.793761 C228.657534,295.292663 221.322324,301.213684 221.322324,298.06075 C221.322324,294.907817 222.664463,285.626573 232.01104,288.311372 C240.163567,290.653181 239.330099,295.062606 239.150632,299.613822 C238.98462,303.823839 235.680965,320.458811 215.193843,316.192514 Z M291.635951,157.039536 C298.912597,157.039536 304.811484,150.449205 304.811484,142.31962 C304.811484,134.190034 298.912597,127.599704 291.635951,127.599704 C284.359305,127.599704 278.460418,134.190034 278.460418,142.31962 C278.460418,150.449205 284.359305,157.039536 291.635951,157.039536 Z M294.709279,148.217919 C297.569396,147.815955 299.405699,144.058501 298.810777,139.825409 C298.215855,135.592317 295.414992,132.486573 292.554875,132.888537 C289.694757,133.2905 287.858454,137.047955 288.453376,141.281047 C289.048299,145.514139 291.849162,148.619882 294.709279,148.217919 Z M296.058374,142.714186 C296.843297,142.603873 297.282376,141.111096 297.039083,139.379977 C296.79579,137.648858 295.962256,136.334935 295.177332,136.445249 C294.392409,136.555563 293.95333,138.048339 294.196623,139.779458 C294.439916,141.510578 295.27345,142.8245 296.058374,142.714186 Z M338.540849,154.315345 C345.526429,154.315345 351.18936,147.988627 351.18936,140.184225 C351.18936,132.379823 345.526429,126.053106 338.540849,126.053106 C331.555268,126.053106 325.892337,132.379823 325.892337,140.184225 C325.892337,147.988627 331.555268,154.315345 338.540849,154.315345 Z M343.553464,147.474414 C346.005576,147.04204 347.45659,143.647098 346.794394,139.891598 C346.132198,136.136098 343.607553,133.442172 341.15544,133.874546 C338.703328,134.306919 337.252315,137.701861 337.914511,141.457361 C338.576706,145.212861 341.101352,147.906787 343.553464,147.474414 Z M344.379733,141.686197 C345.048073,141.568351 345.370448,140.228411 345.099776,138.693357 C344.829105,137.158304 344.067886,136.009431 343.399546,136.127277 C342.731206,136.245124 342.408831,137.585064 342.679503,139.120117 C342.950174,140.65517 343.711393,141.804044 344.379733,141.686197 Z" fill="#FFFFFF"></path>
            </g>
        </g>
    </g>
</svg>