<?xml version="1.0" encoding="UTF-8" standalone="no"?>
<svg width="500px" height="500px" viewBox="0 0 500 500" version="1.1" xmlns="http://www.w3.org/2000/svg" xmlns:xlink="http://www.w3.org/1999/xlink" xmlns:sketch="http://www.bohemiancoding.com/sketch/ns">
    <!-- Generator: Sketch 3.3 (11970) - http://www.bohemiancoding.com/sketch -->
    <title>Socks</title>
    <desc>Created with Sketch.</desc>
    <defs></defs>
    <g id="Page-1" stroke="none" stroke-width="1" fill="none" fill-rule="evenodd" sketch:type="MSPage">
        <g id="Row-2" sketch:type="MSLayerGroup" transform="translate(-1200.000000, 0.000000)">
            <g id="Socks" transform="translate(1200.000000, 0.000000)" sketch:type="MSShapeGroup">
                <path d="M250,500 C388.071187,500 500,388.071187 500,250 C500,111.928813 388.071187,0 250,0 C111.928813,0 0,111.928813 0,250 C0,388.071187 111.928813,500 250,500 Z" fill="#62BCD4"></path>
                <path d="M358.558648,216.532231 C360.381388,220.529894 362.245873,224.55014 364.15394,228.451844 C377.882459,256.52455 393.80531,272.377586 393.80531,304.364994 C393.80531,323.778222 362.347878,333.432626 333.404717,348.304736 C289.444116,370.893384 242.063158,383.902378 236.765605,323.778229 C236.245144,317.871308 240.162177,302.960455 253.238235,292.002767 C266.76628,280.666315 289.478019,273.375772 289.478019,273.375772 C289.478019,273.375772 283.680984,264.696916 277.517709,253.730691 C288.739782,249.096683 309.389806,240.489957 321.325104,235.026077 C331.938609,230.167303 350.149804,220.863226 358.558648,216.532231 L358.558648,216.532231 Z M355.710954,210.250385 C347.45954,192.003047 340.085164,175.841248 333.404717,175.841248 C316.683042,175.841248 270.062792,202.838134 264.21967,211.999532 C260.31195,218.126425 266.904107,233.884403 274.33093,247.898503 C283.566057,242.987228 304.484558,231.970708 316.932403,226.260433 C327.13442,221.580399 344.800407,214.531933 355.710954,210.250385 L355.710954,210.250385 Z M284.545679,228.02985 C284.545679,228.02985 281.110652,229.911844 280.441989,229.251198 C279.773325,228.590551 281.866669,225.38296 281.866669,225.38296 C281.866669,225.38296 278.872506,222.818088 279.314702,222.01557 C279.756899,221.213053 283.633685,222.176104 283.633685,222.176104 C283.633685,222.176104 285.217402,218.707359 286.160174,218.873595 C287.102945,219.039831 287.404772,222.841049 287.404772,222.841049 C287.404772,222.841049 291.377319,223.263149 291.518194,224.167375 C291.659069,225.071602 287.968415,226.458862 287.968415,226.458862 C287.968415,226.458862 288.840121,230.188213 287.984161,230.581086 C287.128202,230.97396 284.545679,228.02985 284.545679,228.02985 Z M306.883281,216.843938 C306.883281,216.843938 305.525532,220.517877 304.587463,220.457964 C303.649393,220.39805 303.12489,216.603893 303.12489,216.603893 C303.12489,216.603893 299.182459,216.632508 298.98969,215.736733 C298.796922,214.840958 302.354588,213.024382 302.354588,213.024382 C302.354588,213.024382 301.274133,209.367475 302.094712,208.874421 C302.915291,208.381367 305.636906,211.052166 305.636906,211.052166 C305.636906,211.052166 308.911947,208.764504 309.611493,209.35451 C310.311039,209.944516 308.435792,213.412782 308.435792,213.412782 C308.435792,213.412782 311.540351,215.655468 311.152098,216.513533 C310.763845,217.371598 306.883281,216.843938 306.883281,216.843938 Z M325.165483,206.876846 C325.165483,206.876846 322.025808,209.218588 321.271708,208.657431 C320.517608,208.096274 322.144169,204.628561 322.144169,204.628561 C322.144169,204.628561 318.822183,202.505357 319.148388,201.649108 C319.474592,200.792859 323.447681,201.206993 323.447681,201.206993 C323.447681,201.206993 324.533229,197.551595 325.489961,197.585005 C326.446693,197.618415 327.274609,201.340633 327.274609,201.340633 C327.274609,201.340633 331.267241,201.205753 331.532589,202.081574 C331.797938,202.957394 328.33627,204.844794 328.33627,204.844794 C328.33627,204.844794 329.718517,208.416533 328.925565,208.924709 C328.132613,209.432886 325.165483,206.876846 325.165483,206.876846 Z M343.274607,299.971019 C338.880633,315.349927 342.176113,336.221305 356.456529,328.531851 C368.274371,322.168399 379.524894,311.350758 379.524894,295.577045 C379.524894,286.454239 377.78196,275.181928 367.441465,278.001149 C363.789492,278.996818 347.668581,284.592111 343.274607,299.971019 Z M265.730887,356.728535 C283.534843,362.471411 293.842398,357.137996 293.842398,352.899951 C293.842398,344.706385 257.297434,326.099862 250.738082,333.75703 C247.571493,337.4536 247.926931,350.985659 265.730887,356.728535 Z M227.775601,173.723077 C229.641884,177.710161 231.530246,181.719333 233.433208,185.610595 C247.161727,213.683301 263.084578,229.536337 263.084578,261.523745 C263.084578,280.936974 232.725639,297.182339 203.782478,312.054449 C159.821877,334.643097 111.342426,341.06113 106.044872,280.93698 C105.524412,275.030059 109.441445,260.119206 122.517502,249.161519 C136.045548,237.825066 158.757286,230.534524 158.757286,230.534524 C158.757286,230.534524 152.817522,221.928919 146.460289,211.028449 C157.601579,206.429382 178.548685,197.703822 190.604372,192.184829 C201.191734,187.338023 219.339403,178.067785 227.775601,173.723077 L227.775601,173.723077 Z M224.847644,167.465094 C216.278334,149.194853 208.272766,133 201.585491,133 C184.863816,133 138.243566,159.996886 132.400444,169.158284 C128.472229,175.317309 135.441161,191.208705 143.196,205.2776 C152.205476,200.483146 173.574036,189.216523 186.21167,183.419184 C196.369367,178.759482 213.926323,171.751882 224.847644,167.465094 L224.847644,167.465094 Z M153.824947,185.188601 C153.824947,185.188601 150.38992,187.070596 149.721256,186.409949 C149.052593,185.749303 151.145937,182.541711 151.145937,182.541711 C151.145937,182.541711 148.151773,179.976839 148.59397,179.174322 C149.036167,178.371805 152.912953,179.334856 152.912953,179.334856 C152.912953,179.334856 154.49667,175.866111 155.439441,176.032347 C156.382213,176.198583 156.684039,179.9998 156.684039,179.9998 C156.684039,179.9998 160.656586,180.4219 160.797461,181.326127 C160.938337,182.230353 157.247682,183.617614 157.247682,183.617614 C157.247682,183.617614 158.119388,187.346964 157.263429,187.739838 C156.407469,188.132711 153.824947,185.188601 153.824947,185.188601 Z M176.162548,174.002689 C176.162548,174.002689 174.8048,177.676629 173.86673,177.616715 C172.92866,177.556802 172.404158,173.762645 172.404158,173.762645 C172.404158,173.762645 168.461726,173.791259 168.268958,172.895485 C168.076189,171.99971 171.633855,170.183133 171.633855,170.183133 C171.633855,170.183133 170.5534,166.526226 171.37398,166.033173 C172.194559,165.540119 174.916173,168.210918 174.916173,168.210918 C174.916173,168.210918 178.191215,165.923256 178.890761,166.513261 C179.590307,167.103267 177.715059,170.571533 177.715059,170.571533 C177.715059,170.571533 180.819618,172.814219 180.431365,173.672285 C180.043113,174.53035 176.162548,174.002689 176.162548,174.002689 Z M194.44475,164.035597 C194.44475,164.035597 191.305076,166.377339 190.550976,165.816182 C189.796875,165.255025 191.423436,161.787313 191.423436,161.787313 C191.423436,161.787313 188.101451,159.664109 188.427655,158.80786 C188.75386,157.95161 192.726948,158.365745 192.726948,158.365745 C192.726948,158.365745 193.812497,154.710347 194.769229,154.743756 C195.725961,154.777166 196.553877,158.499384 196.553877,158.499384 C196.553877,158.499384 200.546508,158.364505 200.811857,159.240325 C201.077205,160.116146 197.615537,162.003546 197.615537,162.003546 C197.615537,162.003546 198.997785,165.575284 198.204833,166.083461 C197.411881,166.591637 194.44475,164.035597 194.44475,164.035597 Z M210.356887,257.12977 C205.962913,272.508679 209.258394,293.380057 223.53881,285.690603 C235.356651,279.32715 246.607174,268.509509 246.607174,252.735797 C246.607174,243.61299 244.864241,232.340679 234.523745,235.1599 C230.871772,236.15557 214.750861,241.750862 210.356887,257.12977 Z M136.636531,315.75552 C156.193299,321.931341 167.51564,316.195849 167.51564,311.638305 C167.51564,302.827041 127.372798,282.817804 120.167673,291.052232 C116.689332,295.02748 117.079763,309.579698 136.636531,315.75552 Z" fill="#FFFFFF"></path>
            </g>
        </g>
    </g>
</svg>