<?xml version="1.0" encoding="UTF-8" standalone="no"?>
<svg width="500px" height="500px" viewBox="0 0 500 500" version="1.1" xmlns="http://www.w3.org/2000/svg" xmlns:xlink="http://www.w3.org/1999/xlink" xmlns:sketch="http://www.bohemiancoding.com/sketch/ns">
    <!-- Generator: Sketch 3.3 (11970) - http://www.bohemiancoding.com/sketch -->
    <title>Strawberry</title>
    <desc>Created with Sketch.</desc>
    <defs></defs>
    <g id="Page-1" stroke="none" stroke-width="1" fill="none" fill-rule="evenodd" sketch:type="MSPage">
        <g id="Row-5" sketch:type="MSLayerGroup">
            <g id="Strawberry" sketch:type="MSShapeGroup">
                <path d="M250,500 C388.071187,500 500,388.071187 500,250 C500,111.928813 388.071187,0 250,0 C111.928813,0 0,111.928813 0,250 C0,388.071187 111.928813,500 250,500 Z" fill="#FA8997"></path>
                <path d="M220.723323,150.930783 C227.098696,147.12366 234.20906,142.801349 241.000001,140 C253.125645,134.998019 264.215527,134.724293 266.266669,136.838235 C270.333336,141.029412 258.133336,153.602946 258.133336,157.794118 C258.133336,160.331665 282.533336,161.985296 278.466669,178.750002 C274.400003,195.514708 249.27948,191.535187 245.933336,191.323531 C233.535841,190.539344 259.889833,217.26422 237.800003,224.852939 C225.600003,229.044115 213.399999,212.27941 209.333332,212.27941 C205.266665,212.27941 192.424815,241.176642 180.866667,233.235292 C168.666667,224.852939 181.205254,206.189492 176.800001,199.70588 C174.038818,195.641996 148.333333,203.897058 152.4,191.323531 C153.993152,186.397744 155.276271,178.111469 172.000001,169.000002 C175.878234,166.887052 180.839844,165.373586 186.128113,163.994793 C180.512317,169.069379 177,174.885903 177,180.000001 C177,183.249639 196.93924,171.284789 198.516556,174.475218 C200.482224,178.451164 187,197.000001 194.516556,201.475218 C199.894029,204.676865 202.227072,186.000001 211.000001,186.000001 C214.215431,186.000001 222.000001,203.591187 226.285329,203.59119 C234.984723,203.591197 222.838678,181.794235 226.285329,177.000001 C227.480249,175.337887 231.56225,177.414153 236.000001,178.000001 C243.845026,179.035659 253.361299,179.486495 254.000001,175.475219 C254.655816,171.356461 247.015843,169.54131 240.000001,167.000001 C236.317949,165.666272 231.29469,163.88657 231.000001,162 C230.843331,160.997019 234.000001,161 243.000001,157 C252.000001,153 255.273266,148.777466 244.000001,148 C233.635094,147.285179 227.254287,150.420824 220.723323,150.930783 L220.723323,150.930783 Z M307.786755,390.087531 C373.163756,373.227868 380.791683,259.278493 364.991631,204.631241 C358.014066,180.498108 344.734675,157.807758 324.131005,145.622422 C305.585073,134.654064 279.184316,132.977674 279.184316,132.977674 C279.184316,132.977674 283.270379,116.118012 262.840066,116.118012 C256.922878,116.118012 234.237628,124.547843 234.237628,124.547843 C234.237628,124.547843 225.500614,105.411305 205.63519,107.68818 C168.860626,111.903096 186.416148,152.283349 181.118814,154.052252 C174.93757,156.116313 156.602438,162.482085 144.34425,179.341748 C132.086063,196.201411 144.631805,204.100207 144.34425,204.631242 C134.864587,222.137654 128,239.192405 128,263.64006 C128,332.311153 242.409753,406.947194 307.786755,390.087531 Z M197.48246,141.407506 C197.428239,157.305685 199.804571,171.116748 205.635189,175.126831 C209.740935,177.950611 217.893377,175.756446 217.893377,166.697 C217.893377,151.323512 209.740647,154.052253 213.82671,141.407506 C217.912774,128.762759 220.264703,120.332927 205.654585,120.332927 C201.568522,120.332927 197.522501,129.666993 197.48246,141.407506 Z M285.730557,365.312112 C287.86312,364.780404 288.656401,360.597276 287.502401,355.968834 C286.348401,351.340391 283.684115,348.019331 281.551552,348.551039 C279.418989,349.082747 278.625707,353.265875 279.779707,357.894317 C280.933708,362.52276 283.597994,365.84382 285.730557,365.312112 Z M285.62749,303.063523 C287.816975,302.871968 289.254876,298.864437 288.839131,294.112453 C288.423386,289.360469 286.31143,285.663511 284.121945,285.855066 C281.93246,286.046621 280.49456,290.054151 280.910305,294.806136 C281.326049,299.55812 283.438005,303.255078 285.62749,303.063523 Z M322.973381,315.64864 C324.859224,315.178446 325.542819,311.407438 324.500234,307.225857 C323.457648,303.044276 321.083689,300.035601 319.197846,300.505795 C317.312003,300.975988 316.628408,304.746996 317.670993,308.928578 C318.713578,313.110159 321.087538,316.118833 322.973381,315.64864 Z M328.477993,355.9909 C330.561677,355.47138 331.315115,351.297252 330.160844,346.667725 C329.006573,342.038199 326.381693,338.70638 324.298009,339.225901 C322.214326,339.745422 321.460888,343.919549 322.615159,348.549076 C323.769429,353.178603 326.39431,356.510421 328.477993,355.9909 Z M347.122547,280.835843 C349.263943,280.301934 350.040173,276.019911 348.856306,271.271679 C347.672438,266.523446 344.97678,263.107062 342.835384,263.640972 C340.693989,264.174882 339.917759,268.456905 341.101626,273.205137 C342.285493,277.95337 344.981152,281.369753 347.122547,280.835843 Z M249.105788,319.466274 C250.990474,318.996369 251.691549,315.299463 250.671683,311.209004 C249.651817,307.118545 247.297212,304.183506 245.412526,304.653411 C243.52784,305.123316 242.826765,308.820222 243.846631,312.910681 C244.866497,317.00114 247.221102,319.936179 249.105788,319.466274 Z M271.000874,260.110406 C273.02354,259.374216 273.342222,255.147963 271.71267,250.670806 C270.083118,246.193649 267.122411,243.160996 265.099745,243.897187 C263.077079,244.633377 262.758397,248.85963 264.387949,253.336786 C266.017501,257.813943 268.978208,260.846596 271.000874,260.110406 Z M340.631684,215.033081 C342.51125,214.311583 342.74029,210.354019 341.14326,206.193613 C339.54623,202.033207 336.727892,199.245421 334.848326,199.966919 C332.96876,200.688417 332.73972,204.645981 334.33675,208.806387 C335.93378,212.966793 338.752118,215.754579 340.631684,215.033081 Z M244.001396,364.927499 C246.259498,364.105618 246.615274,359.387435 244.796044,354.389144 C242.976815,349.390853 239.671486,346.005204 237.413385,346.827086 C235.155284,347.648967 234.799508,352.36715 236.618737,357.365441 C238.437966,362.363732 241.743295,365.749381 244.001396,364.927499 Z M316.425251,253.788895 C318.689572,253.224336 319.512128,248.703594 318.262481,243.691535 C317.012835,238.679476 314.164201,235.074064 311.89988,235.638623 C309.635558,236.203182 308.813002,240.723924 310.062649,245.735983 C311.312296,250.748042 314.160929,254.353454 316.425251,253.788895 Z M168.902181,294.879819 C171.135045,294.405209 172.093503,290.013832 171.042957,285.071404 C169.992412,280.128976 167.330683,276.507094 165.097819,276.981704 C162.864956,277.456314 161.906498,281.847691 162.957043,286.790118 C164.007589,291.732546 166.669317,295.354429 168.902181,294.879819 Z M221.938676,279.643624 C223.879261,278.611796 223.636989,274.361013 221.397545,270.149233 C219.158102,265.937453 215.76952,263.359592 213.828935,264.391419 C211.88835,265.423246 212.130622,269.67403 214.370065,273.88581 C216.609509,278.09759 219.998091,280.675451 221.938676,279.643624 Z M204.095821,324.811777 C206.187867,324.290171 206.966077,320.186519 205.834002,315.646013 C204.701927,311.105507 202.08826,307.847545 199.996214,308.369151 C197.904168,308.890756 197.125958,312.994409 198.258033,317.534914 C199.390108,322.07542 202.003775,325.333383 204.095821,324.811777 Z" fill="#FFFFFF"></path>
            </g>
        </g>
    </g>
</svg>