<?xml version="1.0" encoding="UTF-8" standalone="no"?>
<svg width="500px" height="500px" viewBox="0 0 500 500" version="1.1" xmlns="http://www.w3.org/2000/svg" xmlns:xlink="http://www.w3.org/1999/xlink" xmlns:sketch="http://www.bohemiancoding.com/sketch/ns">
    <!-- Generator: Sketch 3.3 (11970) - http://www.bohemiancoding.com/sketch -->
    <title>Submarine</title>
    <desc>Created with Sketch.</desc>
    <defs></defs>
    <g id="Page-1" stroke="none" stroke-width="1" fill="none" fill-rule="evenodd" sketch:type="MSPage">
        <g id="Row-5" sketch:type="MSLayerGroup" transform="translate(-1200.000000, 0.000000)">
            <g id="Submarine" transform="translate(1200.000000, 0.000000)" sketch:type="MSShapeGroup">
                <path d="M250,500 C388.071187,500 500,388.071187 500,250 C500,111.928813 388.071187,0 250,0 C111.928813,0 0,111.928813 0,250 C0,388.071187 111.928813,500 250,500 Z" fill="#62BCD4"></path>
                <path d="M168.01449,293.873821 C175.865115,293.873821 182.229304,287.242957 182.229304,279.063372 C182.229304,270.883787 175.865115,264.252923 168.01449,264.252923 C160.163865,264.252923 153.799676,270.883787 153.799676,279.063372 C153.799676,287.242957 160.163865,293.873821 168.01449,293.873821 Z M238.475684,354.931318 C300.57246,356.450999 354.758958,332.553042 374.2447,302.999551 C375.443836,301.180853 365.642271,341.574993 390.564929,338.712923 C406.575336,336.874319 404.413805,319.41788 400.150567,302.999555 C397.77742,293.860234 393.370847,284.680802 394.399184,279.563473 C395.638127,273.3981 401.854171,263.216458 403.984822,252.850818 C406.799591,239.156934 404.204498,225.448087 390.564929,223.276093 C366.600834,219.46 374.967435,258.918243 373.742119,257.29109 C356.522613,234.424533 314.296658,216.80428 267.559998,211.008367 C266.804506,210.914677 267.30989,185.999452 264.034509,181.299062 C260.759129,176.598671 245.816858,180.849319 244.863234,178.436991 C244.788959,178.249102 246.287116,152.725827 242.946106,149.81629 C237.047743,144.679668 180.63946,144.092149 171.053822,146.000196 C161.468184,147.908243 164.343876,166.98871 171.053822,166.98871 C177.763769,166.98871 224.733394,166.988712 224.733394,166.988712 L224.733394,178.436991 C224.733394,178.436991 204.945652,176.44561 202.686427,180.345038 C198.63488,187.33802 201.584223,209.868641 200.769299,209.919763 C142.531316,213.573147 100.216413,228.948551 95.3272855,271.931283 C89.5759028,322.494523 160.509621,353.023271 238.475684,354.931318 Z M212.108425,293.873821 C219.95905,293.873821 226.323239,287.242957 226.323239,279.063372 C226.323239,270.883787 219.95905,264.252923 212.108425,264.252923 C204.2578,264.252923 197.893611,270.883787 197.893611,279.063372 C197.893611,287.242957 204.2578,293.873821 212.108425,293.873821 Z M257.160922,293.873821 C265.011547,293.873821 271.375737,287.242957 271.375737,279.063372 C271.375737,270.883787 265.011547,264.252923 257.160922,264.252923 C249.310297,264.252923 242.946108,270.883787 242.946108,279.063372 C242.946108,287.242957 249.310297,293.873821 257.160922,293.873821 Z" fill="#FFFFFF"></path>
            </g>
        </g>
    </g>
</svg>