<?xml version="1.0" encoding="UTF-8" standalone="no"?>
<svg width="500px" height="500px" viewBox="0 0 500 500" version="1.1" xmlns="http://www.w3.org/2000/svg" xmlns:xlink="http://www.w3.org/1999/xlink" xmlns:sketch="http://www.bohemiancoding.com/sketch/ns">
    <!-- Generator: Sketch 3.3 (11970) - http://www.bohemiancoding.com/sketch -->
    <title>Tooth</title>
    <desc>Created with Sketch.</desc>
    <defs></defs>
    <g id="Page-1" stroke="none" stroke-width="1" fill="none" fill-rule="evenodd" sketch:type="MSPage">
        <g id="Row-1" sketch:type="MSLayerGroup" transform="translate(-1200.000000, 0.000000)">
            <g id="Tooth" transform="translate(1200.000000, 0.000000)" sketch:type="MSShapeGroup">
                <path d="M250,500 C388.071187,500 500,388.071187 500,250 C500,111.928813 388.071187,0 250,0 C111.928813,0 0,111.928813 0,250 C0,388.071187 111.928813,500 250,500 Z" fill="#62BCD4"></path>
                <path d="M141,208.643756 C141,258.643754 175.616108,363.312143 197,370.643764 C231.999996,382.643764 242.332667,293.643752 251.000003,293.643756 C266.000003,293.643764 268.000003,372.643779 303,370.643768 C326.50406,369.300672 346.143561,309.893335 354,260.643753 C355.876611,248.87986 361,228.643761 357,196.643761 C353,164.643761 340.54749,152.2088 336.000003,147.643758 C330.948962,142.573217 318.055994,132.38466 303,135.643758 C283.637311,139.835105 261.313323,158.643759 254,158.643759 C244.615137,158.643759 238,136.643758 211,129.643758 C184,122.643758 164.019465,139.977785 160,144.643758 C155.091562,150.341691 141,158.643758 141,208.643756 Z M187,200.643758 C192.51103,184.156796 196.983612,167.279825 185.999999,164.643758 C169.197258,160.6111 165.96905,177.684529 165,194.643758 C164.238323,207.97377 164.119819,221.123033 165,224.643757 C169.227869,241.555228 179.967274,221.68307 187,200.643758 Z" fill="#FFFFFF"></path>
            </g>
        </g>
    </g>
</svg>