<?xml version="1.0" encoding="UTF-8" standalone="no"?>
<svg width="500px" height="500px" viewBox="0 0 500 500" version="1.1" xmlns="http://www.w3.org/2000/svg" xmlns:xlink="http://www.w3.org/1999/xlink" xmlns:sketch="http://www.bohemiancoding.com/sketch/ns">
    <!-- Generator: Sketch 3.3 (11970) - http://www.bohemiancoding.com/sketch -->
    <title>Tower Toy </title>
    <desc>Created with Sketch.</desc>
    <defs></defs>
    <g id="Page-1" stroke="none" stroke-width="1" fill="none" fill-rule="evenodd" sketch:type="MSPage">
        <g id="Row-1" sketch:type="MSLayerGroup" transform="translate(-2400.000000, 0.000000)">
            <g id="Tower-Toy-" transform="translate(2400.000000, 0.000000)" sketch:type="MSShapeGroup">
                <path d="M250,500 C388.071187,500 500,388.071187 500,250 C500,111.928813 388.071187,0 250,0 C111.928813,0 0,111.928813 0,250 C0,388.071187 111.928813,500 250,500 Z" fill="#CAA4CC"></path>
                <path d="M277,120.765016 C267.097493,117.633971 239.630193,114.705286 225.97728,120.765016 C208.348543,128.589381 226.337241,145.473444 225.977276,145.779241 C225.444657,146.231712 184.671365,140.77687 172.909337,158.783982 C161.147308,176.791095 175.213085,200.998361 174.869675,201.800974 C174.570742,202.499635 157.226632,205.802555 152.325787,227.811248 C147.424942,249.819941 159.514098,255.716534 159.18697,256.822707 C159.005782,257.435391 138.603422,260.824288 134.682745,283.833376 C130.762068,306.842465 142.582146,312.609481 142.524097,312.844836 C142.112623,314.513131 119.035514,316.846416 119.000041,346.858271 C118.964568,376.870125 142.145648,379.779344 142.524097,379.87131 C163.107646,384.873286 316.913556,381.872101 346.399255,381.872101 C364.042297,381.872101 383.645662,371.868149 380.705155,342.85669 C377.764648,313.845231 354.240607,312.844836 354.240607,312.844836 C354.240607,312.844836 362.081959,296.838513 357.181114,277.831005 C352.280269,258.823498 335.617396,256.822707 335.617396,256.822707 C335.617396,256.822707 346.399255,243.81757 341.49841,222.809272 C336.597565,201.800974 320.093111,202.547683 319.934691,201.800974 C319.789664,201.117387 331.69672,175.7907 317.974353,156.783192 C304.251987,137.775684 269.849116,145.829431 269.827086,145.780031 C269.644358,145.370288 292.18237,125.565485 277,120.765016 Z M240.064607,197.894234 C273.123089,197.894234 307.404494,204.939099 307.404494,180.722373 C307.404494,156.505648 273.123089,162.669904 240.064607,162.669904 C207.006124,162.669904 187.689139,160.028079 187.689139,180.722373 C187.689139,201.416667 207.006124,197.894234 240.064607,197.894234 Z M298.598316,254.806991 C267.427389,254.806991 244.486791,254.80699 233.422743,254.80699 C191.688859,254.80699 172.970037,262.424936 172.970037,236.238246 C172.970037,220.22839 181.218181,216.498033 207.444423,216.016578 C224.11541,215.710536 255.931376,216.717259 272.150257,216.717259 C313.884141,216.717259 324.101801,213.860529 324.101801,236.238246 C324.101801,241.451809 329.769242,254.806991 298.598316,254.806991 Z M273.564296,310.051223 C265.897517,310.051223 210.338126,311.592695 185.67791,310.844547 C157.443759,309.987973 160.205861,306.019359 159.23221,291.40812 C158.312182,277.601578 165.191831,274.365095 190.386086,272.975372 C200.209928,272.433486 267.782376,272.765015 282.683505,272.765015 C332.543867,272.765015 339.792553,272.765015 339.792553,291.40812 C339.792553,310.051224 323.424658,310.051223 273.564296,310.051223 Z M280.665211,362.079844 C272.127457,362.079844 210.25631,363.581157 182.794601,362.8525 C151.352944,362.018242 154.42883,358.153018 153.344569,343.92243 C152.320023,330.475576 159.981226,327.323409 188.037643,325.969892 C198.977511,325.442123 274.226443,325.765015 290.820397,325.765015 C346.345084,325.765015 354.417248,325.765015 354.417248,343.92243 C354.417248,362.079844 336.189898,362.079844 280.665211,362.079844 Z M282.942205,180.489538 C286.674039,184.120091 282.942205,189.765016 290.093706,189.765016 C297.229516,189.765016 290.004891,175.912829 288.90653,174.642112 C285.938589,171.208437 274.693857,168.888358 273.473239,172.827364 C271.098886,180.489538 279.015953,176.669843 282.942205,180.489538 Z M299.730476,237.588732 C304.229948,241.259963 300.632155,247.894968 308.578383,247.199763 C316.507176,246.506084 307.133112,231.816854 305.789166,230.511699 C302.157615,226.984965 289.437748,225.500174 288.464401,229.995568 C286.571041,238.740033 294.996594,233.72624 299.730476,237.588732 Z M316.477896,289.492763 C321.117068,293.813562 317.526374,301.476925 325.630204,300.767931 C333.716254,300.060494 323.963743,282.879345 322.57548,281.346436 C318.824179,277.204276 305.819785,275.321464 304.88188,280.531775 C303.057461,290.666898 311.597035,284.946861 316.477896,289.492763 Z M331.466117,344.262803 C335.081876,348.722316 330.895956,355.142134 338.252687,355.527684 C345.593277,355.912388 339.012814,339.275481 337.961043,337.725825 C335.118998,333.538415 323.694184,330.21094 322.196407,334.765247 C319.282924,343.624308 327.661988,339.57096 331.466117,344.262803 Z" fill="#FFFFFF"></path>
            </g>
        </g>
    </g>
</svg>