<?xml version="1.0" encoding="UTF-8" standalone="no"?>
<svg width="500px" height="500px" viewBox="0 0 500 500" version="1.1" xmlns="http://www.w3.org/2000/svg" xmlns:xlink="http://www.w3.org/1999/xlink" xmlns:sketch="http://www.bohemiancoding.com/sketch/ns">
    <!-- Generator: Sketch 3.3 (11970) - http://www.bohemiancoding.com/sketch -->
    <title>Train</title>
    <desc>Created with Sketch.</desc>
    <defs></defs>
    <g id="Page-1" stroke="none" stroke-width="1" fill="none" fill-rule="evenodd" sketch:type="MSPage">
        <g id="Row-3" sketch:type="MSLayerGroup" transform="translate(-601.000000, 0.000000)">
            <g id="Train" transform="translate(601.000000, 0.000000)" sketch:type="MSShapeGroup">
                <path d="M250,500 C388.071187,500 500,388.071187 500,250 C500,111.928813 388.071187,0 250,0 C111.928813,0 0,111.928813 0,250 C0,388.071187 111.928813,500 250,500 Z" fill="#6DB67F"></path>
                <path d="M167.019694,165.389065 C165.386578,165.876889 163.582183,166.14758 161.685061,166.14758 C154.336129,166.14758 148.378643,162.085658 148.378643,157.075022 C148.378643,152.62373 153.080287,148.921161 159.282323,148.149987 C159.631688,143.351831 165.448122,139.534744 172.57213,139.534744 C179.921062,139.534744 185.878548,143.596667 185.878548,148.607302 C185.878548,148.901391 185.858026,149.192213 185.817903,149.479136 C190.203895,151.284005 193.136595,154.564585 193.136595,158.312189 C193.136595,164.006093 186.366724,168.621914 178.015665,168.621914 C173.683313,168.621914 169.776509,167.379652 167.019694,165.389065 L167.019694,165.389065 Z M197.671904,116.494718 C199.754373,115.757701 202.120109,115.341257 204.628501,115.341257 C212.97956,115.341257 219.749431,119.957078 219.749431,125.650981 C219.749431,131.344885 212.97956,135.960706 204.628501,135.960706 C198.902506,135.960706 193.919877,133.790666 191.353187,130.590977 C190.014322,130.899662 188.579938,131.067024 187.088223,131.067024 C179.739291,131.067024 173.781805,127.005101 173.781805,121.994466 C173.781805,116.98383 179.739291,112.921908 187.088223,112.921908 C191.404469,112.921908 195.240727,114.323093 197.671904,116.494718 L197.671904,116.494718 Z M183.25037,382.655104 C183.25037,392.332498 122.96174,383.703678 114.97938,379.655108 C112.198226,378.244535 122.198411,360.566585 132.344991,347.481011 C139.064847,338.814725 147.207107,331.632132 146.857274,331.289862 C123.70723,308.640256 131.606412,256.230715 159.765707,248.86813 C167.981113,246.720114 176.141099,245.588749 176.815881,245.550637 C180.33716,245.351752 176.541027,230.537982 178.476735,211.995011 C178.766143,209.22265 166.153626,216.5581 166.153626,200.590572 C166.153626,189.186133 168.207478,189.186133 188.745992,189.186133 C209.284507,189.186133 215.446058,186.905245 215.446058,198.309684 C215.446058,199.52761 215.35879,200.62654 215.197843,201.618519 C213.248884,213.630735 200.495953,208.75039 201.069101,210.785336 C201.430107,212.067078 200.499975,245.493997 201.069101,245.510442 C203.04904,245.567653 223.272751,245.428501 225.186769,245.510441 C239.277835,246.11369 239.95797,248.622083 240.936461,246.44878 C242.436031,243.118118 240.757181,210.045665 242.990304,196.269244 C243.235811,194.754679 232.721047,200.83102 232.721047,189.426581 C232.721047,178.022143 230.667195,173.460366 236.82875,171.179478 C242.990304,168.89859 370.887074,173.596953 379.102479,173.598827 C387.317885,173.600701 385.264034,181.1121 385.264034,191.84593 C385.264034,203.250369 372.562519,199.869656 372.859624,200.96948 C373.531227,203.455628 375.131292,236.463572 375.157957,268.539519 C375.178715,293.510364 373.851965,317.916373 372.940927,326.917534 C370.859628,347.481011 361.725492,355.78896 359.333589,355.78896 C356.786739,355.78896 350.931012,357.051387 348.720039,355.78896 C346.509065,354.526534 354.881593,287.643214 305.589157,287.643214 C256.296722,287.643214 264.481482,355.842869 263.404425,355.78896 C256.069743,355.421846 253.662883,355.919327 247.027464,355.78896 C244.603734,355.741341 253.309039,315.218946 209.33398,315.218952 C165.358921,315.218957 183.25037,372.977709 183.25037,382.655104 Z M213.843021,386.193844 C236.279803,386.193847 241.313895,369.843345 241.313895,352.487599 C241.313895,335.131854 228.043269,321.062242 211.673123,321.062242 C195.302977,321.062242 184.202249,335.131854 184.202249,352.487599 C184.202249,369.843345 191.40624,386.193841 213.843021,386.193844 Z M307.556605,386.913153 C335.552757,386.913153 344.425328,363.72923 344.425328,339.119934 C344.425328,314.510639 326.614791,294.560863 304.64438,294.560863 C282.673969,294.560863 267.775658,314.510639 267.775658,339.119934 C267.775658,363.72923 279.560454,386.913153 307.556605,386.913153 Z M260.327939,246.857102 C267.69401,254.492508 340.221816,256.133753 351.599153,250.044363 C359.472037,245.83063 358.84997,223.025168 353.025973,209.185592 C349.683962,201.243965 263.554933,197.636989 261.754759,205.998331 C258.757994,219.91753 254.771989,241.098002 260.327939,246.857102 Z M153.097976,323.464697 C161.099553,324.164744 168.85686,310.207521 170.424408,292.290367 C171.991956,274.373212 166.776146,259.280988 158.77457,258.580941 C150.772993,257.880894 143.015686,271.838117 141.448138,289.755271 C139.88059,307.672426 145.0964,322.76465 153.097976,323.464697 Z M152.760751,303.413208 C156.093038,303.646224 159.209963,297.892146 159.722598,290.561116 C160.235234,283.230086 157.949455,277.098215 154.617169,276.865199 C151.284882,276.632183 148.167957,282.38626 147.655322,289.71729 C147.142686,297.04832 149.428465,303.180191 152.760751,303.413208 Z M322.075848,372.506174 C328.588078,369.188027 331.825547,362.491005 329.306938,357.547956 C326.788329,352.604907 325.623854,363.370409 319.111624,366.688556 C312.599394,370.006703 303.205459,364.62098 305.724068,369.564029 C308.242677,374.507077 315.563618,375.824321 322.075848,372.506174 Z M152.082207,339.129358 C155.42606,339.845898 146.754103,368.731612 142.109509,374.58784 C139.274621,378.162264 125.271717,375.973673 126.596423,371.263607 C129.996269,359.175266 148.738353,338.412818 152.082207,339.129358 Z M163.420609,344.739626 C166.286029,344.443248 166.857707,369.84216 164.661145,375.742846 C163.320445,379.344405 151.532433,381.236083 151.367649,377.117824 C150.944731,366.54835 160.555189,345.036003 163.420609,344.739626 Z" fill="#FFFFFF"></path>
            </g>
        </g>
    </g>
</svg>