<?xml version="1.0" encoding="UTF-8" standalone="no"?>
<svg width="500px" height="500px" viewBox="0 0 500 500" version="1.1" xmlns="http://www.w3.org/2000/svg" xmlns:xlink="http://www.w3.org/1999/xlink" xmlns:sketch="http://www.bohemiancoding.com/sketch/ns">
    <!-- Generator: Sketch 3.3 (11970) - http://www.bohemiancoding.com/sketch -->
    <title>Walruses </title>
    <desc>Created with Sketch.</desc>
    <defs></defs>
    <g id="Page-1" stroke="none" stroke-width="1" fill="none" fill-rule="evenodd" sketch:type="MSPage">
        <g id="Row-5" sketch:type="MSLayerGroup" transform="translate(-1200.000000, 0.000000)">
            <g id="Walruses-" transform="translate(1200.000000, 0.000000)" sketch:type="MSShapeGroup">
                <path d="M250,500 C388.071187,500 500,388.071187 500,250 C500,111.928813 388.071187,0 250,0 C111.928813,0 0,111.928813 0,250 C0,388.071187 111.928813,500 250,500 Z" fill="#62BCD4"></path>
                <path d="M264.791074,215.954531 C269.88768,213.6609 273.519417,209.582017 273.519417,202.863238 C273.519417,181.976573 259.334312,167.2 229.247573,167.2 C199.160833,167.2 182.180471,181.976573 182.180471,202.863239 C182.180471,210.896082 188.10058,215.210842 195.525349,217.102197 L195.525349,217.102197 C194.303152,222.858096 191.168492,238.899023 191.071021,252.432852 C190.882822,278.564384 202.509211,321.874344 206.767035,322.02303 C210.581938,322.15625 205.484389,288.220224 205.361639,258.455256 C205.28873,240.775785 208.463457,224.437644 209.852961,218.147144 C216.089013,217.661731 221.518833,216.081959 223.713592,214.12 C230.228316,208.296298 226.998446,197.56 227.849944,197.56 C229.222459,197.56 226.480582,211.514359 234.781553,215.57718 C237.909508,217.108123 244.18058,218.441845 250.78186,218.468891 C252.053817,226.120439 253.956814,240.595347 253.355108,256.003809 C252.193651,285.746361 245.914857,319.483812 249.732085,319.483812 C253.992505,319.483812 267.123307,276.60599 267.8472,250.483809 C268.203549,237.624686 265.896743,222.406206 264.791074,215.954531 L264.791074,215.954531 Z M111.597299,380.762675 C125.939109,382.813195 175.225877,394.606382 200.124018,380.762675 C201.197491,380.165809 214.980148,385.568671 229.165723,385.644864 C244.238836,385.725823 259.766864,380.507318 260.986136,380.762675 C299.716578,388.874138 319.081784,391.837641 341.213463,380.762675 C345.990762,378.372056 338.958961,372.304698 329.90528,366.174512 C328.919788,365.507242 344.169087,363.375639 351.002041,353.075261 C356.788212,344.352861 356.764439,329.598138 359.301415,324.52 C359.95409,323.213574 392.5,328.156582 392.5,311.544134 C392.5,294.931686 364.830097,297.505662 364.830097,297.505662 C364.830097,297.505662 356.32302,269.293776 341.213466,277.6 C326.103912,285.906224 345.861868,311.786176 345.469121,311.544141 C345.171346,311.360634 339.773683,322.062472 334.393204,324.52 C329.543125,326.735268 324.641856,320.72326 324.641856,320.72326 C324.641856,320.72326 330.384704,306.778667 330.385239,297.505672 C330.387477,258.697017 297.712183,189.715579 288.888351,167.374828 C275.670622,133.909324 261.223752,112 229.967606,112 C198.71146,112 185.015126,130.667082 169.930574,167.374828 C160.006517,191.524685 137.12154,245.884905 133.966594,289.199448 C131.591893,321.801942 147.798894,348.294153 147.798894,350.111759 C147.798894,352.796521 92.2320805,377.993934 111.597299,380.762675 Z M228.570813,185.811042 C235.109921,185.811042 241.729005,179.230058 241.729005,174.551383 C241.729005,169.872708 234.605386,170.748449 228.570814,170.748449 C222.536241,170.748449 215.412621,169.872709 215.412621,174.551383 C215.412621,179.230058 222.031705,185.811042 228.570813,185.811042 Z M256.917476,161.68 C261.501975,161.68 265.218447,157.972918 265.218447,153.4 C265.218447,148.827082 261.501975,145.12 256.917476,145.12 C252.332976,145.12 248.616505,148.827082 248.616505,153.4 C248.616505,157.972918 252.332976,161.68 256.917476,161.68 Z M256.917476,156.16 C258.445642,156.16 259.684466,154.924306 259.684466,153.4 C259.684466,151.875694 258.445642,150.64 256.917476,150.64 C255.389309,150.64 254.150485,151.875694 254.150485,153.4 C254.150485,154.924306 255.389309,156.16 256.917476,156.16 Z M198.81068,161.68 C203.395179,161.68 207.11165,157.972918 207.11165,153.4 C207.11165,148.827082 203.395179,145.12 198.81068,145.12 C194.22618,145.12 190.509709,148.827082 190.509709,153.4 C190.509709,157.972918 194.22618,161.68 198.81068,161.68 Z M198.81068,156.16 C200.338846,156.16 201.57767,154.924306 201.57767,153.4 C201.57767,151.875694 200.338846,150.64 198.81068,150.64 C197.282513,150.64 196.043689,151.875694 196.043689,153.4 C196.043689,154.924306 197.282513,156.16 198.81068,156.16 Z" fill="#FFFFFF"></path>
            </g>
        </g>
    </g>
</svg>