<?xml version="1.0" encoding="UTF-8" standalone="no"?>
<svg width="500px" height="500px" viewBox="0 0 500 500" version="1.1" xmlns="http://www.w3.org/2000/svg" xmlns:xlink="http://www.w3.org/1999/xlink" xmlns:sketch="http://www.bohemiancoding.com/sketch/ns">
    <!-- Generator: Sketch 3.3 (11970) - http://www.bohemiancoding.com/sketch -->
    <title>Watermelon</title>
    <desc>Created with Sketch.</desc>
    <defs></defs>
    <g id="Page-1" stroke="none" stroke-width="1" fill="none" fill-rule="evenodd" sketch:type="MSPage">
        <g id="Row-1" sketch:type="MSLayerGroup" transform="translate(-78.000000, -78.750000)">
            <g id="Watermelon" transform="translate(328.040453, 328.247433) rotate(23.000000) translate(-328.040453, -328.247433) translate(78.040453, 78.247433)" sketch:type="MSShapeGroup">
                <path d="M250.233542,499.906906 C388.029138,499.906906 499.73454,388.201504 499.73454,250.405908 C499.73454,112.610312 388.029138,0.904910185 250.233542,0.904910185 C112.437946,0.904910185 0.732543793,112.610312 0.732543793,250.405908 C0.732543793,388.201504 112.437946,499.906906 250.233542,499.906906 Z" fill="#FA8997"></path>
                <path d="M388.033666,306.291684 C377.409648,289.300698 361.297384,266.281988 345.325433,239.999684 C343.239435,236.567115 332.03059,243.862661 325.599535,239.999681 C319.16848,236.136701 320.996129,227.095143 320.996129,227.095143 C320.996129,227.095143 310.638466,227.095143 308.336763,220.388557 C306.03506,213.68197 312.940169,211.446441 312.940169,211.446441 C312.940169,211.446441 303.733358,210.328676 304.884209,200.268796 C306.03506,190.208916 319.286858,194.313881 318.020439,192.229951 C317.526992,191.41797 311.864963,175.407636 301.785057,160.350686 C291.741795,145.348473 277.283449,131.297974 275.197195,131.297974 C265.215968,131.297974 220.438158,174.775186 192.84526,204.18287 C168.149308,230.503074 139.000541,260.670256 120.068668,282.457133 C134.430099,292.541637 198.66708,334.860552 268.320517,337.123765 C335.691848,339.312826 377.199304,313.885585 388.033666,306.291684 L388.033666,306.291684 Z M396.221618,320.385244 C399.647013,327.066341 401.142417,331.912422 399.934639,334.543783 C395.653716,343.87054 361.127433,369.513842 275.197192,369.513842 C189.26695,369.513842 103.548171,319.19838 100.261156,311.503024 C99.3576065,309.387689 102.802188,303.677241 109.137056,295.586803 C124.196008,307.115513 191.358376,354.727827 273.469545,354.727826 C344.084698,354.727824 384.509766,329.104488 396.221618,320.385244 L396.221618,320.385244 Z M203.246402,281.947412 C204.906242,274.614101 208.038194,269.024149 210.241812,269.461906 C212.445431,269.899663 212.886251,276.199358 211.226411,283.532669 C209.566571,290.86598 201.586562,289.280723 203.246402,281.947412 Z M220.599073,235.664754 C214.103821,239.452131 207.879603,240.973904 206.696894,239.06373 C205.514185,237.153556 209.820852,232.534779 216.316104,228.747402 C222.811357,224.960026 227.094326,231.877378 220.599073,235.664754 Z M279.480054,282.165579 C284.040354,288.038413 286.250499,293.886485 284.41655,295.227614 C282.582601,296.568742 277.399037,292.895069 272.838737,287.022235 C268.278436,281.149401 274.919753,276.292745 279.480054,282.165579 Z M282.743645,230.511277 C284.189515,223.292798 283.534264,217.096361 281.280102,216.671149 C279.025939,216.245936 276.02647,221.752966 274.5806,228.971445 C273.13473,236.189924 281.297775,237.729755 282.743645,230.511277 Z M254.895358,261.471408 C256.341228,254.252929 255.685977,248.056493 253.431815,247.63128 C251.177652,247.206067 248.178183,252.713098 246.732313,259.931577 C245.286443,267.150056 253.449487,268.689887 254.895358,261.471408 Z M171.673795,285.163582 C175.911123,279.067184 177.802852,273.114876 175.899089,271.86873 C173.995326,270.622583 169.016988,274.55449 164.77966,280.650888 C160.542332,286.747286 167.436467,291.259981 171.673795,285.163582 Z M282.989857,313.212735 C287.418059,308.091408 292.433865,305.100969 294.192974,306.533404 C295.952082,307.965838 293.788354,313.278712 289.360153,318.40004 C284.931951,323.521368 278.561656,318.334063 282.989857,313.212735 Z M230.952826,307.750855 C233.996286,301.574858 238.091483,297.353806 240.099704,298.322873 C242.107925,299.291939 241.268697,305.084157 238.225237,311.260154 C235.181776,317.436151 227.909365,313.926852 230.952826,307.750855 Z M310.62511,256.787586 C309.785545,263.423173 307.257257,268.582217 304.978021,268.310635 C302.698784,268.039052 301.5317,262.439685 302.371265,255.804099 C303.210831,249.168513 311.464675,250.152 310.62511,256.787586 Z M329.486904,296.551865 C332.398346,290.492819 336.445685,286.344465 338.526887,287.286258 C340.60809,288.228052 339.935048,293.903354 337.023606,299.962401 C334.112163,306.021447 326.575462,302.610912 329.486904,296.551865 Z" fill="#FFFFFF" transform="translate(250.233542, 250.405908) rotate(-19.000000) translate(-250.233542, -250.405908) "></path>
            </g>
        </g>
    </g>
</svg>