<?xml version="1.0" encoding="UTF-8" standalone="no"?>
<svg width="500px" height="500px" viewBox="0 0 500 500" version="1.1" xmlns="http://www.w3.org/2000/svg" xmlns:xlink="http://www.w3.org/1999/xlink" xmlns:sketch="http://www.bohemiancoding.com/sketch/ns">
    <!-- Generator: Sketch 3.3 (11970) - http://www.bohemiancoding.com/sketch -->
    <title>Watering Can</title>
    <desc>Created with Sketch.</desc>
    <defs></defs>
    <g id="Page-1" stroke="none" stroke-width="1" fill="none" fill-rule="evenodd" sketch:type="MSPage">
        <g id="Row-3" sketch:type="MSLayerGroup" transform="translate(-2400.000000, 0.250000)">
            <g id="Watering-Can" transform="translate(2400.000000, 0.000000)" sketch:type="MSShapeGroup">
                <path d="M250,499.001996 C388.071187,499.001996 500,387.296594 500,249.500998 C500,111.705402 388.071187,0 250,0 C111.928813,0 0,111.705402 0,249.500998 C0,387.296594 111.928813,499.001996 250,499.001996 Z" fill="#CAA4CC"></path>
                <path d="M205.204277,198.778176 C205.093684,197.5944 204.982324,196.303688 204.87136,194.927087 C200.766627,197.032034 197.991686,201.055812 197.991686,205.673701 C197.991686,212.469822 204.001888,217.979168 211.415848,217.979168 C218.829808,217.979168 224.84001,212.469822 224.84001,205.673701 C224.84001,201.226133 222.26599,197.32966 218.409021,195.167761 L218.409021,195.167761 C218.411491,196.879995 218.399665,198.431249 218.368641,199.768198 C219.754575,201.357589 220.591194,203.419053 220.591194,205.671615 C220.591194,210.698963 216.42392,214.774434 211.283327,214.774434 C206.142733,214.774434 201.975459,210.698963 201.975459,205.671615 C201.975459,202.916587 203.226946,200.44742 205.204277,198.778176 L205.204277,198.778176 Z M165.72858,200.97023 C169.563944,189.882851 173.192459,181.829865 176.561108,176.978302 C179.296785,173.038354 189.921831,169.858896 203.282553,168.216846 L203.282553,168.216841 C202.994327,161.478863 202.813236,155.19696 202.813236,150.709283 C202.813236,126.243245 209.523145,117.894705 220.404207,117.894705 C229.611259,117.894705 236.521126,132.71986 239.641442,142.422297 C242.679205,151.868038 245.14413,162.447287 246.06719,168.623746 C259.261433,170.710911 270.259892,174.932513 274.478226,181.979639 C278.94136,189.435724 282.899522,201.390748 286.51302,215.414947 C287.059657,217.536477 287.598407,219.70536 288.129824,221.913184 C288.499944,223.450883 323.908097,202.169357 341.709823,191.358383 C347.697975,187.721783 338.164412,153.333608 347.255537,152.366292 C351.029482,151.964736 379.05156,158.928632 389.092409,180.256244 C399.133258,201.583856 389.879008,224.834007 386.944576,227.833223 C383.670347,231.179735 356.539346,210.541965 353.804279,212.553521 C332.086532,228.52624 297.90394,263.795204 299.102285,267.135926 C306.279085,287.143256 309.97519,347.281499 311.899805,347.595964 C321.78956,349.211862 325.287605,368.923563 310.226331,371.457864 C305.746018,372.211748 278.861279,381.029882 221.744917,381.106147 C171.61121,381.173088 154.968724,378.299263 139.951444,373.615728 C124.934164,368.932192 123.995567,347.595965 134.721564,347.595964 C135.410457,347.595964 137.451356,331.157561 140.016685,312.935432 C137.164316,314.67535 133.191136,315.438626 128.575666,314.78217 C125.682365,314.370658 120.187228,311.500713 121.864916,304.937797 C122.016045,304.3466 123.542604,300.01561 128.575666,300.01561 C131.44501,300.01561 131.931041,306.578526 133.608729,304.937797 C135.824926,302.770421 122.276135,281.362787 118.509539,273.763948 C107.434268,251.420374 99.4232061,233.363581 115.154164,217.979168 C134.600302,198.96142 154.826374,199.012479 165.72858,200.97023 L165.72858,200.97023 Z M159.629363,220.548838 C159.510564,220.966241 159.391608,221.386199 159.272499,221.808709 C154.992216,236.991903 150.512757,255.470088 145.896921,277.045408 C144.705637,282.613702 143.504958,289.619758 142.35261,297.041332 C134.427867,279.650079 120.036604,254.27736 125.220291,236.027187 C131.349403,214.448461 150.017778,217.395794 159.629363,220.548838 L159.629363,220.548838 Z M217.953424,167.095633 C221.823442,166.968096 225.759761,166.966846 229.667148,167.10624 C226.762653,158.254818 220.886806,140.741693 220.404207,142.422296 C218.963555,147.439218 217.879321,152.992399 217.879321,158.912927 C217.879321,161.382797 217.908613,164.160294 217.953424,167.095633 L217.953424,167.095633 Z M218.386781,191.574865 C219.616397,191.596915 220.861672,191.608179 222.120192,191.608179 C244.763941,191.608179 263.120326,187.961513 263.120326,183.463122 C263.120326,178.964731 244.763941,175.318064 222.120192,175.318064 C220.764864,175.318064 219.424896,175.331129 218.103305,175.356658 C218.215358,180.989921 218.337439,186.696053 218.386781,191.574865 L218.386781,191.574865 Z M204.559777,190.8254 C190.701929,189.51861 181.120057,186.713163 181.120057,183.463122 C181.120057,180.283733 190.289863,177.529817 203.662141,176.188181 C203.928446,181.281977 204.237617,186.341255 204.559777,190.8254 L204.559777,190.8254 Z M382.398509,180.256245 C391.179774,196.540155 386.630992,222.911463 384.071984,222.911463 C379.05156,222.911465 374.454246,202.134778 367.265452,189.078484 C359.115725,174.276942 347.255536,163.85039 350.602486,160.569219 C352.243431,158.960524 373.952128,164.59334 382.398509,180.256245 Z M367.27058,176.240607 C365.422111,176.240607 363.92363,174.77164 363.92363,172.959577 C363.92363,171.147514 365.422111,169.678546 367.27058,169.678546 C369.119049,169.678546 370.61753,171.147514 370.61753,172.959577 C370.61753,174.77164 369.119049,176.240607 367.27058,176.240607 Z M373.96448,182.802949 C372.11601,182.802949 370.61753,181.333982 370.61753,179.521919 C370.61753,177.709856 372.11601,176.240888 373.96448,176.240888 C375.812949,176.240888 377.311429,177.709856 377.311429,179.521919 C377.311429,181.333982 375.812949,182.802949 373.96448,182.802949 Z M372.291005,191.005876 C370.442535,191.005876 368.944055,189.536909 368.944055,187.724846 C368.944055,185.912783 370.442535,184.443815 372.291005,184.443815 C374.139474,184.443815 375.637954,185.912783 375.637954,187.724846 C375.637954,189.536909 374.139474,191.005876 372.291005,191.005876 Z M380.658379,195.927633 C378.80991,195.927633 377.311429,194.458665 377.311429,192.646602 C377.311429,190.834539 378.80991,189.365572 380.658379,189.365572 C382.506848,189.365572 384.005329,190.834539 384.005329,192.646602 C384.005329,194.458665 382.506848,195.927633 380.658379,195.927633 Z M380.658379,204.13056 C378.80991,204.13056 377.311429,202.661593 377.311429,200.84953 C377.311429,199.037466 378.80991,197.568499 380.658379,197.568499 C382.506848,197.568499 384.005329,199.037466 384.005329,200.84953 C384.005329,202.661593 382.506848,204.13056 380.658379,204.13056 Z M233.52997,330.501529 C223.924,335.075031 217.039455,329.835761 216.937841,329.929841 C216.822738,330.036408 227.41708,335.075031 223.63291,346.222943 C221.791478,351.647679 216.937841,357.942543 207.331871,357.942543 C201.561534,357.942543 191.904102,354.226572 189.866472,343.936192 C188.549032,337.282895 191.13557,332.534819 192.777372,329.929841 C193.674877,328.505806 193.941732,327.64309 193.941732,327.64309 C193.941732,327.64309 190.157562,337.075938 180.260502,337.075938 C176.730885,337.075938 170.363443,335.360875 164.832733,328.500621 C159.302023,321.640368 163.185849,305.349304 168.616903,302.774668 C177.058512,298.772853 187.828842,310.778298 187.828842,310.778298 C187.828842,310.778298 179.096142,303.060512 181.715952,291.912601 C184.335762,280.76469 194.024052,277.695926 196.852631,277.048718 C199.593011,276.42169 210.824951,275.04781 216.646751,283.05144 C222.46855,291.055069 214.318031,303.918044 214.318031,303.918044 C214.318031,303.918044 221.635567,293.321107 229.45471,293.055976 C237.354018,292.788128 245.173569,303.743488 245.173569,310.492453 C245.173569,313.281512 243.135939,325.928026 233.52997,330.501529 Z M204.484399,329.759029 C196.764791,330.706589 189.688484,324.044662 189.688484,316.216383 C189.688484,308.388104 195.847182,302.279777 203.841098,302.279777 C211.835014,302.279777 217.993712,308.388105 217.993712,316.216384 C217.993712,324.044663 212.204007,328.811469 204.484399,329.759029 Z M203.379391,326.435489 C197.447052,326.435489 193.614436,320.540772 193.614436,315.108346 C193.614436,309.675919 199.798908,306.612988 204.355887,306.612988 C208.912866,306.612988 214.446341,311.249133 214.446341,316.68156 C214.446341,322.113987 209.311731,326.435489 203.379391,326.435489 Z M203.237469,321.841558 C202.281708,322.643537 199.734957,322.204812 198.522823,320.760247 C197.310689,319.315681 196.562032,317.117416 197.962377,315.942387 C199.362723,314.767358 200.068411,316.130629 201.280545,317.575195 C202.492679,319.01976 204.19323,321.03958 203.237469,321.841558 Z M211.35723,211.416252 C214.604897,211.416252 217.237651,208.845224 217.237651,205.673701 C217.237651,202.502177 214.604897,199.93115 211.35723,199.93115 C208.109563,199.93115 205.476808,202.502177 205.476808,205.673701 C205.476808,208.845224 208.109563,211.416252 211.35723,211.416252 Z" fill="#FFFFFF" transform="translate(250.000000, 249.500998) scale(-1, 1) translate(-250.000000, -249.500998) "></path>
            </g>
        </g>
    </g>
</svg>