<?xml version="1.0" encoding="UTF-8" standalone="no"?>
<svg width="500px" height="500px" viewBox="0 0 500 500" version="1.1" xmlns="http://www.w3.org/2000/svg" xmlns:xlink="http://www.w3.org/1999/xlink" xmlns:sketch="http://www.bohemiancoding.com/sketch/ns">
    <!-- Generator: Sketch 3.3 (11970) - http://www.bohemiancoding.com/sketch -->
    <title>Whale</title>
    <desc>Created with Sketch.</desc>
    <defs></defs>
    <g id="Page-1" stroke="none" stroke-width="1" fill="none" fill-rule="evenodd" sketch:type="MSPage">
        <g id="Row-4" sketch:type="MSLayerGroup" transform="translate(-1200.000000, 0.000000)">
            <g id="Whale" transform="translate(1200.000000, 0.000000)" sketch:type="MSShapeGroup">
                <path d="M250,500 C388.071187,500 500,388.071187 500,250 C500,111.928813 388.071187,0 250,0 C111.928813,0 0,111.928813 0,250 C0,388.071187 111.928813,500 250,500 Z" fill="#62BCD4"></path>
                <path d="M130.016882,328.776819 C138.632199,336.086343 154.253545,343.419407 166.041192,348.745512 C194.634017,361.66483 224.946383,367.381126 254.100616,365.7189 C262.422156,365.244448 315.141807,365.718893 348.164091,317.794031 C356.220951,306.101202 361.333304,288.76001 362.173545,269.869173 C362.954982,252.300429 359.4467,229.149737 360.172195,220.945879 C360.897689,212.742022 365.175571,200.977187 370.178947,200.977187 C375.182324,200.977187 387.146544,217.709568 390.192453,213.956837 C394.564031,208.570807 399.19853,182.006928 388.191102,168.028843 C383.406309,161.952742 369.178272,154.050758 359.171519,161.0398 C349.164767,168.028843 345.162066,187.997538 345.162066,187.997538 C345.162066,187.997538 335.155313,164.035104 320.145184,161.039801 C305.135055,158.044497 293.826821,169.82763 291.125601,177.014755 C285.121549,192.989709 292.558419,214.9678 298.130328,217.950575 C302.075091,220.062301 308.660604,213.873534 315.141807,209.963098 C321.925293,205.870281 328.576805,204.078695 331.152612,207.966229 C336.946136,216.710101 338.394278,228.472878 338.157339,238.917699 C337.892354,250.598805 335.447181,260.659607 333.153962,263.571714 C320.5324,279.599557 298.130328,274.86135 288.123575,260.883265 C278.116822,246.90518 264.814416,226.639368 261.105343,220.945879 C248.096564,200.977186 224.021609,177.014756 192,177.014756 C182.072676,177.014756 155,184 133,207.966229 C111,231.932457 105,254.326207 105,268.870741 C105,285.431899 109.319964,311.216859 130.016882,328.776819 Z M186.054697,153.052324 C190.426749,155.811957 191.121189,171.024147 196.06145,171.024147 C204.300901,171.024147 200.360861,159.760703 206.068203,153.052324 C209.9313,148.51166 223.465494,152.047813 224.080358,148.06015 C224.922605,142.597803 216.074957,134.082066 208.069555,135.0805 C200.064153,136.078935 198.292756,143.067977 197.062125,143.067977 C195.661896,143.067978 193.059425,135.075783 183.052672,135.0805 C173.045918,135.085218 165.501946,143.295451 166.041192,147.061716 C167.041867,154.050758 178.199417,148.094082 186.054697,153.052324 Z M210,141 C210,139.72553 207.309538,139.19546 205,140 C202.812873,140.761898 201,141.793079 201,143 C201,145.481391 210,143.481391 210,141 Z M195,189 C198.313708,189 201,187.880712 201,186.5 C201,185.119288 198.313708,184 195,184 C191.686292,184 189,185.119288 189,186.5 C189,187.880712 191.686292,189 195,189 Z M203,260 C210.731986,260 217,251.93572 217,241.987927 C217,232.040133 210.731986,223.975853 203,223.975853 C195.268014,223.975853 189,232.040133 189,241.987927 C189,251.93572 195.268014,260 203,260 Z M207.5,249 C210.537566,249 213,244.746705 213,239.5 C213,234.253295 210.537566,230 207.5,230 C204.462434,230 202,234.253295 202,239.5 C202,244.746705 204.462434,249 207.5,249 Z M205.000002,341.000002 C224.000004,331.000002 228.505108,315.484668 228.999998,313.999999 C230.418216,309.745355 230.475113,306.592354 231.000002,303 C231.215324,301.526331 231.489567,299.39455 232.000003,298 C232.007906,297.97841 233.548783,297.447427 235.000002,297 C236.600576,296.506525 237.120596,296.04894 237.000002,295 C236.770068,293 233.536662,293.907892 233.000002,294 C231.028563,294.338364 228.999998,295 228.999998,295 C228.999998,295 227.661681,294.276409 225.999998,294 C224.857866,293.810015 220.999998,294 220.999998,296 C220.999998,297.028706 223.201246,296.757377 224.999998,297 C226.698362,297.229082 227.999998,298 227.999998,298 C227.999998,298 229.67959,304.81205 224.999999,312 C220.399121,319.067044 209.459122,326.498978 206.999999,328.000002 C203.778229,329.966536 195.585105,333.619588 187,335.000002 C176.059472,336.759147 166,335.141127 166,337.000002 C166,341.000002 186,351.000002 205.000002,341.000002 Z" fill="#FFFFFF"></path>
            </g>
        </g>
    </g>
</svg>