<?xml version="1.0" encoding="UTF-8" standalone="no"?>
<svg width="500px" height="500px" viewBox="0 0 500 500" version="1.1" xmlns="http://www.w3.org/2000/svg" xmlns:xlink="http://www.w3.org/1999/xlink" xmlns:sketch="http://www.bohemiancoding.com/sketch/ns">
    <!-- Generator: Sketch 3.3 (11970) - http://www.bohemiancoding.com/sketch -->
    <title>Whipping-top</title>
    <desc>Created with Sketch.</desc>
    <defs></defs>
    <g id="Page-1" stroke="none" stroke-width="1" fill="none" fill-rule="evenodd" sketch:type="MSPage">
        <g id="Row-1" sketch:type="MSLayerGroup" transform="translate(-1200.000000, 0.000000)">
            <g id="Whipping-top" transform="translate(1200.000000, 0.000000)" sketch:type="MSShapeGroup">
                <path d="M250,500 C388.071187,500 500,388.071187 500,250 C500,111.928813 388.071187,0 250,0 C111.928813,0 0,111.928813 0,250 C0,388.071187 111.928813,500 250,500 Z" fill="#62BCD4"></path>
                <path d="M227.554027,133.01692 C229.422407,132.074776 231.320183,131.137433 233.234339,130.216784 C230.868993,131.229485 228.475211,132.311439 226.06364,133.31983 C225.128457,133.710873 222.458667,117.737286 218.445691,115.232867 C217.84735,114.859455 210.593123,110.401099 196.096074,115.232867 C190.775475,117.006187 175.195652,128.089087 177.608696,135.331849 C180.021739,142.57461 186.834527,153.549162 186.431375,153.885385 C183.563045,156.277533 180.810501,158.77021 178.178079,161.34328 L178.178071,161.343285 C178.950487,160.825283 179.726498,160.311077 180.504765,159.801046 C162.626685,173.649273 149.806512,188.91621 157.074707,196.139126 C167.543659,206.542858 202.340908,192.242561 230.310117,176.738976 C258.279326,161.23539 277.346628,135.763142 272.89165,127.72615 C269.556157,121.70876 249.275032,124.651212 227.554027,133.01692 L227.554027,133.01692 Z M145.216815,273.109277 C137.390695,254.812541 138.099207,237.323651 141.128096,223.947664 C142.659336,217.185501 145.181176,209.970211 148.621817,202.635412 L148.621821,202.635404 C159.857104,219.156139 209.474072,203.090267 233.37187,189.843501 C256.791312,176.861892 291.334144,147.331581 287.364784,127.149006 C319.166797,131.688115 341.765948,146.009336 352.973591,172.205908 C346.752462,185.293276 319.305471,237.181181 265.098111,261.19997 C214.091294,283.800627 157.722439,271.609512 145.216815,273.109277 L145.216815,273.109277 Z M152.260276,286.1471 C166.376379,307.549596 193.885649,328.990017 244.419565,345.345851 C248.177196,346.562048 286.098584,356.217325 286.098584,356.217325 C286.098584,356.217325 286.102146,356.219737 286.109211,356.224517 L286.109211,356.224518 C292.92962,355.700484 301.96816,354.118381 311.654529,349.360164 C322.00557,344.275442 329.9219,341.327956 334.404025,336.592689 C334.409822,336.490443 334.415836,336.388307 334.42207,336.286285 C335.53915,318.005381 361.000007,287.364627 361,217.30398 C360.999999,207.166962 360.108481,197.952964 358.367529,189.621738 C345.078629,214.305692 307.796116,255.762454 271.904938,273.479819 C230.093286,294.119775 167.089309,287.967267 152.260276,286.1471 L152.260276,286.1471 Z M297.773018,363.991429 C311.635343,373.110641 333.348269,386.999997 337,387 C341.539291,387.000004 335.73861,367.388949 334.503987,347.76872 C328.049931,351.134118 308.945401,361.188319 297.773018,363.991429 L297.773018,363.991429 Z M215.614131,119.639198 C213.804348,115.414254 200.772903,118.933823 195.103261,121.449889 C189.476959,123.946721 180.021739,131.106903 183.641304,134.124721 C187.260869,137.142539 217.423915,123.864143 215.614131,119.639198 Z" fill="#FFFFFF" transform="translate(250.000000, 250.000000) rotate(7.000000) translate(-250.000000, -250.000000) "></path>
            </g>
        </g>
    </g>
</svg>