<?xml version="1.0" encoding="UTF-8" standalone="no"?>
<svg width="500px" height="500px" viewBox="0 0 500 500" version="1.1" xmlns="http://www.w3.org/2000/svg" xmlns:xlink="http://www.w3.org/1999/xlink" xmlns:sketch="http://www.bohemiancoding.com/sketch/ns">
    <!-- Generator: Sketch 3.3 (11970) - http://www.bohemiancoding.com/sketch -->
    <title> Winter Cap</title>
    <desc>Created with Sketch.</desc>
    <defs></defs>
    <g id="Page-1" stroke="none" stroke-width="1" fill="none" fill-rule="evenodd" sketch:type="MSPage">
        <g id="Row-2" sketch:type="MSLayerGroup" transform="translate(-600.000000, 0.000000)">
            <g id="-Winter-Cap" transform="translate(600.000000, 0.000000)" sketch:type="MSShapeGroup">
                <ellipse fill="#6DB67F" cx="250" cy="250" rx="250" ry="250"></ellipse>
                <path d="M372.782164,310.475177 C379.522138,313.91538 383.261982,329.728762 382.369555,336.276052 C381.632951,341.680152 372.377362,386.258549 332.408649,375.2624 C314.980072,370.467468 278.39987,359.615192 239.4814,349.271501 C189.148688,335.89415 135.070495,323.511781 126.569786,316.283054 C115.110753,306.538664 114.583269,283.403161 124.57135,266.300557 C128.264533,259.976716 134.938727,254.405544 140.558835,250.306158 C140.721083,250.187812 140.882447,250.070691 141.042839,249.954815 L372.782164,310.475177 L372.782164,310.475177 Z M370.519006,297.498484 C370.973409,294.922225 372.377368,286.874927 372.377368,285.793731 C372.377368,253.759656 363.384408,223.31561 336.405527,203.322612 C335.215255,202.440548 334.021138,201.57405 332.82317,200.723462 C331.912944,200.077178 336.317469,195.36366 332.823175,191.326816 C329.093984,187.018603 317.452885,183.36212 316.421174,182.329963 C315.409811,181.318163 338.403966,191.326816 339.403184,178.331363 C339.851087,172.506096 336.40553,169.334514 327.41257,168.334864 C318.41961,167.335214 308.511105,168.832099 308.427432,167.335214 C308.355303,166.044869 343.530637,157.523659 332.823175,148.341865 C325.504453,142.065962 317.73576,143.728545 311.425085,148.341865 C305.673499,152.546473 301.066249,159.551085 300.433689,158.338365 C300.063594,157.628834 305.543816,123.839033 290.441511,125.349917 C280.449333,126.349567 286.098969,144.088492 283.446986,141.344316 C279.300222,137.053395 279.450115,134.346766 273.454808,128.348867 C267.459501,122.350968 263.155811,122.001036 259.465759,124.350267 C248.474363,131.347817 265.274782,147.996517 262.463412,146.342566 C254.141512,141.446727 245.863028,137.471648 241.479838,142.343966 C232.486878,152.340466 255.385445,163.029413 252.471234,162.336963 C244.555727,160.456148 231.48766,153.340116 227.490789,162.336963 C223.493917,171.33381 238.290146,171.660172 233.021511,172.302456 C192.031489,177.299428 164.173251,201.418929 151.657337,239.748414 C172.177879,244.595821 239.418847,260.576134 275.45324,270.299157 C302.97653,277.725661 348.427869,291.002581 370.519006,297.498484 L370.519006,297.498484 Z M259.5,183 C264.042468,184.259215 275.1951,179.796733 275.5,180 C276.215848,180.477232 273.281902,181.683021 270.5,184 C267.900015,186.165465 266.112143,189.448573 266.5,191 C267.5,195 274.458414,194.928934 278.5,193 C282.130889,191.26708 281.5,181 281.5,181 C281.5,181 283.386882,182.570649 284.5,185 C286.059396,188.403339 287.415543,193 291.5,193 C295.19534,193 299.423945,189.239707 297.5,186 C295.779459,183.102802 289.027017,181.736521 289.5,181 C291.405422,178.032907 305.5,182.000001 306.5,175 C307.5,168 293.5,172 293.5,172 C293.5,172 306.5,167 305.5,163 C304.919965,160.67986 300.905502,159.900139 296.5,161 C292.200199,162.073472 288.5,166 288.5,166 C288.5,166 296.5,144 286.5,143 C276.5,142 281.305713,159.782084 280.5,160 C279.649505,160.230028 277.834576,150.405261 276.5,148 C273.914726,143.340648 269.5,143 266.5,145 C265.456968,145.695355 264.366787,148.338536 265.5,151 C267.626168,155.99352 273.5,162 273.5,162 C274.404895,162 271.403692,160.381128 267.5,158 C263.680789,155.670402 258.983591,152.538287 257.5,156 C254.5,163 269.699662,170.855627 269.5,172 C269.445582,172.311901 257.884927,168.820097 255.5,172 C254.153506,173.795325 253.609972,181.367228 259.5,183 Z" fill="#FFFFFF"></path>
            </g>
        </g>
    </g>
</svg>